<?xml version="1.0" encoding="utf-8"?>
<!-- Generator: Adobe Illustrator 26.0.1, SVG Export Plug-In . SVG Version: 6.00 Build 0)  -->
<svg version="1.1" id="Layer_1" xmlns="http://www.w3.org/2000/svg" xmlns:xlink="http://www.w3.org/1999/xlink" x="0px" y="0px"
	 viewBox="0 0 600 187" enable-background="new 0 0 600 187" xml:space="preserve">
<g id="header">
	<g id="logo_00000016760741385022488960000015750255745248007573_">
		<g id="book_00000110450787813734892650000001464546029735584156_">
			<path fill="#008A46" d="M93.11,93.053c-36.476-36.113-54.424,0.339-54.424,0.339l1.873,16.894
				c14.497-34.268,49.811-4.744,52.498-0.478v0.191c0.014-0.029,0.036-0.064,0.054-0.097c0.018,0.032,0.04,0.068,0.054,0.097v-0.191
				c2.686-4.266,38.001-33.79,52.321,0.191l1.873-16.894C147.357,93.104,129.586,56.94,93.11,93.053z"/>
			<path fill="#CCCCCC" d="M93.047,89.645C56.282,56.24,38.37,89.693,38.37,89.693l1.887,15.628
				c14.434-31.433,50.027-4.123,52.735-0.177v0.177c0.014-0.027,0.036-0.059,0.054-0.089c0.018,0.03,0.04,0.063,0.054,0.089v-0.177
				c2.708-3.946,38.302-31.257,52.735,0.177l1.887-15.628C147.724,89.693,129.812,56.24,93.047,89.645z"/>
			<path d="M92.841,89.462c-0.03,0.041-0.058,0.085-0.058,0.14l-0.039,15.224c0.099,0.117,0.186,0.226,0.249,0.318v0.177
				c0.014-0.027,0.036-0.059,0.054-0.089c0.018,0.03,0.04,0.063,0.054,0.089v-0.177c0.04-0.058,0.088-0.122,0.142-0.19l0.04-15.35
				c0-0.048-0.027-0.085-0.051-0.123c-0.062,0.056-0.123,0.108-0.185,0.164C92.978,89.582,92.91,89.525,92.841,89.462z"/>
		</g>
		<g>
			<path fill="#FFFFFF" d="M76.729,83.427c-0.042-0.216-0.059-0.401-0.067-0.575c-0.065-0.094-0.125-0.159-0.169-0.171
				c-0.039,0.012-0.093,0.073-0.152,0.158c-0.007,0.177-0.024,0.367-0.067,0.588c-0.094,0.484-0.279,1.026-0.524,1.583
				c-0.026,0.284-0.045,0.584-0.045,0.919c0,1.151,0.449,2.187,0.796,2.814c0.347-0.628,0.796-1.663,0.796-2.814
				c0-0.335-0.019-0.636-0.045-0.92C77.008,84.453,76.822,83.911,76.729,83.427z"/>
			<path fill="#FFFFFF" d="M74.354,74.944L74.354,74.944c-0.576-0.997-1.482-1.669-2.096-2.039c0.013,0.717,0.142,1.838,0.718,2.835
				c0.168,0.292,0.336,0.543,0.501,0.776c0.489,0.358,0.919,0.734,1.242,1.105c0.141,0.163,0.248,0.312,0.34,0.457
				c0.106,0.052,0.192,0.08,0.237,0.072c0.028-0.03,0.045-0.112,0.053-0.218c-0.295-0.564-0.482-1.337-0.573-2.166
				C74.657,75.506,74.523,75.236,74.354,74.944z"/>
			<path fill="#FFFFFF" d="M76.536,79.109c-0.651,0-1.181,0.53-1.181,1.182s0.53,1.181,1.181,1.181s1.181-0.529,1.181-1.181
				S77.188,79.109,76.536,79.109z"/>
			<path fill="#FFFFFF" d="M79.525,83.993c-0.667-0.49-1.239-1.033-1.58-1.567c-0.086-0.042-0.162-0.069-0.209-0.069
				c-0.011,0-0.021,0.002-0.029,0.004c-0.028,0.03-0.045,0.112-0.053,0.219c0.295,0.564,0.482,1.337,0.573,2.166
				c0.12,0.26,0.254,0.531,0.422,0.823c0.578,1.002,1.483,1.672,2.096,2.04c-0.013-0.717-0.142-1.839-0.718-2.836
				C79.859,84.479,79.691,84.227,79.525,83.993z"/>
			<path fill="#FFFFFF" d="M71.75,81.006c0.758-0.334,1.516-0.558,2.15-0.587c0.097-0.066,0.163-0.127,0.176-0.172
				c-0.012-0.04-0.076-0.096-0.166-0.157c-0.177-0.007-0.359-0.02-0.58-0.062c-0.484-0.093-1.025-0.278-1.581-0.523
				c-0.284-0.026-0.585-0.045-0.921-0.045c-1.151,0-2.186,0.449-2.813,0.796c0.628,0.347,1.663,0.796,2.813,0.796
				C71.164,81.052,71.465,81.033,71.75,81.006z"/>
			<path fill="#FFFFFF" d="M75.258,82.349c-0.042,0-0.112,0.026-0.192,0.064c-0.341,0.538-0.917,1.086-1.589,1.579
				c-0.166,0.234-0.333,0.486-0.502,0.778l0,0c-0.575,0.996-0.704,2.117-0.717,2.834c0.614-0.37,1.52-1.042,2.096-2.038
				c0.168-0.292,0.302-0.562,0.422-0.823c0.09-0.823,0.275-1.59,0.567-2.153c-0.009-0.118-0.029-0.207-0.061-0.24
				C75.275,82.35,75.267,82.349,75.258,82.349z"/>
			<path fill="#FFFFFF" d="M73.869,82.038c0.166-0.144,0.319-0.252,0.465-0.346c0.048-0.103,0.074-0.187,0.063-0.231
				c-0.03-0.028-0.112-0.044-0.218-0.053c-0.564,0.295-1.338,0.482-2.167,0.573c-0.26,0.119-0.53,0.253-0.821,0.421
				c-0.997,0.576-1.668,1.482-2.039,2.097c0.717-0.014,1.838-0.143,2.834-0.717c0.291-0.168,0.542-0.335,0.775-0.5
				C73.12,82.792,73.496,82.361,73.869,82.038z"/>
			<path fill="#FFFFFF" d="M72.013,78.531c0.822,0.09,1.589,0.275,2.152,0.566c0.118-0.009,0.207-0.029,0.241-0.062
				c0.009-0.039-0.016-0.116-0.06-0.208c-0.15-0.094-0.307-0.207-0.477-0.354c-0.373-0.323-0.749-0.754-1.109-1.245
				c-0.233-0.164-0.483-0.331-0.773-0.498l0,0c-1.002-0.578-2.12-0.707-2.835-0.719c0.37,0.614,1.042,1.521,2.04,2.098
				C71.482,78.277,71.753,78.411,72.013,78.531z"/>
			<path fill="#FFFFFF" d="M90.902,88.599c0.052-0.108,0.079-0.196,0.068-0.242c-0.03-0.027-0.112-0.044-0.219-0.052
				c-0.564,0.295-1.337,0.481-2.165,0.572c-0.26,0.12-0.531,0.254-0.823,0.422c-0.996,0.576-1.668,1.482-2.039,2.097
				c0.717-0.014,1.838-0.143,2.834-0.718c0.292-0.168,0.544-0.336,0.778-0.501C89.825,89.512,90.368,88.941,90.902,88.599z"/>
			<path fill="#FFFFFF" d="M91.831,89.246c-0.041,0-0.108,0.025-0.186,0.062c-0.094,0.15-0.205,0.307-0.353,0.478
				c-0.323,0.373-0.754,0.749-1.243,1.107c-0.165,0.233-0.332,0.484-0.5,0.775l0,0c-0.575,0.996-0.704,2.117-0.717,2.835
				c0.614-0.371,1.52-1.043,2.096-2.039c0.168-0.292,0.303-0.562,0.422-0.822c0.09-0.822,0.275-1.589,0.567-2.152
				c-0.009-0.119-0.029-0.208-0.062-0.241C91.847,89.247,91.839,89.246,91.831,89.246z"/>
			<path fill="#FFFFFF" d="M90.927,81.841c-0.576-0.996-1.482-1.668-2.096-2.038c0.013,0.717,0.142,1.838,0.717,2.834
				c0.169,0.293,0.337,0.545,0.503,0.779c0.663,0.487,1.231,1.027,1.573,1.559c0.109,0.054,0.198,0.083,0.244,0.073
				c0.028-0.03,0.045-0.112,0.053-0.219c-0.295-0.564-0.481-1.337-0.573-2.165C91.23,82.404,91.095,82.133,90.927,81.841z"/>
			<path fill="#FFFFFF" d="M88.327,87.902c0.756-0.332,1.512-0.555,2.144-0.584c0.098-0.067,0.165-0.129,0.178-0.174
				c-0.012-0.04-0.076-0.096-0.167-0.158c-0.176-0.007-0.359-0.018-0.58-0.061c-0.484-0.093-1.025-0.278-1.581-0.523
				c-0.284-0.026-0.585-0.045-0.921-0.045c-1.151,0-2.186,0.449-2.813,0.796c0.628,0.347,1.663,0.796,2.813,0.796
				C87.739,87.948,88.041,87.929,88.327,87.902z"/>
			<path fill="#FFFFFF" d="M92.847,83.981c0.042,0.216,0.059,0.401,0.067,0.575c0.065,0.094,0.125,0.159,0.169,0.171
				c0.039-0.012,0.093-0.073,0.152-0.158c0.007-0.177,0.024-0.367,0.067-0.588c0.094-0.484,0.279-1.025,0.523-1.581
				c0.026-0.285,0.045-0.586,0.045-0.922c0-1.15-0.449-2.186-0.796-2.813c-0.347,0.628-0.796,1.663-0.796,2.813
				c0,0.336,0.019,0.637,0.045,0.922C92.568,82.956,92.753,83.497,92.847,83.981z"/>
			<path fill="#FFFFFF" d="M94.519,84.981c0.341-0.533,0.912-1.076,1.577-1.564c0.167-0.234,0.335-0.486,0.504-0.78
				c0.575-0.996,0.704-2.117,0.718-2.834c-0.614,0.37-1.521,1.042-2.096,2.038c-0.169,0.292-0.303,0.563-0.423,0.824
				c-0.09,0.822-0.275,1.588-0.567,2.151c0.009,0.118,0.029,0.207,0.062,0.241C94.335,85.062,94.417,85.033,94.519,84.981z"/>
			<path fill="#FFFFFF" d="M88.584,85.427c0.824,0.09,1.592,0.276,2.156,0.568c0.117-0.009,0.205-0.03,0.239-0.062
				c0.009-0.041-0.017-0.12-0.064-0.218c-0.541-0.343-1.094-0.918-1.589-1.595c-0.231-0.163-0.479-0.328-0.767-0.494
				c-0.997-0.574-2.117-0.703-2.834-0.717c0.37,0.614,1.042,1.521,2.039,2.096C88.054,85.173,88.324,85.307,88.584,85.427z"/>
			<path fill="#FFFFFF" d="M95.246,85.707c-0.052,0.107-0.079,0.195-0.067,0.24c0.03,0.028,0.112,0.044,0.218,0.053
				c0.564-0.295,1.338-0.482,2.167-0.573c0.26-0.12,0.53-0.253,0.822-0.422c0.996-0.575,1.668-1.481,2.039-2.096
				c-0.717,0.014-1.838,0.143-2.835,0.717c-0.287,0.166-0.535,0.331-0.766,0.494C96.332,84.791,95.783,85.363,95.246,85.707z"/>
			<path fill="#FFFFFF" d="M58.34,75.33c0.067,0.098,0.129,0.165,0.174,0.178c0.039-0.012,0.095-0.075,0.156-0.163
				c0.027-0.636,0.251-1.398,0.586-2.16c0.026-0.286,0.046-0.587,0.046-0.925c0-1.15-0.449-2.186-0.796-2.813
				c-0.347,0.628-0.796,1.663-0.796,2.813c0,0.337,0.019,0.639,0.046,0.924C58.088,73.941,58.311,74.697,58.34,75.33z"/>
			<path fill="#FFFFFF" d="M53.753,78.684c0.556-0.245,1.097-0.43,1.58-0.523c0.216-0.042,0.402-0.06,0.575-0.067
				c0.094-0.065,0.158-0.125,0.171-0.169c-0.013-0.04-0.077-0.097-0.169-0.16c-0.634-0.027-1.391-0.248-2.151-0.582
				c-0.287-0.026-0.59-0.046-0.928-0.046c-1.151,0-2.186,0.449-2.813,0.796c0.628,0.347,1.663,0.796,2.813,0.796
				C53.168,78.729,53.468,78.71,53.753,78.684z"/>
			<path fill="#FFFFFF" d="M54.015,76.208c0.823,0.09,1.59,0.275,2.153,0.567c0.118-0.009,0.207-0.029,0.241-0.061
				c0.009-0.041-0.017-0.12-0.064-0.218c-0.541-0.343-1.094-0.919-1.589-1.596c-0.231-0.163-0.479-0.328-0.766-0.493l0,0
				c-1.002-0.578-2.12-0.707-2.835-0.719c0.37,0.614,1.042,1.521,2.039,2.098C53.485,75.954,53.755,76.089,54.015,76.208z"/>
			<path fill="#FFFFFF" d="M93.239,89.756c-0.067-0.098-0.129-0.165-0.174-0.178c-0.039,0.012-0.095,0.075-0.156,0.163
				c-0.026,0.636-0.251,1.398-0.586,2.161c-0.026,0.285-0.045,0.587-0.045,0.924c0,1.15,0.449,2.186,0.796,2.813
				c0.347-0.628,0.796-1.663,0.796-2.813c0-0.337-0.019-0.639-0.046-0.925C93.492,91.145,93.268,90.389,93.239,89.756z"/>
			<path fill="#FFFFFF" d="M56.334,79.377c0.051-0.106,0.078-0.193,0.066-0.238c-0.03-0.028-0.112-0.044-0.218-0.053
				c-0.563,0.295-1.334,0.481-2.161,0.572c-0.262,0.121-0.534,0.253-0.828,0.423c-0.997,0.575-1.668,1.481-2.038,2.096
				c0.717-0.014,1.838-0.143,2.834-0.717c0.292-0.168,0.543-0.336,0.777-0.501C55.255,80.291,55.799,79.719,56.334,79.377z"/>
			<path fill="#FFFFFF" d="M57.262,80.027c-0.042,0-0.112,0.026-0.192,0.064c-0.341,0.538-0.917,1.086-1.589,1.579
				c-0.166,0.234-0.333,0.486-0.502,0.778l0,0c-0.575,0.996-0.704,2.117-0.717,2.834c0.614-0.37,1.52-1.042,2.096-2.038
				c0.168-0.292,0.303-0.563,0.422-0.823c0.09-0.822,0.275-1.589,0.567-2.152c-0.009-0.118-0.029-0.207-0.061-0.24
				C57.278,80.028,57.27,80.027,57.262,80.027z"/>
			<path fill="#FFFFFF" d="M63.249,77.184c-0.753,0.331-1.504,0.55-2.135,0.58c-0.103,0.069-0.171,0.133-0.185,0.179
				c0.012,0.038,0.072,0.092,0.156,0.15c0.177,0.007,0.368,0.025,0.59,0.068c0.484,0.093,1.025,0.278,1.581,0.523
				c0.284,0.026,0.585,0.045,0.921,0.045c1.151,0,2.186-0.449,2.813-0.796c-0.628-0.347-1.663-0.796-2.813-0.796
				C63.839,77.138,63.536,77.157,63.249,77.184z"/>
			<path fill="#FFFFFF" d="M59.94,75.769c0.094-0.147,0.202-0.301,0.348-0.469c0.323-0.372,0.753-0.749,1.243-1.107
				c0.165-0.233,0.332-0.484,0.501-0.775c0.575-0.996,0.704-2.117,0.717-2.835c-0.614,0.371-1.521,1.043-2.096,2.039l0,0
				c-0.168,0.292-0.303,0.563-0.423,0.823c-0.09,0.822-0.275,1.589-0.567,2.151c0.009,0.119,0.029,0.208,0.062,0.241
				C59.766,75.843,59.845,75.816,59.94,75.769z"/>
			<path fill="#FFFFFF" d="M60.677,76.488c-0.052,0.107-0.079,0.195-0.067,0.241c0.03,0.027,0.112,0.044,0.219,0.052
				c0.564-0.295,1.337-0.481,2.166-0.572c0.26-0.12,0.531-0.254,0.822-0.422c0.997-0.576,1.668-1.482,2.039-2.097
				c-0.717,0.014-1.838,0.143-2.834,0.718l0,0c-0.287,0.166-0.536,0.331-0.767,0.494C61.762,75.572,61.214,76.143,60.677,76.488z"/>
			<path fill="#FFFFFF" d="M56.357,72.622c-0.575-0.996-1.481-1.668-2.096-2.039c0.013,0.718,0.142,1.839,0.717,2.835
				c0.168,0.291,0.335,0.542,0.5,0.775c0.49,0.359,0.921,0.735,1.243,1.108c0.143,0.165,0.25,0.315,0.343,0.461
				c0.104,0.049,0.189,0.077,0.235,0.067c0.028-0.03,0.045-0.112,0.053-0.218c-0.295-0.564-0.482-1.337-0.573-2.166
				C56.66,73.184,56.526,72.914,56.357,72.622z"/>
			<path fill="#FFFFFF" d="M63.817,80.081L63.817,80.081c-0.294-0.169-0.565-0.303-0.827-0.423c-0.821-0.09-1.586-0.275-2.148-0.566
				c-0.117,0.009-0.207,0.028-0.24,0.061c-0.009,0.041,0.017,0.121,0.064,0.218c0.537,0.341,1.085,0.916,1.577,1.587
				c0.234,0.166,0.486,0.333,0.778,0.501c1.002,0.578,2.12,0.706,2.835,0.719C65.486,81.564,64.814,80.657,63.817,80.081z"/>
			<path fill="#FFFFFF" d="M81.254,79.505c-0.555,0.245-1.097,0.43-1.581,0.523c-0.215,0.041-0.392,0.052-0.564,0.06
				c-0.101,0.068-0.168,0.131-0.182,0.177c0.012,0.038,0.072,0.092,0.156,0.15c0.177,0.007,0.368,0.025,0.59,0.068
				c0.484,0.093,1.026,0.278,1.582,0.523c0.284,0.026,0.584,0.045,0.92,0.045c1.151,0,2.186-0.449,2.813-0.796
				c-0.628-0.347-1.663-0.796-2.813-0.796C81.839,79.46,81.538,79.479,81.254,79.505z"/>
			<path fill="#FFFFFF" d="M79.134,78.473c-0.166,0.144-0.32,0.255-0.466,0.349c-0.047,0.101-0.073,0.185-0.062,0.229
				c0.031,0.028,0.113,0.045,0.22,0.053c0.564-0.295,1.337-0.481,2.165-0.572c0.26-0.12,0.53-0.254,0.822-0.422
				c0.997-0.576,1.668-1.482,2.039-2.097c-0.717,0.014-1.838,0.143-2.834,0.718l0,0c-0.291,0.167-0.541,0.334-0.774,0.499
				C79.883,77.719,79.507,78.15,79.134,78.473z"/>
			<path fill="#FFFFFF" d="M77.937,78.09c0.094-0.147,0.202-0.3,0.347-0.468c0.323-0.372,0.753-0.748,1.242-1.106
				c0.166-0.233,0.333-0.484,0.501-0.776c0.575-0.997,0.704-2.118,0.717-2.835c-0.614,0.37-1.521,1.042-2.096,2.039l0,0
				c-0.168,0.292-0.303,0.562-0.422,0.822c-0.09,0.823-0.275,1.59-0.567,2.152c0.009,0.118,0.029,0.207,0.062,0.24
				C77.762,78.165,77.841,78.137,77.937,78.09z"/>
			<path fill="#FFFFFF" d="M58.732,81.104c-0.042-0.216-0.059-0.401-0.067-0.575c-0.065-0.094-0.125-0.159-0.169-0.171
				c-0.039,0.012-0.093,0.073-0.152,0.158c-0.007,0.176-0.024,0.367-0.067,0.588c-0.093,0.484-0.279,1.026-0.523,1.582
				c-0.026,0.284-0.045,0.585-0.045,0.921c0,1.15,0.449,2.186,0.796,2.813c0.347-0.628,0.796-1.663,0.796-2.813
				c0-0.336-0.019-0.637-0.045-0.922C59.011,82.13,58.826,81.588,58.732,81.104z"/>
			<path fill="#FFFFFF" d="M61.528,81.67c-0.666-0.489-1.237-1.032-1.579-1.565c-0.087-0.042-0.163-0.07-0.21-0.07
				c-0.011,0-0.021,0.001-0.029,0.003c-0.028,0.03-0.045,0.112-0.053,0.219c0.295,0.564,0.481,1.337,0.573,2.165
				c0.12,0.26,0.254,0.531,0.423,0.824c0.578,1.002,1.483,1.672,2.096,2.04c-0.013-0.717-0.142-1.839-0.718-2.836
				C61.862,82.157,61.694,81.905,61.528,81.67z"/>
			<path fill="#FFFFFF" d="M76.274,77.084c0.042,0.216,0.059,0.401,0.067,0.575c0.065,0.094,0.125,0.159,0.169,0.171
				c0.039-0.012,0.093-0.073,0.152-0.158c0.007-0.177,0.024-0.367,0.067-0.588c0.094-0.484,0.279-1.026,0.523-1.582
				c0.026-0.284,0.045-0.584,0.045-0.92c0-1.15-0.449-2.186-0.796-2.813c-0.347,0.628-0.796,1.663-0.796,2.813
				c0,0.336,0.019,0.636,0.045,0.92C75.995,76.058,76.181,76.6,76.274,77.084z"/>
			<path fill="#FFFFFF" d="M58.54,76.787c-0.651,0-1.181,0.53-1.181,1.182c0,0.652,0.53,1.181,1.181,1.181s1.181-0.529,1.181-1.181
				C59.721,77.317,59.191,76.787,58.54,76.787z"/>
			<path fill="#FFFFFF" d="M81.813,82.402c-0.293-0.169-0.564-0.302-0.825-0.421c-0.821-0.09-1.587-0.275-2.149-0.566
				c-0.117,0.009-0.207,0.028-0.24,0.061c-0.009,0.04,0.016,0.117,0.061,0.21c0.149,0.094,0.305,0.205,0.476,0.352
				c0.373,0.323,0.749,0.755,1.108,1.245c0.233,0.165,0.484,0.331,0.774,0.499c1.002,0.578,2.12,0.706,2.835,0.719
				C83.483,83.886,82.81,82.978,81.813,82.402z"/>
			<path fill="#FFFFFF" d="M93.109,86.007c-0.651,0-1.181,0.529-1.181,1.181c0,0.652,0.53,1.181,1.181,1.181
				s1.181-0.529,1.181-1.181S93.761,86.007,93.109,86.007z"/>
			<path fill="#FFFFFF" d="M123.102,76.354c0.821,0.09,1.587,0.275,2.149,0.566c0.119-0.009,0.208-0.029,0.241-0.062
				c0.009-0.039-0.017-0.116-0.06-0.208c-0.149-0.095-0.306-0.207-0.477-0.354c-0.372-0.323-0.749-0.755-1.108-1.245
				c-0.233-0.165-0.484-0.332-0.774-0.5c-0.997-0.574-2.118-0.703-2.834-0.717c0.37,0.614,1.042,1.521,2.039,2.097
				C122.57,76.1,122.841,76.234,123.102,76.354z"/>
			<path fill="#FFFFFF" d="M122.842,78.828c0.756-0.332,1.51-0.554,2.142-0.584c0.099-0.067,0.166-0.129,0.179-0.175
				c-0.013-0.04-0.077-0.097-0.17-0.16c-0.633-0.027-1.39-0.248-2.148-0.581c-0.287-0.026-0.59-0.046-0.93-0.046
				c-1.151,0-2.186,0.448-2.813,0.795c0.627,0.347,1.662,0.796,2.813,0.796C122.253,78.874,122.556,78.854,122.842,78.828z"/>
			<path fill="#FFFFFF" d="M124.956,79.861c0.166-0.144,0.318-0.252,0.464-0.345c0.049-0.103,0.075-0.188,0.064-0.232
				c-0.031-0.028-0.113-0.045-0.219-0.053c-0.564,0.295-1.336,0.481-2.164,0.572c-0.26,0.12-0.531,0.254-0.823,0.422
				c-0.997,0.576-1.668,1.482-2.039,2.097c0.717-0.014,1.838-0.143,2.834-0.718c0.291-0.167,0.541-0.334,0.774-0.499
				C124.207,80.615,124.583,80.183,124.956,79.861z"/>
			<path fill="#FFFFFF" d="M129.023,75.915c0.094-0.148,0.203-0.302,0.349-0.47c0.322-0.372,0.753-0.748,1.242-1.106
				c0.165-0.233,0.333-0.484,0.501-0.776c0.579-1.002,0.707-2.12,0.719-2.835c-0.614,0.37-1.521,1.042-2.097,2.04
				c-0.169,0.292-0.303,0.563-0.423,0.824c-0.09,0.821-0.275,1.587-0.566,2.15c0.009,0.118,0.029,0.207,0.062,0.241
				C128.849,75.989,128.928,75.962,129.023,75.915z"/>
			<path fill="#FFFFFF" d="M115.207,82.445c-0.293-0.169-0.565-0.303-0.827-0.423c-0.821-0.09-1.586-0.275-2.148-0.566
				c-0.117,0.009-0.207,0.028-0.241,0.061c-0.009,0.04,0.017,0.12,0.063,0.216c0.538,0.341,1.086,0.917,1.579,1.59
				c0.234,0.165,0.485,0.333,0.777,0.501c0.997,0.575,2.117,0.704,2.834,0.717C116.876,83.927,116.204,83.02,115.207,82.445z"/>
			<path fill="#FFFFFF" d="M126.149,80.251c-0.093,0.145-0.2,0.296-0.343,0.461c-0.322,0.371-0.752,0.747-1.24,1.104
				c-0.166,0.233-0.334,0.485-0.503,0.777c-0.575,0.997-0.704,2.118-0.718,2.835c0.615-0.37,1.521-1.042,2.096-2.039
				c0.169-0.292,0.303-0.563,0.423-0.824c0.09-0.822,0.275-1.588,0.566-2.15c-0.009-0.118-0.029-0.207-0.062-0.241
				C126.329,80.171,126.248,80.201,126.149,80.251z"/>
			<path fill="#FFFFFF" d="M113.422,84.813c-0.169-0.292-0.336-0.544-0.502-0.778c-0.666-0.489-1.237-1.032-1.579-1.565
				c-0.087-0.042-0.163-0.07-0.21-0.07c-0.011,0-0.021,0.001-0.029,0.003c-0.028,0.03-0.045,0.112-0.053,0.219
				c0.295,0.563,0.482,1.336,0.573,2.165c0.12,0.26,0.254,0.532,0.423,0.824c0.575,0.996,1.481,1.668,2.096,2.038
				C114.126,86.931,113.997,85.809,113.422,84.813L113.422,84.813z"/>
			<path fill="#FFFFFF" d="M129.757,76.642c-0.048,0.103-0.074,0.187-0.063,0.231c0.031,0.027,0.113,0.044,0.22,0.052
				c0.564-0.294,1.335-0.48,2.162-0.571c0.26-0.12,0.531-0.254,0.824-0.422c0.997-0.576,1.668-1.482,2.039-2.097
				c-0.717,0.014-1.838,0.143-2.834,0.717c-0.284,0.164-0.53,0.327-0.759,0.488C130.822,75.76,130.271,76.315,129.757,76.642z"/>
			<path fill="#FFFFFF" d="M132.332,77.329c-0.753,0.33-1.503,0.549-2.133,0.579c-0.103,0.069-0.172,0.132-0.185,0.179
				c0.012,0.04,0.075,0.095,0.164,0.156c0.635,0.027,1.396,0.251,2.158,0.585c0.286,0.026,0.588,0.046,0.926,0.046
				c1.15,0,2.185-0.449,2.813-0.796c-0.628-0.347-1.663-0.795-2.813-0.795C132.923,77.283,132.619,77.303,132.332,77.329z"/>
			<path fill="#FFFFFF" d="M132.072,79.803c-0.819-0.09-1.583-0.275-2.145-0.565c-0.118,0.009-0.208,0.028-0.242,0.061
				c-0.009,0.04,0.017,0.117,0.061,0.21c0.15,0.094,0.305,0.205,0.476,0.352c0.372,0.322,0.749,0.754,1.108,1.244
				c0.233,0.165,0.484,0.331,0.774,0.499c0.997,0.575,2.118,0.704,2.834,0.718c-0.37-0.614-1.042-1.521-2.039-2.097
				C132.606,80.056,132.334,79.923,132.072,79.803z"/>
			<path fill="#FFFFFF" d="M125.441,72.767c-0.579-1.003-1.483-1.673-2.096-2.041c0.014,0.717,0.142,1.839,0.718,2.836
				c0.168,0.292,0.336,0.543,0.501,0.776c0.489,0.359,0.919,0.735,1.242,1.106c0.143,0.165,0.251,0.316,0.344,0.462
				c0.105,0.051,0.19,0.078,0.233,0.066c0.028-0.03,0.045-0.112,0.053-0.219c-0.295-0.564-0.481-1.336-0.572-2.164
				C125.744,73.33,125.61,73.059,125.441,72.767z"/>
			<path fill="#FFFFFF" d="M127.817,81.25c-0.042-0.215-0.059-0.401-0.067-0.574c-0.065-0.094-0.126-0.159-0.17-0.172
				c-0.039,0.012-0.093,0.073-0.152,0.158c-0.007,0.177-0.024,0.367-0.067,0.588c-0.093,0.484-0.278,1.025-0.523,1.581
				c-0.026,0.284-0.045,0.585-0.045,0.921c0,1.15,0.449,2.186,0.795,2.813c0.347-0.628,0.796-1.663,0.796-2.813
				c0-0.336-0.019-0.637-0.045-0.921C128.095,82.275,127.91,81.734,127.817,81.25z"/>
			<path fill="#FFFFFF" d="M130.615,81.819c-0.49-0.359-0.921-0.735-1.243-1.107c-0.145-0.167-0.253-0.32-0.346-0.467
				c-0.083-0.039-0.156-0.065-0.201-0.065c-0.011,0-0.021,0.002-0.029,0.004c-0.028,0.03-0.045,0.112-0.053,0.219
				c0.295,0.563,0.481,1.336,0.572,2.164c0.12,0.26,0.254,0.531,0.423,0.823c0.579,1.003,1.483,1.673,2.096,2.041
				c-0.013-0.717-0.142-1.839-0.718-2.837C130.946,82.303,130.78,82.052,130.615,81.819z"/>
			<path fill="#FFFFFF" d="M127.624,76.933c-0.651,0-1.181,0.529-1.181,1.181s0.53,1.182,1.181,1.182
				c0.651,0,1.181-0.53,1.181-1.182S128.275,76.933,127.624,76.933z"/>
			<path fill="#FFFFFF" d="M127.361,74.907c0.042,0.215,0.059,0.401,0.067,0.574c0.065,0.094,0.125,0.159,0.169,0.172
				c0.039-0.012,0.093-0.073,0.153-0.159c0.007-0.176,0.024-0.367,0.067-0.587c0.093-0.484,0.278-1.025,0.522-1.581
				c0.026-0.284,0.045-0.585,0.045-0.921c0-1.151-0.449-2.187-0.796-2.814c-0.347,0.628-0.795,1.663-0.795,2.814
				c0,0.336,0.019,0.637,0.045,0.922C127.083,73.882,127.268,74.423,127.361,74.907z"/>
			<path fill="#FFFFFF" d="M112.068,78.852c-0.052,0.107-0.079,0.195-0.068,0.241c0.03,0.028,0.112,0.044,0.218,0.053
				c0.564-0.295,1.338-0.482,2.167-0.573c0.26-0.12,0.531-0.254,0.822-0.422c0.997-0.575,1.668-1.482,2.039-2.097
				c-0.717,0.014-1.838,0.143-2.834,0.718c-0.288,0.166-0.537,0.332-0.768,0.495C113.152,77.937,112.604,78.508,112.068,78.852z"/>
			<path fill="#FFFFFF" d="M109.931,79.151c-0.651,0-1.181,0.53-1.181,1.182s0.53,1.181,1.181,1.181s1.181-0.529,1.181-1.181
				S110.582,79.151,109.931,79.151z"/>
			<path fill="#FFFFFF" d="M111.332,78.138c0.341-0.537,0.917-1.085,1.588-1.578c0.165-0.234,0.333-0.486,0.502-0.778
				c0.575-0.996,0.704-2.117,0.718-2.835c-0.614,0.371-1.52,1.043-2.096,2.039l0,0c-0.169,0.292-0.303,0.562-0.423,0.823
				c-0.09,0.822-0.275,1.589-0.567,2.152c0.009,0.119,0.029,0.208,0.062,0.241C111.157,78.21,111.236,78.184,111.332,78.138z"/>
			<path fill="#FFFFFF" d="M105.406,78.572c0.822,0.09,1.589,0.275,2.152,0.566c0.118-0.009,0.208-0.028,0.241-0.061
				c0.009-0.041-0.018-0.121-0.064-0.218c-0.54-0.343-1.093-0.918-1.588-1.594c-0.231-0.163-0.48-0.328-0.767-0.494
				c-0.997-0.575-2.117-0.704-2.834-0.718c0.37,0.614,1.042,1.521,2.039,2.097C104.876,78.319,105.146,78.453,105.406,78.572z"/>
			<path fill="#FFFFFF" d="M109.731,77.694c0.067,0.098,0.129,0.165,0.174,0.178c0.039-0.012,0.095-0.075,0.156-0.163
				c0.026-0.636,0.251-1.398,0.586-2.161c0.026-0.285,0.045-0.587,0.045-0.924c0-1.15-0.449-2.186-0.796-2.813
				c-0.347,0.628-0.796,1.663-0.796,2.813c0,0.337,0.019,0.64,0.046,0.925C109.478,76.306,109.701,77.061,109.731,77.694z"/>
			<path fill="#FFFFFF" d="M96.099,90.891c-0.667-0.489-1.239-1.033-1.58-1.567c-0.087-0.042-0.162-0.07-0.209-0.07
				c-0.011,0-0.021,0.001-0.029,0.003c-0.028,0.03-0.045,0.112-0.053,0.219c0.295,0.564,0.482,1.337,0.573,2.166
				c0.12,0.26,0.254,0.531,0.423,0.823c0.575,0.996,1.482,1.668,2.096,2.039c-0.013-0.718-0.142-1.839-0.718-2.835
				C96.432,91.376,96.264,91.124,96.099,90.891z"/>
			<path fill="#FFFFFF" d="M97.559,88.877c-0.821-0.09-1.586-0.275-2.148-0.565c-0.118,0.009-0.208,0.029-0.241,0.061
				c-0.009,0.041,0.017,0.121,0.064,0.218c0.537,0.341,1.085,0.917,1.578,1.587c0.234,0.165,0.485,0.333,0.777,0.501
				c0.997,0.575,2.117,0.704,2.834,0.718c-0.37-0.614-1.042-1.521-2.039-2.097C98.092,89.13,97.821,88.997,97.559,88.877z"/>
			<path fill="#FFFFFF" d="M97.826,86.402c-0.556,0.245-1.097,0.43-1.58,0.523c-0.215,0.042-0.392,0.052-0.565,0.06
				c-0.101,0.068-0.168,0.131-0.182,0.177c0.012,0.039,0.074,0.094,0.162,0.154c0.636,0.026,1.399,0.251,2.163,0.587
				c0.285,0.026,0.587,0.045,0.924,0.045c1.151,0,2.186-0.449,2.813-0.796c-0.628-0.347-1.663-0.796-2.813-0.796
				C98.412,86.356,98.111,86.375,97.826,86.402z"/>
			<path fill="#FFFFFF" d="M114.64,79.548c-0.753,0.331-1.504,0.55-2.135,0.58c-0.103,0.069-0.171,0.133-0.185,0.179
				c0.012,0.038,0.072,0.092,0.156,0.15c0.177,0.007,0.368,0.025,0.59,0.068c0.484,0.093,1.025,0.278,1.581,0.523
				c0.284,0.026,0.585,0.045,0.921,0.045c1.151,0,2.186-0.449,2.813-0.796c-0.628-0.347-1.662-0.796-2.813-0.796
				C115.23,79.502,114.927,79.521,114.64,79.548z"/>
			<path fill="#FFFFFF" d="M107.748,74.986L107.748,74.986c-0.575-0.996-1.482-1.668-2.096-2.039
				c0.013,0.718,0.142,1.839,0.718,2.835c0.169,0.293,0.337,0.545,0.503,0.779c0.663,0.486,1.231,1.027,1.573,1.558
				c0.109,0.054,0.198,0.083,0.245,0.074c0.028-0.03,0.045-0.112,0.053-0.219c-0.295-0.564-0.482-1.337-0.573-2.166
				C108.051,75.549,107.917,75.278,107.748,74.986z"/>
			<path fill="#FFFFFF" d="M105.144,81.048c0.556-0.245,1.097-0.43,1.58-0.523c0.216-0.042,0.402-0.06,0.576-0.067
				c0.093-0.065,0.158-0.125,0.171-0.169c-0.013-0.04-0.077-0.097-0.169-0.16c-0.634-0.027-1.391-0.248-2.151-0.582
				c-0.286-0.026-0.589-0.046-0.928-0.046c-1.151,0-2.186,0.449-2.813,0.796c0.628,0.347,1.663,0.796,2.813,0.796
				C104.558,81.094,104.859,81.075,105.144,81.048z"/>
			<path fill="#FFFFFF" d="M108.652,82.391c-0.042,0-0.112,0.026-0.192,0.065c-0.341,0.538-0.917,1.086-1.589,1.579
				c-0.166,0.234-0.333,0.486-0.502,0.778c-0.575,0.996-0.704,2.117-0.718,2.834c0.614-0.37,1.521-1.042,2.096-2.038
				c0.169-0.292,0.303-0.563,0.423-0.824c0.09-0.822,0.275-1.588,0.567-2.151c-0.009-0.118-0.029-0.207-0.062-0.241
				C108.669,82.392,108.661,82.391,108.652,82.391z"/>
			<path fill="#FFFFFF" d="M107.724,81.744c0.052-0.107,0.079-0.195,0.068-0.241c-0.03-0.028-0.112-0.044-0.218-0.053
				c-0.563,0.295-1.334,0.481-2.161,0.572c-0.262,0.121-0.534,0.253-0.828,0.423c-0.997,0.575-1.668,1.481-2.039,2.096
				c0.717-0.013,1.838-0.142,2.834-0.717c0.292-0.168,0.543-0.336,0.777-0.502C106.647,82.656,107.19,82.085,107.724,81.744z"/>
			<path fill="#FFFFFF" d="M110.123,83.469c-0.042-0.216-0.059-0.401-0.067-0.575c-0.065-0.094-0.125-0.159-0.169-0.171
				c-0.039,0.012-0.093,0.073-0.152,0.158c-0.007,0.177-0.024,0.367-0.067,0.588c-0.094,0.484-0.279,1.025-0.523,1.582
				c-0.026,0.285-0.045,0.585-0.045,0.921c0,1.15,0.449,2.186,0.796,2.813c0.347-0.628,0.796-1.663,0.796-2.813
				c0-0.336-0.019-0.637-0.045-0.922C110.402,84.494,110.216,83.953,110.123,83.469z"/>
			<path fill="#008A46" d="M99.558,85.415c1.448-1.134,2.107-2.707,2.138-2.783l0.246-0.599l-0.642-0.086
				c-0.082-0.013-1.773-0.229-3.479,0.458c0.686-1.706,0.47-3.398,0.459-3.478l-0.087-0.642l-0.599,0.245
				c-0.076,0.032-1.649,0.69-2.783,2.137c-0.259-1.821-1.292-3.178-1.342-3.243l-0.396-0.513l-0.396,0.513
				c-0.05,0.065-1.083,1.422-1.342,3.243c-1.134-1.447-2.707-2.105-2.783-2.137l-0.599-0.245l-0.087,0.642
				c-0.011,0.08-0.227,1.772,0.459,3.478c-1.706-0.687-3.398-0.472-3.479-0.458l-0.642,0.086l0.246,0.599
				c0.031,0.076,0.69,1.649,2.138,2.783c-1.821,0.258-3.178,1.292-3.243,1.342l-0.512,0.396l0.512,0.396
				c0.065,0.05,1.422,1.083,3.243,1.342c-1.448,1.135-2.107,2.708-2.138,2.784l-0.246,0.599l0.642,0.086
				c0.032,0.005,0.316,0.041,0.753,0.041c0.671,0,1.701-0.104,2.737-0.523c-0.697,1.714-0.481,3.421-0.47,3.501l0.087,0.643
				l0.599-0.246c0.076-0.032,1.649-0.69,2.783-2.138c0.259,1.821,1.292,3.178,1.342,3.243l0.396,0.513l0.396-0.513
				c0.05-0.065,1.083-1.422,1.342-3.243c1.134,1.447,2.708,2.106,2.783,2.138l0.599,0.246l0.087-0.643
				c0.011-0.082,0.227-1.788-0.47-3.501c1.035,0.419,2.066,0.523,2.737,0.523c0.437,0,0.72-0.036,0.753-0.041l0.642-0.086
				l-0.246-0.599c-0.031-0.076-0.69-1.649-2.138-2.784c1.821-0.258,3.179-1.292,3.243-1.342l0.512-0.396l-0.512-0.396
				C102.736,86.706,101.379,85.673,99.558,85.415z M100.424,82.909c-0.37,0.614-1.042,1.521-2.039,2.096
				c-0.292,0.168-0.562,0.302-0.822,0.422c-0.829,0.091-1.603,0.278-2.167,0.573c-0.106-0.008-0.188-0.025-0.218-0.053
				c-0.011-0.045,0.016-0.133,0.067-0.24c0.537-0.344,1.085-0.916,1.577-1.587c0.231-0.163,0.479-0.328,0.766-0.494
				C98.586,83.052,99.707,82.923,100.424,82.909z M94.799,82.665c0.12-0.261,0.254-0.532,0.423-0.824
				c0.575-0.996,1.481-1.668,2.096-2.038c-0.013,0.717-0.142,1.838-0.718,2.834c-0.169,0.294-0.338,0.546-0.504,0.78
				c-0.665,0.489-1.236,1.032-1.577,1.564c-0.102,0.052-0.184,0.081-0.225,0.076c-0.032-0.034-0.052-0.123-0.062-0.241
				C94.524,84.253,94.709,83.487,94.799,82.665z M93.074,78.665c0.347,0.628,0.796,1.663,0.796,2.813
				c0,0.336-0.019,0.637-0.045,0.922c-0.245,0.556-0.43,1.097-0.523,1.581c-0.043,0.221-0.06,0.411-0.067,0.588
				c-0.059,0.085-0.113,0.146-0.152,0.158c-0.044-0.013-0.104-0.078-0.169-0.171c-0.008-0.173-0.025-0.359-0.067-0.575
				c-0.094-0.484-0.279-1.025-0.523-1.581c-0.026-0.285-0.045-0.586-0.045-0.922C92.278,80.328,92.727,79.293,93.074,78.665z
				 M85.724,82.909c0.717,0.014,1.838,0.143,2.834,0.717c0.287,0.166,0.536,0.331,0.767,0.494c0.495,0.677,1.048,1.252,1.589,1.595
				c0.047,0.098,0.073,0.177,0.064,0.218c-0.034,0.032-0.122,0.053-0.239,0.062c-0.563-0.292-1.332-0.478-2.156-0.568
				c-0.26-0.12-0.53-0.253-0.821-0.422C86.766,84.43,86.095,83.523,85.724,82.909z M84.587,87.152
				c0.628-0.347,1.663-0.796,2.813-0.796c0.336,0,0.637,0.019,0.921,0.045c0.556,0.245,1.097,0.43,1.581,0.523
				c0.221,0.043,0.404,0.054,0.58,0.061c0.091,0.062,0.154,0.118,0.167,0.158c-0.013,0.045-0.08,0.107-0.178,0.174
				c-0.632,0.029-1.388,0.252-2.144,0.584c-0.286,0.026-0.588,0.046-0.926,0.046C86.25,87.948,85.215,87.499,84.587,87.152z
				 M85.724,91.396c0.37-0.614,1.042-1.521,2.039-2.097c0.292-0.168,0.563-0.303,0.823-0.422c0.828-0.091,1.601-0.277,2.165-0.572
				c0.107,0.008,0.188,0.025,0.219,0.052c0.011,0.046-0.016,0.134-0.068,0.242c-0.533,0.342-1.077,0.913-1.565,1.578
				c-0.234,0.166-0.486,0.333-0.778,0.501C87.562,91.254,86.442,91.383,85.724,91.396z M91.349,91.641
				c-0.12,0.26-0.254,0.53-0.422,0.822c-0.576,0.996-1.482,1.668-2.096,2.039c0.013-0.718,0.142-1.839,0.717-2.835l0,0
				c0.168-0.291,0.335-0.542,0.5-0.775c0.489-0.358,0.92-0.735,1.243-1.107c0.148-0.171,0.259-0.328,0.353-0.478
				c0.078-0.037,0.145-0.062,0.186-0.062c0.009,0,0.016,0.001,0.023,0.002c0.032,0.034,0.053,0.123,0.062,0.241
				C91.624,90.052,91.44,90.819,91.349,91.641z M91.869,85.048c-0.046,0.009-0.135-0.02-0.244-0.073
				c-0.342-0.531-0.91-1.072-1.573-1.559c-0.166-0.234-0.334-0.486-0.503-0.779c-0.575-0.996-0.704-2.117-0.717-2.834
				c0.614,0.37,1.52,1.042,2.096,2.038c0.168,0.292,0.303,0.563,0.422,0.823c0.091,0.828,0.278,1.601,0.573,2.165
				C91.914,84.935,91.897,85.017,91.869,85.048z M93.074,95.64c-0.347-0.628-0.796-1.663-0.796-2.813
				c0-0.337,0.019-0.639,0.045-0.924c0.335-0.763,0.56-1.525,0.586-2.161c0.061-0.088,0.116-0.151,0.156-0.163
				c0.045,0.013,0.107,0.08,0.174,0.178c0.029,0.633,0.252,1.389,0.585,2.146c0.026,0.286,0.046,0.587,0.046,0.925
				C93.87,93.976,93.421,95.012,93.074,95.64z M93.109,88.368c-0.651,0-1.181-0.529-1.181-1.181s0.53-1.181,1.181-1.181
				s1.181,0.529,1.181,1.181S93.761,88.368,93.109,88.368z M95.222,92.464c-0.168-0.292-0.303-0.562-0.423-0.823
				c-0.091-0.829-0.278-1.602-0.573-2.166c0.008-0.107,0.025-0.188,0.053-0.219c0.009-0.002,0.018-0.003,0.029-0.003
				c0.047,0,0.123,0.028,0.209,0.07c0.342,0.534,0.914,1.078,1.58,1.567c0.166,0.234,0.333,0.485,0.502,0.777
				c0.575,0.996,0.704,2.117,0.718,2.835C96.703,94.132,95.797,93.46,95.222,92.464z M100.424,91.396
				c-0.717-0.014-1.838-0.143-2.834-0.718c-0.292-0.168-0.543-0.336-0.777-0.501c-0.493-0.671-1.041-1.247-1.578-1.587
				c-0.047-0.098-0.073-0.178-0.064-0.218c0.034-0.032,0.124-0.052,0.241-0.061c0.562,0.291,1.327,0.475,2.148,0.565
				c0.261,0.12,0.533,0.253,0.826,0.423C99.382,89.876,100.054,90.782,100.424,91.396z M98.748,87.948
				c-0.337,0-0.639-0.019-0.924-0.045c-0.763-0.336-1.526-0.561-2.163-0.587c-0.087-0.06-0.149-0.115-0.162-0.154
				c0.013-0.046,0.081-0.108,0.182-0.177c0.173-0.008,0.35-0.018,0.565-0.06c0.483-0.093,1.025-0.278,1.58-0.523
				c0.285-0.026,0.585-0.045,0.922-0.045c1.151,0,2.186,0.449,2.813,0.796C100.933,87.499,99.899,87.948,98.748,87.948z"/>
			<path fill="#008A46" d="M116.379,82.035c1.821-0.258,3.178-1.292,3.243-1.342l0.512-0.396l-0.512-0.396
				c-0.065-0.05-1.422-1.083-3.243-1.342c1.448-1.134,2.107-2.708,2.138-2.784l0.246-0.599l-0.641-0.086
				c-0.082-0.012-1.774-0.228-3.479,0.459c0.687-1.706,0.47-3.398,0.46-3.479l-0.087-0.643l-0.599,0.246
				c-0.076,0.032-1.649,0.691-2.783,2.138c-0.259-1.821-1.292-3.178-1.342-3.243l-0.396-0.513l-0.396,0.513
				c-0.05,0.065-1.083,1.422-1.342,3.243c-1.134-1.447-2.708-2.107-2.783-2.139l-0.599-0.246l-0.087,0.643
				c-0.011,0.081-0.227,1.773,0.46,3.479c-1.706-0.687-3.397-0.472-3.479-0.459l-0.641,0.086l0.246,0.599
				c0.031,0.076,0.69,1.65,2.138,2.784c-1.821,0.258-3.178,1.292-3.243,1.342l-0.512,0.396l0.512,0.396
				c0.065,0.05,1.422,1.083,3.243,1.342c-1.448,1.134-2.107,2.707-2.138,2.783l-0.246,0.6l0.641,0.086
				c0.032,0.005,0.317,0.041,0.756,0.041c0.671,0,1.7-0.104,2.734-0.522c-0.697,1.714-0.481,3.42-0.47,3.501l0.087,0.642
				l0.599-0.245c0.076-0.032,1.649-0.69,2.783-2.137c0.259,1.821,1.292,3.178,1.342,3.243l0.396,0.513l0.396-0.513
				c0.05-0.065,1.083-1.422,1.342-3.243c1.134,1.447,2.707,2.105,2.783,2.137l0.599,0.245l0.087-0.642
				c0.011-0.081,0.228-1.787-0.47-3.501c1.034,0.419,2.063,0.522,2.734,0.522c0.439,0,0.724-0.036,0.756-0.041l0.641-0.086
				l-0.246-0.599C118.486,84.742,117.827,83.169,116.379,82.035z M118.382,80.298c-0.628,0.347-1.662,0.796-2.813,0.796
				c-0.336,0-0.637-0.019-0.921-0.045c-0.556-0.245-1.097-0.43-1.581-0.523c-0.222-0.043-0.413-0.061-0.59-0.068
				c-0.084-0.059-0.144-0.112-0.156-0.15c0.013-0.046,0.082-0.11,0.185-0.179c0.631-0.03,1.381-0.249,2.135-0.58
				c0.287-0.026,0.59-0.046,0.929-0.046C116.72,79.502,117.755,79.951,118.382,80.298z M117.246,76.054
				c-0.37,0.614-1.042,1.521-2.039,2.097c-0.292,0.168-0.562,0.302-0.822,0.422c-0.829,0.091-1.602,0.277-2.167,0.573
				c-0.106-0.008-0.188-0.025-0.218-0.053c-0.011-0.046,0.016-0.133,0.068-0.241c0.536-0.344,1.084-0.915,1.575-1.586
				c0.231-0.163,0.48-0.329,0.768-0.495C115.408,76.196,116.529,76.067,117.246,76.054z M111.621,75.809
				c0.12-0.26,0.254-0.531,0.423-0.823l0,0c0.576-0.996,1.482-1.668,2.096-2.039c-0.013,0.718-0.142,1.839-0.718,2.835
				c-0.169,0.292-0.336,0.544-0.502,0.778c-0.671,0.493-1.247,1.041-1.588,1.578c-0.096,0.046-0.175,0.072-0.216,0.064
				c-0.032-0.034-0.053-0.123-0.062-0.241C111.346,77.398,111.53,76.631,111.621,75.809z M109.896,71.81
				c0.347,0.628,0.796,1.663,0.796,2.813c0,0.337-0.019,0.639-0.045,0.924c-0.335,0.763-0.56,1.525-0.586,2.161
				c-0.061,0.088-0.116,0.151-0.156,0.163c-0.045-0.013-0.107-0.08-0.174-0.178c-0.029-0.633-0.252-1.389-0.585-2.146
				c-0.026-0.285-0.046-0.587-0.046-0.925C109.1,73.474,109.549,72.438,109.896,71.81z M102.546,76.054
				c0.717,0.014,1.838,0.143,2.834,0.718c0.288,0.166,0.536,0.331,0.767,0.494c0.495,0.676,1.048,1.251,1.588,1.594
				c0.047,0.098,0.073,0.178,0.064,0.218c-0.034,0.032-0.123,0.052-0.241,0.061c-0.563-0.291-1.33-0.476-2.152-0.566
				c-0.26-0.119-0.53-0.253-0.822-0.422C103.588,77.575,102.916,76.668,102.546,76.054z M101.409,80.298
				c0.628-0.347,1.663-0.796,2.813-0.796c0.339,0,0.642,0.02,0.928,0.046c0.76,0.334,1.517,0.555,2.151,0.582
				c0.092,0.062,0.156,0.12,0.169,0.16c-0.013,0.044-0.078,0.104-0.171,0.169c-0.174,0.008-0.36,0.025-0.576,0.067
				c-0.483,0.093-1.025,0.278-1.58,0.523c-0.284,0.026-0.585,0.045-0.922,0.045C103.071,81.094,102.036,80.644,101.409,80.298z
				 M102.546,84.541c0.37-0.614,1.042-1.521,2.039-2.096c0.294-0.17,0.566-0.302,0.828-0.423c0.827-0.091,1.598-0.277,2.161-0.572
				c0.106,0.008,0.188,0.025,0.218,0.053c0.011,0.046-0.016,0.133-0.068,0.241c-0.533,0.342-1.077,0.913-1.566,1.579
				c-0.234,0.166-0.485,0.333-0.777,0.502C104.383,84.399,103.263,84.528,102.546,84.541z M108.171,84.785
				c-0.12,0.261-0.254,0.532-0.423,0.824c-0.575,0.996-1.481,1.668-2.096,2.038c0.013-0.717,0.142-1.838,0.718-2.834
				c0.169-0.292,0.336-0.544,0.502-0.778c0.672-0.493,1.248-1.041,1.589-1.579c0.08-0.039,0.15-0.065,0.192-0.065
				c0.009,0,0.017,0.001,0.023,0.002c0.032,0.034,0.052,0.123,0.062,0.241C108.446,83.197,108.261,83.963,108.171,84.785z
				 M108.691,78.193c-0.047,0.009-0.135-0.02-0.245-0.074c-0.342-0.531-0.91-1.072-1.573-1.558
				c-0.166-0.234-0.334-0.486-0.503-0.779c-0.575-0.996-0.704-2.117-0.718-2.835c0.614,0.371,1.521,1.043,2.096,2.039l0,0
				c0.168,0.292,0.303,0.562,0.423,0.823c0.091,0.829,0.278,1.602,0.573,2.166C108.735,78.081,108.718,78.163,108.691,78.193z
				 M109.896,88.785c-0.347-0.628-0.796-1.663-0.796-2.813c0-0.336,0.019-0.637,0.045-0.921c0.245-0.556,0.43-1.098,0.523-1.582
				c0.043-0.221,0.06-0.411,0.067-0.588c0.059-0.085,0.113-0.146,0.152-0.158c0.044,0.013,0.104,0.078,0.169,0.171
				c0.008,0.173,0.025,0.359,0.067,0.575c0.093,0.484,0.279,1.025,0.523,1.581c0.026,0.285,0.045,0.585,0.045,0.922
				C110.692,87.122,110.243,88.157,109.896,88.785z M109.931,81.514c-0.651,0-1.181-0.529-1.181-1.181s0.53-1.182,1.181-1.182
				s1.181,0.53,1.181,1.182S110.582,81.514,109.931,81.514z M112.043,85.609c-0.169-0.292-0.303-0.563-0.423-0.824
				c-0.091-0.828-0.278-1.601-0.573-2.165c0.008-0.106,0.025-0.188,0.053-0.219c0.009-0.002,0.018-0.003,0.029-0.003
				c0.047,0,0.123,0.028,0.21,0.07c0.342,0.533,0.913,1.076,1.579,1.565c0.166,0.234,0.333,0.486,0.502,0.778l0,0
				c0.575,0.996,0.704,2.117,0.717,2.834C113.525,87.277,112.619,86.605,112.043,85.609z M114.411,83.824
				c-0.292-0.168-0.543-0.336-0.777-0.501c-0.493-0.672-1.042-1.249-1.579-1.59c-0.046-0.096-0.073-0.176-0.063-0.216
				c0.034-0.033,0.124-0.052,0.241-0.061c0.562,0.291,1.327,0.476,2.148,0.566c0.261,0.12,0.533,0.253,0.827,0.423
				c0.997,0.575,1.668,1.481,2.039,2.096C116.529,84.528,115.408,84.399,114.411,83.824z"/>
			<path fill="#008A46" d="M64.989,79.671c1.821-0.258,3.178-1.292,3.243-1.342l0.512-0.396l-0.512-0.396
				c-0.065-0.05-1.422-1.083-3.243-1.342c1.448-1.135,2.107-2.708,2.138-2.784l0.246-0.599l-0.642-0.086
				c-0.081-0.011-1.773-0.226-3.479,0.46c0.687-1.707,0.471-3.399,0.46-3.48l-0.087-0.643l-0.599,0.246
				c-0.076,0.032-1.649,0.691-2.783,2.138c-0.259-1.821-1.292-3.178-1.342-3.243l-0.396-0.513l-0.396,0.513
				c-0.05,0.065-1.083,1.422-1.342,3.243c-1.134-1.447-2.707-2.106-2.783-2.138l-0.599-0.246l-0.087,0.643
				c-0.011,0.08-0.227,1.773,0.459,3.479c-1.706-0.688-3.397-0.472-3.479-0.46l-0.642,0.086l0.246,0.599
				c0.031,0.076,0.69,1.649,2.138,2.784c-1.821,0.258-3.178,1.292-3.243,1.342l-0.512,0.396l0.512,0.396
				c0.065,0.05,1.422,1.083,3.243,1.342c-1.448,1.134-2.106,2.707-2.138,2.783l-0.246,0.599l0.642,0.086
				c0.032,0.005,0.316,0.041,0.753,0.041c0.671,0,1.701-0.104,2.737-0.522c-0.698,1.714-0.481,3.42-0.47,3.501l0.087,0.642
				l0.599-0.245c0.076-0.032,1.649-0.69,2.783-2.137c0.259,1.821,1.292,3.178,1.342,3.243l0.396,0.513l0.396-0.513
				c0.05-0.065,1.083-1.422,1.342-3.243c1.134,1.447,2.708,2.105,2.783,2.137l0.599,0.245l0.087-0.642
				c0.011-0.081,0.228-1.787-0.47-3.501c1.035,0.419,2.066,0.522,2.736,0.522c0.437,0,0.721-0.036,0.753-0.041l0.642-0.086
				l-0.246-0.599C67.095,82.378,66.436,80.805,64.989,79.671z M66.992,77.933c-0.628,0.347-1.663,0.796-2.813,0.796
				c-0.336,0-0.637-0.019-0.921-0.045c-0.556-0.245-1.097-0.43-1.581-0.523c-0.222-0.043-0.413-0.061-0.59-0.068
				c-0.084-0.059-0.144-0.112-0.156-0.15c0.013-0.046,0.082-0.11,0.185-0.179c0.631-0.03,1.381-0.249,2.135-0.58
				c0.287-0.027,0.59-0.046,0.929-0.046C65.329,77.138,66.364,77.587,66.992,77.933z M63.021,74.407
				c0.997-0.575,2.117-0.704,2.834-0.718c-0.37,0.614-1.042,1.521-2.039,2.097c-0.292,0.168-0.562,0.303-0.822,0.422
				c-0.828,0.091-1.602,0.277-2.166,0.572c-0.106-0.008-0.188-0.025-0.219-0.052c-0.011-0.046,0.016-0.133,0.067-0.241
				c0.537-0.344,1.085-0.916,1.576-1.587C62.484,74.738,62.733,74.573,63.021,74.407L63.021,74.407z M60.23,73.445
				c0.12-0.26,0.254-0.531,0.423-0.823l0,0c0.575-0.996,1.481-1.668,2.096-2.039c-0.013,0.718-0.142,1.839-0.717,2.835
				c-0.168,0.292-0.336,0.542-0.501,0.775c-0.489,0.359-0.92,0.735-1.243,1.107c-0.146,0.167-0.254,0.321-0.348,0.469
				c-0.095,0.046-0.174,0.074-0.215,0.068c-0.032-0.034-0.053-0.123-0.062-0.241C59.955,75.034,60.14,74.267,60.23,73.445z
				 M58.505,69.446c0.347,0.628,0.796,1.663,0.796,2.813c0,0.337-0.019,0.639-0.046,0.925c-0.335,0.762-0.56,1.524-0.586,2.16
				c-0.061,0.088-0.116,0.151-0.156,0.163c-0.045-0.013-0.107-0.08-0.174-0.178c-0.029-0.633-0.252-1.389-0.585-2.146
				c-0.026-0.285-0.046-0.586-0.046-0.924C57.709,71.109,58.158,70.074,58.505,69.446z M51.154,73.688
				c0.715,0.012,1.833,0.141,2.835,0.719l0,0c0.287,0.166,0.535,0.33,0.766,0.493c0.495,0.677,1.048,1.252,1.589,1.596
				c0.047,0.098,0.073,0.177,0.064,0.218c-0.034,0.032-0.123,0.052-0.241,0.061c-0.563-0.292-1.331-0.477-2.153-0.567
				c-0.26-0.119-0.53-0.253-0.822-0.422C52.196,75.21,51.524,74.303,51.154,73.688z M50.018,77.933
				c0.628-0.347,1.663-0.796,2.813-0.796c0.339,0,0.642,0.02,0.928,0.046c0.76,0.334,1.517,0.555,2.151,0.582
				c0.092,0.062,0.156,0.12,0.169,0.16c-0.013,0.044-0.077,0.104-0.171,0.169c-0.173,0.008-0.359,0.025-0.575,0.067
				c-0.483,0.093-1.025,0.278-1.58,0.523c-0.285,0.026-0.585,0.045-0.922,0.045C51.681,78.729,50.646,78.28,50.018,77.933z
				 M51.155,82.177c0.37-0.614,1.042-1.521,2.038-2.096c0.294-0.17,0.566-0.302,0.828-0.423c0.827-0.091,1.598-0.277,2.161-0.572
				c0.106,0.008,0.188,0.025,0.218,0.053c0.011,0.045-0.015,0.132-0.066,0.238c-0.534,0.342-1.078,0.915-1.568,1.582
				c-0.234,0.165-0.485,0.333-0.777,0.501C52.993,82.034,51.872,82.163,51.155,82.177z M56.78,82.422
				c-0.12,0.26-0.254,0.531-0.422,0.823c-0.576,0.996-1.482,1.668-2.096,2.038c0.013-0.717,0.142-1.838,0.717-2.834l0,0
				c0.169-0.292,0.336-0.544,0.502-0.778c0.672-0.493,1.248-1.042,1.589-1.579c0.08-0.039,0.15-0.064,0.192-0.064
				c0.009,0,0.016,0.001,0.023,0.002c0.032,0.034,0.052,0.123,0.061,0.24C57.055,80.833,56.87,81.599,56.78,82.422z M57.3,75.829
				c-0.045,0.009-0.131-0.018-0.235-0.067c-0.093-0.146-0.2-0.296-0.343-0.461c-0.323-0.373-0.754-0.749-1.243-1.108
				c-0.165-0.233-0.332-0.484-0.5-0.775c-0.575-0.996-0.704-2.117-0.717-2.835c0.614,0.371,1.52,1.043,2.096,2.039
				c0.169,0.292,0.303,0.562,0.423,0.823c0.091,0.829,0.278,1.602,0.573,2.166C57.345,75.717,57.328,75.799,57.3,75.829z
				 M58.505,86.421c-0.347-0.628-0.796-1.663-0.796-2.813c0-0.336,0.019-0.637,0.045-0.921c0.245-0.556,0.43-1.098,0.523-1.582
				c0.043-0.221,0.06-0.412,0.067-0.588c0.059-0.085,0.113-0.146,0.152-0.158c0.044,0.013,0.104,0.078,0.169,0.171
				c0.008,0.173,0.025,0.359,0.067,0.575c0.094,0.484,0.279,1.025,0.523,1.581c0.026,0.285,0.045,0.585,0.045,0.922
				C59.301,84.758,58.852,85.793,58.505,86.421z M58.54,79.149c-0.651,0-1.181-0.529-1.181-1.181c0-0.652,0.53-1.182,1.181-1.182
				s1.181,0.53,1.181,1.182C59.721,78.62,59.191,79.149,58.54,79.149z M60.653,83.245c-0.169-0.292-0.303-0.563-0.423-0.824
				c-0.091-0.828-0.278-1.601-0.573-2.165c0.008-0.106,0.025-0.188,0.053-0.219c0.009-0.002,0.018-0.003,0.029-0.003
				c0.047,0,0.123,0.028,0.21,0.07c0.342,0.534,0.913,1.077,1.579,1.565c0.166,0.234,0.333,0.486,0.502,0.779
				c0.576,0.997,0.704,2.119,0.718,2.836C62.136,84.917,61.231,84.247,60.653,83.245z M63.021,81.46
				c-0.292-0.168-0.544-0.336-0.778-0.501c-0.492-0.671-1.04-1.246-1.577-1.587c-0.047-0.098-0.073-0.178-0.064-0.218
				c0.034-0.033,0.123-0.052,0.24-0.061c0.562,0.291,1.327,0.476,2.148,0.566c0.261,0.12,0.533,0.253,0.827,0.423l0,0
				c0.997,0.576,1.669,1.483,2.039,2.098C65.141,82.166,64.023,82.038,63.021,81.46z"/>
			<path fill="#008A46" d="M134.072,76.341c1.448-1.134,2.107-2.708,2.138-2.784l0.246-0.599l-0.642-0.086
				c-0.082-0.013-1.774-0.228-3.479,0.459c0.687-1.706,0.47-3.398,0.459-3.479l-0.087-0.641l-0.599,0.245
				c-0.076,0.032-1.649,0.69-2.783,2.138c-0.259-1.821-1.292-3.178-1.342-3.243l-0.396-0.513l-0.396,0.513
				c-0.05,0.065-1.083,1.422-1.341,3.243c-1.134-1.448-2.708-2.106-2.783-2.138l-0.599-0.245l-0.086,0.642
				c-0.011,0.08-0.227,1.772,0.46,3.479c-1.706-0.687-3.398-0.472-3.479-0.459l-0.642,0.086l0.246,0.599
				c0.031,0.076,0.69,1.649,2.138,2.784c-1.821,0.258-3.178,1.291-3.243,1.341l-0.513,0.396l0.512,0.396
				c0.065,0.05,1.422,1.083,3.243,1.342c-1.448,1.135-2.107,2.708-2.138,2.784L118.72,83.2l0.642,0.086
				c0.032,0.005,0.316,0.041,0.753,0.041c0.67,0,1.701-0.104,2.737-0.523c-0.697,1.714-0.481,3.421-0.47,3.501l0.086,0.642
				l0.599-0.245c0.076-0.032,1.649-0.69,2.784-2.138c0.258,1.82,1.291,3.177,1.341,3.242l0.396,0.513l0.396-0.513
				c0.05-0.065,1.083-1.422,1.342-3.242c1.134,1.448,2.708,2.106,2.783,2.138l0.599,0.245l0.087-0.641
				c0.011-0.082,0.228-1.788-0.47-3.503c1.036,0.42,2.067,0.523,2.737,0.523c0.437,0,0.721-0.036,0.753-0.041l0.642-0.086
				l-0.246-0.599c-0.031-0.076-0.69-1.649-2.138-2.784c1.821-0.258,3.178-1.292,3.243-1.342l0.513-0.396l-0.513-0.396
				C137.25,77.632,135.893,76.599,134.072,76.341z M134.939,73.835c-0.37,0.614-1.042,1.521-2.039,2.097
				c-0.292,0.168-0.563,0.303-0.824,0.422c-0.827,0.091-1.599,0.277-2.162,0.571c-0.108-0.008-0.19-0.025-0.22-0.052
				c-0.011-0.044,0.015-0.128,0.063-0.231c0.514-0.327,1.065-0.882,1.588-1.602c0.229-0.161,0.475-0.324,0.759-0.488
				C133.101,73.977,134.222,73.849,134.939,73.835z M129.314,73.591c0.12-0.26,0.254-0.532,0.423-0.824
				c0.576-0.998,1.483-1.67,2.097-2.04c-0.012,0.715-0.14,1.833-0.719,2.835c-0.168,0.292-0.336,0.543-0.501,0.776
				c-0.489,0.359-0.919,0.735-1.242,1.106c-0.146,0.168-0.255,0.322-0.349,0.47c-0.095,0.046-0.174,0.073-0.214,0.067
				c-0.032-0.034-0.052-0.123-0.062-0.241C129.038,75.179,129.223,74.412,129.314,73.591z M127.589,69.591
				c0.347,0.628,0.796,1.663,0.796,2.814c0,0.336-0.019,0.637-0.045,0.921c-0.244,0.556-0.429,1.097-0.522,1.581
				c-0.043,0.221-0.06,0.411-0.067,0.587c-0.059,0.085-0.114,0.146-0.153,0.159c-0.044-0.013-0.104-0.078-0.169-0.172
				c-0.008-0.173-0.025-0.359-0.067-0.574c-0.093-0.484-0.278-1.025-0.522-1.58c-0.026-0.285-0.045-0.585-0.045-0.922
				C126.793,71.254,127.242,70.219,127.589,69.591z M120.239,73.835c0.717,0.014,1.838,0.143,2.834,0.717
				c0.291,0.168,0.541,0.334,0.774,0.5c0.359,0.49,0.736,0.921,1.108,1.245c0.17,0.147,0.327,0.26,0.477,0.354
				c0.043,0.092,0.069,0.169,0.06,0.208c-0.034,0.032-0.123,0.053-0.241,0.062c-0.562-0.291-1.328-0.476-2.149-0.566
				c-0.26-0.12-0.532-0.254-0.824-0.422C121.281,75.355,120.609,74.449,120.239,73.835z M119.102,78.078
				c0.627-0.347,1.662-0.795,2.813-0.795c0.339,0,0.643,0.02,0.93,0.046c0.759,0.333,1.515,0.553,2.148,0.581
				c0.093,0.062,0.157,0.12,0.17,0.16c-0.013,0.045-0.08,0.107-0.179,0.175c-0.632,0.03-1.387,0.252-2.142,0.584
				c-0.286,0.026-0.588,0.046-0.927,0.046C120.764,78.874,119.73,78.425,119.102,78.078z M120.239,82.322
				c0.37-0.614,1.042-1.521,2.039-2.097c0.292-0.168,0.563-0.303,0.823-0.422c0.828-0.091,1.6-0.277,2.164-0.572
				c0.107,0.008,0.189,0.025,0.219,0.053c0.011,0.044-0.015,0.129-0.064,0.232c-0.146,0.093-0.298,0.202-0.464,0.345
				c-0.372,0.322-0.749,0.754-1.109,1.245c-0.233,0.165-0.483,0.331-0.774,0.499C122.077,82.18,120.956,82.308,120.239,82.322z
				 M125.864,82.566c-0.12,0.26-0.254,0.532-0.423,0.824c-0.575,0.997-1.481,1.669-2.096,2.039c0.014-0.717,0.143-1.838,0.718-2.835
				c0.169-0.292,0.337-0.544,0.503-0.777c0.488-0.358,0.918-0.733,1.24-1.104c0.143-0.165,0.25-0.316,0.343-0.461
				c0.099-0.05,0.18-0.08,0.22-0.076c0.032,0.034,0.052,0.123,0.062,0.241C126.139,80.978,125.954,81.744,125.864,82.566z
				 M126.383,75.974c-0.043,0.011-0.128-0.016-0.233-0.066c-0.093-0.146-0.201-0.297-0.344-0.462
				c-0.322-0.372-0.753-0.748-1.242-1.106c-0.166-0.233-0.333-0.485-0.501-0.776c-0.576-0.997-0.704-2.119-0.718-2.836
				c0.613,0.368,1.518,1.038,2.096,2.041c0.169,0.292,0.303,0.563,0.423,0.823c0.091,0.828,0.277,1.6,0.572,2.164
				C126.428,75.861,126.411,75.943,126.383,75.974z M127.589,86.565c-0.347-0.628-0.795-1.663-0.795-2.813
				c0-0.336,0.019-0.637,0.045-0.921c0.244-0.556,0.43-1.097,0.523-1.581c0.043-0.221,0.06-0.411,0.067-0.588
				c0.059-0.085,0.114-0.146,0.152-0.158c0.044,0.013,0.104,0.078,0.17,0.172c0.008,0.173,0.025,0.359,0.067,0.574
				c0.093,0.484,0.278,1.025,0.522,1.581c0.026,0.285,0.045,0.585,0.045,0.921C128.384,84.902,127.936,85.937,127.589,86.565z
				 M127.624,79.295c-0.651,0-1.181-0.53-1.181-1.182s0.53-1.181,1.181-1.181c0.651,0,1.181,0.529,1.181,1.181
				S128.275,79.295,127.624,79.295z M129.736,83.39c-0.169-0.292-0.303-0.563-0.423-0.823c-0.091-0.828-0.277-1.6-0.572-2.164
				c0.008-0.107,0.025-0.189,0.053-0.219c0.008-0.002,0.018-0.004,0.029-0.004c0.046,0,0.118,0.026,0.201,0.065
				c0.094,0.147,0.202,0.3,0.346,0.467c0.323,0.372,0.753,0.748,1.243,1.107c0.165,0.233,0.332,0.484,0.5,0.775
				c0.576,0.998,0.705,2.12,0.718,2.837C131.219,85.062,130.315,84.392,129.736,83.39z M134.939,82.322
				c-0.717-0.014-1.838-0.143-2.834-0.718c-0.291-0.168-0.541-0.334-0.774-0.499c-0.359-0.49-0.736-0.922-1.108-1.244
				c-0.17-0.147-0.326-0.258-0.476-0.352c-0.044-0.094-0.07-0.171-0.061-0.21c0.034-0.033,0.124-0.052,0.242-0.061
				c0.562,0.29,1.326,0.475,2.145,0.565c0.262,0.12,0.534,0.253,0.828,0.423C133.897,80.802,134.568,81.708,134.939,82.322z
				 M133.262,78.874c-0.338,0-0.64-0.02-0.926-0.046c-0.762-0.334-1.523-0.559-2.158-0.585c-0.089-0.061-0.152-0.116-0.164-0.156
				c0.014-0.046,0.083-0.11,0.185-0.179c0.63-0.03,1.38-0.249,2.133-0.579c0.287-0.027,0.591-0.046,0.93-0.046
				c1.15,0,2.185,0.448,2.813,0.795C135.447,78.425,134.413,78.874,133.262,78.874z"/>
			<path fill="#008A46" d="M83.974,85.502c0.437,0,0.721-0.036,0.753-0.041l0.642-0.086l-0.246-0.599
				c-0.031-0.076-0.69-1.649-2.137-2.783c1.821-0.259,3.178-1.292,3.242-1.342l0.512-0.396l-0.512-0.396
				c-0.065-0.05-1.422-1.083-3.243-1.342c1.448-1.135,2.107-2.708,2.138-2.784l0.246-0.599l-0.642-0.086
				c-0.081-0.012-1.773-0.227-3.479,0.46c0.687-1.707,0.47-3.399,0.46-3.479l-0.087-0.642l-0.599,0.245
				c-0.076,0.032-1.649,0.69-2.783,2.138c-0.259-1.82-1.292-3.177-1.342-3.242l-0.396-0.513l-0.396,0.513
				c-0.05,0.065-1.083,1.422-1.342,3.242c-1.134-1.448-2.708-2.106-2.783-2.138l-0.599-0.245l-0.087,0.642
				c-0.011,0.08-0.227,1.772,0.46,3.479c-1.706-0.688-3.398-0.472-3.479-0.46l-0.642,0.086l0.246,0.599
				c0.031,0.076,0.69,1.649,2.138,2.784c-1.821,0.258-3.178,1.292-3.243,1.342l-0.512,0.396l0.512,0.396
				c0.065,0.05,1.422,1.083,3.242,1.342c-1.447,1.134-2.106,2.707-2.137,2.783l-0.246,0.599l0.642,0.086
				c0.032,0.005,0.316,0.041,0.753,0.041c0.671,0,1.701-0.104,2.737-0.522c-0.698,1.714-0.481,3.42-0.47,3.501l0.087,0.642
				l0.599-0.245c0.076-0.032,1.649-0.69,2.783-2.137c0.259,1.821,1.292,3.178,1.342,3.243l0.396,0.513l0.396-0.513
				c0.05-0.065,1.083-1.422,1.342-3.243c1.134,1.447,2.708,2.105,2.783,2.137l0.599,0.245l0.087-0.642
				c0.011-0.081,0.228-1.787-0.47-3.501C82.273,85.398,83.303,85.502,83.974,85.502z M84.989,80.256
				c-0.628,0.347-1.663,0.796-2.813,0.796c-0.335,0-0.636-0.019-0.92-0.045c-0.556-0.245-1.098-0.431-1.582-0.523
				c-0.222-0.043-0.413-0.061-0.59-0.068c-0.084-0.058-0.144-0.112-0.156-0.15c0.013-0.046,0.081-0.108,0.182-0.177
				c0.173-0.008,0.35-0.019,0.564-0.06c0.484-0.093,1.025-0.278,1.581-0.523c0.285-0.026,0.585-0.045,0.922-0.045
				C83.326,79.46,84.361,79.909,84.989,80.256z M81.017,76.729c0.997-0.575,2.117-0.704,2.834-0.718
				c-0.37,0.614-1.042,1.521-2.039,2.097c-0.292,0.168-0.562,0.303-0.822,0.422c-0.828,0.091-1.601,0.277-2.165,0.572
				c-0.107-0.008-0.189-0.025-0.22-0.053c-0.011-0.044,0.015-0.127,0.062-0.229c0.146-0.093,0.3-0.205,0.466-0.349
				c0.373-0.322,0.749-0.754,1.109-1.244C80.476,77.063,80.726,76.897,81.017,76.729L81.017,76.729z M78.227,75.766
				c0.12-0.26,0.254-0.53,0.422-0.822l0,0c0.575-0.997,1.481-1.669,2.096-2.039c-0.013,0.717-0.142,1.838-0.717,2.835
				c-0.168,0.292-0.336,0.543-0.501,0.776c-0.489,0.358-0.92,0.734-1.242,1.106c-0.145,0.167-0.254,0.321-0.347,0.468
				c-0.096,0.047-0.175,0.075-0.216,0.069c-0.032-0.034-0.052-0.123-0.062-0.24C77.952,77.356,78.136,76.589,78.227,75.766z
				 M76.502,71.768c0.347,0.628,0.796,1.663,0.796,2.813c0,0.335-0.019,0.636-0.045,0.92c-0.245,0.556-0.43,1.098-0.523,1.582
				c-0.043,0.221-0.06,0.412-0.067,0.588c-0.059,0.085-0.113,0.146-0.152,0.158c-0.044-0.013-0.104-0.078-0.169-0.171
				c-0.008-0.173-0.025-0.359-0.067-0.575c-0.094-0.484-0.279-1.026-0.523-1.582c-0.026-0.284-0.045-0.584-0.045-0.92
				C75.706,73.432,76.155,72.396,76.502,71.768z M69.151,76.011c0.715,0.012,1.833,0.141,2.835,0.719l0,0
				c0.29,0.167,0.541,0.334,0.773,0.498c0.36,0.491,0.736,0.922,1.109,1.245c0.17,0.148,0.327,0.26,0.477,0.354
				c0.043,0.092,0.068,0.169,0.06,0.208c-0.034,0.033-0.123,0.053-0.241,0.062c-0.563-0.292-1.33-0.476-2.152-0.566
				c-0.26-0.12-0.531-0.254-0.823-0.422C70.193,77.532,69.521,76.625,69.151,76.011z M68.015,80.256
				c0.628-0.347,1.663-0.796,2.813-0.796c0.336,0,0.637,0.019,0.921,0.045c0.556,0.245,1.097,0.43,1.581,0.523
				c0.221,0.042,0.404,0.054,0.58,0.062c0.09,0.061,0.154,0.118,0.166,0.157c-0.013,0.045-0.079,0.106-0.176,0.172
				c-0.634,0.029-1.392,0.253-2.15,0.587c-0.285,0.026-0.586,0.045-0.922,0.045C69.677,81.052,68.642,80.602,68.015,80.256z
				 M69.152,84.499c0.37-0.614,1.042-1.521,2.039-2.097c0.291-0.168,0.562-0.302,0.821-0.421c0.829-0.091,1.603-0.278,2.167-0.573
				c0.106,0.008,0.188,0.025,0.218,0.053c0.011,0.044-0.015,0.129-0.063,0.231c-0.146,0.093-0.299,0.202-0.465,0.346
				c-0.372,0.323-0.749,0.754-1.108,1.245c-0.233,0.165-0.484,0.332-0.775,0.5C70.989,84.356,69.869,84.485,69.152,84.499z
				 M74.776,84.745c-0.12,0.26-0.254,0.531-0.422,0.823c-0.576,0.996-1.482,1.668-2.096,2.038c0.013-0.717,0.142-1.838,0.717-2.834
				l0,0c0.169-0.292,0.336-0.544,0.502-0.778c0.672-0.493,1.248-1.042,1.589-1.579c0.08-0.039,0.149-0.064,0.192-0.064
				c0.009,0,0.017,0.001,0.024,0.002c0.032,0.034,0.052,0.123,0.061,0.24C75.052,83.155,74.867,83.922,74.776,84.745z M75.296,78.15
				c-0.045,0.008-0.131-0.02-0.237-0.072c-0.093-0.144-0.199-0.293-0.34-0.457c-0.322-0.372-0.753-0.747-1.242-1.105
				c-0.166-0.233-0.333-0.484-0.501-0.776c-0.575-0.997-0.704-2.118-0.718-2.835c0.614,0.37,1.52,1.042,2.096,2.039l0,0
				c0.168,0.292,0.302,0.562,0.422,0.822c0.091,0.828,0.277,1.602,0.573,2.166C75.341,78.038,75.324,78.12,75.296,78.15z
				 M76.502,88.743c-0.347-0.628-0.796-1.663-0.796-2.814c0-0.335,0.019-0.636,0.045-0.919c0.245-0.556,0.43-1.098,0.524-1.583
				c0.043-0.221,0.06-0.412,0.067-0.588c0.059-0.085,0.113-0.146,0.152-0.158c0.044,0.013,0.104,0.078,0.169,0.171
				c0.008,0.173,0.025,0.359,0.067,0.575c0.094,0.484,0.279,1.026,0.523,1.582c0.026,0.284,0.045,0.584,0.045,0.92
				C77.297,87.08,76.849,88.115,76.502,88.743z M76.536,81.472c-0.651,0-1.181-0.529-1.181-1.181s0.53-1.182,1.181-1.182
				s1.181,0.53,1.181,1.182S77.188,81.472,76.536,81.472z M78.649,85.567c-0.168-0.292-0.303-0.562-0.422-0.823
				c-0.091-0.829-0.278-1.602-0.573-2.166c0.008-0.106,0.025-0.188,0.053-0.219c0.009-0.002,0.018-0.004,0.029-0.004
				c0.047,0,0.122,0.028,0.209,0.069c0.342,0.534,0.913,1.078,1.58,1.567c0.166,0.234,0.333,0.486,0.502,0.778
				c0.576,0.997,0.704,2.119,0.718,2.836C80.132,87.239,79.228,86.569,78.649,85.567z M81.017,83.782
				c-0.291-0.168-0.541-0.334-0.774-0.499c-0.359-0.49-0.736-0.922-1.108-1.245c-0.17-0.147-0.326-0.258-0.476-0.352
				c-0.044-0.094-0.07-0.171-0.061-0.21c0.033-0.033,0.123-0.052,0.24-0.061c0.562,0.291,1.328,0.476,2.149,0.566
				c0.261,0.12,0.532,0.252,0.825,0.421c0.998,0.576,1.67,1.483,2.04,2.099C83.138,84.488,82.019,84.36,81.017,83.782z"/>
		</g>
	</g>
	
		<text id="website_x5F_name_00000013157328125199076310000018245764342677576634_" transform="matrix(1 0 0 1 155.8976 109.7963)" fill="#58595B" font-family="'Georgia-Bold'" font-size="60px">Book Garden</text>
</g>
</svg>
