<?xml version="1.0" encoding="utf-8"?>
<!-- Generator: Adobe Illustrator 26.0.1, SVG Export Plug-In . SVG Version: 6.00 Build 0)  -->
<svg version="1.1" id="Layer_1" xmlns="http://www.w3.org/2000/svg" xmlns:xlink="http://www.w3.org/1999/xlink" x="0px" y="0px"
	 viewBox="0 0 320.684 100.684" enable-background="new 0 0 320.684 100.684" xml:space="preserve">
<g id="logo_00000083770944104244374300000018318965177120565405_">
	<g id="logo_00000070092493239152127340000014105652685255001500_">
		<g id="website_x5F_name_00000166666219017070253620000004794695991351708330_">
			<path fill="#FFFFFF" d="M97.86,52.124c0.734,0.505,1.331,1.139,1.791,1.903c0.459,0.764,0.689,1.661,0.689,2.695
				c0,1.24-0.261,2.288-0.783,3.142c-0.523,0.855-1.272,1.529-2.247,2.023c-1.033,0.528-2.224,0.901-3.573,1.119
				s-2.936,0.327-4.761,0.327h-12.69V61.99c0.356-0.034,0.803-0.086,1.343-0.155c0.539-0.069,0.918-0.149,1.136-0.241
				c0.424-0.172,0.715-0.398,0.869-0.68c0.155-0.281,0.232-0.646,0.232-1.093V42.603c0-0.413-0.063-0.758-0.189-1.033
				c-0.127-0.275-0.43-0.517-0.913-0.723c-0.356-0.149-0.769-0.273-1.24-0.37s-0.884-0.175-1.24-0.232v-1.343h13.275
				c3.34,0,5.751,0.459,7.231,1.377c1.481,0.918,2.221,2.273,2.221,4.063c0,0.826-0.166,1.552-0.499,2.178s-0.809,1.168-1.429,1.627
				c-0.562,0.425-1.234,0.792-2.014,1.102c-0.781,0.31-1.618,0.568-2.514,0.775v0.327c0.895,0.092,1.825,0.29,2.789,0.594
				C96.31,51.249,97.148,51.642,97.86,52.124z M92.316,44.772c0-1.354-0.382-2.41-1.145-3.168c-0.764-0.758-1.909-1.136-3.435-1.136
				c-0.218,0-0.502,0.009-0.852,0.026s-0.652,0.032-0.904,0.043v9.056h0.895c1.859,0,3.231-0.433,4.115-1.3
				S92.316,46.253,92.316,44.772z M93.521,56.506c0-1.702-0.505-3.007-1.515-3.915s-2.462-1.362-4.356-1.362
				c-0.218,0-0.508,0.009-0.869,0.026c-0.362,0.017-0.628,0.032-0.801,0.043v8.951c0.103,0.426,0.424,0.785,0.964,1.078
				c0.539,0.293,1.194,0.44,1.963,0.44c1.366,0,2.476-0.46,3.332-1.38C93.093,59.466,93.521,58.173,93.521,56.506z"/>
			<path fill="#FFFFFF" d="M120.38,48.284c0.849,0.792,1.498,1.739,1.946,2.841s0.671,2.296,0.671,3.581
				c0,1.274-0.221,2.477-0.663,3.607c-0.442,1.131-1.088,2.098-1.937,2.901c-0.907,0.861-1.989,1.521-3.245,1.98
				c-1.257,0.459-2.695,0.689-4.313,0.689c-1.401,0-2.689-0.201-3.865-0.603c-1.177-0.402-2.218-1.004-3.125-1.808
				c-0.872-0.769-1.561-1.719-2.066-2.85c-0.505-1.13-0.758-2.396-0.758-3.796c0-1.377,0.221-2.602,0.663-3.676
				c0.442-1.073,1.104-2.029,1.989-2.867c0.849-0.803,1.897-1.426,3.142-1.868c1.245-0.441,2.637-0.663,4.175-0.663
				c1.607,0,3.022,0.222,4.244,0.663C118.461,46.858,119.508,47.481,120.38,48.284z M115.973,60.216
				c0.252-0.643,0.439-1.423,0.56-2.342c0.121-0.918,0.181-1.986,0.181-3.202c0-0.803-0.058-1.722-0.172-2.755
				c-0.115-1.033-0.287-1.848-0.517-2.445c-0.275-0.723-0.657-1.291-1.145-1.705c-0.488-0.413-1.105-0.62-1.851-0.62
				c-0.815,0-1.466,0.224-1.954,0.671c-0.488,0.448-0.864,1.027-1.128,1.739c-0.241,0.654-0.407,1.42-0.499,2.299
				c-0.092,0.878-0.138,1.793-0.138,2.746c0,1.251,0.04,2.288,0.121,3.108c0.08,0.821,0.275,1.644,0.585,2.471
				c0.264,0.712,0.643,1.274,1.136,1.687c0.493,0.413,1.119,0.62,1.877,0.62c0.689,0,1.28-0.192,1.773-0.577
				C115.295,61.527,115.686,60.962,115.973,60.216z"/>
			<path fill="#FFFFFF" d="M142.798,48.284c0.849,0.792,1.498,1.739,1.946,2.841s0.671,2.296,0.671,3.581
				c0,1.274-0.221,2.477-0.663,3.607c-0.442,1.131-1.088,2.098-1.937,2.901c-0.907,0.861-1.989,1.521-3.246,1.98
				s-2.695,0.689-4.313,0.689c-1.401,0-2.689-0.201-3.865-0.603c-1.177-0.402-2.218-1.004-3.125-1.808
				c-0.872-0.769-1.561-1.719-2.066-2.85c-0.505-1.13-0.758-2.396-0.758-3.796c0-1.377,0.221-2.602,0.663-3.676
				c0.442-1.073,1.104-2.029,1.989-2.867c0.849-0.803,1.896-1.426,3.142-1.868c1.245-0.441,2.637-0.663,4.175-0.663
				c1.607,0,3.022,0.222,4.244,0.663C140.878,46.858,141.925,47.481,142.798,48.284z M138.39,60.216
				c0.252-0.643,0.439-1.423,0.56-2.342c0.121-0.918,0.181-1.986,0.181-3.202c0-0.803-0.058-1.722-0.172-2.755
				c-0.115-1.033-0.287-1.848-0.517-2.445c-0.275-0.723-0.657-1.291-1.145-1.705c-0.488-0.413-1.105-0.62-1.851-0.62
				c-0.815,0-1.466,0.224-1.954,0.671c-0.488,0.448-0.864,1.027-1.128,1.739c-0.241,0.654-0.407,1.42-0.499,2.299
				c-0.092,0.878-0.138,1.793-0.138,2.746c0,1.251,0.04,2.288,0.121,3.108c0.08,0.821,0.275,1.644,0.585,2.471
				c0.264,0.712,0.643,1.274,1.136,1.687s1.119,0.62,1.877,0.62c0.689,0,1.28-0.192,1.773-0.577
				C137.712,61.527,138.103,60.962,138.39,60.216z"/>
			<path fill="#FFFFFF" d="M169.726,63.332h-8.115c-0.998-1.752-1.909-3.237-2.735-4.456s-1.606-2.35-2.34-3.392l-1.014,0.858v3.753
				c0,0.413,0.06,0.752,0.181,1.016s0.353,0.459,0.697,0.585c0.207,0.092,0.448,0.172,0.723,0.241
				c0.275,0.069,0.551,0.115,0.826,0.138v1.257h-10.692v-1.257c0.289-0.023,0.578-0.054,0.867-0.095
				c0.289-0.04,0.543-0.095,0.763-0.164c0.37-0.126,0.621-0.321,0.754-0.585s0.199-0.608,0.199-1.033V41
				c0-0.379-0.083-0.772-0.25-1.179c-0.166-0.407-0.411-0.715-0.732-0.921c-0.218-0.138-0.545-0.253-0.981-0.344
				c-0.436-0.092-0.832-0.149-1.188-0.172v-1.257l8.574-0.448l0.259,0.275v17.767c0.848-0.758,1.802-1.635,2.863-2.634
				c1.06-0.998,1.912-1.824,2.554-2.479c0.379-0.39,0.588-0.686,0.628-0.887c0.04-0.2,0.06-0.324,0.06-0.37
				c0-0.207-0.181-0.379-0.544-0.517s-0.908-0.258-1.636-0.362V46.25h8.747v1.188c-1.146,0.321-2.02,0.623-2.622,0.904
				c-0.601,0.282-1.258,0.657-1.968,1.128c-0.47,0.31-0.925,0.635-1.366,0.975s-0.947,0.762-1.519,1.27
				c1.123,1.629,2.16,3.137,3.111,4.525c0.951,1.388,1.948,2.856,2.991,4.405c0.355,0.539,0.796,0.9,1.324,1.084
				c0.527,0.184,1.055,0.298,1.582,0.344v1.259C169.727,63.332,169.726,63.332,169.726,63.332z"/>
			<path fill="#FFFFFF" d="M206.261,53.398c-0.356,0.034-0.671,0.075-0.947,0.121s-0.62,0.138-1.033,0.275
				c-0.471,0.149-0.781,0.396-0.93,0.74c-0.149,0.344-0.224,0.706-0.224,1.085v2.841c0,0.574,0.006,1.036,0.017,1.386
				c0.011,0.351,0.028,0.783,0.052,1.3c-1.148,0.689-2.844,1.337-5.088,1.946c-2.244,0.608-4.307,0.913-6.19,0.913
				c-1.768,0-3.426-0.27-4.976-0.81c-1.55-0.539-2.91-1.349-4.081-2.429c-1.171-1.067-2.092-2.394-2.763-3.98
				c-0.671-1.585-1.007-3.4-1.007-5.444c0-1.907,0.316-3.67,0.947-5.29c0.631-1.62,1.544-3.015,2.738-4.187
				c1.171-1.16,2.597-2.056,4.279-2.687c1.681-0.632,3.544-0.948,5.587-0.948c1.389,0,2.674,0.172,3.857,0.517
				c1.182,0.344,2.158,0.712,2.927,1.102l1.067-0.947h1.498l0.155,8.919h-1.515c-0.872-2.68-1.917-4.671-3.134-5.97
				c-1.217-1.3-2.755-1.95-4.614-1.95c-2.204,0-3.906,0.965-5.105,2.895c-1.199,1.93-1.799,4.589-1.799,7.977
				c0,3.596,0.588,6.411,1.765,8.443c1.177,2.033,2.843,3.05,5.002,3.05c1.01,0,1.908-0.152,2.695-0.456
				c0.786-0.304,1.397-0.657,1.834-1.059v-4.959c0-0.413-0.075-0.76-0.224-1.042c-0.149-0.281-0.448-0.525-0.895-0.732
				c-0.344-0.161-0.775-0.293-1.291-0.396s-0.947-0.178-1.291-0.224v-1.343h12.689v1.343
				C206.263,53.398,206.261,53.398,206.261,53.398z"/>
			<path fill="#FFFFFF" d="M227.008,62.971c-0.504,0.218-1.1,0.419-1.787,0.603c-0.687,0.184-1.415,0.275-2.182,0.275
				c-1.409,0-2.446-0.209-3.11-0.628c-0.665-0.419-1.117-1.019-1.358-1.799h-0.103c-0.391,0.39-0.768,0.723-1.13,0.999
				c-0.362,0.275-0.75,0.511-1.164,0.706c-0.54,0.253-1.061,0.442-1.561,0.568s-1.198,0.189-2.095,0.189
				c-1.334,0-2.472-0.394-3.415-1.181s-1.414-1.831-1.414-3.13c0-0.747,0.103-1.383,0.31-1.905c0.207-0.523,0.5-0.985,0.88-1.388
				c0.345-0.368,0.744-0.673,1.198-0.914c0.454-0.242,0.951-0.466,1.492-0.673c1.034-0.379,2.276-0.772,3.725-1.181
				c1.449-0.408,2.506-0.773,3.173-1.095v-1.653c0-0.287-0.023-0.666-0.069-1.136c-0.046-0.471-0.144-0.867-0.293-1.188
				c-0.161-0.367-0.414-0.677-0.758-0.93c-0.344-0.253-0.798-0.379-1.36-0.379c-0.505,0-0.927,0.072-1.266,0.215
				c-0.339,0.144-0.612,0.29-0.818,0.439c0.034,0.23,0.133,0.58,0.294,1.05c0.161,0.471,0.242,0.924,0.242,1.36
				c0,0.195-0.052,0.439-0.156,0.732s-0.253,0.525-0.449,0.697c-0.265,0.23-0.561,0.407-0.889,0.534
				c-0.328,0.126-0.832,0.189-1.511,0.189c-0.967,0-1.698-0.232-2.193-0.697s-0.743-1.07-0.743-1.816c0-0.643,0.255-1.22,0.766-1.73
				c0.51-0.51,1.133-0.933,1.868-1.265c0.723-0.344,1.555-0.611,2.497-0.801c0.941-0.189,1.814-0.284,2.617-0.284
				c1.113,0,2.135,0.067,3.065,0.198c0.93,0.132,1.767,0.405,2.514,0.818c0.712,0.402,1.277,0.984,1.696,1.748
				s0.628,1.759,0.628,2.987c0,1.297-0.026,2.835-0.077,4.614s-0.077,2.95-0.077,3.512c0,0.517,0.077,0.924,0.232,1.222
				s0.393,0.522,0.715,0.671c0.195,0.092,0.502,0.146,0.921,0.164c0.419,0.017,0.801,0.026,1.145,0.026L227.008,62.971
				L227.008,62.971z M218.469,54.001c-0.645,0.219-1.285,0.469-1.918,0.751c-0.634,0.282-1.152,0.579-1.555,0.889
				c-0.426,0.322-0.76,0.734-1.002,1.234s-0.363,1.09-0.363,1.769c0,0.898,0.204,1.548,0.614,1.951
				c0.409,0.403,0.913,0.604,1.512,0.604c0.634,0,1.155-0.13,1.564-0.388c0.409-0.259,0.769-0.579,1.08-0.958L218.469,54.001z"/>
			<path fill="#FFFFFF" d="M245.483,49.403c0,0.872-0.27,1.639-0.809,2.299c-0.54,0.661-1.251,0.99-2.135,0.99
				c-0.838,0-1.547-0.211-2.126-0.635c-0.58-0.422-0.869-1.046-0.869-1.869c0-0.399,0.028-0.711,0.086-0.934
				c0.057-0.223,0.109-0.432,0.155-0.626c-0.528,0.023-1.085,0.205-1.67,0.546c-0.585,0.341-1.102,0.796-1.55,1.365v9.452
				c0,0.402,0.063,0.735,0.189,0.999c0.126,0.264,0.338,0.471,0.637,0.62c0.252,0.126,0.663,0.232,1.231,0.319
				c0.568,0.086,0.979,0.135,1.231,0.146v1.257h-11.519v-1.257c0.287-0.023,0.577-0.054,0.869-0.095
				c0.293-0.04,0.542-0.095,0.749-0.164c0.367-0.126,0.62-0.321,0.758-0.585s0.207-0.608,0.207-1.033V50.177
				c0-0.413-0.098-0.783-0.293-1.111c-0.195-0.327-0.43-0.588-0.706-0.783c-0.207-0.138-0.468-0.253-0.783-0.344
				c-0.316-0.092-0.663-0.155-1.042-0.189v-1.257l8.213-0.448l0.258,0.258V48.8h0.069c0.792-0.918,1.633-1.638,2.522-2.161
				c0.889-0.522,1.816-0.783,2.781-0.783c1.067,0,1.925,0.33,2.574,0.99C245.158,47.507,245.483,48.359,245.483,49.403z"/>
			<path fill="#FFFFFF" d="M268.916,62.971l-8.488,0.499l-0.258-0.241v-1.584l-0.12-0.034c-0.562,0.608-1.321,1.139-2.279,1.593
				c-0.957,0.453-1.923,0.68-2.897,0.68c-2.316,0-4.224-0.861-5.726-2.583s-2.253-3.949-2.253-6.68c0-2.422,0.84-4.499,2.519-6.233
				c1.679-1.733,3.711-2.6,6.096-2.6c0.94,0,1.823,0.106,2.648,0.319c0.826,0.213,1.484,0.462,1.977,0.749v-5.63
				c0-0.425-0.086-0.824-0.258-1.197c-0.172-0.372-0.402-0.663-0.689-0.869c-0.356-0.253-0.801-0.433-1.334-0.542
				c-0.534-0.109-1.07-0.187-1.61-0.232v-1.257l9.314-0.448l0.259,0.275v22.572c0,0.436,0.071,0.803,0.214,1.102
				c0.143,0.298,0.374,0.534,0.694,0.706c0.24,0.126,0.591,0.218,1.053,0.275c0.462,0.057,0.842,0.092,1.139,0.103v1.257
				C268.917,62.971,268.916,62.971,268.916,62.971z M260.135,59.906v-9.728c-0.08-0.264-0.192-0.557-0.335-0.878
				s-0.341-0.626-0.593-0.913c-0.229-0.241-0.535-0.453-0.919-0.637s-0.816-0.275-1.297-0.275c-1.145,0-2.084,0.649-2.816,1.946
				c-0.733,1.297-1.099,3.128-1.099,5.492c0,0.93,0.066,1.765,0.197,2.505s0.364,1.415,0.696,2.023s0.758,1.085,1.28,1.429
				c0.521,0.344,1.148,0.517,1.881,0.517c0.698,0,1.277-0.135,1.735-0.405C259.322,60.713,259.745,60.354,260.135,59.906z"/>
			<path fill="#FFFFFF" d="M288.561,59.217c-0.402,0.654-0.887,1.272-1.455,1.851c-0.568,0.58-1.214,1.076-1.937,1.489
				c-0.769,0.436-1.547,0.766-2.333,0.99s-1.69,0.336-2.712,0.336c-1.699,0-3.165-0.241-4.399-0.723
				c-1.234-0.482-2.253-1.131-3.056-1.946s-1.403-1.776-1.799-2.884s-0.594-2.31-0.594-3.607c0-1.171,0.215-2.292,0.646-3.366
				c0.43-1.073,1.042-2.029,1.834-2.867c0.781-0.815,1.765-1.475,2.953-1.98s2.516-0.758,3.986-0.758
				c1.607,0,2.927,0.195,3.96,0.585s1.888,0.93,2.565,1.618c0.654,0.654,1.13,1.427,1.429,2.316c0.298,0.89,0.448,1.822,0.448,2.798
				v1.119h-11.639c0,2.353,0.453,4.144,1.36,5.372c0.906,1.228,2.347,1.842,4.322,1.842c1.079,0,2.049-0.295,2.91-0.887
				c0.861-0.591,1.595-1.34,2.204-2.247L288.561,59.217z M281.984,52.675c0-0.689-0.034-1.395-0.103-2.118s-0.189-1.314-0.362-1.773
				c-0.195-0.539-0.462-0.947-0.801-1.222s-0.766-0.413-1.283-0.413c-0.884,0-1.59,0.448-2.118,1.343s-0.815,2.313-0.861,4.253
				L281.984,52.675z"/>
			<path fill="#FFFFFF" d="M312.941,63.332h-10.348v-1.257c0.218-0.023,0.482-0.052,0.792-0.086s0.545-0.092,0.706-0.172
				c0.241-0.126,0.413-0.31,0.517-0.551s0.155-0.597,0.155-1.067v-8.058c0-1.171-0.216-2.051-0.648-2.643
				c-0.431-0.591-1.067-0.887-1.907-0.887c-0.461,0-0.889,0.069-1.286,0.207s-0.785,0.339-1.165,0.603
				c-0.334,0.23-0.601,0.465-0.803,0.706s-0.371,0.453-0.509,0.637v9.246c0,0.402,0.057,0.738,0.172,1.007
				c0.115,0.27,0.304,0.473,0.568,0.611c0.183,0.103,0.413,0.195,0.689,0.275s0.545,0.138,0.809,0.172v1.257h-10.468v-1.257
				c0.287-0.023,0.577-0.054,0.869-0.095c0.293-0.04,0.542-0.095,0.749-0.164c0.367-0.126,0.62-0.321,0.758-0.585
				s0.207-0.608,0.207-1.033V50.177c0-0.356-0.092-0.706-0.275-1.05c-0.184-0.344-0.425-0.626-0.723-0.844
				c-0.207-0.138-0.468-0.253-0.783-0.344c-0.316-0.092-0.663-0.155-1.042-0.189v-1.257l8.213-0.448l0.258,0.258V48.8h0.069
				c0.321-0.287,0.712-0.631,1.171-1.033c0.459-0.402,0.884-0.729,1.274-0.981c0.424-0.275,0.981-0.511,1.67-0.706
				c0.689-0.195,1.423-0.293,2.204-0.293c1.871,0,3.274,0.531,4.21,1.593c0.935,1.062,1.403,2.471,1.403,4.227v8.437
				c0,0.425,0.063,0.763,0.189,1.016s0.362,0.453,0.706,0.603c0.183,0.08,0.41,0.161,0.68,0.241c0.269,0.08,0.577,0.138,0.921,0.172
				v1.256H312.941z"/>
		</g>
	</g>
	<g>
		<g id="book_00000096035902077623111700000004188528799664228255_">
			<path fill="#008A46" d="M39.91,52.893C18.473,31.67,7.925,53.092,7.925,53.092l1.101,9.929
				c8.52-20.139,29.274-2.788,30.853-0.281v0.112c0.008-0.017,0.021-0.038,0.032-0.057c0.011,0.019,0.023,0.04,0.031,0.057V62.74
				c1.579-2.507,22.333-19.858,30.749,0.112l1.101-9.929C71.791,52.923,61.347,31.67,39.91,52.893z"/>
			<path fill="#CCCCCC" d="M39.874,50.89C18.268,31.258,7.741,50.918,7.741,50.918l1.109,9.184
				c8.483-18.473,29.401-2.423,30.992-0.104v0.104c0.008-0.016,0.021-0.035,0.032-0.052c0.011,0.018,0.024,0.037,0.032,0.052v-0.104
				c1.591-2.319,22.509-18.369,30.992,0.104l1.109-9.184C72.006,50.919,61.48,31.258,39.874,50.89z"/>
			<path d="M39.753,50.783c-0.018,0.024-0.034,0.05-0.034,0.082l-0.023,8.947c0.058,0.069,0.109,0.133,0.146,0.187v0.104
				c0.008-0.016,0.021-0.035,0.032-0.052c0.011,0.018,0.024,0.037,0.032,0.052v-0.104c0.023-0.034,0.052-0.072,0.084-0.112
				l0.023-9.021c0-0.028-0.016-0.05-0.03-0.072c-0.037,0.033-0.072,0.063-0.109,0.097C39.833,50.853,39.793,50.82,39.753,50.783z"/>
		</g>
		<g>
			<path fill="#FFFFFF" d="M30.283,47.236c-0.025-0.127-0.035-0.236-0.039-0.338c-0.038-0.055-0.074-0.093-0.099-0.101
				c-0.023,0.007-0.055,0.043-0.089,0.093c-0.004,0.104-0.014,0.216-0.039,0.346c-0.055,0.285-0.164,0.603-0.308,0.93
				c-0.015,0.167-0.026,0.343-0.026,0.54c0,0.677,0.264,1.285,0.468,1.654c0.204-0.369,0.468-0.977,0.468-1.654
				c0-0.197-0.011-0.374-0.027-0.541C30.447,47.839,30.338,47.52,30.283,47.236z"/>
			<path fill="#FFFFFF" d="M28.888,42.251L28.888,42.251c-0.338-0.586-0.871-0.981-1.232-1.198c0.008,0.421,0.084,1.08,0.422,1.666
				c0.099,0.172,0.197,0.319,0.295,0.456c0.287,0.211,0.54,0.431,0.73,0.65c0.083,0.096,0.146,0.184,0.2,0.268
				c0.062,0.03,0.113,0.047,0.139,0.042c0.017-0.018,0.026-0.066,0.031-0.128c-0.173-0.331-0.283-0.786-0.336-1.273
				C29.066,42.581,28.987,42.422,28.888,42.251z"/>
			<path fill="#FFFFFF" d="M30.17,44.699c-0.383,0-0.694,0.312-0.694,0.694c0,0.383,0.311,0.694,0.694,0.694
				s0.694-0.311,0.694-0.694C30.865,45.01,30.553,44.699,30.17,44.699z"/>
			<path fill="#FFFFFF" d="M31.927,47.569c-0.392-0.288-0.728-0.607-0.929-0.921c-0.051-0.024-0.095-0.041-0.123-0.041
				c-0.006,0-0.012,0.001-0.017,0.002c-0.016,0.018-0.026,0.066-0.031,0.129c0.173,0.331,0.283,0.786,0.337,1.273
				c0.07,0.153,0.149,0.312,0.248,0.484c0.34,0.589,0.871,0.983,1.232,1.199c-0.008-0.421-0.083-1.081-0.422-1.667
				C32.123,47.854,32.024,47.706,31.927,47.569z"/>
			<path fill="#FFFFFF" d="M27.357,45.813c0.446-0.196,0.891-0.328,1.264-0.345c0.057-0.039,0.096-0.075,0.103-0.101
				c-0.007-0.023-0.045-0.057-0.098-0.092c-0.104-0.004-0.211-0.011-0.341-0.036c-0.284-0.055-0.602-0.164-0.929-0.307
				c-0.167-0.015-0.344-0.027-0.541-0.027c-0.676,0-1.284,0.264-1.653,0.468c0.369,0.204,0.977,0.468,1.653,0.468
				C27.013,45.84,27.19,45.829,27.357,45.813z"/>
			<path fill="#FFFFFF" d="M29.419,46.603c-0.025,0-0.066,0.015-0.113,0.038c-0.2,0.316-0.539,0.638-0.934,0.928
				c-0.097,0.138-0.196,0.286-0.295,0.457l0,0c-0.338,0.585-0.414,1.244-0.422,1.666c0.361-0.218,0.893-0.612,1.232-1.198
				c0.099-0.172,0.178-0.331,0.248-0.484c0.053-0.484,0.162-0.934,0.333-1.265c-0.005-0.069-0.017-0.121-0.036-0.141
				C29.429,46.603,29.424,46.603,29.419,46.603z"/>
			<path fill="#FFFFFF" d="M28.602,46.42c0.098-0.085,0.187-0.148,0.273-0.203c0.028-0.06,0.044-0.11,0.037-0.136
				c-0.018-0.016-0.066-0.026-0.128-0.031c-0.332,0.174-0.787,0.283-1.274,0.337c-0.153,0.07-0.311,0.149-0.483,0.247
				c-0.586,0.339-0.981,0.871-1.198,1.232c0.421-0.008,1.08-0.084,1.666-0.421c0.171-0.099,0.318-0.197,0.455-0.294
				C28.162,46.863,28.384,46.609,28.602,46.42z"/>
			<path fill="#FFFFFF" d="M27.512,44.359c0.483,0.053,0.934,0.162,1.264,0.333c0.069-0.005,0.122-0.017,0.141-0.036
				c0.005-0.023-0.01-0.068-0.035-0.122c-0.088-0.055-0.18-0.121-0.28-0.208c-0.219-0.19-0.44-0.443-0.652-0.732
				c-0.137-0.096-0.284-0.194-0.455-0.293l0,0c-0.589-0.34-1.246-0.416-1.666-0.422c0.218,0.361,0.612,0.894,1.199,1.233
				C27.2,44.209,27.359,44.288,27.512,44.359z"/>
			<path fill="#FFFFFF" d="M38.613,50.276c0.031-0.063,0.047-0.115,0.04-0.142c-0.018-0.016-0.066-0.026-0.129-0.031
				c-0.331,0.173-0.786,0.283-1.272,0.336c-0.153,0.07-0.312,0.149-0.484,0.248c-0.586,0.339-0.98,0.871-1.198,1.232
				c0.422-0.008,1.08-0.084,1.666-0.422c0.172-0.099,0.32-0.197,0.457-0.295C37.98,50.812,38.299,50.477,38.613,50.276z"/>
			<path fill="#FFFFFF" d="M39.159,50.656c-0.024,0-0.064,0.015-0.109,0.036c-0.056,0.088-0.121,0.18-0.208,0.281
				c-0.19,0.219-0.443,0.44-0.731,0.651c-0.097,0.137-0.195,0.285-0.294,0.456l0,0c-0.338,0.585-0.414,1.244-0.422,1.666
				c0.361-0.218,0.893-0.613,1.232-1.198c0.099-0.172,0.178-0.331,0.248-0.483c0.053-0.483,0.162-0.934,0.333-1.265
				c-0.005-0.07-0.017-0.122-0.036-0.142C39.168,50.656,39.164,50.656,39.159,50.656z"/>
			<path fill="#FFFFFF" d="M38.627,46.304c-0.338-0.585-0.871-0.98-1.232-1.198c0.008,0.421,0.084,1.08,0.422,1.666
				c0.099,0.172,0.198,0.32,0.296,0.458c0.39,0.286,0.724,0.604,0.925,0.916c0.064,0.032,0.116,0.048,0.143,0.043
				c0.016-0.018,0.026-0.066,0.031-0.129c-0.173-0.331-0.283-0.786-0.336-1.272C38.805,46.635,38.726,46.475,38.627,46.304z"/>
			<path fill="#FFFFFF" d="M37.099,49.866c0.444-0.195,0.889-0.326,1.26-0.343c0.058-0.04,0.097-0.076,0.105-0.102
				c-0.007-0.023-0.045-0.057-0.098-0.093c-0.104-0.004-0.211-0.011-0.341-0.036c-0.284-0.055-0.602-0.164-0.929-0.307
				c-0.167-0.016-0.344-0.027-0.541-0.027c-0.676,0-1.284,0.264-1.653,0.468c0.369,0.204,0.977,0.468,1.653,0.468
				C36.754,49.893,36.931,49.882,37.099,49.866z"/>
			<path fill="#FFFFFF" d="M39.756,47.562c0.024,0.127,0.035,0.236,0.039,0.338c0.038,0.055,0.073,0.093,0.099,0.101
				c0.023-0.007,0.055-0.043,0.089-0.093c0.004-0.104,0.014-0.216,0.039-0.346c0.055-0.284,0.164-0.603,0.307-0.929
				c0.015-0.167,0.027-0.344,0.027-0.542c0-0.676-0.264-1.284-0.468-1.653c-0.204,0.369-0.468,0.977-0.468,1.653
				c0,0.197,0.011,0.374,0.027,0.542C39.592,46.959,39.701,47.277,39.756,47.562z"/>
			<path fill="#FFFFFF" d="M40.738,48.149c0.201-0.313,0.536-0.632,0.927-0.919c0.098-0.137,0.197-0.286,0.296-0.458
				c0.338-0.585,0.414-1.244,0.422-1.666c-0.361,0.218-0.894,0.612-1.232,1.198c-0.099,0.172-0.178,0.331-0.249,0.484
				c-0.053,0.483-0.162,0.933-0.333,1.264c0.005,0.069,0.017,0.122,0.036,0.141C40.63,48.197,40.679,48.18,40.738,48.149z"/>
			<path fill="#FFFFFF" d="M37.251,48.411c0.484,0.053,0.936,0.162,1.267,0.334c0.069-0.005,0.12-0.018,0.14-0.036
				c0.005-0.024-0.01-0.071-0.038-0.128c-0.318-0.201-0.643-0.54-0.934-0.938c-0.136-0.096-0.282-0.193-0.451-0.29
				c-0.586-0.337-1.244-0.413-1.666-0.421c0.218,0.361,0.612,0.894,1.198,1.232C36.939,48.262,37.098,48.341,37.251,48.411z"/>
			<path fill="#FFFFFF" d="M41.166,48.576c-0.03,0.063-0.046,0.114-0.04,0.141c0.018,0.016,0.066,0.026,0.128,0.031
				c0.332-0.174,0.787-0.283,1.274-0.337c0.153-0.07,0.311-0.149,0.483-0.248c0.586-0.338,0.98-0.871,1.198-1.232
				c-0.422,0.008-1.08,0.084-1.666,0.421c-0.169,0.098-0.315,0.194-0.45,0.29C41.804,48.038,41.481,48.374,41.166,48.576z"/>
			<path fill="#FFFFFF" d="M19.476,42.478c0.039,0.057,0.076,0.097,0.102,0.104c0.023-0.007,0.056-0.044,0.091-0.096
				c0.016-0.374,0.148-0.822,0.344-1.27c0.015-0.168,0.027-0.345,0.027-0.544c0-0.676-0.264-1.284-0.468-1.653
				c-0.204,0.369-0.468,0.977-0.468,1.653c0,0.198,0.011,0.375,0.027,0.543C19.328,41.661,19.459,42.106,19.476,42.478z"/>
			<path fill="#FFFFFF" d="M16.781,44.449c0.327-0.144,0.645-0.253,0.929-0.307c0.127-0.025,0.236-0.035,0.338-0.04
				c0.055-0.038,0.093-0.073,0.1-0.099c-0.007-0.024-0.045-0.057-0.099-0.094c-0.373-0.016-0.818-0.145-1.264-0.342
				c-0.168-0.015-0.347-0.027-0.546-0.027c-0.676,0-1.284,0.264-1.653,0.468c0.369,0.204,0.977,0.468,1.653,0.468
				C16.437,44.475,16.613,44.464,16.781,44.449z"/>
			<path fill="#FFFFFF" d="M16.935,42.993c0.483,0.053,0.934,0.162,1.265,0.333c0.069-0.005,0.122-0.017,0.141-0.036
				c0.005-0.024-0.01-0.071-0.038-0.128c-0.318-0.202-0.643-0.54-0.934-0.938c-0.136-0.096-0.282-0.193-0.45-0.29l0,0
				c-0.589-0.34-1.246-0.416-1.666-0.422c0.217,0.361,0.612,0.894,1.198,1.233C16.623,42.845,16.782,42.923,16.935,42.993z"/>
			<path fill="#FFFFFF" d="M39.987,50.955c-0.039-0.057-0.076-0.097-0.102-0.104c-0.023,0.007-0.056,0.044-0.091,0.096
				c-0.015,0.374-0.148,0.822-0.345,1.27c-0.015,0.168-0.027,0.345-0.027,0.543c0,0.676,0.264,1.284,0.468,1.653
				c0.204-0.369,0.468-0.977,0.468-1.653c0-0.198-0.011-0.376-0.027-0.544C40.135,51.772,40.004,51.327,39.987,50.955z"/>
			<path fill="#FFFFFF" d="M18.297,44.856c0.03-0.063,0.046-0.113,0.039-0.14c-0.018-0.016-0.066-0.026-0.128-0.031
				c-0.331,0.173-0.784,0.283-1.27,0.336c-0.154,0.071-0.314,0.149-0.487,0.249c-0.586,0.338-0.98,0.871-1.198,1.232
				c0.421-0.008,1.08-0.084,1.666-0.421c0.171-0.099,0.319-0.197,0.457-0.294C17.664,45.393,17.983,45.057,18.297,44.856z"/>
			<path fill="#FFFFFF" d="M18.843,45.238c-0.025,0-0.066,0.015-0.113,0.038c-0.2,0.316-0.539,0.638-0.934,0.928
				c-0.097,0.138-0.196,0.286-0.295,0.457l0,0c-0.338,0.585-0.414,1.244-0.422,1.666c0.361-0.218,0.893-0.612,1.232-1.198
				c0.099-0.172,0.178-0.331,0.248-0.484c0.053-0.483,0.162-0.934,0.333-1.265c-0.005-0.069-0.017-0.121-0.036-0.141
				C18.852,45.239,18.848,45.238,18.843,45.238z"/>
			<path fill="#FFFFFF" d="M22.362,43.567c-0.443,0.194-0.884,0.323-1.254,0.341c-0.06,0.04-0.101,0.078-0.108,0.105
				c0.007,0.022,0.042,0.054,0.092,0.088c0.104,0.004,0.216,0.015,0.347,0.04c0.284,0.055,0.602,0.164,0.929,0.307
				c0.167,0.016,0.344,0.027,0.541,0.027c0.676,0,1.284-0.264,1.653-0.468c-0.369-0.204-0.977-0.468-1.653-0.468
				C22.708,43.54,22.53,43.551,22.362,43.567z"/>
			<path fill="#FFFFFF" d="M20.417,42.736c0.055-0.087,0.119-0.177,0.204-0.275c0.19-0.219,0.443-0.44,0.73-0.651
				c0.097-0.137,0.195-0.284,0.294-0.456c0.338-0.585,0.414-1.244,0.422-1.666c-0.361,0.218-0.894,0.613-1.232,1.198l0,0
				c-0.099,0.172-0.178,0.331-0.248,0.484c-0.053,0.483-0.162,0.934-0.333,1.264c0.005,0.07,0.017,0.122,0.036,0.142
				C20.314,42.779,20.361,42.763,20.417,42.736z"/>
			<path fill="#FFFFFF" d="M20.85,43.158c-0.03,0.063-0.046,0.115-0.04,0.141c0.018,0.016,0.066,0.026,0.128,0.031
				c0.332-0.173,0.786-0.283,1.273-0.336c0.153-0.07,0.312-0.149,0.483-0.248c0.586-0.339,0.981-0.871,1.198-1.232
				c-0.421,0.008-1.08,0.084-1.666,0.422l0,0c-0.169,0.098-0.315,0.194-0.451,0.29C21.488,42.62,21.165,42.956,20.85,43.158z"/>
			<path fill="#FFFFFF" d="M18.311,40.886c-0.338-0.585-0.871-0.98-1.232-1.198c0.008,0.422,0.083,1.081,0.422,1.666
				c0.099,0.171,0.197,0.319,0.294,0.455c0.288,0.211,0.541,0.432,0.731,0.651c0.084,0.097,0.147,0.185,0.202,0.271
				c0.061,0.029,0.111,0.045,0.138,0.04c0.016-0.018,0.026-0.066,0.031-0.128c-0.173-0.331-0.283-0.786-0.337-1.273
				C18.489,41.217,18.41,41.058,18.311,40.886z"/>
			<path fill="#FFFFFF" d="M22.695,45.27L22.695,45.27c-0.173-0.1-0.332-0.178-0.486-0.249c-0.482-0.053-0.932-0.162-1.262-0.333
				c-0.069,0.005-0.122,0.017-0.141,0.036c-0.005,0.024,0.01,0.071,0.038,0.128c0.316,0.2,0.638,0.538,0.927,0.933
				c0.137,0.097,0.285,0.196,0.457,0.295c0.589,0.34,1.246,0.415,1.666,0.422C23.676,46.141,23.281,45.608,22.695,45.27z"/>
			<path fill="#FFFFFF" d="M32.943,44.931c-0.326,0.144-0.645,0.253-0.929,0.307c-0.126,0.024-0.23,0.03-0.332,0.035
				c-0.059,0.04-0.099,0.077-0.107,0.104c0.007,0.022,0.042,0.054,0.092,0.088c0.104,0.004,0.216,0.015,0.347,0.04
				c0.284,0.055,0.603,0.164,0.93,0.308c0.167,0.015,0.343,0.026,0.541,0.026c0.676,0,1.284-0.264,1.653-0.468
				c-0.369-0.204-0.977-0.468-1.653-0.468C33.287,44.905,33.11,44.916,32.943,44.931z"/>
			<path fill="#FFFFFF" d="M31.697,44.324c-0.098,0.085-0.188,0.15-0.274,0.205c-0.028,0.059-0.043,0.108-0.037,0.134
				c0.018,0.016,0.066,0.026,0.129,0.031c0.331-0.173,0.786-0.283,1.272-0.336c0.153-0.07,0.312-0.149,0.483-0.248
				c0.586-0.339,0.981-0.871,1.198-1.232c-0.421,0.008-1.08,0.084-1.666,0.422l0,0c-0.171,0.098-0.318,0.196-0.455,0.293
				C32.137,43.881,31.916,44.135,31.697,44.324z"/>
			<path fill="#FFFFFF" d="M30.994,44.099c0.055-0.086,0.119-0.176,0.204-0.275c0.19-0.218,0.443-0.439,0.73-0.65
				c0.097-0.137,0.196-0.284,0.295-0.456c0.338-0.586,0.414-1.245,0.422-1.666c-0.361,0.218-0.894,0.612-1.232,1.198l0,0
				c-0.099,0.172-0.178,0.331-0.248,0.483c-0.053,0.484-0.162,0.934-0.333,1.265c0.005,0.069,0.017,0.121,0.036,0.141
				C30.891,44.144,30.937,44.127,30.994,44.099z"/>
			<path fill="#FFFFFF" d="M19.707,45.871c-0.024-0.127-0.035-0.236-0.039-0.338c-0.038-0.055-0.074-0.093-0.099-0.101
				c-0.023,0.007-0.055,0.043-0.089,0.093c-0.004,0.104-0.014,0.215-0.039,0.345c-0.055,0.284-0.164,0.603-0.307,0.93
				c-0.015,0.167-0.027,0.344-0.027,0.541c0,0.676,0.264,1.284,0.468,1.653c0.204-0.369,0.468-0.977,0.468-1.653
				c0-0.198-0.011-0.374-0.027-0.542C19.871,46.474,19.762,46.155,19.707,45.871z"/>
			<path fill="#FFFFFF" d="M21.35,46.204c-0.391-0.287-0.727-0.606-0.928-0.92c-0.051-0.024-0.096-0.041-0.124-0.041
				c-0.006,0-0.012,0.001-0.017,0.002c-0.016,0.018-0.026,0.066-0.031,0.129c0.173,0.331,0.283,0.786,0.336,1.272
				c0.07,0.153,0.149,0.312,0.249,0.484c0.34,0.589,0.871,0.983,1.232,1.199c-0.008-0.421-0.083-1.081-0.422-1.667
				C21.546,46.49,21.448,46.341,21.35,46.204z"/>
			<path fill="#FFFFFF" d="M30.016,43.508c0.025,0.127,0.035,0.236,0.039,0.338c0.038,0.055,0.074,0.093,0.099,0.101
				c0.023-0.007,0.055-0.043,0.089-0.093c0.004-0.104,0.014-0.216,0.039-0.346c0.055-0.284,0.164-0.603,0.308-0.93
				c0.015-0.167,0.027-0.343,0.027-0.541c0-0.676-0.264-1.284-0.468-1.653c-0.204,0.369-0.468,0.977-0.468,1.653
				c0,0.197,0.011,0.374,0.027,0.541C29.852,42.905,29.961,43.224,30.016,43.508z"/>
			<path fill="#FFFFFF" d="M19.594,43.334c-0.383,0-0.694,0.312-0.694,0.694c0,0.383,0.311,0.694,0.694,0.694
				s0.694-0.311,0.694-0.694S19.977,43.334,19.594,43.334z"/>
			<path fill="#FFFFFF" d="M33.271,46.634c-0.172-0.099-0.332-0.177-0.485-0.248c-0.483-0.053-0.932-0.162-1.263-0.333
				c-0.069,0.005-0.122,0.017-0.141,0.036c-0.005,0.023,0.01,0.069,0.036,0.124c0.088,0.055,0.179,0.12,0.28,0.207
				c0.219,0.19,0.44,0.444,0.651,0.732c0.137,0.097,0.284,0.195,0.455,0.293c0.589,0.34,1.246,0.415,1.666,0.422
				C34.253,47.506,33.858,46.972,33.271,46.634z"/>
			<path fill="#FFFFFF" d="M39.91,48.752c-0.383,0-0.694,0.311-0.694,0.694s0.311,0.694,0.694,0.694s0.694-0.311,0.694-0.694
				S40.293,48.752,39.91,48.752z"/>
			<path fill="#FFFFFF" d="M57.536,43.079c0.483,0.053,0.933,0.162,1.263,0.333c0.07-0.005,0.122-0.017,0.142-0.036
				c0.005-0.023-0.01-0.068-0.035-0.122c-0.088-0.056-0.18-0.122-0.28-0.208c-0.219-0.19-0.44-0.444-0.651-0.731
				c-0.137-0.097-0.284-0.195-0.455-0.294c-0.586-0.337-1.245-0.413-1.666-0.421c0.218,0.361,0.612,0.894,1.198,1.232
				C57.224,42.93,57.383,43.009,57.536,43.079z"/>
			<path fill="#FFFFFF" d="M57.384,44.533c0.444-0.195,0.888-0.326,1.259-0.343c0.058-0.04,0.098-0.076,0.105-0.103
				c-0.007-0.024-0.045-0.057-0.1-0.094c-0.372-0.016-0.817-0.145-1.263-0.341c-0.169-0.015-0.347-0.027-0.546-0.027
				c-0.676,0-1.284,0.263-1.653,0.467c0.369,0.204,0.977,0.468,1.653,0.468C57.038,44.56,57.216,44.549,57.384,44.533z"/>
			<path fill="#FFFFFF" d="M58.626,45.141c0.098-0.084,0.187-0.148,0.273-0.203c0.029-0.061,0.044-0.11,0.038-0.136
				c-0.018-0.016-0.066-0.026-0.129-0.031c-0.331,0.173-0.785,0.283-1.272,0.336c-0.153,0.07-0.312,0.149-0.484,0.248
				c-0.586,0.339-0.981,0.871-1.198,1.232c0.421-0.008,1.08-0.084,1.666-0.422c0.171-0.098,0.318-0.196,0.455-0.293
				C58.186,45.584,58.407,45.33,58.626,45.141z"/>
			<path fill="#FFFFFF" d="M61.016,42.822c0.055-0.087,0.119-0.178,0.205-0.276c0.189-0.218,0.442-0.439,0.73-0.65
				c0.097-0.137,0.195-0.285,0.294-0.456c0.34-0.589,0.416-1.246,0.423-1.666c-0.361,0.218-0.894,0.612-1.232,1.199
				c-0.099,0.172-0.178,0.331-0.249,0.484c-0.053,0.483-0.162,0.933-0.333,1.264c0.005,0.069,0.017,0.122,0.036,0.141
				C60.914,42.865,60.96,42.849,61.016,42.822z"/>
			<path fill="#FFFFFF" d="M52.897,46.659c-0.172-0.1-0.332-0.178-0.486-0.249c-0.482-0.053-0.932-0.162-1.262-0.333
				c-0.069,0.005-0.122,0.017-0.141,0.036c-0.005,0.024,0.01,0.07,0.037,0.127c0.316,0.2,0.638,0.539,0.928,0.934
				c0.137,0.097,0.285,0.195,0.456,0.294c0.586,0.338,1.244,0.414,1.666,0.421C53.877,47.53,53.483,46.997,52.897,46.659z"/>
			<path fill="#FFFFFF" d="M59.327,45.37c-0.055,0.085-0.118,0.174-0.202,0.271c-0.189,0.218-0.442,0.439-0.729,0.649
				c-0.098,0.137-0.196,0.285-0.296,0.457c-0.338,0.586-0.414,1.245-0.422,1.666c0.361-0.218,0.894-0.612,1.232-1.198
				c0.099-0.172,0.178-0.331,0.249-0.484c0.053-0.483,0.162-0.933,0.333-1.264c-0.005-0.069-0.017-0.122-0.036-0.141
				C59.433,45.322,59.385,45.34,59.327,45.37z"/>
			<path fill="#FFFFFF" d="M51.847,48.051c-0.099-0.172-0.198-0.32-0.295-0.457c-0.391-0.288-0.727-0.607-0.928-0.92
				c-0.051-0.025-0.096-0.041-0.124-0.041c-0.006,0-0.012,0.001-0.017,0.002c-0.016,0.018-0.026,0.066-0.031,0.129
				c0.173,0.331,0.283,0.785,0.337,1.272c0.07,0.153,0.149,0.312,0.248,0.484c0.338,0.585,0.871,0.98,1.232,1.198
				C52.261,49.295,52.186,48.636,51.847,48.051L51.847,48.051z"/>
			<path fill="#FFFFFF" d="M61.448,43.249c-0.028,0.06-0.044,0.11-0.037,0.136c0.018,0.016,0.066,0.026,0.13,0.031
				c0.331-0.173,0.785-0.282,1.271-0.336c0.153-0.07,0.312-0.149,0.484-0.248c0.586-0.339,0.981-0.871,1.198-1.232
				c-0.421,0.008-1.08,0.084-1.666,0.421c-0.167,0.096-0.311,0.192-0.446,0.287C62.074,42.73,61.75,43.057,61.448,43.249z"/>
			<path fill="#FFFFFF" d="M62.961,43.653c-0.442,0.194-0.883,0.323-1.254,0.34c-0.06,0.04-0.101,0.078-0.109,0.105
				c0.007,0.023,0.044,0.056,0.096,0.092c0.373,0.016,0.821,0.147,1.268,0.344c0.168,0.016,0.346,0.027,0.544,0.027
				c0.676,0,1.284-0.264,1.653-0.468c-0.369-0.204-0.977-0.467-1.653-0.467C63.308,43.625,63.13,43.637,62.961,43.653z"/>
			<path fill="#FFFFFF" d="M62.808,45.106c-0.482-0.053-0.931-0.162-1.261-0.332c-0.069,0.005-0.123,0.017-0.142,0.036
				c-0.005,0.023,0.01,0.069,0.036,0.124c0.088,0.055,0.179,0.12,0.28,0.207c0.219,0.189,0.44,0.443,0.651,0.731
				c0.137,0.097,0.284,0.195,0.455,0.293c0.586,0.338,1.245,0.414,1.666,0.422c-0.218-0.361-0.612-0.894-1.198-1.232
				C63.122,45.255,62.962,45.177,62.808,45.106z"/>
			<path fill="#FFFFFF" d="M58.911,40.972c-0.34-0.589-0.871-0.983-1.232-1.199c0.008,0.421,0.084,1.081,0.422,1.667
				c0.099,0.171,0.197,0.319,0.295,0.456c0.287,0.211,0.54,0.432,0.73,0.65c0.084,0.097,0.147,0.186,0.202,0.271
				c0.062,0.03,0.112,0.046,0.137,0.039c0.016-0.018,0.026-0.066,0.031-0.129c-0.173-0.331-0.283-0.785-0.336-1.272
				C59.089,41.302,59.01,41.143,58.911,40.972z"/>
			<path fill="#FFFFFF" d="M60.307,45.957c-0.024-0.127-0.035-0.236-0.039-0.337c-0.038-0.055-0.074-0.094-0.1-0.101
				c-0.023,0.007-0.055,0.043-0.089,0.093c-0.004,0.104-0.014,0.215-0.039,0.346c-0.055,0.284-0.164,0.603-0.307,0.929
				c-0.015,0.167-0.027,0.344-0.027,0.541c0,0.676,0.264,1.284,0.467,1.653c0.204-0.369,0.468-0.977,0.468-1.653
				c0-0.197-0.011-0.374-0.027-0.541C60.471,46.559,60.362,46.241,60.307,45.957z"/>
			<path fill="#FFFFFF" d="M61.952,46.291c-0.288-0.211-0.541-0.432-0.731-0.651c-0.085-0.098-0.149-0.188-0.204-0.274
				c-0.049-0.023-0.091-0.038-0.118-0.038c-0.007,0-0.012,0.001-0.017,0.002c-0.016,0.018-0.026,0.066-0.031,0.129
				c0.173,0.331,0.283,0.785,0.336,1.272c0.07,0.153,0.149,0.312,0.249,0.484c0.34,0.589,0.871,0.983,1.232,1.199
				c-0.008-0.421-0.083-1.081-0.422-1.667C62.147,46.575,62.049,46.428,61.952,46.291z"/>
			<path fill="#FFFFFF" d="M60.194,43.419c-0.383,0-0.694,0.311-0.694,0.694s0.311,0.694,0.694,0.694s0.694-0.312,0.694-0.694
				S60.577,43.419,60.194,43.419z"/>
			<path fill="#FFFFFF" d="M60.039,42.229c0.024,0.127,0.035,0.236,0.039,0.337c0.038,0.055,0.073,0.094,0.099,0.101
				c0.023-0.007,0.055-0.043,0.09-0.093c0.004-0.104,0.014-0.216,0.039-0.345c0.055-0.284,0.164-0.602,0.307-0.929
				c0.015-0.167,0.027-0.344,0.027-0.541c0-0.677-0.264-1.285-0.468-1.654c-0.204,0.369-0.467,0.977-0.467,1.654
				c0,0.198,0.011,0.374,0.027,0.542C59.876,41.627,59.985,41.945,60.039,42.229z"/>
			<path fill="#FFFFFF" d="M51.052,44.547c-0.03,0.063-0.046,0.114-0.04,0.141c0.018,0.016,0.066,0.026,0.128,0.031
				c0.332-0.174,0.786-0.283,1.273-0.337c0.153-0.071,0.312-0.149,0.483-0.248c0.586-0.338,0.981-0.871,1.198-1.232
				c-0.421,0.008-1.08,0.084-1.666,0.422c-0.169,0.098-0.315,0.195-0.451,0.291C51.689,44.01,51.367,44.345,51.052,44.547z"/>
			<path fill="#FFFFFF" d="M49.796,44.723c-0.383,0-0.694,0.312-0.694,0.694c0,0.383,0.311,0.694,0.694,0.694
				s0.694-0.311,0.694-0.694C50.49,45.035,50.179,44.723,49.796,44.723z"/>
			<path fill="#FFFFFF" d="M50.619,44.128c0.2-0.316,0.539-0.638,0.933-0.927c0.097-0.138,0.196-0.286,0.295-0.457
				c0.338-0.585,0.414-1.244,0.422-1.666c-0.361,0.218-0.893,0.613-1.232,1.198l0,0c-0.099,0.172-0.178,0.331-0.248,0.484
				c-0.053,0.483-0.162,0.934-0.333,1.265c0.005,0.07,0.017,0.122,0.036,0.142C50.516,44.17,50.563,44.155,50.619,44.128z"/>
			<path fill="#FFFFFF" d="M47.137,44.383c0.483,0.053,0.934,0.162,1.265,0.333c0.07-0.005,0.122-0.017,0.142-0.036
				c0.005-0.024-0.01-0.071-0.038-0.128c-0.318-0.201-0.643-0.539-0.933-0.937c-0.136-0.096-0.282-0.193-0.451-0.29
				c-0.586-0.338-1.244-0.414-1.666-0.422c0.218,0.361,0.612,0.894,1.198,1.232C46.825,44.234,46.984,44.313,47.137,44.383z"/>
			<path fill="#FFFFFF" d="M49.678,43.867c0.039,0.057,0.076,0.097,0.102,0.104c0.023-0.007,0.056-0.044,0.091-0.096
				c0.015-0.374,0.148-0.822,0.345-1.27c0.015-0.168,0.027-0.345,0.027-0.543c0-0.676-0.264-1.284-0.468-1.653
				c-0.204,0.369-0.468,0.977-0.468,1.653c0,0.198,0.011,0.376,0.027,0.543C49.53,43.051,49.661,43.495,49.678,43.867z"/>
			<path fill="#FFFFFF" d="M41.667,51.622c-0.392-0.288-0.728-0.607-0.929-0.921c-0.051-0.025-0.095-0.041-0.123-0.041
				c-0.006,0-0.012,0.001-0.017,0.002c-0.016,0.018-0.026,0.066-0.031,0.129c0.174,0.331,0.283,0.786,0.337,1.273
				c0.07,0.153,0.149,0.312,0.248,0.484c0.338,0.585,0.871,0.98,1.232,1.198c-0.008-0.422-0.084-1.081-0.422-1.666
				C41.863,51.908,41.764,51.76,41.667,51.622z"/>
			<path fill="#FFFFFF" d="M42.525,50.439c-0.482-0.053-0.932-0.162-1.262-0.332c-0.069,0.005-0.122,0.017-0.142,0.036
				c-0.005,0.024,0.01,0.071,0.038,0.128c0.316,0.2,0.638,0.539,0.927,0.933c0.137,0.097,0.285,0.195,0.457,0.294
				c0.586,0.338,1.244,0.414,1.666,0.422c-0.218-0.361-0.613-0.894-1.198-1.232C42.838,50.588,42.679,50.51,42.525,50.439z"/>
			<path fill="#FFFFFF" d="M42.682,48.984c-0.327,0.144-0.645,0.253-0.929,0.307c-0.126,0.025-0.23,0.03-0.332,0.035
				c-0.059,0.04-0.099,0.077-0.107,0.104c0.007,0.023,0.044,0.055,0.095,0.091c0.374,0.016,0.822,0.148,1.271,0.345
				c0.168,0.015,0.345,0.027,0.543,0.027c0.676,0,1.284-0.264,1.653-0.468c-0.369-0.204-0.977-0.468-1.653-0.468
				C43.026,48.958,42.85,48.969,42.682,48.984z"/>
			<path fill="#FFFFFF" d="M52.564,44.956c-0.443,0.195-0.884,0.323-1.255,0.341c-0.06,0.04-0.101,0.078-0.108,0.105
				c0.007,0.022,0.042,0.054,0.092,0.088c0.104,0.004,0.216,0.015,0.347,0.04c0.284,0.055,0.602,0.164,0.929,0.307
				c0.167,0.015,0.344,0.027,0.541,0.027c0.676,0,1.284-0.264,1.653-0.468c-0.369-0.204-0.977-0.468-1.653-0.468
				C52.91,44.929,52.732,44.941,52.564,44.956z"/>
			<path fill="#FFFFFF" d="M48.513,42.276L48.513,42.276c-0.338-0.585-0.871-0.98-1.232-1.198c0.008,0.422,0.084,1.081,0.422,1.666
				c0.099,0.172,0.198,0.32,0.296,0.458c0.39,0.286,0.724,0.603,0.924,0.916c0.064,0.032,0.116,0.048,0.144,0.043
				c0.016-0.018,0.026-0.066,0.031-0.129c-0.174-0.331-0.283-0.786-0.337-1.273C48.691,42.606,48.612,42.447,48.513,42.276z"/>
			<path fill="#FFFFFF" d="M46.983,45.838c0.327-0.144,0.645-0.253,0.929-0.307c0.127-0.025,0.236-0.035,0.338-0.04
				c0.055-0.038,0.093-0.073,0.1-0.099c-0.007-0.024-0.045-0.057-0.099-0.094c-0.373-0.016-0.818-0.145-1.264-0.342
				c-0.168-0.015-0.346-0.027-0.546-0.027c-0.676,0-1.284,0.264-1.653,0.468c0.369,0.204,0.977,0.468,1.653,0.468
				C46.639,45.865,46.815,45.854,46.983,45.838z"/>
			<path fill="#FFFFFF" d="M49.045,46.628c-0.025,0-0.066,0.015-0.113,0.038c-0.2,0.316-0.539,0.638-0.934,0.928
				c-0.097,0.138-0.196,0.286-0.295,0.457c-0.338,0.585-0.414,1.244-0.422,1.665c0.361-0.218,0.894-0.612,1.232-1.198
				c0.099-0.172,0.178-0.331,0.249-0.484c0.053-0.483,0.162-0.933,0.333-1.264c-0.005-0.069-0.017-0.122-0.036-0.141
				C49.054,46.628,49.05,46.628,49.045,46.628z"/>
			<path fill="#FFFFFF" d="M48.499,46.247c0.031-0.063,0.046-0.115,0.04-0.141c-0.018-0.016-0.066-0.026-0.128-0.031
				c-0.331,0.173-0.784,0.283-1.27,0.336c-0.154,0.071-0.314,0.149-0.487,0.249c-0.586,0.338-0.981,0.871-1.198,1.232
				c0.421-0.007,1.08-0.083,1.666-0.421c0.172-0.099,0.319-0.197,0.457-0.295C47.866,46.783,48.185,46.448,48.499,46.247z"/>
			<path fill="#FFFFFF" d="M49.909,47.261c-0.024-0.127-0.035-0.236-0.039-0.338c-0.038-0.055-0.073-0.093-0.099-0.101
				c-0.023,0.007-0.055,0.043-0.089,0.093c-0.004,0.104-0.014,0.215-0.039,0.346c-0.055,0.284-0.164,0.603-0.307,0.929
				c-0.015,0.167-0.027,0.344-0.027,0.541c0,0.676,0.264,1.284,0.468,1.653c0.204-0.369,0.468-0.977,0.468-1.653
				c0-0.198-0.011-0.374-0.027-0.542C50.073,47.863,49.964,47.545,49.909,47.261z"/>
			<path fill="#008A46" d="M43.7,48.404c0.851-0.666,1.238-1.591,1.256-1.636l0.145-0.352l-0.377-0.051
				c-0.048-0.007-1.042-0.134-2.045,0.269c0.403-1.003,0.276-1.997,0.27-2.044l-0.051-0.377l-0.352,0.144
				c-0.045,0.019-0.969,0.405-1.636,1.256c-0.152-1.07-0.759-1.868-0.788-1.906l-0.233-0.301l-0.233,0.301
				c-0.029,0.038-0.637,0.836-0.789,1.906c-0.667-0.851-1.591-1.237-1.636-1.256l-0.352-0.144l-0.051,0.377
				c-0.006,0.047-0.133,1.041,0.27,2.044c-1.002-0.404-1.997-0.277-2.045-0.269l-0.377,0.051l0.145,0.352
				c0.018,0.045,0.405,0.969,1.256,1.636c-1.07,0.152-1.868,0.759-1.906,0.789l-0.301,0.232l0.301,0.232
				c0.038,0.03,0.836,0.637,1.906,0.789c-0.851,0.667-1.238,1.591-1.256,1.636l-0.145,0.352l0.377,0.051
				c0.019,0.003,0.186,0.024,0.442,0.024c0.394,0,1-0.061,1.608-0.307c-0.41,1.007-0.283,2.01-0.276,2.058l0.051,0.378l0.352-0.145
				c0.044-0.019,0.969-0.406,1.636-1.257c0.152,1.07,0.759,1.868,0.788,1.906l0.233,0.301l0.233-0.301
				c0.029-0.038,0.636-0.836,0.788-1.906c0.667,0.851,1.591,1.238,1.636,1.257l0.352,0.145l0.051-0.378
				c0.006-0.048,0.134-1.051-0.276-2.058c0.608,0.247,1.214,0.307,1.608,0.307c0.257,0,0.423-0.021,0.442-0.024l0.377-0.051
				l-0.145-0.352c-0.018-0.045-0.405-0.969-1.256-1.636c1.07-0.152,1.868-0.759,1.906-0.789l0.301-0.232l-0.301-0.232
				C45.568,49.163,44.77,48.556,43.7,48.404z M44.209,46.932c-0.218,0.361-0.613,0.894-1.198,1.232
				c-0.171,0.099-0.33,0.178-0.483,0.248c-0.487,0.054-0.942,0.163-1.274,0.337c-0.062-0.005-0.11-0.015-0.128-0.031
				c-0.007-0.027,0.009-0.078,0.04-0.141c0.316-0.202,0.638-0.538,0.927-0.933c0.136-0.096,0.282-0.193,0.45-0.29
				C43.129,47.016,43.787,46.94,44.209,46.932z M40.903,46.788c0.07-0.153,0.149-0.312,0.249-0.484
				c0.338-0.585,0.871-0.98,1.232-1.198c-0.008,0.421-0.084,1.08-0.422,1.666c-0.1,0.173-0.199,0.321-0.296,0.458
				c-0.391,0.287-0.726,0.606-0.927,0.919c-0.06,0.03-0.108,0.048-0.132,0.044c-0.019-0.02-0.031-0.072-0.036-0.141
				C40.741,47.721,40.85,47.271,40.903,46.788z M39.89,44.437c0.204,0.369,0.468,0.977,0.468,1.653c0,0.197-0.011,0.374-0.027,0.542
				c-0.144,0.327-0.253,0.645-0.307,0.929c-0.025,0.13-0.035,0.242-0.039,0.346c-0.035,0.05-0.067,0.086-0.089,0.093
				c-0.026-0.007-0.061-0.046-0.099-0.101c-0.005-0.102-0.015-0.211-0.039-0.338c-0.055-0.284-0.164-0.603-0.307-0.929
				c-0.015-0.167-0.027-0.344-0.027-0.542C39.422,45.415,39.686,44.807,39.89,44.437z M35.57,46.932
				c0.422,0.008,1.08,0.084,1.666,0.421c0.169,0.098,0.315,0.195,0.451,0.29c0.291,0.398,0.616,0.736,0.934,0.938
				c0.028,0.057,0.043,0.104,0.038,0.128c-0.02,0.019-0.072,0.031-0.14,0.036c-0.331-0.172-0.783-0.281-1.267-0.334
				c-0.153-0.07-0.311-0.149-0.483-0.248C36.182,47.825,35.788,47.293,35.57,46.932z M34.902,49.425
				c0.369-0.204,0.977-0.468,1.653-0.468c0.197,0,0.374,0.011,0.541,0.027c0.327,0.144,0.645,0.253,0.929,0.307
				c0.13,0.025,0.237,0.032,0.341,0.036c0.053,0.036,0.091,0.069,0.098,0.093c-0.008,0.026-0.047,0.063-0.105,0.102
				c-0.372,0.017-0.816,0.148-1.26,0.343c-0.168,0.016-0.346,0.027-0.544,0.027C35.879,49.893,35.271,49.629,34.902,49.425z
				 M35.57,51.92c0.218-0.361,0.613-0.894,1.198-1.232c0.172-0.099,0.331-0.178,0.484-0.248c0.487-0.053,0.941-0.163,1.272-0.336
				c0.063,0.005,0.111,0.015,0.129,0.031c0.007,0.027-0.009,0.079-0.04,0.142c-0.313,0.201-0.633,0.536-0.92,0.927
				c-0.137,0.097-0.285,0.196-0.457,0.295C36.65,51.836,35.991,51.912,35.57,51.92z M38.876,52.064
				c-0.07,0.153-0.149,0.312-0.248,0.483c-0.338,0.585-0.871,0.98-1.232,1.198c0.008-0.422,0.083-1.081,0.422-1.666l0,0
				c0.099-0.171,0.197-0.319,0.294-0.456c0.288-0.211,0.541-0.432,0.731-0.651c0.087-0.1,0.152-0.193,0.208-0.281
				c0.046-0.022,0.085-0.036,0.109-0.036c0.005,0,0.01,0.001,0.014,0.001c0.019,0.02,0.031,0.072,0.036,0.142
				C39.037,51.13,38.929,51.58,38.876,52.064z M39.181,48.189c-0.027,0.005-0.079-0.011-0.143-0.043
				c-0.201-0.312-0.535-0.63-0.925-0.916c-0.098-0.138-0.196-0.286-0.296-0.458c-0.338-0.585-0.414-1.244-0.422-1.666
				c0.361,0.218,0.893,0.612,1.232,1.198c0.099,0.172,0.178,0.331,0.248,0.484c0.054,0.487,0.163,0.941,0.336,1.272
				C39.207,48.123,39.198,48.171,39.181,48.189z M39.89,54.413c-0.204-0.369-0.468-0.977-0.468-1.653
				c0-0.198,0.011-0.375,0.027-0.543c0.197-0.448,0.329-0.896,0.345-1.27c0.036-0.052,0.068-0.089,0.091-0.096
				c0.026,0.008,0.063,0.047,0.102,0.104c0.017,0.372,0.148,0.816,0.344,1.261c0.015,0.168,0.027,0.345,0.027,0.544
				C40.357,53.436,40.093,54.044,39.89,54.413z M39.91,50.14c-0.383,0-0.694-0.311-0.694-0.694s0.311-0.694,0.694-0.694
				s0.694,0.311,0.694,0.694S40.293,50.14,39.91,50.14z M41.152,52.547c-0.099-0.172-0.178-0.331-0.248-0.484
				c-0.054-0.487-0.163-0.941-0.337-1.273c0.005-0.063,0.015-0.111,0.031-0.129c0.005-0.001,0.011-0.002,0.017-0.002
				c0.028,0,0.072,0.016,0.123,0.041c0.201,0.314,0.537,0.633,0.929,0.921c0.097,0.137,0.196,0.285,0.295,0.457
				c0.338,0.585,0.414,1.244,0.422,1.666C42.022,53.527,41.49,53.132,41.152,52.547z M44.209,51.92
				c-0.422-0.008-1.08-0.084-1.666-0.422c-0.171-0.099-0.319-0.197-0.457-0.294c-0.29-0.394-0.612-0.733-0.927-0.933
				c-0.028-0.057-0.043-0.104-0.038-0.128c0.02-0.019,0.073-0.03,0.142-0.036c0.33,0.171,0.78,0.279,1.262,0.332
				c0.154,0.071,0.313,0.149,0.486,0.249C43.596,51.026,43.991,51.559,44.209,51.92z M43.224,49.893
				c-0.198,0-0.375-0.011-0.543-0.027c-0.449-0.197-0.897-0.33-1.271-0.345c-0.051-0.035-0.088-0.068-0.095-0.091
				c0.008-0.027,0.048-0.064,0.107-0.104c0.102-0.005,0.206-0.01,0.332-0.035c0.284-0.055,0.602-0.164,0.929-0.307
				c0.167-0.016,0.344-0.027,0.542-0.027c0.676,0,1.284,0.264,1.653,0.468C44.508,49.629,43.9,49.893,43.224,49.893z"/>
			<path fill="#008A46" d="M53.586,46.418c1.07-0.152,1.868-0.759,1.906-0.789l0.301-0.232l-0.301-0.232
				c-0.038-0.03-0.836-0.637-1.906-0.789c0.851-0.666,1.238-1.591,1.256-1.636l0.144-0.352l-0.377-0.051
				c-0.048-0.007-1.042-0.134-2.045,0.27c0.403-1.003,0.276-1.997,0.27-2.045l-0.051-0.378l-0.352,0.145
				c-0.044,0.019-0.969,0.406-1.636,1.257c-0.152-1.07-0.759-1.868-0.789-1.906l-0.233-0.301L49.54,39.68
				c-0.029,0.038-0.636,0.836-0.788,1.906c-0.667-0.851-1.591-1.238-1.636-1.257l-0.352-0.145l-0.051,0.378
				c-0.006,0.048-0.133,1.042,0.27,2.045c-1.002-0.404-1.997-0.277-2.045-0.27l-0.377,0.051l0.144,0.352
				c0.018,0.045,0.406,0.97,1.256,1.636c-1.07,0.152-1.868,0.759-1.906,0.789l-0.301,0.232l0.301,0.232
				c0.038,0.03,0.836,0.637,1.906,0.789c-0.851,0.666-1.238,1.591-1.256,1.636l-0.144,0.352l0.377,0.051
				c0.019,0.003,0.186,0.024,0.444,0.024c0.394,0,0.999-0.061,1.607-0.307c-0.41,1.007-0.283,2.01-0.276,2.057l0.051,0.377
				l0.352-0.144c0.045-0.019,0.969-0.405,1.636-1.256c0.152,1.07,0.759,1.868,0.788,1.906l0.233,0.301l0.233-0.301
				c0.029-0.038,0.637-0.836,0.789-1.906c0.667,0.851,1.591,1.237,1.636,1.256l0.352,0.144l0.051-0.377
				c0.006-0.047,0.134-1.05-0.276-2.057c0.608,0.246,1.213,0.307,1.607,0.307c0.258,0,0.425-0.021,0.444-0.024l0.377-0.051
				l-0.144-0.352C54.824,48.009,54.436,47.084,53.586,46.418z M54.763,45.397c-0.369,0.204-0.977,0.468-1.653,0.468
				c-0.197,0-0.374-0.011-0.541-0.027c-0.327-0.144-0.645-0.253-0.929-0.307c-0.131-0.026-0.243-0.036-0.347-0.04
				c-0.049-0.034-0.085-0.066-0.092-0.088c0.008-0.027,0.048-0.065,0.108-0.105c0.371-0.018,0.812-0.146,1.255-0.341
				c0.168-0.015,0.347-0.027,0.546-0.027C53.786,44.929,54.394,45.193,54.763,45.397z M54.095,42.903
				c-0.218,0.361-0.612,0.894-1.198,1.232c-0.171,0.099-0.33,0.178-0.483,0.248c-0.487,0.053-0.942,0.163-1.273,0.337
				c-0.063-0.005-0.11-0.015-0.128-0.031c-0.007-0.027,0.009-0.078,0.04-0.141c0.315-0.202,0.637-0.538,0.926-0.932
				c0.136-0.096,0.282-0.193,0.451-0.291C53.015,42.987,53.673,42.911,54.095,42.903z M50.789,42.759
				c0.07-0.153,0.149-0.312,0.248-0.484l0,0c0.338-0.585,0.871-0.98,1.232-1.198c-0.008,0.422-0.084,1.081-0.422,1.666
				c-0.099,0.172-0.198,0.32-0.295,0.457c-0.395,0.29-0.733,0.611-0.933,0.927c-0.056,0.027-0.103,0.042-0.127,0.038
				c-0.019-0.02-0.031-0.072-0.036-0.142C50.627,43.693,50.736,43.242,50.789,42.759z M49.775,40.409
				c0.204,0.369,0.468,0.977,0.468,1.653c0,0.198-0.011,0.375-0.027,0.543c-0.197,0.448-0.329,0.896-0.345,1.27
				c-0.036,0.052-0.068,0.089-0.091,0.096c-0.026-0.008-0.063-0.047-0.102-0.104c-0.017-0.372-0.148-0.816-0.344-1.261
				c-0.015-0.168-0.027-0.345-0.027-0.543C49.308,41.387,49.571,40.778,49.775,40.409z M45.456,42.903
				c0.421,0.008,1.08,0.084,1.666,0.422c0.169,0.098,0.315,0.195,0.451,0.29c0.291,0.397,0.616,0.735,0.933,0.937
				c0.028,0.057,0.043,0.104,0.038,0.128c-0.02,0.019-0.072,0.03-0.142,0.036c-0.331-0.171-0.782-0.28-1.265-0.333
				c-0.153-0.07-0.312-0.149-0.483-0.248C46.068,43.797,45.673,43.264,45.456,42.903z M44.787,45.397
				c0.369-0.204,0.977-0.468,1.653-0.468c0.199,0,0.377,0.011,0.546,0.027c0.447,0.196,0.891,0.326,1.264,0.342
				c0.054,0.037,0.092,0.07,0.099,0.094c-0.007,0.026-0.046,0.061-0.1,0.099c-0.102,0.005-0.211,0.015-0.338,0.04
				c-0.284,0.055-0.602,0.164-0.929,0.307c-0.167,0.015-0.344,0.027-0.542,0.027C45.765,45.865,45.157,45.601,44.787,45.397z
				 M45.456,47.891c0.218-0.361,0.612-0.894,1.198-1.232c0.173-0.1,0.333-0.178,0.487-0.249c0.486-0.054,0.939-0.163,1.27-0.336
				c0.062,0.005,0.11,0.015,0.128,0.031c0.007,0.027-0.009,0.078-0.04,0.141c-0.314,0.201-0.633,0.536-0.92,0.928
				c-0.137,0.098-0.285,0.196-0.457,0.295C46.536,47.808,45.877,47.883,45.456,47.891z M48.762,48.034
				c-0.07,0.153-0.149,0.312-0.249,0.484c-0.338,0.585-0.871,0.98-1.232,1.198c0.008-0.421,0.084-1.08,0.422-1.665
				c0.099-0.172,0.198-0.32,0.295-0.457c0.395-0.29,0.733-0.612,0.934-0.928c0.047-0.023,0.088-0.038,0.113-0.038
				c0.005,0,0.01,0.001,0.014,0.001c0.019,0.02,0.031,0.072,0.036,0.141C48.923,47.101,48.815,47.551,48.762,48.034z M49.067,44.16
				c-0.027,0.005-0.079-0.012-0.144-0.043c-0.201-0.312-0.535-0.63-0.924-0.916c-0.098-0.138-0.196-0.286-0.296-0.458
				c-0.338-0.585-0.414-1.244-0.422-1.666c0.361,0.218,0.894,0.613,1.232,1.198l0,0c0.099,0.172,0.178,0.331,0.248,0.484
				c0.054,0.487,0.163,0.941,0.337,1.273C49.093,44.095,49.083,44.142,49.067,44.16z M49.775,50.385
				c-0.204-0.369-0.468-0.977-0.468-1.653c0-0.197,0.011-0.374,0.027-0.541c0.144-0.327,0.253-0.645,0.307-0.929
				c0.025-0.13,0.035-0.242,0.039-0.346c0.035-0.05,0.067-0.086,0.089-0.093c0.026,0.007,0.061,0.046,0.099,0.101
				c0.005,0.102,0.015,0.211,0.039,0.338c0.055,0.284,0.164,0.603,0.307,0.929c0.015,0.167,0.027,0.344,0.027,0.542
				C50.243,49.408,49.979,50.016,49.775,50.385z M49.796,46.112c-0.383,0-0.694-0.311-0.694-0.694s0.311-0.694,0.694-0.694
				s0.694,0.312,0.694,0.694C50.49,45.801,50.179,46.112,49.796,46.112z M51.037,48.519c-0.099-0.172-0.178-0.331-0.248-0.484
				c-0.054-0.487-0.163-0.941-0.337-1.272c0.005-0.063,0.015-0.111,0.031-0.129c0.005-0.001,0.011-0.002,0.017-0.002
				c0.028,0,0.072,0.017,0.124,0.041c0.201,0.313,0.536,0.632,0.928,0.92c0.097,0.137,0.196,0.286,0.295,0.457l0,0
				c0.338,0.585,0.414,1.244,0.422,1.665C51.908,49.499,51.376,49.104,51.037,48.519z M52.429,47.469
				c-0.171-0.099-0.319-0.197-0.456-0.294c-0.29-0.395-0.612-0.734-0.928-0.934c-0.027-0.057-0.043-0.103-0.037-0.127
				c0.02-0.019,0.073-0.03,0.141-0.036c0.33,0.171,0.78,0.279,1.262,0.333c0.154,0.071,0.313,0.149,0.486,0.249
				c0.586,0.338,0.981,0.871,1.198,1.232C53.673,47.883,53.015,47.808,52.429,47.469z"/>
			<path fill="#008A46" d="M23.384,45.029c1.07-0.152,1.868-0.759,1.906-0.789l0.301-0.232l-0.301-0.232
				c-0.038-0.03-0.836-0.637-1.906-0.789c0.851-0.667,1.238-1.591,1.256-1.636l0.144-0.352l-0.377-0.05
				c-0.048-0.007-1.042-0.133-2.045,0.271c0.404-1.003,0.277-1.998,0.27-2.045l-0.051-0.378l-0.352,0.145
				c-0.044,0.019-0.969,0.406-1.636,1.257c-0.152-1.07-0.759-1.868-0.788-1.906l-0.233-0.301l-0.233,0.301
				c-0.029,0.038-0.637,0.836-0.789,1.906c-0.666-0.851-1.591-1.238-1.636-1.257l-0.352-0.145l-0.051,0.378
				c-0.006,0.047-0.133,1.042,0.27,2.045c-1.002-0.404-1.997-0.277-2.045-0.27L14.359,41l0.144,0.352
				c0.018,0.045,0.406,0.969,1.256,1.636c-1.07,0.152-1.868,0.759-1.906,0.789l-0.301,0.232l0.301,0.232
				c0.038,0.03,0.836,0.637,1.906,0.789c-0.851,0.666-1.238,1.591-1.256,1.636l-0.144,0.352l0.377,0.051
				c0.019,0.003,0.186,0.024,0.443,0.024c0.394,0,1-0.061,1.608-0.307c-0.41,1.007-0.283,2.01-0.276,2.057l0.051,0.377l0.352-0.144
				c0.044-0.019,0.969-0.405,1.636-1.256c0.152,1.07,0.759,1.868,0.788,1.906l0.233,0.301l0.233-0.301
				c0.029-0.038,0.636-0.836,0.788-1.906c0.667,0.851,1.591,1.237,1.636,1.256l0.352,0.144l0.051-0.377
				c0.006-0.047,0.134-1.05-0.276-2.057c0.608,0.246,1.214,0.307,1.608,0.307c0.257,0,0.424-0.021,0.443-0.024l0.377-0.051
				l-0.144-0.352C24.622,46.62,24.235,45.695,23.384,45.029z M24.561,44.008c-0.369,0.204-0.977,0.468-1.653,0.468
				c-0.198,0-0.374-0.011-0.541-0.027c-0.327-0.144-0.645-0.253-0.929-0.307c-0.131-0.026-0.243-0.036-0.347-0.04
				c-0.049-0.034-0.085-0.066-0.092-0.088c0.008-0.027,0.048-0.065,0.108-0.105c0.371-0.018,0.812-0.146,1.254-0.341
				c0.169-0.016,0.347-0.027,0.546-0.027C23.584,43.54,24.192,43.804,24.561,44.008z M22.227,41.935
				c0.586-0.338,1.244-0.414,1.666-0.422c-0.218,0.361-0.612,0.894-1.198,1.232c-0.171,0.099-0.33,0.178-0.483,0.248
				c-0.487,0.053-0.941,0.163-1.273,0.336c-0.063-0.005-0.111-0.015-0.128-0.031c-0.007-0.027,0.009-0.078,0.04-0.141
				c0.315-0.202,0.638-0.538,0.926-0.933C21.912,42.129,22.058,42.033,22.227,41.935L22.227,41.935z M20.587,41.37
				c0.07-0.153,0.149-0.312,0.248-0.484l0,0c0.338-0.585,0.871-0.98,1.232-1.198c-0.008,0.422-0.084,1.081-0.422,1.666
				c-0.099,0.171-0.197,0.319-0.294,0.456c-0.288,0.211-0.541,0.432-0.73,0.651c-0.086,0.098-0.149,0.189-0.204,0.275
				c-0.056,0.027-0.102,0.043-0.126,0.04c-0.019-0.02-0.031-0.072-0.036-0.142C20.425,42.304,20.534,41.853,20.587,41.37z
				 M19.573,39.02c0.204,0.369,0.468,0.977,0.468,1.653c0,0.198-0.011,0.376-0.027,0.544c-0.197,0.448-0.329,0.896-0.344,1.27
				c-0.036,0.052-0.068,0.089-0.091,0.096c-0.026-0.008-0.063-0.047-0.102-0.104c-0.017-0.372-0.148-0.816-0.344-1.261
				c-0.015-0.168-0.027-0.345-0.027-0.543C19.106,39.997,19.37,39.389,19.573,39.02z M15.253,41.513
				c0.42,0.007,1.077,0.083,1.666,0.422l0,0c0.169,0.097,0.315,0.194,0.45,0.29c0.291,0.398,0.616,0.736,0.934,0.938
				c0.028,0.057,0.043,0.104,0.038,0.128c-0.02,0.019-0.072,0.031-0.141,0.036c-0.331-0.171-0.782-0.28-1.265-0.333
				c-0.153-0.07-0.312-0.149-0.483-0.248C15.866,42.407,15.471,41.874,15.253,41.513z M14.586,44.008
				c0.369-0.204,0.977-0.468,1.653-0.468c0.199,0,0.377,0.011,0.546,0.027c0.446,0.196,0.891,0.326,1.264,0.342
				c0.054,0.037,0.092,0.07,0.099,0.094c-0.007,0.026-0.045,0.061-0.1,0.099c-0.102,0.005-0.211,0.015-0.338,0.04
				c-0.284,0.055-0.602,0.164-0.929,0.307c-0.167,0.016-0.344,0.027-0.542,0.027C15.563,44.475,14.955,44.211,14.586,44.008z
				 M15.254,46.501c0.218-0.361,0.612-0.894,1.198-1.232c0.173-0.1,0.333-0.178,0.487-0.249c0.486-0.053,0.939-0.163,1.27-0.336
				c0.062,0.005,0.11,0.015,0.128,0.031c0.007,0.027-0.009,0.077-0.039,0.14c-0.314,0.201-0.634,0.537-0.921,0.93
				c-0.137,0.097-0.285,0.195-0.457,0.294C16.334,46.417,15.675,46.493,15.254,46.501z M18.56,46.645
				c-0.07,0.153-0.149,0.312-0.248,0.484c-0.338,0.585-0.871,0.98-1.232,1.198c0.008-0.421,0.084-1.08,0.422-1.666l0,0
				c0.099-0.172,0.198-0.32,0.295-0.457c0.395-0.29,0.733-0.612,0.934-0.928c0.047-0.023,0.088-0.038,0.113-0.038
				c0.005,0,0.01,0.001,0.014,0.001c0.019,0.02,0.031,0.072,0.036,0.141C18.721,45.712,18.613,46.162,18.56,46.645z M18.865,42.771
				c-0.027,0.005-0.077-0.011-0.138-0.04c-0.055-0.086-0.118-0.174-0.202-0.271c-0.19-0.219-0.443-0.44-0.731-0.651
				c-0.097-0.137-0.195-0.284-0.294-0.455c-0.338-0.585-0.414-1.244-0.422-1.666c0.361,0.218,0.893,0.613,1.232,1.198
				c0.099,0.172,0.178,0.331,0.248,0.484c0.054,0.487,0.163,0.942,0.337,1.273C18.892,42.705,18.882,42.753,18.865,42.771z
				 M19.573,48.996c-0.204-0.369-0.468-0.977-0.468-1.653c0-0.197,0.011-0.374,0.027-0.541c0.144-0.327,0.253-0.645,0.307-0.93
				c0.025-0.13,0.035-0.242,0.039-0.345c0.035-0.05,0.067-0.086,0.089-0.093c0.026,0.007,0.061,0.046,0.099,0.101
				c0.005,0.102,0.015,0.211,0.039,0.338c0.055,0.284,0.164,0.603,0.307,0.929c0.015,0.167,0.027,0.344,0.027,0.542
				C20.041,48.018,19.777,48.626,19.573,48.996z M19.594,44.722c-0.383,0-0.694-0.311-0.694-0.694s0.311-0.694,0.694-0.694
				s0.694,0.312,0.694,0.694C20.288,44.411,19.977,44.722,19.594,44.722z M20.836,47.129c-0.099-0.172-0.178-0.331-0.249-0.484
				c-0.054-0.486-0.163-0.941-0.336-1.272c0.005-0.063,0.015-0.111,0.031-0.129c0.005-0.001,0.011-0.002,0.017-0.002
				c0.028,0,0.072,0.017,0.124,0.041c0.201,0.314,0.536,0.633,0.928,0.92c0.097,0.138,0.196,0.286,0.295,0.458
				c0.338,0.586,0.414,1.245,0.422,1.667C21.707,48.112,21.176,47.718,20.836,47.129z M22.227,46.08
				c-0.172-0.099-0.32-0.197-0.457-0.295c-0.289-0.394-0.611-0.732-0.927-0.933c-0.028-0.057-0.043-0.104-0.038-0.128
				c0.02-0.019,0.072-0.03,0.141-0.036c0.33,0.171,0.78,0.279,1.262,0.333c0.154,0.071,0.313,0.149,0.486,0.249l0,0
				c0.586,0.339,0.981,0.872,1.198,1.233C23.473,46.495,22.816,46.42,22.227,46.08z"/>
			<path fill="#008A46" d="M63.983,43.072c0.851-0.667,1.239-1.591,1.257-1.636l0.145-0.352l-0.377-0.051
				c-0.048-0.007-1.043-0.134-2.045,0.27c0.403-1.003,0.276-1.997,0.27-2.045l-0.051-0.376l-0.352,0.144
				c-0.044,0.019-0.969,0.405-1.636,1.256c-0.152-1.07-0.759-1.868-0.789-1.906l-0.232-0.301l-0.233,0.301
				c-0.029,0.038-0.636,0.836-0.788,1.906c-0.667-0.851-1.591-1.238-1.636-1.256l-0.352-0.144l-0.051,0.377
				c-0.006,0.047-0.133,1.041,0.27,2.044c-1.003-0.403-1.997-0.277-2.045-0.27l-0.377,0.051l0.145,0.352
				c0.018,0.045,0.406,0.969,1.256,1.636c-1.07,0.152-1.868,0.759-1.906,0.788l-0.301,0.232l0.301,0.232
				c0.038,0.03,0.836,0.637,1.906,0.789c-0.851,0.667-1.239,1.591-1.257,1.636l-0.145,0.352l0.377,0.051
				c0.019,0.003,0.186,0.024,0.442,0.024c0.394,0,1-0.061,1.608-0.307c-0.41,1.008-0.283,2.01-0.276,2.058l0.051,0.377l0.352-0.144
				c0.044-0.019,0.969-0.405,1.636-1.256c0.152,1.07,0.759,1.867,0.788,1.905l0.233,0.301l0.232-0.301
				c0.029-0.038,0.637-0.836,0.789-1.905c0.667,0.851,1.591,1.238,1.636,1.256l0.352,0.144l0.051-0.376
				c0.006-0.048,0.134-1.051-0.276-2.059c0.609,0.247,1.215,0.308,1.609,0.308c0.257,0,0.424-0.021,0.442-0.024l0.377-0.051
				l-0.145-0.352c-0.018-0.045-0.406-0.969-1.257-1.636c1.07-0.152,1.868-0.759,1.906-0.789l0.301-0.232l-0.301-0.232
				C65.851,43.831,65.054,43.224,63.983,43.072z M64.493,41.599c-0.218,0.361-0.612,0.894-1.198,1.232
				c-0.172,0.099-0.331,0.178-0.484,0.248c-0.486,0.053-0.94,0.163-1.271,0.336c-0.063-0.005-0.112-0.015-0.13-0.031
				c-0.006-0.026,0.009-0.075,0.037-0.136c0.302-0.192,0.626-0.519,0.933-0.942c0.135-0.095,0.279-0.191,0.446-0.287
				C63.413,41.683,64.072,41.607,64.493,41.599z M61.187,41.456c0.07-0.153,0.149-0.312,0.249-0.484
				c0.338-0.587,0.871-0.981,1.232-1.199c-0.007,0.42-0.082,1.077-0.423,1.666c-0.099,0.172-0.197,0.319-0.294,0.456
				c-0.287,0.211-0.54,0.432-0.73,0.65c-0.086,0.099-0.15,0.189-0.205,0.276c-0.056,0.027-0.102,0.043-0.126,0.039
				c-0.019-0.02-0.031-0.072-0.036-0.141C61.025,42.389,61.134,41.938,61.187,41.456z M60.173,39.105
				c0.204,0.369,0.468,0.977,0.468,1.654c0,0.197-0.011,0.374-0.027,0.541c-0.143,0.327-0.252,0.645-0.307,0.929
				c-0.025,0.13-0.035,0.242-0.039,0.345c-0.035,0.05-0.067,0.086-0.09,0.093c-0.026-0.007-0.061-0.046-0.099-0.101
				c-0.005-0.102-0.015-0.211-0.039-0.337c-0.055-0.284-0.164-0.602-0.307-0.929c-0.015-0.167-0.027-0.344-0.027-0.542
				C59.706,40.082,59.969,39.474,60.173,39.105z M55.854,41.599c0.421,0.008,1.08,0.084,1.666,0.421
				c0.171,0.099,0.318,0.197,0.455,0.294c0.211,0.288,0.433,0.541,0.651,0.731c0.1,0.087,0.192,0.153,0.28,0.208
				c0.026,0.054,0.04,0.099,0.035,0.122c-0.02,0.019-0.072,0.031-0.142,0.036c-0.331-0.171-0.781-0.279-1.263-0.333
				c-0.153-0.07-0.312-0.149-0.484-0.248C56.466,42.492,56.071,41.96,55.854,41.599z M55.186,44.093
				c0.369-0.204,0.977-0.467,1.653-0.467c0.199,0,0.378,0.011,0.546,0.027c0.446,0.196,0.89,0.325,1.263,0.341
				c0.054,0.037,0.092,0.07,0.1,0.094c-0.008,0.027-0.047,0.063-0.105,0.103c-0.371,0.018-0.815,0.148-1.259,0.343
				c-0.168,0.016-0.346,0.027-0.545,0.027C56.163,44.56,55.555,44.296,55.186,44.093z M55.854,46.587
				c0.218-0.361,0.612-0.894,1.198-1.232c0.172-0.099,0.331-0.178,0.484-0.248c0.487-0.053,0.941-0.163,1.272-0.336
				c0.063,0.005,0.111,0.015,0.129,0.031c0.006,0.026-0.009,0.076-0.038,0.136c-0.086,0.055-0.175,0.119-0.273,0.203
				c-0.219,0.189-0.44,0.443-0.652,0.731c-0.137,0.097-0.284,0.195-0.455,0.293C56.934,46.503,56.275,46.579,55.854,46.587z
				 M59.16,46.73c-0.07,0.153-0.149,0.312-0.249,0.484c-0.338,0.586-0.871,0.981-1.232,1.198c0.008-0.421,0.084-1.08,0.422-1.666
				c0.099-0.172,0.198-0.32,0.296-0.457c0.287-0.21,0.539-0.431,0.729-0.649c0.084-0.097,0.147-0.186,0.202-0.271
				c0.058-0.03,0.106-0.047,0.129-0.045c0.019,0.02,0.031,0.072,0.036,0.141C59.321,45.797,59.213,46.247,59.16,46.73z
				 M59.465,42.856c-0.025,0.007-0.075-0.009-0.137-0.039c-0.055-0.086-0.118-0.174-0.202-0.271c-0.189-0.218-0.442-0.439-0.73-0.65
				c-0.097-0.137-0.196-0.285-0.295-0.456c-0.338-0.586-0.414-1.245-0.422-1.667c0.36,0.216,0.892,0.61,1.232,1.199
				c0.099,0.172,0.178,0.331,0.249,0.484c0.054,0.486,0.163,0.94,0.336,1.272C59.491,42.79,59.481,42.838,59.465,42.856z
				 M60.173,49.08c-0.204-0.369-0.467-0.977-0.467-1.653c0-0.197,0.011-0.374,0.027-0.541c0.144-0.327,0.253-0.645,0.307-0.929
				c0.025-0.13,0.035-0.242,0.039-0.346c0.035-0.05,0.067-0.086,0.089-0.093c0.026,0.007,0.061,0.046,0.1,0.101
				c0.004,0.102,0.015,0.211,0.039,0.337c0.055,0.284,0.164,0.603,0.307,0.929c0.015,0.167,0.027,0.344,0.027,0.541
				C60.641,48.103,60.377,48.711,60.173,49.08z M60.194,44.808c-0.383,0-0.694-0.312-0.694-0.694s0.311-0.694,0.694-0.694
				s0.694,0.311,0.694,0.694S60.577,44.808,60.194,44.808z M61.436,47.214c-0.099-0.172-0.178-0.331-0.249-0.484
				c-0.053-0.486-0.163-0.94-0.336-1.272c0.005-0.063,0.015-0.111,0.031-0.129c0.005-0.001,0.011-0.002,0.017-0.002
				c0.027,0,0.069,0.015,0.118,0.038c0.055,0.086,0.119,0.176,0.204,0.274c0.19,0.219,0.443,0.44,0.731,0.651
				c0.097,0.137,0.195,0.284,0.294,0.455c0.339,0.587,0.414,1.246,0.422,1.667C62.307,48.197,61.776,47.803,61.436,47.214z
				 M64.493,46.587c-0.421-0.008-1.08-0.084-1.666-0.422c-0.171-0.099-0.318-0.197-0.455-0.293
				c-0.211-0.288-0.432-0.542-0.651-0.731c-0.1-0.087-0.192-0.152-0.28-0.207c-0.026-0.055-0.041-0.1-0.036-0.124
				c0.02-0.019,0.073-0.031,0.142-0.036c0.33,0.17,0.779,0.279,1.261,0.332c0.154,0.071,0.314,0.149,0.486,0.249
				C63.88,45.693,64.275,46.226,64.493,46.587z M63.508,44.56c-0.199,0-0.376-0.011-0.544-0.027
				c-0.448-0.197-0.895-0.328-1.268-0.344c-0.052-0.036-0.089-0.068-0.096-0.092c0.008-0.027,0.048-0.065,0.109-0.105
				c0.37-0.018,0.811-0.146,1.254-0.34c0.169-0.016,0.347-0.027,0.547-0.027c0.676,0,1.284,0.263,1.653,0.467
				C64.792,44.296,64.184,44.56,63.508,44.56z"/>
			<path fill="#008A46" d="M34.541,48.455c0.257,0,0.424-0.021,0.443-0.024l0.377-0.051l-0.144-0.352
				c-0.018-0.045-0.405-0.969-1.256-1.636c1.07-0.152,1.868-0.759,1.906-0.789l0.301-0.232l-0.301-0.232
				c-0.038-0.03-0.836-0.637-1.906-0.789c0.851-0.667,1.238-1.591,1.256-1.636l0.144-0.352l-0.377-0.051
				c-0.048-0.007-1.042-0.133-2.045,0.27c0.403-1.003,0.276-1.998,0.27-2.045l-0.051-0.377l-0.352,0.144
				c-0.045,0.019-0.969,0.405-1.636,1.256c-0.152-1.07-0.759-1.867-0.788-1.905l-0.233-0.301l-0.233,0.301
				c-0.029,0.038-0.636,0.836-0.788,1.905c-0.667-0.851-1.591-1.238-1.636-1.256l-0.352-0.144l-0.051,0.377
				c-0.006,0.047-0.133,1.042,0.27,2.045c-1.002-0.404-1.997-0.277-2.045-0.27l-0.377,0.051l0.144,0.352
				c0.018,0.045,0.406,0.969,1.256,1.636c-1.07,0.152-1.868,0.759-1.906,0.789l-0.301,0.232l0.301,0.232
				c0.038,0.03,0.836,0.636,1.906,0.789c-0.851,0.667-1.238,1.591-1.256,1.636l-0.144,0.352l0.377,0.051
				c0.019,0.003,0.186,0.024,0.443,0.024c0.394,0,1-0.061,1.608-0.307c-0.41,1.007-0.283,2.01-0.276,2.057l0.051,0.377l0.352-0.144
				c0.044-0.019,0.969-0.405,1.636-1.256c0.152,1.07,0.759,1.868,0.788,1.906l0.233,0.301l0.233-0.301
				c0.029-0.038,0.636-0.836,0.788-1.906c0.667,0.851,1.591,1.237,1.636,1.256l0.352,0.144l0.051-0.377
				c0.006-0.047,0.134-1.05-0.276-2.057C33.541,48.395,34.147,48.455,34.541,48.455z M35.138,45.372
				c-0.369,0.204-0.977,0.468-1.653,0.468c-0.197,0-0.374-0.011-0.541-0.026c-0.327-0.144-0.645-0.253-0.93-0.308
				c-0.131-0.026-0.243-0.036-0.347-0.04c-0.049-0.034-0.085-0.066-0.092-0.088c0.008-0.027,0.048-0.064,0.107-0.104
				c0.102-0.005,0.205-0.011,0.332-0.035c0.284-0.055,0.602-0.164,0.929-0.307c0.167-0.015,0.344-0.027,0.542-0.027
				C34.161,44.905,34.769,45.169,35.138,45.372z M32.804,43.3c0.586-0.338,1.244-0.414,1.666-0.422
				c-0.218,0.361-0.612,0.894-1.198,1.232c-0.171,0.099-0.33,0.178-0.483,0.248c-0.487,0.053-0.941,0.163-1.272,0.336
				c-0.063-0.005-0.111-0.015-0.129-0.031c-0.006-0.026,0.009-0.075,0.037-0.134c0.086-0.055,0.176-0.12,0.274-0.205
				c0.219-0.189,0.44-0.443,0.652-0.731C32.486,43.496,32.633,43.398,32.804,43.3L32.804,43.3z M31.164,42.734
				c0.07-0.153,0.149-0.312,0.248-0.483l0,0c0.338-0.586,0.871-0.981,1.232-1.198c-0.008,0.421-0.084,1.08-0.422,1.666
				c-0.099,0.172-0.197,0.319-0.295,0.456c-0.287,0.211-0.54,0.432-0.73,0.65c-0.085,0.098-0.149,0.189-0.204,0.275
				c-0.057,0.028-0.103,0.044-0.127,0.041c-0.019-0.02-0.031-0.072-0.036-0.141C31.002,43.668,31.111,43.218,31.164,42.734z
				 M30.15,40.384c0.204,0.369,0.468,0.977,0.468,1.653c0,0.197-0.011,0.374-0.027,0.541c-0.144,0.327-0.253,0.645-0.308,0.93
				c-0.025,0.13-0.035,0.242-0.039,0.346c-0.035,0.05-0.066,0.086-0.089,0.093c-0.026-0.007-0.061-0.046-0.099-0.101
				c-0.004-0.102-0.015-0.211-0.039-0.338c-0.055-0.284-0.164-0.603-0.308-0.929c-0.015-0.167-0.027-0.343-0.027-0.541
				C29.682,41.362,29.946,40.753,30.15,40.384z M25.83,42.878c0.42,0.007,1.077,0.083,1.666,0.422l0,0
				c0.171,0.098,0.318,0.196,0.455,0.293c0.211,0.288,0.433,0.542,0.652,0.732c0.1,0.087,0.192,0.153,0.28,0.208
				c0.025,0.054,0.04,0.099,0.035,0.122c-0.02,0.019-0.072,0.031-0.141,0.036c-0.331-0.171-0.781-0.28-1.264-0.333
				c-0.153-0.07-0.312-0.149-0.483-0.248C26.442,43.772,26.047,43.239,25.83,42.878z M25.162,45.372
				c0.369-0.204,0.977-0.468,1.653-0.468c0.197,0,0.374,0.011,0.541,0.027c0.327,0.144,0.645,0.253,0.929,0.307
				c0.13,0.025,0.237,0.032,0.341,0.036c0.053,0.036,0.09,0.069,0.098,0.092c-0.008,0.026-0.046,0.062-0.103,0.101
				c-0.373,0.017-0.818,0.149-1.264,0.345c-0.167,0.016-0.344,0.027-0.542,0.027C26.139,45.84,25.531,45.576,25.162,45.372z
				 M25.83,47.866c0.218-0.361,0.612-0.894,1.198-1.232c0.171-0.099,0.33-0.177,0.483-0.247c0.487-0.054,0.942-0.163,1.274-0.337
				c0.063,0.005,0.11,0.015,0.128,0.031c0.006,0.026-0.009,0.076-0.037,0.136c-0.086,0.055-0.176,0.119-0.273,0.203
				c-0.219,0.19-0.44,0.443-0.651,0.731c-0.137,0.097-0.284,0.195-0.455,0.294C26.91,47.782,26.252,47.858,25.83,47.866z
				 M29.136,48.01c-0.07,0.153-0.149,0.312-0.248,0.484c-0.338,0.585-0.871,0.98-1.232,1.198c0.008-0.421,0.084-1.08,0.422-1.666
				l0,0c0.099-0.172,0.198-0.32,0.295-0.457c0.395-0.29,0.734-0.612,0.934-0.928c0.047-0.023,0.088-0.038,0.113-0.038
				c0.005,0,0.01,0.001,0.014,0.001c0.019,0.02,0.031,0.072,0.036,0.141C29.298,47.076,29.189,47.527,29.136,48.01z M29.441,44.135
				c-0.026,0.005-0.077-0.012-0.139-0.042c-0.054-0.085-0.117-0.172-0.2-0.268c-0.189-0.218-0.442-0.439-0.73-0.65
				c-0.097-0.137-0.196-0.285-0.295-0.456c-0.338-0.586-0.414-1.245-0.422-1.666c0.361,0.218,0.893,0.612,1.232,1.198l0,0
				c0.099,0.171,0.178,0.33,0.248,0.483c0.053,0.487,0.163,0.941,0.336,1.273C29.468,44.069,29.458,44.117,29.441,44.135z
				 M30.15,50.36c-0.204-0.369-0.468-0.977-0.468-1.654c0-0.197,0.011-0.374,0.026-0.54c0.144-0.327,0.253-0.645,0.308-0.93
				c0.025-0.13,0.035-0.242,0.039-0.346c0.035-0.05,0.066-0.086,0.089-0.093c0.026,0.007,0.061,0.046,0.099,0.101
				c0.004,0.102,0.015,0.211,0.039,0.338c0.055,0.284,0.164,0.603,0.308,0.93c0.015,0.167,0.027,0.343,0.027,0.541
				C30.618,49.383,30.354,49.991,30.15,50.36z M30.17,46.087c-0.383,0-0.694-0.311-0.694-0.694s0.311-0.694,0.694-0.694
				s0.694,0.312,0.694,0.694C30.865,45.776,30.553,46.087,30.17,46.087z M31.412,48.494c-0.099-0.172-0.178-0.331-0.248-0.484
				c-0.054-0.487-0.163-0.941-0.337-1.273c0.005-0.063,0.015-0.111,0.031-0.129c0.005-0.001,0.011-0.002,0.017-0.002
				c0.028,0,0.072,0.016,0.123,0.041c0.201,0.314,0.537,0.633,0.929,0.921c0.097,0.137,0.196,0.286,0.295,0.457
				c0.338,0.586,0.414,1.245,0.422,1.667C32.284,49.476,31.752,49.083,31.412,48.494z M32.804,47.445
				c-0.171-0.099-0.318-0.197-0.455-0.293c-0.211-0.288-0.432-0.542-0.651-0.732c-0.1-0.087-0.192-0.152-0.28-0.207
				c-0.026-0.055-0.041-0.1-0.036-0.124c0.02-0.019,0.072-0.03,0.141-0.036c0.331,0.171,0.781,0.28,1.263,0.333
				c0.153,0.07,0.313,0.148,0.485,0.248c0.586,0.339,0.981,0.872,1.199,1.233C34.05,47.86,33.393,47.785,32.804,47.445z"/>
		</g>
	</g>
</g>
</svg>
