<?xml version="1.0" encoding="utf-8"?>
<!-- Generator: Adobe Illustrator 26.0.1, SVG Export Plug-In . SVG Version: 6.00 Build 0)  -->
<svg version="1.1" id="Layer_1" xmlns="http://www.w3.org/2000/svg" xmlns:xlink="http://www.w3.org/1999/xlink" x="0px" y="0px"
	 viewBox="0 0 50 70" enable-background="new 0 0 50 70" xml:space="preserve">
<g id="facebook_00000129910323305150084110000008661267950471934090_" display="none">
	<g id="Facebook_00000152260405471133371600000009757667934800970425_" display="inline">
		<g>
			<path fill="#FFFFFF" d="M-64.519-32.691v-0.221c0.349,0.014,0.646,0.02,0.889,0.02c0.172,0,0.481-0.004,0.927-0.014
				c0.445-0.009,0.746-0.014,0.902-0.014c0.168,0,0.321,0.002,0.46,0.005c0.139,0.004,0.265,0.01,0.377,0.019
				c-0.057,0.195-0.094,0.543-0.11,1.044h-0.217c-0.02-0.278-0.049-0.492-0.086-0.641c-0.119-0.041-0.267-0.072-0.443-0.091
				c-0.176-0.019-0.38-0.029-0.612-0.029s-0.472,0.014-0.72,0.041c-0.014,0.124-0.023,0.24-0.028,0.348
				c-0.002,0.062-0.008,0.325-0.017,0.789v0.765c0.257,0.007,0.485,0.01,0.682,0.01c0.292,0,0.525-0.015,0.699-0.045
				c0.067-0.012,0.11-0.03,0.129-0.057c0.02-0.026,0.041-0.123,0.064-0.291l0.028-0.214h0.217l-0.024,0.786l0.024,0.844h-0.217
				l-0.024-0.221c-0.025-0.25-0.044-0.385-0.055-0.403c-0.018-0.032-0.062-0.056-0.131-0.072c-0.131-0.03-0.427-0.045-0.889-0.045
				c-0.163,0-0.331,0.004-0.503,0.014v0.696c0,0.313,0.005,0.617,0.014,0.913c0.005,0.218,0.02,0.348,0.047,0.389
				c0.026,0.041,0.069,0.072,0.129,0.091c0.06,0.02,0.225,0.031,0.496,0.036v0.221c-0.292-0.018-0.582-0.028-0.872-0.028
				c-0.26,0-0.639,0.009-1.137,0.028v-0.221c0.271-0.005,0.436-0.017,0.496-0.036c0.06-0.02,0.101-0.047,0.124-0.081
				c0.028-0.046,0.045-0.157,0.052-0.334c0.002-0.048,0.007-0.374,0.014-0.979v-1.595c0-0.312-0.004-0.618-0.01-0.917
				c-0.007-0.218-0.024-0.347-0.05-0.388c-0.026-0.04-0.069-0.07-0.128-0.09C-64.079-32.675-64.245-32.687-64.519-32.691z"/>
			<path fill="#FFFFFF" d="M-59.999-30.376l-0.182-0.049c0.002-0.053,0.003-0.125,0.003-0.217c0-0.096-0.001-0.173-0.003-0.231
				c0.292-0.191,0.531-0.319,0.717-0.386c0.143-0.049,0.302-0.072,0.479-0.072c0.262,0,0.482,0.049,0.662,0.148
				c0.179,0.099,0.312,0.24,0.4,0.424c0.06,0.129,0.089,0.304,0.089,0.527l-0.014,0.631v1.027c0,0.11,0.009,0.189,0.028,0.238
				c0.014,0.034,0.036,0.06,0.066,0.076c0.023,0.014,0.071,0.023,0.145,0.028l0.224,0.021v0.196
				c-0.189-0.016-0.354-0.024-0.496-0.024c-0.138,0-0.322,0.008-0.551,0.024l0.017-0.606c-0.469,0.354-0.746,0.553-0.834,0.598
				c-0.087,0.045-0.198,0.067-0.331,0.067c-0.278,0-0.494-0.074-0.649-0.222s-0.233-0.345-0.233-0.591
				c0-0.158,0.027-0.303,0.081-0.434s0.119-0.235,0.195-0.312s0.153-0.134,0.231-0.17c0.133-0.062,0.35-0.129,0.65-0.2
				c0.3-0.071,0.596-0.124,0.891-0.158c0.002-0.218-0.024-0.388-0.079-0.51s-0.148-0.222-0.279-0.3s-0.291-0.117-0.479-0.117
				c-0.135,0-0.254,0.018-0.356,0.055c-0.102,0.037-0.165,0.068-0.188,0.093l-0.062,0.124
				C-59.922-30.562-59.968-30.454-59.999-30.376z M-58.417-29.835c-0.299,0.05-0.553,0.107-0.765,0.169
				c-0.211,0.062-0.361,0.127-0.448,0.193c-0.053,0.039-0.099,0.098-0.138,0.176c-0.06,0.115-0.09,0.242-0.09,0.383
				c0,0.17,0.047,0.303,0.141,0.398c0.094,0.095,0.225,0.143,0.393,0.143c0.154,0,0.306-0.044,0.457-0.133
				c0.15-0.088,0.3-0.221,0.45-0.398V-29.835z"/>
			<path fill="#FFFFFF" d="M-54.227-28.412l-0.138,0.231c-0.158,0.085-0.315,0.147-0.47,0.186c-0.155,0.039-0.33,0.059-0.525,0.059
				c-0.482,0-0.867-0.145-1.153-0.436s-0.429-0.69-0.429-1.197c0-0.268,0.038-0.502,0.115-0.701c0.077-0.199,0.172-0.352,0.284-0.46
				c0.076-0.076,0.22-0.174,0.432-0.295c0.212-0.12,0.361-0.198,0.446-0.232c0.156-0.067,0.343-0.1,0.561-0.1
				c0.207,0,0.393,0.022,0.558,0.065c0.106,0.028,0.211,0.074,0.317,0.138c-0.028,0.177-0.047,0.311-0.058,0.402
				c-0.012,0.091-0.026,0.256-0.045,0.494h-0.197c-0.014-0.223-0.028-0.362-0.041-0.417c-0.009-0.034-0.03-0.066-0.062-0.093
				c-0.083-0.064-0.189-0.12-0.319-0.167c-0.13-0.047-0.272-0.071-0.425-0.071c-0.193,0-0.36,0.04-0.501,0.119
				c-0.141,0.079-0.251,0.205-0.329,0.377s-0.117,0.386-0.117,0.641c0,0.312,0.055,0.595,0.165,0.848s0.26,0.437,0.45,0.553
				c0.19,0.116,0.402,0.174,0.636,0.174c0.117,0,0.231-0.014,0.343-0.043c0.111-0.029,0.254-0.083,0.429-0.163L-54.227-28.412z"/>
			<path fill="#FFFFFF" d="M-51.044-28.55l-0.11,0.248c-0.159,0.099-0.275,0.164-0.348,0.197c-0.108,0.048-0.232,0.089-0.37,0.122
				c-0.139,0.033-0.285,0.05-0.439,0.05c-0.303,0-0.578-0.063-0.823-0.19c-0.245-0.126-0.436-0.315-0.572-0.567
				c-0.136-0.251-0.204-0.546-0.204-0.884c0-0.264,0.036-0.502,0.108-0.715c0.072-0.212,0.155-0.369,0.246-0.47
				c0.067-0.074,0.17-0.158,0.31-0.253c0.14-0.095,0.279-0.171,0.417-0.226c0.182-0.076,0.378-0.114,0.589-0.114
				c0.257,0,0.49,0.058,0.698,0.176c0.208,0.117,0.36,0.277,0.457,0.479c0.096,0.202,0.144,0.431,0.144,0.686
				c0,0.065-0.004,0.143-0.014,0.234c-0.165,0.032-0.314,0.053-0.445,0.062c-0.249,0.018-0.497,0.028-0.745,0.028h-1.108
				c0.005,0.328,0.061,0.594,0.171,0.797c0.109,0.203,0.259,0.353,0.451,0.45c0.192,0.096,0.391,0.145,0.598,0.145
				c0.14,0,0.279-0.023,0.419-0.067c0.139-0.045,0.311-0.127,0.515-0.246L-51.044-28.55z M-53.252-29.962
				c0.065,0.007,0.186,0.014,0.366,0.02c0.343,0.012,0.579,0.017,0.708,0.017c0.306,0,0.507-0.006,0.604-0.017
				c0.002-0.055,0.004-0.097,0.004-0.127c0-0.362-0.074-0.627-0.221-0.797s-0.344-0.254-0.59-0.254c-0.26,0-0.469,0.093-0.628,0.278
				C-53.169-30.656-53.25-30.363-53.252-29.962z"/>
			<path fill="#FFFFFF" d="M-50.258-28.002c0.028-0.289,0.042-0.472,0.045-0.548c0.014-0.498,0.02-0.791,0.02-0.878v-1.533
				c0-0.383-0.007-0.78-0.02-1.189c-0.009-0.276-0.022-0.429-0.038-0.462c-0.012-0.023-0.03-0.039-0.055-0.048
				c-0.034-0.016-0.193-0.024-0.475-0.024v-0.203c0.519-0.064,0.88-0.145,1.082-0.241c0.03-0.014,0.053-0.021,0.069-0.021
				s0.029,0.005,0.038,0.015s0.014,0.025,0.014,0.043c0,0.016-0.002,0.039-0.007,0.069l-0.003,0.114
				c-0.012,0.411-0.018,0.761-0.021,1.051l-0.007,0.538v0.682l0.475-0.465c0.062-0.053,0.164-0.104,0.307-0.155
				c0.142-0.051,0.294-0.076,0.455-0.076c0.252,0,0.477,0.059,0.672,0.178s0.345,0.286,0.45,0.501
				c0.104,0.216,0.157,0.455,0.157,0.717c0,0.202-0.03,0.394-0.09,0.575c-0.06,0.182-0.137,0.343-0.231,0.486
				c-0.069,0.108-0.127,0.181-0.176,0.221l-0.503,0.362c-0.205,0.152-0.364,0.249-0.479,0.291s-0.262,0.064-0.441,0.064
				c-0.154,0-0.296-0.021-0.427-0.062c-0.131-0.041-0.27-0.114-0.417-0.217l-0.279,0.262L-50.258-28.002z M-49.617-30.224v1.292
				c0,0.115,0.006,0.188,0.019,0.221c0.012,0.032,0.051,0.075,0.115,0.128c0.096,0.08,0.208,0.144,0.336,0.193
				c0.128,0.048,0.262,0.072,0.405,0.072c0.333,0,0.589-0.129,0.768-0.386s0.269-0.576,0.269-0.954c0-0.269-0.043-0.494-0.128-0.675
				c-0.085-0.182-0.202-0.318-0.351-0.409c-0.149-0.091-0.317-0.136-0.503-0.136c-0.218,0-0.413,0.063-0.586,0.188
				S-49.56-30.411-49.617-30.224z"/>
			<path fill="#FFFFFF" d="M-46.568-29.601c0-0.515,0.164-0.934,0.491-1.259s0.747-0.488,1.259-0.488
				c0.482,0,0.875,0.152,1.178,0.455s0.455,0.695,0.455,1.175c0,0.335-0.078,0.642-0.234,0.92c-0.156,0.278-0.377,0.496-0.662,0.653
				s-0.598,0.236-0.941,0.236c-0.266,0-0.492-0.045-0.677-0.135c-0.185-0.09-0.335-0.202-0.45-0.338s-0.202-0.275-0.262-0.417
				C-46.515-29.048-46.568-29.316-46.568-29.601z M-45.917-29.856c0,0.283,0.047,0.57,0.141,0.861
				c0.094,0.292,0.23,0.505,0.408,0.639s0.372,0.201,0.58,0.201c0.267,0,0.49-0.106,0.669-0.317
				c0.179-0.211,0.268-0.536,0.268-0.975c0-0.365-0.053-0.68-0.16-0.946c-0.107-0.265-0.243-0.452-0.408-0.561
				c-0.165-0.109-0.348-0.164-0.548-0.164c-0.282,0-0.512,0.102-0.687,0.307S-45.917-30.288-45.917-29.856z"/>
			<path fill="#FFFFFF" d="M-42.716-29.601c0-0.515,0.164-0.934,0.491-1.259s0.747-0.488,1.259-0.488
				c0.482,0,0.875,0.152,1.178,0.455s0.455,0.695,0.455,1.175c0,0.335-0.078,0.642-0.234,0.92s-0.377,0.496-0.662,0.653
				c-0.285,0.157-0.598,0.236-0.941,0.236c-0.266,0-0.492-0.045-0.677-0.135c-0.185-0.09-0.335-0.202-0.45-0.338
				c-0.115-0.136-0.202-0.275-0.262-0.417C-42.663-29.048-42.716-29.316-42.716-29.601z M-42.065-29.856
				c0,0.283,0.047,0.57,0.141,0.861c0.094,0.292,0.23,0.505,0.408,0.639s0.372,0.201,0.58,0.201c0.267,0,0.49-0.106,0.669-0.317
				s0.268-0.536,0.268-0.975c0-0.365-0.053-0.68-0.16-0.946c-0.107-0.265-0.243-0.452-0.408-0.561s-0.348-0.164-0.548-0.164
				c-0.282,0-0.512,0.102-0.687,0.307S-42.065-30.288-42.065-29.856z"/>
			<path fill="#FFFFFF" d="M-38.964-28.016v-0.2l0.324-0.004c0.051-0.002,0.089-0.011,0.115-0.026s0.047-0.034,0.06-0.057
				c0.025-0.046,0.04-0.127,0.045-0.244c0.002-0.03,0.01-0.359,0.024-0.988v-1.429c0-0.383-0.007-0.779-0.021-1.188
				c-0.009-0.275-0.022-0.429-0.038-0.461c-0.012-0.023-0.03-0.039-0.055-0.048c-0.035-0.016-0.193-0.024-0.476-0.024v-0.203
				c0.519-0.064,0.88-0.144,1.082-0.241c0.03-0.014,0.053-0.021,0.069-0.021c0.016,0,0.029,0.005,0.038,0.015
				s0.014,0.025,0.014,0.043c0,0.016-0.002,0.039-0.007,0.069l-0.003,0.114c-0.012,0.411-0.018,0.761-0.021,1.05l-0.007,0.537v1.384
				l0.038,0.021c0.122-0.076,0.297-0.21,0.527-0.403c0.154-0.131,0.499-0.448,1.037-0.95c0.177,0.007,0.289,0.01,0.338,0.01
				c0.046,0,0.162-0.004,0.348-0.01v0.193c-0.133,0.007-0.218,0.016-0.255,0.028c-0.05,0.016-0.146,0.069-0.286,0.158
				c-0.221,0.14-0.486,0.339-0.796,0.596l-0.352,0.279c0.186,0.19,0.508,0.51,0.965,0.957c0.345,0.351,0.552,0.556,0.622,0.615
				c0.07,0.058,0.138,0.093,0.205,0.105c0.067,0.012,0.17,0.017,0.31,0.017v0.155c-0.17,0.033-0.314,0.063-0.431,0.09
				s-0.252,0.059-0.403,0.096c-0.078-0.065-0.154-0.132-0.227-0.201c-0.074-0.068-0.224-0.22-0.451-0.454
				c-0.466-0.478-0.85-0.851-1.151-1.12l-0.038,0.017v0.203c0.011,0.597,0.018,0.92,0.02,0.968c0.002,0.115,0.016,0.199,0.041,0.251
				c0.009,0.021,0.023,0.039,0.041,0.053c0.018,0.015,0.046,0.027,0.083,0.036c0.016,0.002,0.144,0.006,0.383,0.01v0.2
				c-0.303-0.018-0.578-0.028-0.824-0.028C-38.314-28.043-38.61-28.034-38.964-28.016z"/>
		</g>
	</g>
	<g display="inline">
		<g>
			<path fill="#008A46" d="M-49.895-80.037c-11.928,0-21.598,9.671-21.598,21.598c0,10.698,7.789,19.558,17.997,21.272V-53.93h-5.21
				v-6.034h5.21v-4.452c0-5.162,3.152-7.974,7.758-7.974c2.204,0,4.104,0.163,4.65,0.238v5.395h-3.196
				c-2.504,0-2.989,1.19-2.989,2.936v3.852h5.977l-0.78,6.034h-5.192v16.917c10.685-1.3,18.971-10.389,18.971-21.427
				C-28.296-70.366-37.967-80.037-49.895-80.037z"/>
		</g>
	</g>
</g>
<g id="twitter_00000073692082813099847060000017963781364369547450_" display="none">
	<g display="inline">
		<path fill="#FFFFFF" d="M73.285-48.845h-0.214c-0.002-0.549-0.014-0.929-0.034-1.14c0.25,0.009,0.643,0.02,1.178,0.034
			c0.434,0.009,0.724,0.014,0.868,0.014c0.156,0,0.518-0.007,1.085-0.02c0.411-0.009,0.711-0.018,0.899-0.028
			c-0.028,0.257-0.046,0.637-0.055,1.14h-0.221l-0.028-0.331c-0.018-0.2-0.031-0.313-0.038-0.341s-0.017-0.047-0.029-0.059
			c-0.013-0.012-0.032-0.021-0.057-0.028c-0.032-0.007-0.147-0.016-0.345-0.028c-0.197-0.012-0.354-0.017-0.469-0.017h-0.42
			c-0.023,0.221-0.035,0.518-0.035,0.893v2.015c0,0.313,0.004,0.617,0.01,0.913c0.007,0.218,0.023,0.348,0.05,0.389
			c0.026,0.041,0.069,0.072,0.128,0.091c0.058,0.02,0.224,0.031,0.498,0.036v0.221c-0.411-0.018-0.72-0.028-0.927-0.028
			c-0.09,0-0.448,0.009-1.075,0.028v-0.221c0.273-0.005,0.44-0.017,0.499-0.036s0.1-0.047,0.121-0.081
			c0.03-0.046,0.048-0.157,0.055-0.334c0-0.048,0.004-0.374,0.014-0.979v-2.009c0-0.096-0.002-0.202-0.007-0.317l-0.02-0.582h-0.514
			c-0.296,0-0.532,0.012-0.706,0.035c-0.055,0.007-0.091,0.022-0.107,0.045c-0.025,0.039-0.048,0.164-0.069,0.375L73.285-48.845z"/>
		<path fill="#FFFFFF" d="M78.056-45.051l-0.144-0.479l-0.321-1.065c-0.092-0.308-0.186-0.605-0.281-0.893
			c-0.095-0.287-0.158-0.453-0.189-0.496c-0.031-0.044-0.069-0.075-0.114-0.093c-0.045-0.018-0.154-0.036-0.329-0.052v-0.197
			c0.253,0.016,0.524,0.024,0.813,0.024c0.308,0,0.595-0.008,0.862-0.024v0.197c-0.214,0.002-0.353,0.01-0.417,0.024
			c-0.044,0.009-0.075,0.026-0.095,0.05c-0.02,0.024-0.029,0.052-0.029,0.084c0,0.053,0.033,0.194,0.1,0.424l0.32,1.109
			c0.053,0.186,0.117,0.387,0.193,0.603l0.262-0.6l0.507-1.134c0.119-0.268,0.232-0.54,0.337-0.813H79.7
			c0.152,0.421,0.255,0.698,0.31,0.834l0.396,0.999c0.135,0.335,0.238,0.588,0.307,0.758l0.259-0.679
			c0.168-0.436,0.299-0.808,0.393-1.116c0.053-0.168,0.079-0.286,0.079-0.355c0-0.064-0.022-0.111-0.067-0.139
			c-0.045-0.029-0.193-0.045-0.446-0.05v-0.197c0.349,0.016,0.59,0.024,0.723,0.024c0.161,0,0.379-0.008,0.655-0.024v0.197
			c-0.133,0.002-0.223,0.014-0.269,0.036s-0.086,0.058-0.12,0.109c-0.06,0.078-0.153,0.262-0.279,0.551l-0.362,0.861l-0.155,0.386
			c-0.03,0.076-0.119,0.309-0.265,0.699c-0.064,0.165-0.112,0.31-0.145,0.434H80.39l-0.165-0.431l-0.786-1.974l-0.331,0.713
			l-0.389,0.865c-0.089,0.2-0.162,0.37-0.217,0.51l-0.114,0.317h-0.332C78.056-45.054,78.056-45.051,78.056-45.051z"/>
		<path fill="#FFFFFF" d="M82.618-47.922v-0.197c0.446-0.05,0.82-0.147,1.124-0.289l0.076,0.055
			c-0.018,0.49-0.028,0.864-0.028,1.124v0.627c0.012,0.597,0.018,0.92,0.021,0.968c0.002,0.115,0.015,0.199,0.038,0.252
			c0.012,0.02,0.026,0.038,0.045,0.053c0.018,0.015,0.046,0.027,0.083,0.036c0.014,0.002,0.141,0.006,0.382,0.01v0.193
			c-0.349-0.016-0.628-0.024-0.837-0.024c-0.184,0-0.485,0.008-0.903,0.024v-0.193l0.327-0.003c0.048-0.002,0.085-0.011,0.112-0.026
			s0.047-0.034,0.06-0.057c0.025-0.046,0.041-0.128,0.048-0.245c0-0.03,0.007-0.359,0.021-0.989v-0.606
			c0-0.342-0.012-0.545-0.034-0.61c-0.014-0.034-0.039-0.06-0.074-0.077C83.043-47.913,82.889-47.922,82.618-47.922z M83.459-49.941
			c0.108,0,0.199,0.038,0.274,0.114c0.075,0.076,0.112,0.168,0.112,0.276c0,0.106-0.038,0.197-0.114,0.272s-0.166,0.114-0.272,0.114
			c-0.108,0-0.2-0.038-0.276-0.114c-0.076-0.076-0.114-0.166-0.114-0.272c0-0.108,0.038-0.2,0.114-0.276
			C83.259-49.903,83.351-49.941,83.459-49.941z"/>
		<path fill="#FFFFFF" d="M84.675-47.791v-0.145c0.23-0.087,0.412-0.165,0.548-0.234c0-0.547-0.007-0.896-0.02-1.047
			c0.239-0.083,0.433-0.171,0.582-0.265l0.083,0.069c-0.025,0.191-0.053,0.611-0.083,1.261c0.184,0.002,0.294,0.003,0.331,0.003
			c0.021,0,0.139-0.002,0.355-0.007c0.119-0.002,0.209-0.007,0.268-0.014l0.024,0.024l-0.072,0.321
			c-0.145-0.002-0.278-0.004-0.4-0.004S86-47.828,85.784-47.825l-0.021,1.402c-0.007,0.342-0.005,0.547,0.007,0.614
			c0.012,0.066,0.033,0.125,0.066,0.174c0.032,0.049,0.074,0.089,0.126,0.119s0.139,0.053,0.264,0.069
			c0.094,0,0.171-0.004,0.229-0.012c0.059-0.008,0.133-0.028,0.222-0.06l0.041,0.134c-0.108,0.085-0.213,0.173-0.314,0.265
			c-0.087,0.032-0.169,0.053-0.245,0.064c-0.076,0.01-0.163,0.015-0.262,0.015c-0.122,0-0.219-0.014-0.291-0.041
			c-0.072-0.028-0.138-0.066-0.198-0.115s-0.109-0.112-0.148-0.188s-0.064-0.195-0.076-0.358c0.002-0.156,0.007-0.327,0.014-0.514
			c0.002-0.037,0.004-0.077,0.004-0.12v-1.43h-0.141C84.946-47.808,84.818-47.802,84.675-47.791z"/>
		<path fill="#FFFFFF" d="M86.977-47.791v-0.145c0.23-0.087,0.412-0.165,0.548-0.234c0-0.547-0.007-0.896-0.02-1.047
			c0.239-0.083,0.433-0.171,0.582-0.265l0.083,0.069c-0.025,0.191-0.053,0.611-0.083,1.261c0.184,0.002,0.294,0.003,0.331,0.003
			c0.021,0,0.139-0.002,0.355-0.007c0.119-0.002,0.209-0.007,0.268-0.014l0.024,0.024l-0.072,0.321
			c-0.145-0.002-0.278-0.004-0.4-0.004s-0.291,0.001-0.507,0.004l-0.021,1.402c-0.007,0.342-0.005,0.547,0.007,0.614
			c0.012,0.066,0.033,0.125,0.066,0.174c0.032,0.049,0.074,0.089,0.126,0.119s0.139,0.053,0.264,0.069
			c0.094,0,0.171-0.004,0.229-0.012c0.059-0.008,0.133-0.028,0.222-0.06l0.041,0.134c-0.108,0.085-0.213,0.173-0.314,0.265
			c-0.087,0.032-0.169,0.053-0.245,0.064c-0.076,0.01-0.163,0.015-0.262,0.015c-0.122,0-0.219-0.014-0.291-0.041
			c-0.072-0.028-0.138-0.066-0.198-0.115s-0.109-0.112-0.148-0.188s-0.064-0.195-0.076-0.358c0.002-0.156,0.007-0.327,0.014-0.514
			c0.002-0.037,0.004-0.077,0.004-0.12v-1.43h-0.141C87.248-47.808,87.119-47.802,86.977-47.791z"/>
		<path fill="#FFFFFF" d="M92.163-45.624l-0.11,0.248c-0.159,0.099-0.275,0.164-0.348,0.197c-0.108,0.048-0.232,0.089-0.37,0.122
			c-0.139,0.033-0.285,0.05-0.439,0.05c-0.303,0-0.578-0.063-0.823-0.19c-0.245-0.126-0.436-0.315-0.572-0.567
			c-0.136-0.251-0.204-0.546-0.204-0.884c0-0.264,0.036-0.502,0.108-0.715c0.072-0.212,0.155-0.369,0.246-0.47
			c0.067-0.074,0.17-0.158,0.31-0.253c0.14-0.095,0.279-0.171,0.417-0.226c0.182-0.076,0.378-0.114,0.589-0.114
			c0.257,0,0.49,0.058,0.698,0.176c0.208,0.117,0.36,0.277,0.457,0.479s0.144,0.431,0.144,0.686c0,0.064-0.004,0.143-0.014,0.234
			c-0.165,0.032-0.314,0.053-0.445,0.062c-0.249,0.018-0.497,0.028-0.745,0.028h-1.108c0.005,0.328,0.061,0.594,0.171,0.797
			c0.109,0.203,0.259,0.353,0.451,0.45c0.192,0.096,0.391,0.145,0.598,0.145c0.14,0,0.279-0.023,0.419-0.067
			c0.139-0.045,0.311-0.127,0.515-0.246L92.163-45.624z M89.954-47.036c0.064,0.007,0.186,0.014,0.366,0.02
			c0.343,0.012,0.579,0.017,0.708,0.017c0.306,0,0.507-0.006,0.604-0.017c0.002-0.055,0.004-0.097,0.004-0.127
			c0-0.362-0.074-0.627-0.221-0.797c-0.147-0.17-0.344-0.254-0.59-0.254c-0.26,0-0.469,0.093-0.628,0.278
			C90.037-47.73,89.956-47.437,89.954-47.036z"/>
		<path fill="#FFFFFF" d="M92.662-45.089v-0.196c0.259-0.005,0.4-0.009,0.42-0.014c0.039-0.007,0.068-0.018,0.088-0.033
			s0.035-0.036,0.047-0.064c0.023-0.053,0.037-0.136,0.041-0.248c0.014-0.614,0.021-0.934,0.021-0.961v-0.41
			c0-0.184-0.004-0.381-0.01-0.593c-0.005-0.135-0.015-0.216-0.029-0.241c-0.015-0.025-0.041-0.044-0.079-0.057
			c-0.038-0.012-0.188-0.018-0.45-0.015v-0.197c0.464-0.064,0.803-0.148,1.017-0.251c0.046-0.023,0.077-0.034,0.093-0.034
			s0.029,0.006,0.038,0.017c0.009,0.011,0.014,0.029,0.014,0.052c0,0.016-0.001,0.034-0.004,0.055
			c-0.011,0.14-0.018,0.357-0.02,0.651c0.103-0.12,0.198-0.238,0.286-0.355c0.087-0.117,0.151-0.193,0.189-0.227
			c0.069-0.06,0.148-0.107,0.238-0.143c0.09-0.036,0.183-0.053,0.279-0.053s0.192,0.021,0.286,0.062l0.021,0.048
			c-0.034,0.306-0.054,0.574-0.058,0.807h-0.155c-0.053-0.11-0.114-0.191-0.184-0.241s-0.158-0.076-0.264-0.076
			c-0.177,0-0.327,0.073-0.452,0.219c-0.124,0.146-0.186,0.365-0.186,0.656v0.355c0,0.152,0.006,0.428,0.017,0.83
			c0.002,0.143,0.008,0.233,0.017,0.272c0.009,0.039,0.021,0.067,0.036,0.084s0.04,0.032,0.074,0.043
			c0.069,0.021,0.255,0.041,0.558,0.062v0.196c-0.404-0.016-0.749-0.024-1.034-0.024C93.222-45.114,92.938-45.105,92.662-45.089z"/>
	</g>
	<path display="inline" fill="#008A46" d="M84.229-97.199c-11.928,0-21.598,9.671-21.598,21.598s9.671,21.598,21.598,21.598
		s21.598-9.671,21.598-21.598S96.156-97.199,84.229-97.199z M95.147-79.839c0.329,7.271-5.094,15.378-14.694,15.378
		c-2.919,0-5.635-0.857-7.923-2.324c2.743,0.324,5.481-0.439,7.653-2.14c-2.261-0.041-4.17-1.537-4.831-3.591
		c0.812,0.155,1.611,0.11,2.336-0.088c-2.486-0.5-4.203-2.739-4.147-5.135c0.698,0.387,1.494,0.619,2.342,0.646
		c-2.302-1.539-2.954-4.579-1.6-6.902c2.549,3.128,6.359,5.185,10.655,5.401c-0.754-3.233,1.699-6.348,5.038-6.348
		c1.485,0,2.829,0.628,3.773,1.632c1.177-0.23,2.286-0.662,3.283-1.255c-0.387,1.208-1.206,2.219-2.273,2.86
		c1.046-0.126,2.043-0.403,2.968-0.815C97.035-81.479,96.16-80.568,95.147-79.839z"/>
</g>
<g id="youtube_00000021806523194389425350000007253860090490364052_" display="none">
	<g display="inline">
		<path fill="#FFFFFF" d="M123.046-49.682v-0.21l0.83-0.162c0.092,0.032,0.155,0.063,0.19,0.091
			c0.034,0.029,0.107,0.117,0.217,0.264c0.163,0.218,0.351,0.516,0.565,0.892c0.214,0.377,0.441,0.808,0.682,1.292
			c0.243-0.374,0.493-0.781,0.748-1.22l0.734-1.251h0.527v0.093c-0.127,0.14-0.358,0.445-0.696,0.913
			c-0.195,0.271-0.449,0.665-0.761,1.182c-0.195,0.319-0.305,0.515-0.331,0.587c-0.025,0.072-0.038,0.141-0.038,0.205v0.265
			c0,0.313,0.004,0.617,0.01,0.913c0.007,0.218,0.023,0.348,0.05,0.389c0.026,0.041,0.069,0.072,0.128,0.091
			c0.058,0.02,0.224,0.031,0.498,0.036v0.221c-0.374-0.018-0.698-0.028-0.972-0.028c-0.262,0-0.608,0.009-1.037,0.028v-0.221
			c0.271-0.005,0.437-0.017,0.496-0.036c0.06-0.02,0.1-0.047,0.121-0.081c0.03-0.046,0.048-0.157,0.055-0.334
			c0.002-0.048,0.007-0.374,0.014-0.979v-0.403c-0.048-0.103-0.095-0.196-0.141-0.279c-0.032-0.058-0.149-0.255-0.352-0.593
			l-0.227-0.372c-0.179-0.294-0.313-0.503-0.4-0.627c-0.168-0.239-0.307-0.41-0.417-0.513c-0.06-0.057-0.122-0.098-0.188-0.121
			C123.285-49.671,123.184-49.682,123.046-49.682z"/>
		<path fill="#FFFFFF" d="M127.259-46.674c0-0.515,0.164-0.934,0.491-1.259c0.327-0.325,0.747-0.488,1.259-0.488
			c0.482,0,0.875,0.152,1.178,0.455s0.455,0.695,0.455,1.175c0,0.335-0.078,0.642-0.234,0.92c-0.156,0.278-0.377,0.496-0.662,0.653
			s-0.598,0.236-0.941,0.236c-0.266,0-0.492-0.045-0.677-0.135s-0.335-0.202-0.45-0.338c-0.115-0.136-0.202-0.275-0.262-0.417
			C127.312-46.122,127.259-46.39,127.259-46.674z M127.91-46.929c0,0.283,0.047,0.57,0.141,0.861s0.23,0.505,0.408,0.639
			c0.178,0.134,0.372,0.201,0.58,0.201c0.267,0,0.49-0.106,0.669-0.317c0.179-0.211,0.268-0.536,0.268-0.975
			c0-0.365-0.053-0.68-0.16-0.946c-0.107-0.265-0.243-0.452-0.408-0.561c-0.165-0.109-0.348-0.164-0.548-0.164
			c-0.282,0-0.512,0.102-0.687,0.307C127.998-47.679,127.91-47.361,127.91-46.929z"/>
		<path fill="#FFFFFF" d="M134.953-45.286v0.196c-0.301-0.016-0.528-0.024-0.682-0.024c-0.17,0-0.342,0.008-0.517,0.024
			c0.014-0.186,0.024-0.395,0.031-0.627c-0.138,0.11-0.302,0.261-0.493,0.451c-0.044,0.044-0.086,0.076-0.127,0.096
			c-0.099,0.055-0.198,0.095-0.296,0.119c-0.099,0.024-0.217,0.036-0.355,0.036c-0.186,0-0.342-0.025-0.467-0.076
			c-0.125-0.05-0.233-0.127-0.322-0.231c-0.067-0.076-0.118-0.174-0.153-0.294c-0.036-0.121-0.053-0.266-0.053-0.436
			c0-0.08,0.003-0.156,0.009-0.227c0.006-0.071,0.009-0.141,0.009-0.21v-0.589c0-0.06-0.004-0.21-0.01-0.451
			c-0.005-0.152-0.015-0.25-0.031-0.296c-0.009-0.023-0.024-0.041-0.045-0.055c-0.034-0.023-0.095-0.034-0.183-0.034
			c-0.126,0-0.226-0.001-0.3-0.003v-0.197c0.494-0.055,0.852-0.144,1.075-0.265c0.037-0.02,0.065-0.031,0.086-0.031
			c0.016,0,0.029,0.006,0.039,0.017c0.01,0.012,0.016,0.029,0.016,0.052c0,0.018-0.001,0.041-0.004,0.069
			c-0.009,0.074-0.017,0.215-0.024,0.424c-0.014,0.383-0.021,0.641-0.021,0.772v0.672c0,0.28,0.019,0.477,0.057,0.591
			c0.038,0.114,0.111,0.205,0.221,0.272c0.109,0.068,0.244,0.102,0.405,0.102c0.11,0,0.22-0.019,0.329-0.057
			s0.207-0.093,0.295-0.164c0.064-0.053,0.13-0.124,0.196-0.214c0.051-0.067,0.084-0.118,0.1-0.153s0.026-0.088,0.031-0.157
			c0.011-0.202,0.017-0.403,0.017-0.603v-0.289c0-0.06-0.003-0.21-0.01-0.451c-0.004-0.152-0.015-0.25-0.031-0.296
			c-0.009-0.023-0.024-0.041-0.045-0.055c-0.035-0.023-0.095-0.034-0.183-0.034c-0.126,0-0.226-0.001-0.3-0.003v-0.197
			c0.494-0.055,0.852-0.144,1.075-0.265c0.037-0.02,0.065-0.031,0.086-0.031c0.016,0,0.029,0.006,0.04,0.017
			c0.01,0.012,0.015,0.029,0.015,0.052c0,0.018-0.001,0.041-0.003,0.069c-0.007,0.074-0.015,0.219-0.024,0.438
			c-0.014,0.374-0.021,0.627-0.021,0.758v0.472l0.007,0.479c0.007,0.278,0.012,0.441,0.014,0.489
			c0.002,0.115,0.015,0.199,0.038,0.252c0.011,0.021,0.026,0.039,0.045,0.053c0.018,0.015,0.046,0.027,0.083,0.036
			C134.585-45.294,134.712-45.29,134.953-45.286z"/>
		<path fill="#FFFFFF" d="M135.291-47.791v-0.145c0.23-0.087,0.412-0.165,0.548-0.234c0-0.547-0.007-0.896-0.02-1.047
			c0.239-0.083,0.433-0.171,0.582-0.265l0.083,0.069c-0.025,0.191-0.053,0.611-0.083,1.261c0.184,0.002,0.294,0.003,0.331,0.003
			c0.021,0,0.139-0.002,0.355-0.007c0.119-0.002,0.209-0.007,0.268-0.014l0.024,0.024l-0.072,0.321
			c-0.145-0.002-0.278-0.004-0.4-0.004s-0.291,0.001-0.507,0.004l-0.021,1.402c-0.007,0.342-0.005,0.547,0.007,0.614
			c0.012,0.066,0.033,0.125,0.066,0.174c0.032,0.049,0.074,0.089,0.126,0.119s0.139,0.053,0.264,0.069
			c0.094,0,0.171-0.004,0.229-0.012c0.059-0.008,0.133-0.028,0.222-0.06l0.041,0.134c-0.108,0.085-0.213,0.173-0.314,0.265
			c-0.087,0.032-0.169,0.053-0.245,0.064c-0.076,0.01-0.163,0.015-0.262,0.015c-0.122,0-0.219-0.014-0.291-0.041
			c-0.072-0.028-0.138-0.066-0.198-0.115s-0.109-0.112-0.148-0.188s-0.064-0.195-0.076-0.358c0.002-0.156,0.007-0.327,0.014-0.514
			c0.002-0.037,0.004-0.077,0.004-0.12v-1.43h-0.141C135.562-47.808,135.433-47.802,135.291-47.791z"/>
		<path fill="#FFFFFF" d="M141.51-45.286v0.196c-0.301-0.016-0.528-0.024-0.682-0.024c-0.17,0-0.342,0.008-0.517,0.024
			c0.014-0.186,0.024-0.395,0.031-0.627c-0.138,0.11-0.302,0.261-0.493,0.451c-0.044,0.044-0.086,0.076-0.127,0.096
			c-0.099,0.055-0.198,0.095-0.296,0.119c-0.099,0.024-0.217,0.036-0.355,0.036c-0.186,0-0.342-0.025-0.467-0.076
			c-0.125-0.05-0.233-0.127-0.322-0.231c-0.067-0.076-0.118-0.174-0.153-0.294c-0.036-0.121-0.053-0.266-0.053-0.436
			c0-0.08,0.003-0.156,0.009-0.227c0.006-0.071,0.009-0.141,0.009-0.21v-0.589c0-0.06-0.004-0.21-0.01-0.451
			c-0.005-0.152-0.015-0.25-0.031-0.296c-0.009-0.023-0.024-0.041-0.045-0.055c-0.034-0.023-0.095-0.034-0.183-0.034
			c-0.126,0-0.226-0.001-0.3-0.003v-0.197c0.494-0.055,0.852-0.144,1.075-0.265c0.037-0.02,0.065-0.031,0.086-0.031
			c0.016,0,0.029,0.006,0.039,0.017c0.01,0.012,0.016,0.029,0.016,0.052c0,0.018-0.001,0.041-0.004,0.069
			c-0.009,0.074-0.017,0.215-0.024,0.424c-0.014,0.383-0.021,0.641-0.021,0.772v0.672c0,0.28,0.019,0.477,0.057,0.591
			c0.038,0.114,0.111,0.205,0.221,0.272c0.109,0.068,0.244,0.102,0.405,0.102c0.11,0,0.22-0.019,0.329-0.057
			s0.207-0.093,0.295-0.164c0.064-0.053,0.13-0.124,0.196-0.214c0.051-0.067,0.084-0.118,0.1-0.153
			c0.016-0.036,0.026-0.088,0.031-0.157c0.011-0.202,0.017-0.403,0.017-0.603v-0.289c0-0.06-0.003-0.21-0.01-0.451
			c-0.004-0.152-0.015-0.25-0.031-0.296c-0.009-0.023-0.024-0.041-0.045-0.055c-0.035-0.023-0.095-0.034-0.183-0.034
			c-0.126,0-0.226-0.001-0.3-0.003v-0.197c0.494-0.055,0.852-0.144,1.075-0.265c0.037-0.02,0.065-0.031,0.086-0.031
			c0.016,0,0.029,0.006,0.04,0.017c0.01,0.012,0.015,0.029,0.015,0.052c0,0.018-0.001,0.041-0.003,0.069
			c-0.007,0.074-0.015,0.219-0.024,0.438c-0.014,0.374-0.021,0.627-0.021,0.758v0.472l0.007,0.479
			c0.007,0.278,0.012,0.441,0.014,0.489c0.002,0.115,0.015,0.199,0.038,0.252c0.011,0.021,0.026,0.039,0.045,0.053
			s0.046,0.027,0.083,0.036C141.141-45.294,141.269-45.29,141.51-45.286z"/>
		<path fill="#FFFFFF" d="M142.137-45.076c0.028-0.289,0.042-0.472,0.045-0.548c0.014-0.498,0.02-0.791,0.02-0.878v-1.533
			c0-0.383-0.007-0.78-0.02-1.189c-0.009-0.276-0.022-0.429-0.038-0.462c-0.012-0.023-0.03-0.039-0.055-0.048
			c-0.034-0.016-0.193-0.024-0.475-0.024v-0.203c0.519-0.064,0.88-0.145,1.082-0.241c0.03-0.014,0.053-0.021,0.069-0.021
			s0.029,0.005,0.038,0.015c0.009,0.01,0.014,0.025,0.014,0.043c0,0.016-0.002,0.039-0.007,0.069l-0.003,0.114
			c-0.012,0.411-0.018,0.761-0.021,1.051l-0.007,0.538v0.682l0.475-0.465c0.062-0.053,0.164-0.104,0.307-0.155
			c0.142-0.051,0.294-0.076,0.455-0.076c0.252,0,0.477,0.059,0.672,0.178c0.195,0.119,0.345,0.286,0.45,0.501
			c0.104,0.216,0.157,0.455,0.157,0.717c0,0.202-0.03,0.394-0.09,0.575c-0.06,0.182-0.137,0.343-0.231,0.486
			c-0.069,0.108-0.127,0.181-0.176,0.221l-0.503,0.362c-0.205,0.152-0.364,0.249-0.479,0.291s-0.262,0.064-0.441,0.064
			c-0.154,0-0.296-0.021-0.427-0.062s-0.27-0.114-0.417-0.217l-0.279,0.262L142.137-45.076z M142.778-47.298v1.292
			c0,0.115,0.006,0.188,0.019,0.221c0.012,0.032,0.051,0.075,0.115,0.128c0.096,0.08,0.208,0.144,0.336,0.193
			c0.128,0.048,0.262,0.072,0.405,0.072c0.333,0,0.589-0.129,0.768-0.386s0.269-0.576,0.269-0.954c0-0.269-0.043-0.494-0.128-0.675
			c-0.085-0.182-0.202-0.318-0.351-0.409s-0.317-0.136-0.503-0.136c-0.218,0-0.413,0.063-0.586,0.188
			C142.95-47.64,142.835-47.484,142.778-47.298z"/>
		<path fill="#FFFFFF" d="M148.635-45.624l-0.11,0.248c-0.159,0.099-0.275,0.164-0.348,0.197c-0.108,0.048-0.232,0.089-0.37,0.122
			c-0.139,0.033-0.285,0.05-0.439,0.05c-0.303,0-0.578-0.063-0.823-0.19c-0.245-0.126-0.436-0.315-0.572-0.567
			c-0.136-0.251-0.204-0.546-0.204-0.884c0-0.264,0.036-0.502,0.108-0.715c0.072-0.212,0.155-0.369,0.246-0.47
			c0.067-0.074,0.17-0.158,0.31-0.253c0.14-0.095,0.279-0.171,0.417-0.226c0.182-0.076,0.378-0.114,0.589-0.114
			c0.257,0,0.49,0.058,0.698,0.176c0.208,0.117,0.36,0.277,0.457,0.479c0.096,0.202,0.144,0.431,0.144,0.686
			c0,0.064-0.004,0.143-0.014,0.234c-0.165,0.032-0.314,0.053-0.445,0.062c-0.249,0.018-0.497,0.028-0.745,0.028h-1.108
			c0.005,0.328,0.061,0.594,0.171,0.797c0.109,0.203,0.259,0.353,0.451,0.45c0.192,0.096,0.391,0.145,0.598,0.145
			c0.14,0,0.279-0.023,0.419-0.067c0.139-0.045,0.311-0.127,0.515-0.246L148.635-45.624z M146.427-47.036
			c0.064,0.007,0.186,0.014,0.366,0.02c0.343,0.012,0.579,0.017,0.708,0.017c0.306,0,0.507-0.006,0.604-0.017
			c0.002-0.055,0.004-0.097,0.004-0.127c0-0.362-0.074-0.627-0.221-0.797c-0.147-0.17-0.344-0.254-0.59-0.254
			c-0.26,0-0.469,0.093-0.628,0.278C146.51-47.73,146.429-47.437,146.427-47.036z"/>
	</g>
	<g display="inline">
		<path fill="#008A46" d="M135.97-97.199c-11.928,0-21.598,9.67-21.598,21.598s9.67,21.598,21.598,21.598s21.598-9.67,21.598-21.598
			S147.898-97.199,135.97-97.199z M149.463-70.826c0,2.522-2.045,4.567-4.567,4.567h-17.852c-2.522,0-4.567-2.045-4.567-4.567
			v-9.549c0-2.522,2.045-4.567,4.567-4.567h17.852c2.522,0,4.567,2.045,4.567,4.567V-70.826z"/>
		<polygon fill="#008A46" points="133.063,-79.756 133.063,-75.6 133.063,-71.444 137.111,-73.52 141.159,-75.6 137.111,-77.68 		
			"/>
	</g>
</g>
<g>
	<path fill="#FFFFFF" d="M11.292,61.254v0.221c-0.489-0.018-0.811-0.028-0.965-0.028l-1.065,0.028v-0.221
		c0.271-0.005,0.436-0.017,0.496-0.036c0.06-0.02,0.101-0.047,0.124-0.081c0.028-0.046,0.045-0.157,0.052-0.334
		c0.002-0.048,0.007-0.374,0.014-0.979v-1.595c0-0.312-0.004-0.618-0.01-0.917c-0.007-0.218-0.024-0.347-0.05-0.388
		c-0.026-0.04-0.069-0.07-0.127-0.09c-0.059-0.02-0.225-0.032-0.498-0.036v-0.221c0.439,0.016,0.777,0.024,1.016,0.024
		c0.23,0,0.567-0.008,1.013-0.024v0.221c-0.273,0.004-0.439,0.017-0.498,0.036c-0.059,0.02-0.1,0.047-0.122,0.081
		c-0.028,0.046-0.045,0.157-0.052,0.334c-0.002,0.046-0.007,0.372-0.014,0.979v1.595c0,0.313,0.004,0.617,0.01,0.913
		c0.007,0.218,0.023,0.348,0.05,0.389c0.026,0.041,0.069,0.072,0.128,0.091C10.853,61.238,11.019,61.248,11.292,61.254z"/>
	<path fill="#FFFFFF" d="M11.575,61.475v-0.193l0.327-0.003c0.048-0.002,0.085-0.011,0.112-0.026
		c0.026-0.015,0.046-0.034,0.06-0.057c0.025-0.046,0.041-0.128,0.049-0.245c0-0.03,0.007-0.36,0.02-0.99v-0.41
		c0-0.184-0.003-0.382-0.01-0.593c-0.007-0.136-0.018-0.216-0.033-0.241c-0.015-0.025-0.041-0.044-0.077-0.057
		c-0.037-0.012-0.186-0.018-0.448-0.015v-0.197c0.463-0.064,0.801-0.148,1.014-0.251c0.046-0.023,0.076-0.034,0.092-0.034
		c0.016,0,0.029,0.006,0.038,0.017s0.014,0.029,0.014,0.052c0,0.016-0.001,0.034-0.003,0.055c-0.007,0.083-0.014,0.257-0.021,0.524
		l0.642-0.548c0.189-0.069,0.367-0.104,0.535-0.104c0.186,0,0.363,0.038,0.53,0.114s0.292,0.171,0.376,0.286
		c0.084,0.115,0.14,0.26,0.167,0.435c0.016,0.103,0.024,0.392,0.024,0.866v0.611c0,0.299,0.008,0.502,0.024,0.611
		c0.012,0.069,0.029,0.117,0.053,0.143s0.061,0.043,0.112,0.05l0.369,0.01v0.193c-0.225-0.016-0.412-0.024-0.562-0.024
		c-0.129,0-0.342,0.008-0.641,0.024c0.032-0.567,0.048-0.926,0.048-1.075v-0.579c0-0.361-0.014-0.597-0.041-0.71
		c-0.039-0.154-0.128-0.278-0.266-0.372s-0.305-0.141-0.501-0.141c-0.173,0-0.33,0.041-0.473,0.123s-0.244,0.176-0.306,0.283
		c-0.061,0.107-0.092,0.287-0.092,0.54v0.417c0.014,0.598,0.021,0.921,0.021,0.969c0.004,0.115,0.018,0.199,0.041,0.252
		c0.009,0.021,0.023,0.039,0.041,0.053c0.018,0.015,0.047,0.027,0.086,0.036c0.014,0.002,0.14,0.006,0.379,0.01v0.193
		c-0.28-0.016-0.534-0.024-0.76-0.024C12.325,61.45,12.011,61.459,11.575,61.475z"/>
	<path fill="#FFFFFF" d="M15.906,60.434h0.207c0.002,0.133,0.009,0.239,0.021,0.317c0.011,0.078,0.031,0.155,0.058,0.229
		c0.028,0.075,0.07,0.138,0.127,0.19c0.058,0.052,0.12,0.092,0.188,0.12c0.068,0.029,0.136,0.048,0.207,0.057
		c0.07,0.009,0.176,0.014,0.319,0.014c0.234,0,0.427-0.062,0.577-0.186s0.225-0.294,0.225-0.51c0-0.096-0.023-0.181-0.071-0.255
		c-0.047-0.074-0.115-0.131-0.203-0.173c-0.088-0.041-0.279-0.095-0.57-0.162c-0.292-0.067-0.48-0.115-0.565-0.145
		c-0.129-0.048-0.231-0.107-0.307-0.176c-0.076-0.069-0.136-0.156-0.181-0.262s-0.067-0.221-0.067-0.345
		c0-0.181,0.047-0.348,0.143-0.501c0.095-0.153,0.245-0.277,0.45-0.372c0.204-0.095,0.427-0.143,0.668-0.143
		c0.145,0,0.313,0.02,0.503,0.06s0.346,0.09,0.465,0.15c-0.016,0.255-0.028,0.514-0.034,0.778H17.87
		c-0.012-0.168-0.025-0.278-0.04-0.331c-0.015-0.053-0.035-0.1-0.06-0.141s-0.069-0.085-0.131-0.133s-0.142-0.089-0.24-0.126
		s-0.217-0.055-0.36-0.055c-0.202,0-0.365,0.06-0.488,0.179c-0.123,0.12-0.184,0.26-0.184,0.421c0,0.089,0.018,0.166,0.053,0.231
		c0.036,0.064,0.083,0.117,0.143,0.157s0.144,0.076,0.251,0.109l0.572,0.141c0.289,0.074,0.488,0.137,0.598,0.19
		c0.109,0.053,0.197,0.135,0.264,0.246c0.067,0.112,0.1,0.245,0.1,0.402c0,0.31-0.128,0.581-0.384,0.811
		c-0.256,0.231-0.599,0.346-1.028,0.346c-0.198,0-0.461-0.03-0.789-0.09c-0.182-0.034-0.279-0.058-0.293-0.072
		c-0.009-0.007-0.014-0.018-0.014-0.034s0.002-0.036,0.007-0.059c0.021-0.099,0.034-0.195,0.041-0.289
		C15.895,60.928,15.901,60.732,15.906,60.434z"/>
	<path fill="#FFFFFF" d="M18.734,58.772v-0.145c0.23-0.087,0.412-0.165,0.548-0.234c0-0.547-0.007-0.896-0.02-1.047
		c0.239-0.083,0.433-0.171,0.582-0.265l0.083,0.069c-0.025,0.191-0.053,0.611-0.083,1.261c0.184,0.002,0.294,0.003,0.331,0.003
		c0.021,0,0.139-0.002,0.355-0.007c0.119-0.002,0.209-0.007,0.268-0.014l0.024,0.024l-0.072,0.321
		c-0.145-0.002-0.278-0.004-0.4-0.004s-0.291,0.001-0.507,0.004l-0.021,1.402c-0.007,0.342-0.005,0.547,0.007,0.614
		c0.012,0.066,0.033,0.125,0.066,0.174c0.032,0.049,0.074,0.089,0.126,0.119s0.139,0.053,0.264,0.069
		c0.094,0,0.171-0.004,0.229-0.012c0.059-0.008,0.133-0.028,0.222-0.06l0.041,0.134c-0.108,0.085-0.213,0.173-0.314,0.265
		c-0.087,0.032-0.169,0.053-0.245,0.064c-0.076,0.01-0.163,0.015-0.262,0.015c-0.122,0-0.219-0.014-0.291-0.041
		c-0.072-0.028-0.138-0.066-0.198-0.115c-0.06-0.049-0.109-0.112-0.148-0.188s-0.064-0.195-0.076-0.358
		c0.002-0.156,0.007-0.327,0.014-0.514c0.002-0.037,0.004-0.077,0.004-0.12v-1.43H19.12C19.005,58.756,18.877,58.761,18.734,58.772z
		"/>
	<path fill="#FFFFFF" d="M21.625,59.115l-0.182-0.049c0.002-0.053,0.003-0.125,0.003-0.217c0-0.096-0.001-0.173-0.003-0.231
		c0.292-0.191,0.531-0.319,0.717-0.386c0.143-0.049,0.302-0.072,0.479-0.072c0.262,0,0.482,0.049,0.662,0.148
		c0.179,0.099,0.312,0.24,0.4,0.424c0.06,0.129,0.089,0.304,0.089,0.527l-0.014,0.631v1.027c0,0.11,0.009,0.189,0.028,0.238
		c0.014,0.034,0.036,0.06,0.066,0.076c0.023,0.014,0.071,0.023,0.145,0.028l0.224,0.021v0.196c-0.189-0.016-0.354-0.024-0.496-0.024
		c-0.138,0-0.322,0.008-0.551,0.024l0.017-0.606c-0.469,0.354-0.746,0.553-0.834,0.598c-0.087,0.045-0.198,0.067-0.331,0.067
		c-0.278,0-0.495-0.074-0.649-0.222c-0.155-0.148-0.233-0.345-0.233-0.591c0-0.158,0.027-0.303,0.081-0.434
		c0.054-0.131,0.119-0.235,0.195-0.312s0.153-0.134,0.231-0.17c0.133-0.062,0.35-0.129,0.65-0.2c0.3-0.071,0.596-0.124,0.891-0.158
		c0.002-0.218-0.024-0.388-0.079-0.51s-0.148-0.222-0.279-0.3s-0.291-0.117-0.479-0.117c-0.135,0-0.254,0.018-0.356,0.055
		c-0.102,0.037-0.165,0.068-0.188,0.093l-0.062,0.124C21.701,58.927,21.655,59.035,21.625,59.115z M23.207,59.655
		c-0.299,0.05-0.553,0.107-0.765,0.169c-0.211,0.062-0.361,0.127-0.448,0.193c-0.053,0.039-0.099,0.098-0.138,0.176
		c-0.06,0.115-0.09,0.242-0.09,0.383c0,0.17,0.047,0.303,0.141,0.398s0.225,0.143,0.393,0.143c0.154,0,0.306-0.044,0.457-0.133
		c0.15-0.088,0.3-0.221,0.45-0.398V59.655z"/>
	<path fill="#FFFFFF" d="M28.223,58.424l0.028,0.065c-0.09,0.136-0.148,0.229-0.176,0.279h-0.641
		c0.053,0.135,0.079,0.263,0.079,0.382c0,0.174-0.045,0.345-0.136,0.512c-0.091,0.167-0.223,0.309-0.398,0.427
		c-0.175,0.119-0.361,0.198-0.558,0.24c-0.128,0.028-0.302,0.039-0.52,0.034c-0.149,0.119-0.243,0.209-0.283,0.269
		c-0.025,0.041-0.038,0.086-0.038,0.135c0,0.055,0.017,0.104,0.05,0.146c0.033,0.042,0.084,0.072,0.153,0.088
		c0.103,0.028,0.287,0.041,0.551,0.041l0.744-0.014c0.26,0,0.456,0.034,0.591,0.101c0.134,0.068,0.234,0.171,0.298,0.31
		s0.096,0.296,0.096,0.471c0,0.237-0.077,0.477-0.233,0.722c-0.155,0.245-0.385,0.438-0.691,0.579
		c-0.305,0.141-0.648,0.212-1.027,0.212c-0.317,0-0.587-0.049-0.81-0.148s-0.388-0.231-0.494-0.396
		c-0.107-0.165-0.16-0.339-0.16-0.52c0-0.101,0.015-0.196,0.046-0.284c0.031-0.088,0.083-0.183,0.157-0.284
		c0.28-0.129,0.481-0.241,0.603-0.338c-0.19-0.062-0.313-0.12-0.367-0.176c-0.054-0.055-0.081-0.11-0.081-0.165
		c0-0.046,0.034-0.17,0.103-0.372c0.113-0.094,0.289-0.228,0.531-0.4c-0.207-0.058-0.366-0.125-0.477-0.202s-0.198-0.181-0.26-0.313
		c-0.062-0.132-0.093-0.278-0.093-0.436c0-0.234,0.06-0.444,0.179-0.629s0.321-0.335,0.603-0.451
		c0.283-0.116,0.545-0.174,0.786-0.174c0.156,0,0.305,0.025,0.446,0.076s0.275,0.127,0.402,0.228
		C27.659,58.437,27.991,58.432,28.223,58.424z M26.415,61.512c-0.342,0-0.557,0.004-0.644,0.014
		c-0.044,0.007-0.093,0.03-0.148,0.069c-0.181,0.129-0.278,0.2-0.289,0.214c-0.023,0.023-0.048,0.07-0.076,0.141
		c-0.049,0.129-0.072,0.259-0.072,0.39c0,0.241,0.093,0.446,0.281,0.613c0.187,0.167,0.445,0.25,0.773,0.25
		c0.243,0,0.466-0.049,0.667-0.147s0.353-0.232,0.455-0.401s0.153-0.339,0.153-0.509c-0.007-0.147-0.029-0.259-0.067-0.335
		c-0.038-0.076-0.084-0.136-0.138-0.179c-0.054-0.044-0.128-0.079-0.222-0.107C27.031,61.519,26.807,61.515,26.415,61.512z
		 M25.405,59.201c0,0.163,0.03,0.322,0.091,0.475c0.061,0.154,0.151,0.27,0.269,0.348s0.253,0.117,0.405,0.117
		c0.198,0,0.372-0.064,0.524-0.191c0.152-0.128,0.227-0.333,0.227-0.615c0-0.289-0.076-0.52-0.227-0.691
		c-0.152-0.171-0.334-0.257-0.548-0.257c-0.223,0-0.402,0.071-0.538,0.212C25.473,58.74,25.405,58.94,25.405,59.201z"/>
	<path fill="#FFFFFF" d="M28.492,61.475v-0.196c0.259-0.005,0.4-0.009,0.42-0.014c0.039-0.007,0.068-0.018,0.088-0.033
		s0.035-0.036,0.047-0.064c0.023-0.053,0.037-0.136,0.041-0.248c0.014-0.614,0.021-0.934,0.021-0.961v-0.41
		c0-0.184-0.004-0.381-0.01-0.593c-0.005-0.135-0.015-0.216-0.029-0.241c-0.015-0.025-0.041-0.044-0.079-0.057
		c-0.038-0.012-0.188-0.018-0.45-0.015v-0.197c0.464-0.064,0.803-0.148,1.017-0.251c0.046-0.023,0.077-0.034,0.093-0.034
		s0.029,0.006,0.038,0.017s0.014,0.029,0.014,0.052c0,0.016-0.001,0.034-0.004,0.055c-0.011,0.14-0.018,0.357-0.02,0.651
		c0.103-0.12,0.198-0.238,0.286-0.355c0.087-0.117,0.151-0.193,0.189-0.227c0.069-0.06,0.148-0.107,0.238-0.143
		c0.09-0.036,0.183-0.053,0.279-0.053s0.192,0.021,0.286,0.062l0.021,0.048c-0.034,0.306-0.054,0.574-0.058,0.807h-0.155
		c-0.053-0.11-0.114-0.191-0.184-0.241s-0.158-0.076-0.264-0.076c-0.177,0-0.327,0.073-0.451,0.219s-0.186,0.365-0.186,0.656v0.355
		c0,0.152,0.006,0.428,0.017,0.83c0.002,0.143,0.008,0.233,0.017,0.272s0.021,0.067,0.036,0.084s0.04,0.032,0.074,0.043
		c0.069,0.021,0.255,0.041,0.558,0.062v0.196c-0.404-0.016-0.749-0.024-1.034-0.024C29.053,61.45,28.768,61.459,28.492,61.475z"/>
	<path fill="#FFFFFF" d="M31.865,59.115l-0.182-0.049c0.002-0.053,0.003-0.125,0.003-0.217c0-0.096-0.001-0.173-0.003-0.231
		c0.292-0.191,0.531-0.319,0.717-0.386c0.143-0.049,0.302-0.072,0.479-0.072c0.262,0,0.482,0.049,0.662,0.148
		c0.179,0.099,0.312,0.24,0.4,0.424c0.06,0.129,0.089,0.304,0.089,0.527l-0.014,0.631v1.027c0,0.11,0.009,0.189,0.028,0.238
		c0.014,0.034,0.036,0.06,0.066,0.076c0.023,0.014,0.071,0.023,0.145,0.028l0.224,0.021v0.196c-0.189-0.016-0.354-0.024-0.496-0.024
		c-0.138,0-0.322,0.008-0.551,0.024l0.017-0.606c-0.469,0.354-0.746,0.553-0.834,0.598c-0.087,0.045-0.198,0.067-0.331,0.067
		c-0.278,0-0.494-0.074-0.649-0.222s-0.233-0.345-0.233-0.591c0-0.158,0.027-0.303,0.081-0.434s0.119-0.235,0.195-0.312
		s0.153-0.134,0.231-0.17c0.133-0.062,0.35-0.129,0.65-0.2c0.3-0.071,0.596-0.124,0.891-0.158c0.002-0.218-0.024-0.388-0.079-0.51
		s-0.148-0.222-0.279-0.3s-0.291-0.117-0.479-0.117c-0.135,0-0.254,0.018-0.356,0.055c-0.102,0.037-0.165,0.068-0.188,0.093
		l-0.062,0.124C31.941,58.927,31.895,59.035,31.865,59.115z M33.447,59.655c-0.299,0.05-0.553,0.107-0.765,0.169
		c-0.211,0.062-0.361,0.127-0.448,0.193c-0.053,0.039-0.099,0.098-0.138,0.176c-0.06,0.115-0.09,0.242-0.09,0.383
		c0,0.17,0.047,0.303,0.141,0.398c0.094,0.095,0.225,0.143,0.393,0.143c0.154,0,0.306-0.044,0.457-0.133
		c0.15-0.088,0.3-0.221,0.45-0.398V59.655z"/>
	<path fill="#FFFFFF" d="M34.791,61.475v-0.193l0.327-0.003c0.049-0.002,0.086-0.011,0.112-0.026s0.047-0.034,0.06-0.057
		c0.025-0.046,0.041-0.128,0.048-0.245c0-0.03,0.007-0.36,0.021-0.99v-0.41c0-0.184-0.004-0.382-0.01-0.593
		c-0.007-0.136-0.018-0.216-0.033-0.241s-0.041-0.044-0.077-0.057c-0.037-0.013-0.186-0.018-0.448-0.015v-0.197
		c0.463-0.064,0.801-0.148,1.014-0.252c0.046-0.023,0.076-0.034,0.092-0.034s0.029,0.006,0.038,0.017s0.014,0.029,0.014,0.052
		c0,0.016-0.001,0.034-0.004,0.055c-0.009,0.11-0.016,0.275-0.02,0.493l0.452-0.413c0.057-0.05,0.093-0.079,0.107-0.086
		c0.053-0.03,0.129-0.057,0.228-0.083c0.099-0.025,0.203-0.038,0.311-0.038c0.221,0,0.418,0.054,0.59,0.162
		c0.173,0.108,0.305,0.268,0.397,0.479l0.379-0.352c0.085-0.078,0.144-0.126,0.176-0.144c0.06-0.035,0.145-0.067,0.255-0.096
		c0.11-0.03,0.219-0.045,0.327-0.045c0.262,0,0.481,0.07,0.658,0.209c0.177,0.139,0.291,0.297,0.341,0.474
		c0.032,0.117,0.048,0.37,0.048,0.759v0.359l0.01,0.48c0.007,0.278,0.01,0.441,0.01,0.49c0.005,0.115,0.018,0.199,0.041,0.252
		c0.009,0.021,0.023,0.039,0.043,0.053c0.02,0.015,0.048,0.027,0.084,0.036c0.014,0.002,0.14,0.006,0.379,0.01v0.193
		c-0.289-0.014-0.487-0.021-0.593-0.021c-0.101,0-0.305,0.007-0.61,0.021l0.031-0.951l0.01-0.372v-0.3
		c0-0.386-0.02-0.649-0.059-0.791c-0.039-0.141-0.121-0.256-0.246-0.343c-0.125-0.087-0.27-0.131-0.436-0.131
		c-0.191,0-0.363,0.055-0.517,0.165c-0.115,0.085-0.19,0.185-0.227,0.3c-0.037,0.115-0.055,0.339-0.055,0.673v0.231l0.01,0.48
		c0.005,0.278,0.008,0.442,0.01,0.49c0.005,0.115,0.018,0.199,0.041,0.252c0.009,0.021,0.023,0.039,0.041,0.053
		c0.018,0.015,0.046,0.027,0.083,0.036c0.016,0.002,0.144,0.006,0.383,0.01v0.193c-0.338-0.018-0.609-0.028-0.813-0.028
		c-0.165,0-0.466,0.009-0.903,0.028V61.28l0.327-0.003c0.051-0.002,0.089-0.011,0.115-0.026s0.047-0.034,0.06-0.057
		c0.025-0.046,0.04-0.128,0.045-0.245c0.002-0.03,0.009-0.36,0.021-0.99V59.69c0-0.297-0.023-0.514-0.069-0.65
		c-0.046-0.137-0.127-0.246-0.242-0.328s-0.253-0.122-0.414-0.122c-0.138,0-0.269,0.029-0.392,0.088
		c-0.123,0.059-0.218,0.131-0.285,0.219c-0.067,0.088-0.107,0.181-0.121,0.279c-0.023,0.159-0.034,0.35-0.034,0.573v0.21
		c0.014,0.598,0.02,0.921,0.02,0.969c0.005,0.115,0.018,0.199,0.041,0.252c0.009,0.021,0.023,0.039,0.041,0.053
		c0.018,0.015,0.047,0.027,0.086,0.036c0.014,0.002,0.14,0.006,0.379,0.01v0.193c-0.317-0.018-0.587-0.028-0.808-0.028
		C35.488,61.447,35.19,61.455,34.791,61.475z"/>
</g>
<g>
	<path fill="#008A46" d="M32.513,12.711H17.511c-0.766,0-1.386,0.621-1.386,1.386V29.1c0,0.766,0.621,1.386,1.386,1.386h15.003
		c0.766,0,1.387-0.621,1.387-1.386V14.097C33.9,13.332,33.279,12.711,32.513,12.711z M25.012,26.931
		c-2.945,0-5.333-2.388-5.333-5.333s2.388-5.333,5.333-5.333s5.333,2.387,5.333,5.333S27.957,26.931,25.012,26.931z M30.789,17.155
		c-0.736,0-1.333-0.597-1.333-1.333s0.597-1.333,1.333-1.333s1.333,0.597,1.333,1.333S31.525,17.155,30.789,17.155z"/>
	<path fill="#008A46" d="M25.012,18.043c-1.963,0-3.555,1.592-3.555,3.555s1.592,3.555,3.555,3.555s3.555-1.592,3.555-3.555
		S26.975,18.043,25.012,18.043z"/>
	<path fill="#008A46" d="M25.012,0C13.084,0,3.414,9.67,3.414,21.598s9.67,21.598,21.598,21.598s21.598-9.67,21.598-21.598
		S36.94,0,25.012,0z M35.677,29.1c-0.005,1.745-1.419,3.159-3.164,3.164H17.511c-1.745-0.005-3.159-1.419-3.164-3.164V14.097
		c0.005-1.745,1.419-3.159,3.164-3.164h15.003c1.745,0.005,3.159,1.419,3.164,3.164L35.677,29.1L35.677,29.1z"/>
</g>
</svg>
