<?xml version="1.0" encoding="utf-8"?>
<!-- Generator: Adobe Illustrator 26.0.1, SVG Export Plug-In . SVG Version: 6.00 Build 0)  -->
<svg version="1.1" id="Layer_1" xmlns="http://www.w3.org/2000/svg" xmlns:xlink="http://www.w3.org/1999/xlink" x="0px" y="0px"
	 viewBox="0 0 343 570" enable-background="new 0 0 343 570" xml:space="preserve">
<g>
	<path fill="#58595B" d="M150.283,480.83c1.009,0.684,1.847,1.579,2.515,2.686c0.667,1.107,1.001,2.45,1.001,4.028
		c0,1.611-0.35,3.011-1.05,4.199c-0.7,1.188-1.611,2.165-2.734,2.93c-1.091,0.749-2.324,1.318-3.699,1.709
		c-1.375,0.391-2.795,0.586-4.26,0.586h-16.407v-1.733c0.391-0.032,0.96-0.102,1.709-0.208c0.749-0.105,1.286-0.232,1.611-0.378
		c0.504-0.228,0.862-0.533,1.074-0.916c0.211-0.382,0.317-0.875,0.317-1.477v-24.902c0-0.553-0.094-1.042-0.281-1.465
		c-0.188-0.423-0.558-0.765-1.111-1.025c-0.488-0.244-1.034-0.431-1.636-0.562c-0.603-0.13-1.107-0.211-1.514-0.244v-1.733h15.991
		c1.237,0,2.421,0.122,3.552,0.366s2.209,0.676,3.235,1.294c0.96,0.57,1.75,1.343,2.368,2.319c0.618,0.977,0.928,2.165,0.928,3.564
		c0,1.221-0.22,2.307-0.659,3.259s-1.058,1.77-1.855,2.454c-0.749,0.651-1.607,1.201-2.576,1.648
		c-0.969,0.448-2.014,0.793-3.137,1.038v0.22c0.993,0.114,2.104,0.362,3.333,0.745C148.228,479.614,149.322,480.146,150.283,480.83z
		 M144.378,475.602c0.601-0.701,1.019-1.467,1.254-2.299s0.353-1.818,0.353-2.959c0-1.908-0.52-3.404-1.559-4.488
		s-2.679-1.626-4.92-1.626c-0.52,0-1.173,0.012-1.96,0.037c-0.788,0.024-1.45,0.045-1.985,0.061v13.33h3.093
		c1.332,0,2.472-0.171,3.422-0.514C143.026,476.8,143.793,476.287,144.378,475.602z M147.768,486.665
		c0-2.051-0.688-3.735-2.063-5.054c-1.375-1.318-3.341-1.978-5.896-1.978c-1.042,0-1.921,0.012-2.637,0.037
		c-0.716,0.024-1.253,0.045-1.611,0.061v12.207c0,1.025,0.415,1.799,1.245,2.319c0.83,0.521,1.985,0.781,3.467,0.781
		c2.425,0,4.28-0.708,5.566-2.124C147.125,491.499,147.768,489.416,147.768,486.665z"/>
	<path fill="#58595B" d="M179.165,491.304c-1.009,1.921-2.36,3.451-4.053,4.59s-3.638,1.709-5.835,1.709
		c-1.937,0-3.634-0.342-5.09-1.025c-1.457-0.684-2.657-1.611-3.601-2.783s-1.648-2.539-2.112-4.102s-0.696-3.214-0.696-4.956
		c0-1.562,0.248-3.096,0.745-4.602c0.496-1.505,1.225-2.86,2.185-4.065c0.928-1.155,2.079-2.087,3.455-2.795
		c1.375-0.708,2.917-1.062,4.626-1.062c1.758,0,3.263,0.277,4.517,0.83c1.253,0.554,2.271,1.311,3.052,2.271
		c0.749,0.912,1.306,1.986,1.672,3.223s0.549,2.58,0.549,4.028v1.611h-15.942c0,1.583,0.15,3.018,0.452,4.307
		c0.301,1.289,0.777,2.422,1.428,3.401c0.635,0.946,1.465,1.692,2.49,2.239c1.025,0.547,2.246,0.82,3.662,0.82
		c1.448,0,2.698-0.339,3.748-1.019s2.063-1.902,3.04-3.669L179.165,491.304z M173.769,482.124c0-0.909-0.078-1.882-0.232-2.92
		c-0.155-1.039-0.403-1.907-0.745-2.605c-0.375-0.746-0.887-1.354-1.538-1.825s-1.489-0.706-2.515-0.706
		c-1.709,0-3.129,0.71-4.26,2.13s-1.746,3.396-1.843,5.927L173.769,482.124L173.769,482.124z"/>
	<path fill="#58595B" d="M197.841,485.176c0.667,0.586,1.18,1.262,1.538,2.026c0.358,0.765,0.537,1.701,0.537,2.808
		c0,2.23-0.834,4.053-2.502,5.469s-3.829,2.124-6.482,2.124c-1.4,0-2.69-0.252-3.87-0.757c-1.18-0.504-2.022-0.968-2.527-1.392
		l-0.488,1.587h-1.831l-0.244-8.374h1.685c0.13,0.637,0.407,1.38,0.83,2.229s0.936,1.617,1.538,2.303
		c0.635,0.719,1.396,1.323,2.283,1.813c0.887,0.49,1.884,0.735,2.991,0.735c1.562,0,2.767-0.356,3.613-1.068
		c0.846-0.712,1.27-1.731,1.27-3.058c0-0.684-0.134-1.273-0.403-1.77c-0.269-0.496-0.664-0.932-1.184-1.306
		c-0.537-0.374-1.196-0.712-1.978-1.013c-0.781-0.301-1.652-0.598-2.612-0.891c-0.765-0.228-1.616-0.541-2.551-0.94
		c-0.936-0.398-1.738-0.867-2.405-1.404c-0.716-0.569-1.302-1.27-1.758-2.1c-0.456-0.83-0.684-1.807-0.684-2.93
		c0-1.969,0.732-3.638,2.197-5.005s3.426-2.051,5.884-2.051c0.944,0,1.908,0.122,2.893,0.366c0.984,0.244,1.786,0.537,2.405,0.879
		l0.562-1.27h1.758l0.366,7.739h-1.685c-0.342-1.732-1.079-3.142-2.209-4.229c-1.131-1.087-2.511-1.63-4.138-1.63
		c-1.335,0-2.385,0.336-3.149,1.008c-0.765,0.672-1.147,1.483-1.147,2.434c0,0.732,0.126,1.343,0.378,1.831s0.63,0.903,1.135,1.245
		c0.488,0.326,1.103,0.631,1.843,0.916c0.74,0.285,1.656,0.606,2.747,0.964c1.074,0.342,2.087,0.741,3.04,1.196
		C196.437,484.118,197.223,484.623,197.841,485.176z"/>
	<path fill="#58595B" d="M218.422,495.918c-1.058,0.439-2.059,0.81-3.003,1.111s-2.1,0.452-3.467,0.452
		c-2.019,0-3.438-0.509-4.26-1.526c-0.822-1.017-1.233-2.454-1.233-4.309v-16.309h-4.346v-2.344h4.443v-7.495h4.443v7.495h6.909
		v2.344h-6.86v13.452c0,1.009,0.037,1.852,0.11,2.527c0.073,0.676,0.248,1.266,0.525,1.77c0.26,0.472,0.651,0.83,1.172,1.074
		c0.521,0.244,1.221,0.366,2.1,0.366c0.407,0,1.005-0.037,1.794-0.11s1.347-0.167,1.672-0.281v1.783H218.422z"/>
	<path fill="#58595B" d="M121.596,531.074c0.732,0.814,1.273,1.705,1.624,2.673c0.35,0.969,0.525,2.096,0.525,3.381
		c0,3.06-1.131,5.583-3.394,7.568c-2.263,1.986-5.07,2.979-8.423,2.979c-1.546,0-3.093-0.24-4.639-0.72s-2.881-1.062-4.004-1.746
		l-1.05,1.782h-1.953l-0.342-11.865h1.978c0.407,1.465,0.883,2.788,1.428,3.967c0.545,1.18,1.265,2.283,2.161,3.308
		c0.846,0.96,1.835,1.726,2.966,2.295c1.131,0.57,2.445,0.854,3.943,0.854c1.123,0,2.104-0.146,2.942-0.44
		c0.838-0.293,1.518-0.709,2.039-1.247s0.907-1.169,1.16-1.895c0.252-0.725,0.378-1.561,0.378-2.506
		c0-1.385-0.391-2.677-1.172-3.875s-1.945-2.106-3.491-2.726c-1.058-0.421-2.271-0.887-3.638-1.398
		c-1.367-0.51-2.547-0.993-3.54-1.447c-1.953-0.878-3.471-2.03-4.553-3.454c-1.083-1.423-1.624-3.283-1.624-5.577
		c0-1.318,0.269-2.546,0.806-3.686s1.302-2.156,2.295-3.051c0.944-0.846,2.059-1.509,3.345-1.989c1.286-0.48,2.628-0.72,4.028-0.72
		c1.595,0,3.023,0.244,4.285,0.732c1.261,0.488,2.413,1.058,3.455,1.709l1.001-1.66h1.953l0.195,11.499h-1.978
		c-0.358-1.318-0.761-2.58-1.208-3.784c-0.448-1.204-1.03-2.295-1.746-3.271c-0.7-0.944-1.555-1.697-2.563-2.258
		c-1.009-0.562-2.246-0.842-3.711-0.842c-1.546,0-2.865,0.497-3.955,1.489c-1.091,0.993-1.636,2.206-1.636,3.638
		c0,1.498,0.35,2.739,1.05,3.723c0.7,0.985,1.717,1.794,3.052,2.429c1.188,0.57,2.356,1.062,3.503,1.477s2.258,0.859,3.333,1.331
		c0.977,0.423,1.917,0.903,2.82,1.44S120.929,530.358,121.596,531.074z"/>
	<path fill="#58595B" d="M148.842,541.304c-1.009,1.921-2.36,3.451-4.053,4.59c-1.693,1.139-3.638,1.709-5.835,1.709
		c-1.937,0-3.634-0.342-5.09-1.025c-1.457-0.684-2.657-1.611-3.601-2.783s-1.648-2.539-2.112-4.102s-0.696-3.214-0.696-4.956
		c0-1.562,0.248-3.096,0.745-4.602c0.496-1.505,1.225-2.86,2.185-4.065c0.928-1.155,2.079-2.087,3.455-2.795
		c1.375-0.708,2.917-1.062,4.626-1.062c1.758,0,3.263,0.277,4.517,0.83c1.253,0.554,2.271,1.311,3.052,2.271
		c0.749,0.912,1.306,1.986,1.672,3.223s0.549,2.58,0.549,4.028v1.611h-15.942c0,1.583,0.15,3.018,0.452,4.307
		c0.301,1.289,0.777,2.422,1.428,3.401c0.635,0.946,1.465,1.692,2.49,2.239c1.025,0.547,2.246,0.82,3.662,0.82
		c1.448,0,2.698-0.339,3.748-1.019s2.063-1.902,3.04-3.669L148.842,541.304z M143.447,532.124c0-0.909-0.078-1.882-0.232-2.92
		c-0.155-1.039-0.403-1.907-0.745-2.605c-0.375-0.746-0.887-1.354-1.538-1.825s-1.489-0.706-2.515-0.706
		c-1.709,0-3.129,0.71-4.26,2.13s-1.746,3.396-1.843,5.927h11.133V532.124z"/>
	<path fill="#58595B" d="M162.905,546.968h-11.743v-1.611c0.374-0.032,0.773-0.069,1.196-0.11s0.773-0.102,1.05-0.184
		c0.456-0.146,0.797-0.403,1.025-0.77c0.228-0.366,0.342-0.842,0.342-1.429v-27.901c0-0.586-0.126-1.136-0.378-1.649
		s-0.582-0.916-0.989-1.209c-0.293-0.195-0.83-0.375-1.611-0.538c-0.781-0.163-1.408-0.261-1.88-0.293v-1.562l9.058-0.537
		l0.342,0.366v33.032c0,0.57,0.105,1.038,0.317,1.404c0.211,0.366,0.553,0.647,1.025,0.842c0.358,0.163,0.712,0.285,1.062,0.366
		c0.35,0.082,0.745,0.139,1.184,0.171L162.905,546.968L162.905,546.968z"/>
	<path fill="#58595B" d="M177.211,546.968h-11.743v-1.611c0.374-0.032,0.773-0.069,1.196-0.11s0.773-0.102,1.05-0.184
		c0.456-0.146,0.797-0.403,1.025-0.77c0.228-0.366,0.342-0.842,0.342-1.429v-27.901c0-0.586-0.126-1.136-0.378-1.649
		s-0.582-0.916-0.989-1.209c-0.293-0.195-0.83-0.375-1.611-0.538c-0.781-0.163-1.408-0.261-1.88-0.293v-1.562l9.058-0.537
		l0.342,0.366v33.032c0,0.57,0.105,1.038,0.317,1.404c0.211,0.366,0.553,0.647,1.025,0.842c0.358,0.163,0.712,0.285,1.062,0.366
		c0.35,0.082,0.745,0.139,1.184,0.171L177.211,546.968L177.211,546.968z"/>
	<path fill="#58595B" d="M201.625,541.304c-1.009,1.921-2.36,3.451-4.053,4.59c-1.693,1.139-3.638,1.709-5.835,1.709
		c-1.937,0-3.634-0.342-5.09-1.025c-1.457-0.684-2.657-1.611-3.601-2.783s-1.648-2.539-2.112-4.102s-0.696-3.214-0.696-4.956
		c0-1.562,0.248-3.096,0.745-4.602c0.496-1.505,1.225-2.86,2.185-4.065c0.928-1.155,2.079-2.087,3.455-2.795
		c1.375-0.708,2.917-1.062,4.626-1.062c1.758,0,3.263,0.277,4.517,0.83c1.253,0.554,2.271,1.311,3.052,2.271
		c0.749,0.912,1.306,1.986,1.672,3.223s0.549,2.58,0.549,4.028v1.611h-15.942c0,1.583,0.15,3.018,0.452,4.307
		c0.301,1.289,0.777,2.422,1.428,3.401c0.635,0.946,1.465,1.692,2.49,2.239c1.025,0.547,2.246,0.82,3.662,0.82
		c1.448,0,2.698-0.339,3.748-1.019s2.063-1.902,3.04-3.669L201.625,541.304z M196.23,532.124c0-0.909-0.078-1.882-0.232-2.92
		c-0.155-1.039-0.403-1.907-0.745-2.605c-0.375-0.746-0.887-1.354-1.538-1.825s-1.489-0.706-2.515-0.706
		c-1.709,0-3.129,0.71-4.26,2.13s-1.746,3.396-1.843,5.927h11.133V532.124z"/>
	<path fill="#58595B" d="M222.841,525.996c0,0.83-0.204,1.567-0.61,2.209c-0.407,0.643-1.034,0.964-1.88,0.964
		c-0.912,0-1.607-0.236-2.087-0.708c-0.48-0.472-0.72-0.993-0.72-1.562c0-0.358,0.028-0.684,0.085-0.977
		c0.057-0.293,0.11-0.586,0.159-0.879c-0.765,0-1.66,0.31-2.686,0.928c-1.025,0.619-1.896,1.498-2.612,2.637v14.014
		c0,0.57,0.11,1.034,0.33,1.392c0.22,0.358,0.565,0.627,1.038,0.806c0.407,0.163,0.932,0.285,1.575,0.366
		c0.643,0.082,1.2,0.139,1.672,0.171v1.611h-12.696v-1.611c0.374-0.032,0.761-0.065,1.16-0.098c0.398-0.032,0.745-0.097,1.038-0.195
		c0.456-0.146,0.793-0.402,1.013-0.768s0.33-0.841,0.33-1.427v-14.851c0-0.504-0.118-1-0.354-1.487
		c-0.236-0.487-0.566-0.878-0.989-1.171c-0.31-0.195-0.676-0.337-1.099-0.426c-0.423-0.089-0.879-0.15-1.367-0.183v-1.611
		l8.008-0.537l0.342,0.342v3.394h0.122c1.009-1.318,2.132-2.319,3.369-3.003s2.368-1.025,3.394-1.025s1.859,0.334,2.502,1.001
		C222.52,523.978,222.841,524.873,222.841,525.996z"/>
	<path fill="#58595B" d="M240.786,535.176c0.667,0.586,1.18,1.262,1.538,2.026c0.358,0.765,0.537,1.701,0.537,2.808
		c0,2.23-0.834,4.053-2.502,5.469s-3.829,2.124-6.482,2.124c-1.4,0-2.69-0.252-3.87-0.757c-1.18-0.504-2.022-0.968-2.527-1.392
		l-0.488,1.587h-1.831l-0.244-8.374h1.685c0.13,0.637,0.407,1.38,0.83,2.229c0.423,0.849,0.936,1.617,1.538,2.303
		c0.635,0.719,1.396,1.323,2.283,1.813s1.884,0.735,2.991,0.735c1.562,0,2.767-0.356,3.613-1.068s1.27-1.731,1.27-3.058
		c0-0.684-0.134-1.273-0.403-1.77c-0.269-0.496-0.664-0.932-1.184-1.306c-0.537-0.374-1.196-0.712-1.978-1.013
		c-0.781-0.301-1.652-0.598-2.612-0.891c-0.765-0.228-1.616-0.541-2.551-0.94c-0.936-0.398-1.738-0.867-2.405-1.404
		c-0.716-0.569-1.302-1.27-1.758-2.1c-0.456-0.83-0.684-1.807-0.684-2.93c0-1.969,0.732-3.638,2.197-5.005s3.426-2.051,5.884-2.051
		c0.944,0,1.908,0.122,2.893,0.366c0.984,0.244,1.786,0.537,2.405,0.879l0.562-1.27h1.758l0.366,7.739h-1.685
		c-0.342-1.732-1.079-3.142-2.209-4.229c-1.131-1.087-2.511-1.63-4.138-1.63c-1.335,0-2.385,0.336-3.149,1.008
		c-0.765,0.672-1.147,1.483-1.147,2.434c0,0.732,0.126,1.343,0.378,1.831c0.252,0.488,0.63,0.903,1.135,1.245
		c0.488,0.326,1.103,0.631,1.843,0.916c0.74,0.285,1.656,0.606,2.747,0.964c1.074,0.342,2.087,0.741,3.04,1.196
		C239.382,534.118,240.167,534.623,240.786,535.176z"/>
</g>
<g>
	<path fill="#008A46" d="M94.304,176.525v63.58c0,0.422,0.422,0.845,0.845,1.056h33.797V175.68H95.149
		C94.726,175.68,94.304,176.102,94.304,176.525z M111.625,215.602c4.433,0,8.027,3.594,8.027,8.027s-3.594,8.027-8.027,8.027
		s-8.027-3.594-8.027-8.027S107.192,215.602,111.625,215.602z"/>
	<path fill="#008A46" d="M233.293,168.287H195.06c-2.535,0-4.858-1.056-6.548-2.957c-1.69-2.112-2.324-4.647-1.901-7.182
		c1.267-7.393,2.535-12.674,3.802-17.743c1.479-6.126,2.957-12.04,3.802-21.334c0.634-5.492-2.746-7.816-6.126-8.449
		c-2.746-0.422-7.604,0.422-8.872,5.914c-6.759,30.417-32.107,50.906-39.711,56.398c-0.211,0-0.211,0.211-0.422,0.211v69.494
		c1.901,0.845,3.802,1.69,5.703,2.746c7.393,3.802,17.321,8.872,39.077,8.872h42.88c3.802,0,6.971-2.535,7.604-5.703
		c0.422-2.112-0.211-4.225-1.479-5.703c-1.267-1.69-3.168-2.535-5.281-2.535h-4.436c-2.746,0-5.069-2.323-5.069-5.07
		c0-2.746,2.112-5.069,5.069-5.069h5.703c3.802,0,6.971-2.535,7.604-5.703c0.422-2.112-0.211-4.224-1.479-5.703
		c-1.267-1.69-3.168-2.535-5.281-2.535h-4.436c-2.746,0-5.07-2.324-5.07-5.07s2.112-5.07,5.07-5.07h5.703
		c3.802,0,6.971-2.535,7.604-5.703c0.422-2.112-0.211-4.225-1.479-5.703c-1.267-1.69-3.168-2.535-5.281-2.535h-4.436
		c-2.957,0-5.492-2.112-5.492-4.858s2.112-5.07,5.07-5.07h5.703c3.591,0,6.759-2.535,7.393-5.703
		c0.422-2.112-0.211-4.225-1.479-5.703C237.306,169.132,235.405,168.287,233.293,168.287z"/>
	<path fill="#008A46" d="M171.401,0C77.478,0,1.339,76.139,1.339,170.062s76.139,170.062,170.062,170.062
		s170.062-76.139,170.062-170.062S265.323,0,171.401,0z M241.742,120.126c0,2.746-2.112,5.069-5.07,5.069h-13.307
		c-2.746,0-5.07-2.112-5.07-5.069c0-2.746,2.324-5.07,5.07-5.07h13.307C239.419,115.057,241.742,117.38,241.742,120.126z
		 M209.001,89.921l9.505-9.505c2.112-2.112,5.281-2.112,7.393,0c2.112,2.112,2.112,5.281,0,7.393l-9.505,9.505
		c-0.845,1.056-2.323,1.479-3.591,1.479s-2.746-0.634-3.802-1.479C206.889,95.201,206.889,92.033,209.001,89.921z M181.33,68.798
		c0-2.746,2.112-5.07,5.07-5.07c2.746,0,5.07,2.112,5.07,5.07v13.519c0,2.746-2.112,5.069-5.07,5.069
		c-2.746,0-5.07-2.323-5.07-5.281V68.798z M146.478,79.57c2.112-2.112,5.281-2.112,7.393,0l9.505,9.505
		c2.112,2.112,2.112,5.281,0,7.393c-0.845,1.056-2.324,1.479-3.591,1.479s-2.535-0.422-3.591-1.479l-9.717-9.505
		C144.365,84.851,144.365,81.683,146.478,79.57z M135.071,114.212h13.307c2.746,0,5.07,2.323,5.07,5.07
		c0,2.746-2.112,5.069-5.07,5.069h-13.307c-2.746,0-5.07-2.323-5.07-5.069C130.002,116.535,132.114,114.212,135.071,114.212z
		 M250.614,177.792c-0.634,4.013-2.746,7.604-5.281,10.35c3.168,3.802,4.647,8.872,3.802,13.941
		c-0.845,4.013-2.957,7.393-5.914,9.928c0,0.211,0,0.211,0,0.211c3.168,3.802,4.647,8.872,3.802,13.941
		c-0.845,4.013-2.957,7.393-5.914,9.928c3.168,3.802,4.647,8.872,3.802,13.941c-1.479,8.238-9.083,14.364-17.743,14.364h-43.302
		c-24.291,0-35.909-6.126-43.725-10.139c-2.746-1.267-4.858-2.323-6.971-2.957H95.149c-6.126,0-11.195-5.069-11.195-11.195v-63.791
		c0-6.126,5.07-11.195,11.195-11.195h37.388c0.422-0.211,0.845-0.422,1.056-0.634c6.759-4.858,29.783-23.235,35.698-50.484
		c2.535-10.773,12.251-14.997,20.7-13.73c7.815,1.267,15.842,8.027,14.786,19.644c-1.056,10.139-2.535,16.265-4.225,22.813
		c-1.056,4.436-2.112,8.872-3.168,14.997h36.331c5.069,0,9.717,2.324,13.096,6.126C249.98,167.653,251.459,172.723,250.614,177.792z
		"/>
</g>
</svg>
