<?xml version="1.0" encoding="utf-8"?>
<!-- Generator: Adobe Illustrator 26.0.1, SVG Export Plug-In . SVG Version: 6.00 Build 0)  -->
<svg version="1.1" id="Layer_1" xmlns="http://www.w3.org/2000/svg" xmlns:xlink="http://www.w3.org/1999/xlink" x="0px" y="0px"
	 viewBox="0 0 343 570" enable-background="new 0 0 343 570" xml:space="preserve">
<g>
	<path fill="#58595B" d="M108.101,523.909c-2.065,0-4.045-0.407-5.939-1.222c-1.895-0.814-3.574-1.986-5.038-3.518
		c-1.448-1.531-2.603-3.4-3.464-5.607c-0.862-2.207-1.293-4.695-1.293-7.463c0-2.769,0.423-5.281,1.269-7.537
		c0.845-2.256,2.016-4.198,3.512-5.827c1.479-1.612,3.228-2.858,5.244-3.738c2.017-0.879,4.171-1.319,6.464-1.319
		c1.707,0,3.251,0.212,4.634,0.635c1.382,0.423,2.7,1.018,3.952,1.782l1-1.66h1.953l0.22,12.354h-2.002
		c-0.26-1.204-0.65-2.51-1.171-3.918c-0.52-1.408-1.13-2.6-1.829-3.577c-0.78-1.106-1.707-1.973-2.78-2.6
		c-1.073-0.626-2.3-0.94-3.682-0.94c-1.577,0-3.044,0.35-4.401,1.051c-1.357,0.7-2.532,1.735-3.523,3.103
		c-0.943,1.32-1.683,2.998-2.219,5.034c-0.537,2.036-0.805,4.308-0.805,6.817c0,2.215,0.28,4.247,0.841,6.096
		c0.561,1.849,1.362,3.474,2.402,4.875c1.04,1.385,2.271,2.468,3.694,3.25c1.422,0.782,3.012,1.173,4.768,1.173
		c1.317,0,2.528-0.208,3.634-0.623s2.064-0.964,2.878-1.648c0.812-0.716,1.528-1.53,2.146-2.441
		c0.618-0.911,1.122-1.904,1.512-2.979l1.831,0.879c-1.398,3.435-3.252,5.888-5.562,7.361
		C114.038,523.172,111.289,523.909,108.101,523.909z"/>
	<path fill="#58595B" d="M147.812,510.798c0,1.693-0.269,3.357-0.807,4.993s-1.303,3.023-2.297,4.163
		c-1.125,1.302-2.428,2.271-3.911,2.905c-1.483,0.635-3.145,0.952-4.986,0.952c-1.531,0-2.99-0.289-4.375-0.867
		s-2.615-1.42-3.69-2.527c-1.059-1.09-1.902-2.421-2.529-3.992c-0.627-1.57-0.941-3.333-0.941-5.286c0-3.76,1.096-6.836,3.287-9.229
		c2.191-2.393,5.063-3.589,8.615-3.589c3.373,0,6.155,1.135,8.346,3.406C146.716,503.999,147.812,507.022,147.812,510.798z
		 M142.758,510.847c0-1.221-0.123-2.51-0.367-3.87c-0.244-1.359-0.611-2.51-1.1-3.455c-0.522-1.009-1.207-1.819-2.055-2.429
		c-0.848-0.61-1.883-0.916-3.106-0.916c-1.256,0-2.328,0.31-3.216,0.928c-0.889,0.619-1.61,1.465-2.165,2.539
		c-0.521,0.993-0.889,2.124-1.101,3.394c-0.212,1.27-0.318,2.499-0.318,3.687c0,1.562,0.126,3.007,0.379,4.333
		c0.252,1.327,0.656,2.511,1.21,3.552c0.554,1.042,1.251,1.86,2.091,2.454s1.879,0.891,3.118,0.891c2.038,0,3.652-0.984,4.843-2.954
		C142.163,517.032,142.758,514.314,142.758,510.847z"/>
	<path fill="#58595B" d="M192.465,523.079h-11.719v-1.611c0.374-0.032,0.752-0.065,1.135-0.098c0.382-0.032,0.72-0.098,1.013-0.195
		c0.456-0.146,0.793-0.403,1.013-0.769s0.33-0.842,0.33-1.428V506.55c0-1.692-0.387-2.999-1.16-3.918
		c-0.773-0.919-1.738-1.379-2.893-1.379c-0.798,0-1.546,0.122-2.246,0.366s-1.343,0.586-1.929,1.025
		c-0.472,0.358-0.867,0.745-1.184,1.16s-0.558,0.761-0.72,1.038v13.892c0,0.57,0.098,1.038,0.293,1.404s0.529,0.647,1.001,0.842
		c0.374,0.146,0.712,0.256,1.013,0.33c0.301,0.073,0.696,0.126,1.184,0.159v1.611h-11.475v-1.611
		c0.374-0.032,0.736-0.065,1.086-0.098c0.35-0.032,0.671-0.098,0.964-0.195c0.456-0.146,0.793-0.403,1.013-0.769
		s0.33-0.842,0.33-1.428V506.55c0-1.692-0.388-2.999-1.163-3.918s-1.742-1.379-2.9-1.379c-0.8,0-1.55,0.126-2.251,0.378
		c-0.702,0.252-1.346,0.598-1.934,1.038c-0.473,0.358-0.873,0.761-1.199,1.208c-0.327,0.448-0.571,0.786-0.734,1.013v13.794
		c0,0.554,0.114,1.018,0.342,1.392c0.228,0.375,0.569,0.659,1.025,0.854c0.342,0.163,0.691,0.285,1.05,0.366
		c0.358,0.082,0.757,0.139,1.196,0.171v1.611h-11.692v-1.611c0.374-0.032,0.761-0.065,1.16-0.098
		c0.398-0.032,0.745-0.097,1.038-0.195c0.456-0.146,0.793-0.402,1.013-0.768s0.33-0.841,0.33-1.427v-14.948
		c0-0.52-0.118-0.987-0.354-1.402c-0.236-0.415-0.566-0.768-0.989-1.061c-0.31-0.195-0.692-0.353-1.147-0.475
		c-0.456-0.122-0.928-0.199-1.416-0.232v-1.611l8.057-0.537l0.342,0.342v3.442h0.171c0.407-0.407,0.903-0.887,1.489-1.44
		s1.131-1.001,1.636-1.343c0.569-0.391,1.282-0.716,2.136-0.977c0.854-0.26,1.778-0.391,2.771-0.391
		c1.562,0,2.905,0.419,4.028,1.257c1.123,0.838,1.929,1.852,2.417,3.04c0.585-0.569,1.101-1.07,1.548-1.501
		c0.446-0.431,1.036-0.891,1.767-1.379c0.617-0.423,1.344-0.765,2.181-1.025c0.837-0.26,1.767-0.391,2.791-0.391
		c2.031,0,3.64,0.667,4.826,2.002c1.187,1.335,1.78,3.386,1.78,6.152v12.231c0,0.57,0.098,1.038,0.293,1.404
		s0.529,0.647,1.001,0.842c0.374,0.146,0.745,0.256,1.111,0.33s0.777,0.126,1.233,0.159v1.612H192.465z"/>
	<path fill="#58595B" d="M206.992,523.079h-11.621v-1.611c0.374-0.032,0.761-0.065,1.16-0.098c0.398-0.032,0.744-0.097,1.037-0.195
		c0.456-0.146,0.794-0.402,1.014-0.768s0.329-0.841,0.329-1.427v-14.851c0-0.52-0.118-0.996-0.354-1.427
		c-0.236-0.431-0.566-0.792-0.989-1.085c-0.31-0.195-0.757-0.361-1.343-0.5s-1.123-0.224-1.611-0.256v-1.611l8.496-0.537
		l0.342,0.342v19.629c0,0.57,0.109,1.042,0.327,1.416c0.219,0.375,0.562,0.651,1.03,0.83c0.356,0.146,0.703,0.265,1.043,0.354
		c0.34,0.09,0.72,0.151,1.14,0.183V523.079z M203.94,489.216c0,0.928-0.305,1.738-0.915,2.429c-0.61,0.692-1.363,1.038-2.259,1.038
		c-0.83,0-1.55-0.33-2.16-0.989s-0.916-1.412-0.916-2.258c0-0.895,0.306-1.676,0.916-2.344c0.61-0.667,1.33-1.001,2.16-1.001
		c0.928,0,1.688,0.313,2.283,0.94C203.643,487.658,203.94,488.386,203.94,489.216z"/>
	<path fill="#58595B" d="M221.103,523.713c-3.483,0-6.209-1.155-8.179-3.467c-1.97-2.311-2.954-5.412-2.954-9.302
		c0-1.692,0.265-3.275,0.794-4.749c0.528-1.473,1.298-2.812,2.307-4.016c0.96-1.155,2.165-2.087,3.613-2.795
		s3.027-1.062,4.736-1.062c2.36,0,4.28,0.566,5.762,1.697c1.481,1.131,2.222,2.673,2.222,4.626c0,0.814-0.195,1.534-0.586,2.161
		s-1.033,0.94-1.929,0.94c-0.96,0-1.705-0.243-2.233-0.73c-0.529-0.487-0.794-1.03-0.794-1.63c0-0.73,0.098-1.48,0.293-2.251
		c0.195-0.771,0.31-1.334,0.342-1.691c-0.292-0.502-0.727-0.839-1.303-1.01c-0.576-0.17-1.197-0.255-1.863-0.255
		c-0.779,0-1.521,0.167-2.228,0.5c-0.707,0.334-1.393,0.948-2.058,1.843c-0.601,0.814-1.088,1.913-1.461,3.296
		c-0.374,1.384-0.561,3.036-0.561,4.956c0,3.027,0.671,5.498,2.012,7.41c1.34,1.913,3.1,2.869,5.277,2.869
		c1.576,0,2.896-0.385,3.961-1.153c1.064-0.77,2.052-1.923,2.962-3.461l1.56,1.025c-1.074,1.921-2.49,3.442-4.248,4.565
		C224.789,523.152,222.975,523.713,221.103,523.713z"/>
	<path fill="#58595B" d="M248.569,511.287c0.667,0.586,1.18,1.262,1.538,2.026c0.358,0.765,0.537,1.701,0.537,2.808
		c0,2.23-0.834,4.053-2.502,5.469c-1.669,1.416-3.829,2.124-6.482,2.124c-1.399,0-2.689-0.252-3.869-0.757
		c-1.181-0.504-2.022-0.968-2.527-1.392l-0.488,1.587h-1.831l-0.244-8.374h1.685c0.13,0.637,0.407,1.38,0.83,2.229
		s0.936,1.617,1.538,2.303c0.635,0.719,1.396,1.323,2.283,1.813s1.884,0.735,2.99,0.735c1.562,0,2.767-0.356,3.613-1.068
		c0.847-0.712,1.27-1.731,1.27-3.058c0-0.684-0.134-1.273-0.402-1.77c-0.269-0.496-0.664-0.932-1.185-1.306
		c-0.537-0.374-1.196-0.712-1.978-1.013c-0.781-0.301-1.652-0.598-2.612-0.891c-0.765-0.228-1.615-0.541-2.551-0.94
		c-0.937-0.398-1.738-0.867-2.405-1.404c-0.716-0.569-1.302-1.27-1.758-2.1s-0.684-1.807-0.684-2.93
		c0-1.969,0.732-3.638,2.197-5.005s3.426-2.051,5.884-2.051c0.944,0,1.908,0.122,2.894,0.366c0.984,0.244,1.786,0.537,2.404,0.879
		l0.562-1.27h1.758l0.366,7.739h-1.685c-0.342-1.732-1.078-3.142-2.209-4.229c-1.132-1.087-2.511-1.63-4.139-1.63
		c-1.335,0-2.385,0.336-3.149,1.008c-0.765,0.672-1.147,1.483-1.147,2.434c0,0.732,0.126,1.343,0.379,1.831
		c0.252,0.488,0.63,0.903,1.135,1.245c0.488,0.326,1.103,0.631,1.844,0.916c0.74,0.285,1.655,0.606,2.746,0.964
		c1.074,0.342,2.088,0.741,3.04,1.196C247.165,510.229,247.951,510.733,248.569,511.287z"/>
</g>
<g>
	<polygon fill="#008A46" points="219.575,193.037 223.17,189.921 219.66,188.284 	"/>
	<path fill="#008A46" d="M260.406,91.269c-2.121,0.764-3.848,2.345-4.796,4.39l-1.195,2.566l15.401,7.183l1.198-2.566
		c0.951-2.041,1.052-4.377,0.283-6.493C269.692,91.939,264.817,89.665,260.406,91.269z"/>
	
		<rect x="202.202" y="135.111" transform="matrix(0.4232 -0.906 0.906 0.4232 12.8864 296.1238)" fill="#008A46" width="73.642" height="5.659"/>
	<polygon fill="#008A46" points="219.884,175.889 219.773,182.083 227.852,185.859 232.525,181.789 226.209,178.843 	"/>
	<path fill="#008A46" d="M153.719,206.116c-0.532-0.714-1.542-0.861-2.255-0.33l-13.174,9.88c-0.978,0.731-2.315,0.753-3.317,0.055
		c-1.283-0.895-1.598-2.661-0.703-3.944c1.469-2.065,1.94-4.679,1.283-7.127c-0.583-2.156-1.993-3.995-3.924-5.117
		c-4.049-2.354-9.24-0.98-11.594,3.069s-0.98,9.24,3.069,11.594c0.875,0.505,1.414,1.437,1.416,2.447v21.4h14.163v-11.732
		c0.001-0.686,0.25-1.348,0.702-1.864l14.256-16.31C154.14,207.565,154.172,206.724,153.719,206.116z M130.186,206.885
		c-1.564,0-2.833-1.268-2.833-2.833c0-1.564,1.268-2.833,2.833-2.833c1.564,0,2.833,1.268,2.833,2.833
		C133.018,205.617,131.75,206.885,130.186,206.885z"/>
	<path fill="#008A46" d="M217.309,202.07l3.518,2.357v-4.957l-2.34,2.034C218.144,201.781,217.74,201.975,217.309,202.07z"/>
	<path fill="#008A46" d="M184.06,232.943c-0.312-1.533,0.677-3.029,2.21-3.341l10.027-2l-8.985-13.477
		c-0.595-0.892-0.635-2.044-0.103-2.976c0.776-1.358,2.506-1.831,3.865-1.055l13.392,7.648l-3.323-9.962
		c-0.294-0.882-0.136-1.853,0.422-2.596c0.939-1.251,2.715-1.504,3.966-0.565l6.798,5.099v-5.665c0.01-1.035,0.583-1.982,1.496-2.47
		c0.235-0.125,0.487-0.216,0.748-0.269c-0.508-0.534-0.787-1.246-0.779-1.983l0.263-14.477l-2.694-4.039l-1.889,15.106
		c-0.045,0.36-0.159,0.707-0.335,1.024c-0.76,1.367-2.484,1.86-3.852,1.1l-18.25-10.138l5.223,12.183
		c0.272,0.636,0.302,1.35,0.083,2.007c-0.494,1.484-2.097,2.288-3.582,1.794l-23.708-7.9l6.427,7.081
		c0.019,0.02,0.037,0.04,0.055,0.061c1.036,1.172,0.926,2.962-0.246,3.998s-2.962,0.926-3.998-0.246l-13.721-15.103
		c-0.688-0.758-0.913-1.827-0.59-2.797c0.494-1.484,2.097-2.288,3.582-1.794l28.008,9.347l-6.005-14.041
		c-0.345-0.806-0.298-1.726,0.128-2.492c0.76-1.367,2.485-1.86,3.852-1.099l21.825,12.126l2.314-18.499
		c0.102-0.816,0.554-1.548,1.238-2.004c1.301-0.869,3.06-0.518,3.928,0.783l2.382,3.575l0.062-3.473
		c0.01-0.392,0.101-0.778,0.266-1.133l4.849-10.401l-94.89,23.725v9.424c2.003-0.408,4.069-0.391,6.064,0.051
		c5.115,1.171,9.155,5.089,10.48,10.166c0.249,0.963,0.4,1.949,0.45,2.943l6.549-4.92c2.753-2.071,6.582-1.927,9.172,0.346
		c3.019,2.65,3.319,7.246,0.669,10.265l-13.557,15.494v10.67h21.811l-9.007-9.651c-0.347-0.372-0.587-0.831-0.696-1.328
		c-0.334-1.528,0.635-3.038,2.163-3.372l19.995-4.365l-3.682-4.048c-1.053-1.158-0.968-2.949,0.19-4.002
		c1.157-1.053,2.949-0.968,4.002,0.19l6.977,7.673c0.335,0.368,0.567,0.817,0.672,1.303c0.333,1.529-0.637,3.037-2.165,3.37
		l-19.921,4.351l9.22,9.877h15.763l-4.532-3.399C184.582,234.228,184.199,233.623,184.06,232.943z"/>
	<path fill="#008A46" d="M217.994,215.383c0,0.613-0.199,1.209-0.566,1.699c-0.939,1.251-2.714,1.505-3.966,0.567l-4.065-3.051
		l2.799,8.393c0.254,0.764,0.171,1.601-0.228,2.3c-0.776,1.358-2.506,1.83-3.865,1.054l-9.41-5.382l4.674,7.01
		c0.205,0.308,0.348,0.652,0.42,1.015c0.307,1.534-0.688,3.026-2.222,3.333l-7.962,1.592l5.506,4.13h21.717v-26.81l-2.833-1.889
		v6.039H217.994z"/>
	<path fill="#008A46" d="M192.402,136.006c-1.591,0.311-3.233,0.232-4.787-0.229c-1.549-0.455-2.966-1.272-4.135-2.385
		c-0.349,0.333-0.722,0.641-1.116,0.921l4.189,13.766l11.452-2.861c0.084-0.75,0.253-1.487,0.504-2.198
		c-1.023-0.4-1.973-0.966-2.81-1.677C194.06,139.961,192.904,138.091,192.402,136.006z"/>
	<path fill="#008A46" d="M180.78,127.268c0.341-1.226,1.458-2.074,2.73-2.073c1.277,0.006,2.391,0.866,2.722,2.099
		c0.182,0.664,0.517,1.275,0.979,1.785c1.625,1.795,4.398,1.933,6.193,0.308c0.741-0.673,1.783-0.905,2.74-0.61
		c1.495,0.461,2.333,2.047,1.871,3.542c-0.138,0.445-0.211,0.908-0.215,1.374c0.005,1.286,0.577,2.504,1.563,3.328
		c0.978,0.838,2.282,1.191,3.549,0.96c0.979-0.163,1.972,0.198,2.618,0.952c1.017,1.188,0.879,2.976-0.31,3.994
		c-0.223,0.194-0.428,0.408-0.612,0.64l4.059-1.014c-0.944-1.91-1.435-4.011-1.436-6.141c0-2.039,0.456-4.052,1.334-5.892
		c-5.333-1.471-9.265-5.994-9.979-11.48c-5.28,1.616-11.015-0.067-14.585-4.28c-1.659,1.966-3.838,3.424-6.288,4.206l2.753,9.064
		C180.596,127.786,180.7,127.531,180.78,127.268z"/>
	<path fill="#008A46" d="M171.506,0C77.583,0,1.444,76.139,1.444,170.062s76.139,170.062,170.062,170.062
		s170.062-76.139,170.062-170.062S265.429,0,171.506,0z M237.822,252.206c0,1.564-1.268,2.833-2.833,2.833H110.358
		c-1.564,0-2.833-1.268-2.833-2.833V147.402c0-1.564,1.268-2.833,2.833-2.833c1.564,0,2.833,1.268,2.833,2.833v101.972h118.967
		v-52.575c0-1.564,1.268-2.833,2.833-2.833s2.833,1.268,2.833,2.833v55.407H237.822z M276.147,105.236l-17.109,36.69
		c-0.019,0.044-0.04,0.088-0.061,0.132c-0.697,1.4-2.398,1.97-3.798,1.273c-1.4-0.697-1.97-2.398-1.273-3.798l13.517-28.988
		l-5.133-2.396l-31.127,66.735l5.135,2.393l12.817-27.476c0.661-1.418,2.346-2.032,3.764-1.371s2.032,2.346,1.371,3.765
		l-14.024,30.059c-0.167,0.358-0.407,0.678-0.705,0.938l-13.03,11.347v46.338c0,1.564-1.268,2.833-2.833,2.833h-101.97
		c-1.564,0-2.833-1.268-2.833-2.833v-22.72c-0.967-0.722-1.837-1.564-2.589-2.508c-4.855-6.088-3.856-14.96,2.232-19.816
		c0.116-0.094,0.241-0.167,0.357-0.255v-14.186c0-1.299,0.884-2.432,2.144-2.748l101.496-25.374l9.662-20.717V90.751H113.19v45.321
		c0,1.564-1.268,2.833-2.833,2.833c-1.564,0-2.833-1.268-2.833-2.833V87.918c0-1.564,1.268-2.833,2.833-2.833h124.632
		c1.564,0,2.833,1.268,2.833,2.833v32.486l12.664-27.13c1.586-3.402,4.458-6.035,7.984-7.321c7.349-2.68,15.478,1.105,18.158,8.454
		C277.922,97.936,277.748,101.836,276.147,105.236z M136.709,160.547c0.148-0.585,0.227-1.186,0.235-1.79
		c-0.001-4.08-3.034-7.523-7.081-8.039c-0.999-0.123-1.857-0.767-2.255-1.691c-0.618-1.437,0.045-3.103,1.482-3.722
		c1.16-0.503,2.185-1.271,2.993-2.244c2.846-3.424,2.377-8.507-1.048-11.352c-0.784-0.653-1.155-1.678-0.973-2.682
		c0.28-1.539,1.754-2.56,3.293-2.281c1.225,0.193,2.479,0.101,3.663-0.268c4.261-1.329,6.637-5.861,5.308-10.121
		c-0.301-0.959-0.071-2.006,0.605-2.751c1.051-1.159,2.842-1.246,4.001-0.195c1.458,1.339,3.368,2.078,5.348,2.068
		c2.402-0.01,4.677-1.084,6.209-2.935l-3.184-10.463h-10.956c-1.564,0-2.833-1.268-2.833-2.833c0-1.564,1.268-2.833,2.833-2.833
		h13.055c1.242,0.006,2.335,0.82,2.697,2.008l16.712,54.878c0.014,0.045,0.026,0.089,0.037,0.135
		c0.381,1.517-0.54,3.056-2.057,3.437l-52.416,13.103c-0.225,0.056-0.456,0.085-0.688,0.085c-1.564,0-2.833-1.268-2.833-2.832
		V99.248c0-1.564,1.268-2.833,2.833-2.833h11.33c1.564,0,2.833,1.268,2.833,2.833c0,1.564-1.268,2.833-2.833,2.833h-8.498v61.52
		L136.709,160.547z M172.555,102.081l3.493,11.46c2.567-0.826,4.536-2.902,5.223-5.509c0.332-1.237,1.452-2.098,2.733-2.099
		c1.28,0.001,2.401,0.86,2.733,2.096c0.332,1.221,0.947,2.347,1.795,3.287c2.985,3.308,8.086,3.57,11.394,0.585
		c0.741-0.668,1.779-0.897,2.733-0.602c1.495,0.462,2.332,2.048,1.87,3.543c-0.25,0.803-0.38,1.638-0.385,2.479
		c0.002,0.442,0.04,0.882,0.114,1.318c0.746,4.389,4.909,7.342,9.299,6.596c0.978-0.153,1.964,0.215,2.603,0.971
		c1.009,1.195,0.859,2.982-0.337,3.992c-1.859,1.527-2.934,3.809-2.926,6.215c0.002,1.691,0.532,3.34,1.516,4.716l6.416-1.603
		V121.91c0-1.564,1.268-2.833,2.833-2.833s2.833,1.268,2.833,2.833v19.828c0,1.299-0.884,2.432-2.144,2.748l-39.027,9.755
		c-0.225,0.057-0.456,0.086-0.688,0.085c-1.246-0.001-2.345-0.816-2.708-2.008l-15.902-52.244c-0.081-0.267-0.123-0.545-0.123-0.825
		c0-1.564,1.269-2.832,2.833-2.832h54.926c1.564,0,2.833,1.268,2.833,2.833v11.33c0,1.564-1.268,2.833-2.833,2.833
		s-2.833-1.268-2.833-2.833v-8.498h-48.274V102.081z"/>
	<path fill="#008A46" d="M142.617,158.76c0,0.108-0.031,0.215-0.031,0.326l9.489-2.374c-0.718-0.678-1.634-1.109-2.615-1.229
		c-1.004-0.123-1.867-0.773-2.262-1.704c-0.611-1.44,0.06-3.103,1.5-3.714c0.651-0.285,1.227-0.717,1.683-1.262
		c1.633-1.95,1.375-4.855-0.575-6.488c-0.814-0.664-1.193-1.725-0.986-2.755c0.309-1.533,1.803-2.526,3.337-2.217
		c1.694,0.305,3.41-0.412,4.382-1.833c0.876-1.181,1.13-2.712,0.683-4.113c-0.306-0.969-0.07-2.029,0.62-2.776
		c1.061-1.149,2.854-1.22,4.003-0.159c0.508,0.471,1.122,0.813,1.79,0.997l-3.314-10.891c-2.35,1.67-5.161,2.569-8.044,2.575
		c-1.361,0-2.715-0.203-4.016-0.603c-0.298,2.296-1.176,4.478-2.549,6.342c-1.828,2.488-4.437,4.292-7.41,5.124
		c2.368,4.999,1.515,10.93-2.167,15.058C140.168,149.583,142.619,154.004,142.617,158.76z"/>
	<path fill="#008A46" d="M156.534,142.377c1.138,3.211,0.624,6.775-1.374,9.534c1.155,0.902,2.104,2.039,2.784,3.337l12.574-3.147
		l-5.118-16.817c-0.854,0.047-1.71-0.011-2.549-0.176C162.066,138.421,159.705,141.138,156.534,142.377z"/>
</g>
</svg>
