<?xml version="1.0" encoding="utf-8"?>
<!-- Generator: Adobe Illustrator 26.0.1, SVG Export Plug-In . SVG Version: 6.00 Build 0)  -->
<svg version="1.1" id="Layer_1" xmlns="http://www.w3.org/2000/svg" xmlns:xlink="http://www.w3.org/1999/xlink" x="0px" y="0px"
	 viewBox="0 0 343 570" enable-background="new 0 0 343 570" xml:space="preserve">
<g>
	<path fill="#58595B" d="M125.636,518.074h-14.38v-1.733c0.391-0.032,0.956-0.081,1.697-0.146c0.74-0.065,1.249-0.163,1.526-0.293
		c0.488-0.195,0.846-0.492,1.074-0.891c0.228-0.398,0.342-0.916,0.342-1.55V501.13H99.611v12.061c0,0.57,0.093,1.05,0.281,1.44
		c0.187,0.391,0.557,0.732,1.111,1.025c0.276,0.146,0.769,0.293,1.477,0.439s1.265,0.228,1.672,0.244v1.733h-14.38v-1.733
		c0.391-0.032,0.956-0.081,1.697-0.146c0.74-0.065,1.249-0.163,1.526-0.293c0.488-0.195,0.846-0.492,1.074-0.891
		c0.228-0.398,0.342-0.916,0.342-1.55v-25c0-0.521-0.106-0.997-0.317-1.428c-0.212-0.431-0.578-0.769-1.099-1.013
		c-0.439-0.211-0.973-0.398-1.599-0.562c-0.627-0.163-1.168-0.26-1.624-0.293v-1.733h14.38v1.733
		c-0.456,0.017-1.013,0.09-1.672,0.22s-1.152,0.252-1.477,0.366c-0.554,0.195-0.924,0.521-1.111,0.977
		c-0.188,0.456-0.281,0.952-0.281,1.489v10.742h16.284v-10.498c0-0.521-0.106-0.997-0.317-1.428
		c-0.212-0.431-0.578-0.769-1.099-1.013c-0.439-0.211-0.973-0.398-1.599-0.562c-0.627-0.163-1.168-0.26-1.624-0.293v-1.733h14.38
		v1.733c-0.456,0.017-1.013,0.09-1.672,0.22s-1.152,0.252-1.477,0.366c-0.554,0.195-0.924,0.521-1.111,0.977
		c-0.188,0.456-0.281,0.952-0.281,1.489v24.976c0,0.57,0.093,1.05,0.281,1.44c0.187,0.391,0.557,0.732,1.111,1.025
		c0.276,0.146,0.769,0.293,1.477,0.439s1.265,0.228,1.672,0.244L125.636,518.074L125.636,518.074z"/>
	<path fill="#58595B" d="M141.554,518.074h-11.621v-1.611c0.374-0.032,0.761-0.065,1.16-0.098c0.398-0.032,0.745-0.097,1.038-0.195
		c0.456-0.146,0.793-0.402,1.013-0.768s0.33-0.841,0.33-1.427v-14.851c0-0.52-0.118-0.996-0.354-1.427
		c-0.236-0.431-0.566-0.792-0.989-1.085c-0.31-0.195-0.757-0.361-1.343-0.5s-1.123-0.224-1.611-0.256v-1.611l8.496-0.537
		l0.342,0.342v19.629c0,0.57,0.109,1.042,0.327,1.416c0.218,0.375,0.562,0.651,1.03,0.83c0.356,0.146,0.703,0.265,1.043,0.354
		c0.339,0.09,0.719,0.151,1.14,0.183L141.554,518.074L141.554,518.074z M138.502,484.211c0,0.928-0.305,1.738-0.916,2.429
		c-0.61,0.692-1.363,1.038-2.258,1.038c-0.83,0-1.55-0.33-2.161-0.989s-0.916-1.412-0.916-2.258c0-0.895,0.305-1.676,0.916-2.344
		c0.61-0.667,1.331-1.001,2.161-1.001c0.928,0,1.688,0.313,2.283,0.94C138.205,482.653,138.502,483.381,138.502,484.211z"/>
	<path fill="#58595B" d="M160.426,506.282c0.667,0.586,1.18,1.262,1.538,2.026c0.358,0.765,0.537,1.701,0.537,2.808
		c0,2.23-0.834,4.053-2.502,5.469s-3.829,2.124-6.482,2.124c-1.4,0-2.69-0.252-3.87-0.757c-1.18-0.504-2.022-0.968-2.527-1.392
		l-0.488,1.587h-1.831l-0.244-8.374h1.685c0.13,0.637,0.407,1.38,0.83,2.229c0.423,0.849,0.936,1.617,1.538,2.303
		c0.635,0.719,1.396,1.323,2.283,1.813c0.887,0.49,1.884,0.735,2.991,0.735c1.562,0,2.767-0.356,3.613-1.068
		c0.846-0.712,1.27-1.731,1.27-3.058c0-0.684-0.134-1.273-0.403-1.77c-0.269-0.496-0.664-0.932-1.184-1.306
		c-0.537-0.374-1.196-0.712-1.978-1.013c-0.781-0.301-1.652-0.598-2.612-0.891c-0.765-0.228-1.616-0.541-2.551-0.94
		c-0.936-0.398-1.738-0.867-2.405-1.404c-0.716-0.569-1.302-1.27-1.758-2.1c-0.456-0.83-0.684-1.807-0.684-2.93
		c0-1.969,0.732-3.638,2.197-5.005s3.426-2.051,5.884-2.051c0.944,0,1.908,0.122,2.893,0.366c0.984,0.244,1.786,0.537,2.405,0.879
		l0.562-1.27h1.758l0.366,7.739h-1.685c-0.342-1.732-1.079-3.142-2.209-4.229c-1.131-1.087-2.511-1.63-4.138-1.63
		c-1.335,0-2.385,0.336-3.149,1.008c-0.765,0.672-1.147,1.483-1.147,2.434c0,0.732,0.126,1.343,0.378,1.831s0.63,0.903,1.135,1.245
		c0.488,0.326,1.103,0.631,1.843,0.916c0.74,0.285,1.656,0.606,2.747,0.964c1.074,0.342,2.087,0.741,3.04,1.196
		C159.022,505.224,159.807,505.729,160.426,506.282z"/>
	<path fill="#58595B" d="M181.007,517.024c-1.058,0.439-2.059,0.81-3.003,1.111s-2.1,0.452-3.467,0.452
		c-2.019,0-3.438-0.509-4.26-1.526c-0.822-1.017-1.233-2.454-1.233-4.309v-16.309h-4.346v-2.344h4.443v-7.495h4.443v7.495h6.909
		v2.344h-6.86v13.452c0,1.009,0.037,1.852,0.11,2.527c0.073,0.676,0.248,1.266,0.525,1.77c0.26,0.472,0.651,0.83,1.172,1.074
		c0.521,0.244,1.221,0.366,2.1,0.366c0.407,0,1.005-0.037,1.794-0.11s1.347-0.167,1.672-0.281v1.783H181.007z"/>
	<path fill="#58595B" d="M206.886,505.793c0,1.693-0.269,3.357-0.807,4.993c-0.538,1.636-1.303,3.023-2.297,4.163
		c-1.125,1.302-2.428,2.271-3.911,2.905c-1.483,0.635-3.145,0.952-4.986,0.952c-1.531,0-2.99-0.289-4.375-0.867
		s-2.615-1.42-3.69-2.527c-1.059-1.09-1.902-2.421-2.529-3.992c-0.627-1.57-0.941-3.333-0.941-5.286c0-3.76,1.096-6.836,3.287-9.229
		s5.063-3.589,8.615-3.589c3.373,0,6.155,1.135,8.346,3.406C205.79,498.994,206.886,502.018,206.886,505.793z M201.832,505.842
		c0-1.221-0.123-2.51-0.367-3.87c-0.244-1.359-0.611-2.51-1.1-3.455c-0.522-1.009-1.207-1.819-2.055-2.429
		c-0.848-0.61-1.883-0.916-3.106-0.916c-1.256,0-2.328,0.31-3.216,0.928c-0.889,0.619-1.61,1.465-2.165,2.539
		c-0.521,0.993-0.889,2.124-1.101,3.394c-0.212,1.27-0.318,2.499-0.318,3.687c0,1.562,0.126,3.007,0.379,4.333
		c0.252,1.327,0.656,2.511,1.21,3.552c0.554,1.042,1.251,1.86,2.091,2.454s1.879,0.891,3.118,0.891c2.038,0,3.652-0.984,4.843-2.954
		C201.237,512.027,201.832,509.309,201.832,505.842z"/>
	<path fill="#58595B" d="M228.785,497.102c0,0.83-0.204,1.567-0.61,2.209c-0.407,0.643-1.034,0.964-1.88,0.964
		c-0.912,0-1.607-0.236-2.087-0.708c-0.48-0.472-0.72-0.993-0.72-1.562c0-0.358,0.028-0.684,0.085-0.977s0.11-0.586,0.159-0.879
		c-0.765,0-1.66,0.31-2.686,0.928c-1.025,0.619-1.896,1.498-2.612,2.637v14.014c0,0.57,0.11,1.034,0.33,1.392
		c0.22,0.358,0.565,0.627,1.038,0.806c0.407,0.163,0.932,0.285,1.575,0.366c0.643,0.082,1.2,0.139,1.672,0.171v1.611h-12.695v-1.611
		c0.374-0.032,0.761-0.065,1.16-0.098c0.398-0.032,0.745-0.097,1.038-0.195c0.456-0.146,0.793-0.402,1.013-0.768
		s0.33-0.841,0.33-1.427v-14.851c0-0.504-0.118-1-0.354-1.487c-0.236-0.487-0.566-0.878-0.989-1.171
		c-0.31-0.195-0.676-0.337-1.099-0.426s-0.879-0.15-1.367-0.183v-1.611l8.008-0.537l0.342,0.342v3.394h0.122
		c1.009-1.318,2.132-2.319,3.369-3.003s2.368-1.025,3.394-1.025c1.025,0,1.859,0.334,2.502,1.001
		C228.464,495.084,228.785,495.979,228.785,497.102z"/>
	<path fill="#58595B" d="M229.005,525.935c0-0.814,0.224-1.477,0.671-1.99c0.448-0.513,1.005-0.769,1.672-0.769
		c0.521,0,0.968,0.097,1.342,0.291s0.708,0.444,1.001,0.751c0.244,0.242,0.504,0.573,0.781,0.993
		c0.276,0.42,0.496,0.767,0.659,1.042c0.813-0.438,1.786-1.583,2.917-3.435c1.131-1.852,1.949-3.476,2.453-4.872
		c-1.545-3.856-2.945-7.306-4.198-10.348c-1.253-3.043-2.563-6.191-3.93-9.446c-0.31-0.749-0.83-1.331-1.562-1.746
		s-1.465-0.679-2.197-0.793v-1.611h10.991v1.709c-0.488,0.017-1.074,0.118-1.758,0.305s-1.025,0.402-1.025,0.646
		c0,0.098,0.037,0.26,0.11,0.488s0.159,0.463,0.256,0.707c0.617,1.61,1.558,3.932,2.824,6.965s2.248,5.46,2.946,7.282
		c0.733-1.74,1.495-3.541,2.285-5.403s1.674-4.062,2.652-6.599c0.114-0.309,0.277-0.736,0.489-1.281
		c0.211-0.544,0.318-1.012,0.318-1.403c0-0.423-0.371-0.817-1.111-1.183c-0.741-0.366-1.445-0.589-2.112-0.671v-1.562h8.94v1.514
		c-0.488,0.082-1.131,0.362-1.929,0.842c-0.798,0.48-1.392,1.16-1.782,2.039c-1.937,4.492-3.658,8.586-5.164,12.28
		c-1.506,3.695-2.649,6.413-3.43,8.154c-1.025,2.278-1.941,4.057-2.747,5.334s-1.591,2.283-2.356,3.015
		c-0.749,0.684-1.428,1.143-2.039,1.379c-0.61,0.236-1.241,0.354-1.892,0.354c-1.27,0-2.267-0.301-2.991-0.903
		C229.367,527.408,229.005,526.716,229.005,525.935z"/>
</g>
<g>
	<path fill="#008A46" d="M144.6,226.252c1.412,3.279,2.136,6.813,2.127,10.383c0.072,6.94-2.723,13.602-7.725,18.414h79.861
		c8.751,0,15.87-8.261,15.87-18.414c0.028-3.649-0.933-7.237-2.782-10.383H144.6z"/>
	<path fill="#008A46" d="M172.096,0C78.173,0,2.034,76.139,2.034,170.062s76.139,170.062,170.062,170.062
		s170.062-76.139,170.062-170.062S266.019,0,172.096,0z M218.863,260.714h-93.777c-11.933,0-21.641-10.802-21.641-24.079V87.909
		c0.049-4.735,3.921-8.536,8.656-8.499h100.991c4.735-0.038,8.607,3.764,8.656,8.499v21.506c-1.914,1.172-3.838,2.439-5.771,3.8
		V87.909c-0.017-1.578-1.307-2.845-2.885-2.833H112.101c-1.578-0.013-2.869,1.255-2.885,2.833v5.341
		c26.994,0.521,41.123,8.344,54.798,15.917c11.19,6.198,21.907,12.113,39.475,14.309c-1.661,1.575-3.304,3.24-4.929,4.994
		c-16.338-2.732-26.997-8.618-37.381-14.367c-13.622-7.545-26.521-14.683-51.964-15.185v137.718c0,10.153,7.119,18.414,15.87,18.414
		s15.87-8.261,15.87-18.414c0.04-4.145-1.208-8.199-3.571-11.604l-0.008-0.014c-0.091-0.133-0.17-0.274-0.236-0.42
		c-0.011-0.024-0.029-0.047-0.039-0.071c-0.036-0.084-0.056-0.175-0.084-0.263c-0.033-0.089-0.061-0.179-0.085-0.27
		c-0.004-0.021-0.003-0.042-0.007-0.063c-0.032-0.164-0.049-0.33-0.051-0.496l-0.001-0.014c0-0.057,0.014-0.111,0.017-0.167
		c0.005-0.125,0.017-0.248,0.038-0.371c0.017-0.087,0.048-0.168,0.073-0.252c0.024-0.093,0.053-0.185,0.087-0.275
		c0.034-0.082,0.08-0.157,0.121-0.235c0.042-0.087,0.089-0.172,0.14-0.254c0.049-0.073,0.109-0.137,0.164-0.205
		c0.058-0.077,0.121-0.152,0.187-0.222c0.083-0.078,0.17-0.151,0.262-0.219c0.054-0.042,0.098-0.091,0.156-0.13l0.015-0.008
		c0.146-0.097,0.3-0.18,0.461-0.249c0.013-0.006,0.025-0.015,0.038-0.02c0.126-0.049,0.256-0.088,0.388-0.119
		c0.052-0.014,0.102-0.036,0.154-0.047c0.037-0.008,0.078-0.006,0.116-0.012c0.15-0.027,0.301-0.042,0.453-0.045l0.016-0.002h93.778
		c0.072,0,0.14,0.016,0.21,0.021c0.112,0.005,0.224,0.016,0.335,0.033c0.095,0.018,0.184,0.05,0.276,0.077
		c0.088,0.026,0.176,0.046,0.262,0.08c0.087,0.035,0.167,0.081,0.25,0.124c0.084,0.043,0.169,0.081,0.249,0.133
		c0.076,0.049,0.143,0.108,0.213,0.164c0.078,0.056,0.152,0.117,0.224,0.181c0.076,0.078,0.147,0.159,0.213,0.245
		c0.047,0.056,0.1,0.104,0.143,0.164l0.016,0.024l0.007,0.011c3.015,4.34,4.612,9.507,4.572,14.792
		C240.504,249.912,230.797,260.714,218.863,260.714z M169.746,182.81h-51.874c-0.035,0.001-0.07,0.001-0.104,0
		c-1.565-0.029-2.81-1.321-2.781-2.885c0.029-1.565,1.321-2.81,2.885-2.781h52.957c-0.256,0.783-0.518,1.555-0.766,2.353
		C169.735,180.569,169.627,181.696,169.746,182.81z M159.444,211.139h-41.572c-0.035,0.001-0.07,0.001-0.104,0
		c-1.565-0.029-2.81-1.321-2.781-2.885c0.029-1.564,1.321-2.809,2.885-2.781h40.518
		C158.063,207.427,158.436,209.434,159.444,211.139z M117.872,196.974c-0.035,0.001-0.07,0.001-0.104,0
		c-1.565-0.029-2.81-1.32-2.781-2.885c0.029-1.565,1.321-2.81,2.885-2.781h49.423c-1.553,1.812-3.01,3.703-4.367,5.666H117.872z
		 M117.872,168.646c-0.035,0.001-0.07,0.001-0.104,0c-1.565-0.029-2.81-1.321-2.781-2.885c0.029-1.565,1.321-2.81,2.885-2.781
		h58.342c-0.808,1.833-1.582,3.733-2.34,5.666H117.872z M117.872,154.481c-0.035,0.001-0.07,0.001-0.104,0
		c-1.565-0.029-2.81-1.321-2.781-2.885c0.029-1.565,1.321-2.809,2.885-2.781h65.595c-1.077,1.823-2.121,3.719-3.144,5.666H117.872z
		 M117.872,140.317c-0.035,0-0.07,0-0.104,0c-1.565-0.029-2.81-1.321-2.781-2.885c0.029-1.564,1.321-2.809,2.885-2.781h75.368
		c-1.449,1.806-2.871,3.694-4.265,5.666H117.872z M185.853,196.974c2.965-2.577,6.635-4.206,10.536-4.675
		c1.825-0.144,3.658-0.184,5.619-0.225c2.319-0.05,4.57-0.153,6.78-0.36c0.873,0.497,1.414,1.423,1.42,2.428
		c-0.015,1.579-1.307,2.847-2.886,2.833L185.853,196.974L185.853,196.974z M215.978,212.555v-22.013
		c1.971-0.478,3.901-1.112,5.771-1.898v23.911c-0.015,1.579-1.307,2.847-2.885,2.833
		C217.284,215.402,215.993,214.134,215.978,212.555z M282.966,103.841c-11.822,4.803-19.187,19.542-23.587,28.348l-0.929,1.851
		c-26.137,51.711-40.921,52.031-56.572,52.368c-1.943,0.043-3.953,0.086-5.954,0.243c-15.784,1.246-26.32,21.314-26.425,21.516
		c-0.501,0.959-1.496,1.558-2.578,1.553c-0.451,0-0.895-0.104-1.299-0.304c-0.017-0.008-0.034-0.016-0.05-0.025
		c-1.382-0.706-1.93-2.397-1.224-3.779c0.485-0.942,12.086-23.107,31.113-24.608c2.168-0.171,4.264-0.217,6.29-0.261
		c14.458-0.313,26.946-0.582,51.528-49.221l0.917-1.829c3.573-7.151,8.954-17.918,17.268-25.219
		c-10.509,1.07-20.801,3.7-30.534,7.806c-24.273,10.304-42.328,28.596-53.838,54.491c9.271-9.485,23.968-20.859,42.892-23.591
		c1.562-0.235,3.022,0.831,3.274,2.39c0.001,0.008,0.002,0.015,0.003,0.023c0.208,1.555-0.883,2.984-2.438,3.192
		c-30.469,4.399-49.84,34.383-50.032,34.686c-0.779,1.213-2.328,1.672-3.642,1.079c-1.311-0.572-1.984-2.035-1.567-3.403
		c13.996-45.15,42.152-65.257,63.308-74.173c22.936-9.669,42.336-8.63,43.147-8.577c1.331,0.071,2.437,1.049,2.67,2.361
		C284.925,102.068,284.2,103.351,282.966,103.841z"/>
</g>
</svg>
