<?xml version="1.0" encoding="utf-8"?>
<!-- Generator: Adobe Illustrator 26.0.1, SVG Export Plug-In . SVG Version: 6.00 Build 0)  -->
<svg version="1.1" id="Layer_1" xmlns="http://www.w3.org/2000/svg" xmlns:xlink="http://www.w3.org/1999/xlink" x="0px" y="0px"
	 viewBox="0 0 343 570" enable-background="new 0 0 343 570" xml:space="preserve">
<g>
	<path fill="#58595B" d="M103.446,521.956h-9.329c-2.065-3.239-3.931-6.038-5.598-8.398s-3.476-4.793-5.426-7.3h-3.548v10.986
		c0,0.57,0.089,1.07,0.269,1.501c0.179,0.432,0.562,0.761,1.147,0.989c0.293,0.114,0.806,0.22,1.538,0.317s1.351,0.155,1.855,0.171
		v1.733H69.706v-1.733c0.391-0.032,0.956-0.089,1.697-0.171c0.74-0.081,1.257-0.187,1.55-0.317c0.488-0.211,0.842-0.521,1.062-0.928
		c0.22-0.407,0.33-0.928,0.33-1.562v-25.049c0-0.569-0.082-1.074-0.244-1.514c-0.163-0.439-0.545-0.773-1.147-1.001
		c-0.407-0.146-0.936-0.281-1.587-0.403s-1.205-0.199-1.66-0.232v-1.733h15.991c1.465,0,2.84,0.151,4.126,0.452
		s2.449,0.786,3.491,1.453c1.009,0.651,1.814,1.501,2.417,2.551c0.602,1.05,0.903,2.315,0.903,3.796c0,1.335-0.204,2.515-0.61,3.54
		c-0.407,1.025-1.009,1.913-1.807,2.661c-0.732,0.7-1.611,1.306-2.637,1.819s-2.157,0.948-3.394,1.306
		c1.709,2.263,3.129,4.167,4.26,5.713c1.131,1.546,2.519,3.426,4.163,5.64c0.716,0.977,1.363,1.697,1.941,2.161
		s1.151,0.842,1.721,1.135c0.423,0.212,0.952,0.375,1.587,0.488c0.635,0.114,1.164,0.179,1.587,0.195V521.956z M90.604,496.139
		c0-2.096-0.603-3.758-1.807-4.984c-1.205-1.227-2.905-1.84-5.103-1.84h-4.15v14.844h3.198c2.246,0,4.118-0.719,5.615-2.157
		C89.855,500.563,90.604,498.609,90.604,496.139z"/>
	<path fill="#58595B" d="M127.64,509.675c0,1.693-0.269,3.357-0.807,4.993s-1.303,3.023-2.297,4.163
		c-1.125,1.302-2.428,2.271-3.911,2.905c-1.483,0.635-3.145,0.952-4.986,0.952c-1.531,0-2.99-0.289-4.375-0.867
		s-2.615-1.42-3.69-2.527c-1.059-1.09-1.902-2.421-2.529-3.992c-0.627-1.57-0.941-3.333-0.941-5.286c0-3.76,1.096-6.836,3.287-9.229
		s5.063-3.589,8.615-3.589c3.373,0,6.155,1.135,8.346,3.406C126.544,502.876,127.64,505.899,127.64,509.675z M122.586,509.724
		c0-1.221-0.123-2.51-0.367-3.87c-0.244-1.359-0.611-2.51-1.1-3.455c-0.522-1.009-1.207-1.819-2.055-2.429
		c-0.848-0.61-1.883-0.916-3.106-0.916c-1.256,0-2.328,0.31-3.216,0.928c-0.889,0.619-1.61,1.465-2.165,2.539
		c-0.521,0.993-0.889,2.124-1.101,3.394c-0.212,1.27-0.318,2.499-0.318,3.687c0,1.562,0.126,3.007,0.379,4.333
		c0.252,1.327,0.656,2.511,1.21,3.552c0.554,1.042,1.251,1.86,2.091,2.454s1.879,0.891,3.118,0.891c2.038,0,3.652-0.984,4.843-2.954
		C121.991,515.909,122.586,513.191,122.586,509.724z"/>
	<path fill="#58595B" d="M172.293,521.956h-11.719v-1.611c0.374-0.032,0.752-0.065,1.135-0.098c0.382-0.032,0.72-0.098,1.013-0.195
		c0.456-0.146,0.793-0.403,1.013-0.769s0.33-0.842,0.33-1.428v-12.427c0-1.692-0.387-2.999-1.16-3.918
		c-0.773-0.919-1.738-1.379-2.893-1.379c-0.798,0-1.546,0.122-2.246,0.366s-1.343,0.586-1.929,1.025
		c-0.472,0.358-0.867,0.745-1.184,1.16s-0.558,0.761-0.72,1.038v13.892c0,0.57,0.098,1.038,0.293,1.404s0.529,0.647,1.001,0.842
		c0.374,0.146,0.712,0.256,1.013,0.33c0.301,0.073,0.696,0.126,1.184,0.159v1.611h-11.475v-1.611
		c0.374-0.032,0.736-0.065,1.086-0.098c0.35-0.032,0.671-0.098,0.964-0.195c0.456-0.146,0.793-0.403,1.013-0.769
		s0.33-0.842,0.33-1.428V505.43c0-1.692-0.388-2.999-1.163-3.918s-1.742-1.379-2.9-1.379c-0.8,0-1.55,0.126-2.251,0.378
		c-0.702,0.252-1.346,0.598-1.934,1.038c-0.473,0.358-0.873,0.761-1.199,1.208c-0.327,0.448-0.571,0.786-0.734,1.013v13.794
		c0,0.554,0.114,1.018,0.342,1.392c0.228,0.375,0.569,0.659,1.025,0.854c0.342,0.163,0.691,0.285,1.05,0.366
		c0.358,0.082,0.757,0.139,1.196,0.171v1.611H131.08v-1.611c0.374-0.032,0.761-0.065,1.16-0.098
		c0.398-0.032,0.745-0.097,1.038-0.195c0.456-0.146,0.793-0.402,1.013-0.768s0.33-0.841,0.33-1.427v-14.948
		c0-0.52-0.118-0.987-0.354-1.402c-0.236-0.415-0.566-0.768-0.989-1.061c-0.31-0.195-0.692-0.353-1.147-0.475
		c-0.456-0.122-0.928-0.199-1.416-0.232v-1.611l8.057-0.537l0.342,0.342v3.442h0.171c0.407-0.407,0.903-0.887,1.489-1.44
		s1.131-1.001,1.636-1.343c0.569-0.391,1.282-0.716,2.136-0.977c0.854-0.26,1.778-0.391,2.771-0.391
		c1.562,0,2.905,0.419,4.028,1.257c1.123,0.838,1.929,1.852,2.417,3.04c0.585-0.569,1.101-1.07,1.548-1.501
		c0.446-0.431,1.036-0.891,1.767-1.379c0.617-0.423,1.344-0.765,2.181-1.025c0.837-0.26,1.767-0.391,2.791-0.391
		c2.031,0,3.64,0.667,4.826,2.002c1.187,1.335,1.78,3.386,1.78,6.152v12.231c0,0.57,0.098,1.038,0.293,1.404
		s0.529,0.647,1.001,0.842c0.374,0.146,0.745,0.256,1.111,0.33s0.777,0.126,1.233,0.159V521.956z"/>
	<path fill="#58595B" d="M197.953,521.516c-0.765,0.277-1.437,0.5-2.014,0.671c-0.578,0.171-1.233,0.256-1.966,0.256
		c-1.27,0-2.283-0.297-3.04-0.891s-1.241-1.46-1.453-2.6h-0.146c-1.058,1.172-2.193,2.067-3.406,2.686
		c-1.213,0.618-2.673,0.928-4.382,0.928c-1.807,0-3.292-0.554-4.456-1.66c-1.164-1.106-1.746-2.555-1.746-4.346
		c0-0.928,0.13-1.758,0.391-2.49c0.26-0.732,0.651-1.392,1.172-1.978c0.407-0.488,0.944-0.923,1.611-1.306
		c0.667-0.382,1.294-0.688,1.88-0.916c0.732-0.276,2.217-0.789,4.456-1.538c2.238-0.749,3.748-1.334,4.529-1.758v-2.417
		c0-0.211-0.045-0.618-0.134-1.221c-0.09-0.602-0.281-1.172-0.574-1.709c-0.326-0.602-0.786-1.127-1.379-1.575
		c-0.594-0.447-1.437-0.671-2.527-0.671c-0.749,0-1.445,0.126-2.087,0.378c-0.643,0.252-1.095,0.517-1.355,0.793
		c0,0.326,0.077,0.806,0.232,1.44c0.154,0.635,0.232,1.221,0.232,1.758c0,0.57-0.256,1.091-0.769,1.562
		c-0.513,0.472-1.225,0.708-2.136,0.708c-0.814,0-1.412-0.289-1.794-0.867c-0.383-0.578-0.574-1.225-0.574-1.941
		c0-0.749,0.264-1.465,0.793-2.148c0.529-0.684,1.216-1.294,2.063-1.831c0.732-0.456,1.619-0.842,2.661-1.16
		c1.042-0.317,2.059-0.476,3.052-0.476c1.367,0,2.559,0.094,3.577,0.281c1.017,0.188,1.941,0.59,2.771,1.208
		c0.83,0.603,1.461,1.42,1.893,2.454c0.431,1.034,0.646,2.364,0.646,3.992c0,2.328-0.024,4.391-0.073,6.189
		c-0.049,1.799-0.073,3.764-0.073,5.896c0,0.635,0.11,1.14,0.33,1.514c0.22,0.375,0.557,0.692,1.013,0.952
		c0.244,0.146,0.631,0.228,1.16,0.244c0.528,0.017,1.069,0.024,1.623,0.024L197.953,521.516L197.953,521.516z M189.432,508.625
		c-1.384,0.408-2.596,0.808-3.638,1.199c-1.042,0.392-2.01,0.881-2.905,1.468c-0.814,0.555-1.457,1.211-1.929,1.97
		c-0.472,0.758-0.708,1.66-0.708,2.704c0,1.354,0.354,2.349,1.062,2.985s1.607,0.954,2.698,0.954c1.155,0,2.173-0.281,3.052-0.844
		c0.879-0.562,1.619-1.227,2.222-1.994L189.432,508.625z"/>
	<path fill="#58595B" d="M226.932,521.956h-11.768v-1.611c0.374-0.032,0.785-0.065,1.233-0.098c0.447-0.032,0.817-0.098,1.11-0.195
		c0.456-0.146,0.794-0.403,1.014-0.769s0.329-0.842,0.329-1.428v-12.378c0-1.709-0.403-3.027-1.211-3.955s-1.791-1.392-2.949-1.392
		c-0.864,0-1.656,0.134-2.374,0.403s-1.354,0.598-1.908,0.989c-0.539,0.375-0.967,0.777-1.285,1.208
		c-0.317,0.432-0.551,0.777-0.697,1.038v13.843c0,0.554,0.114,1.009,0.342,1.367c0.228,0.358,0.569,0.635,1.025,0.83
		c0.342,0.163,0.712,0.285,1.111,0.366c0.398,0.082,0.81,0.139,1.232,0.171v1.611h-11.792v-1.611
		c0.374-0.032,0.761-0.065,1.16-0.098c0.398-0.032,0.744-0.097,1.037-0.195c0.456-0.146,0.794-0.402,1.014-0.768
		s0.329-0.841,0.329-1.427v-14.851c0-0.553-0.118-1.061-0.354-1.524c-0.236-0.463-0.566-0.841-0.989-1.134
		c-0.31-0.195-0.676-0.337-1.099-0.426s-0.879-0.15-1.367-0.183v-1.611l8.008-0.537l0.342,0.342v3.394h0.122
		c0.391-0.391,0.879-0.858,1.465-1.404c0.586-0.545,1.14-0.989,1.66-1.331c0.603-0.391,1.318-0.716,2.148-0.977
		c0.83-0.26,1.766-0.391,2.808-0.391c2.312,0,4.024,0.72,5.14,2.161c1.114,1.44,1.672,3.357,1.672,5.75v12.524
		c0,0.57,0.098,1.03,0.293,1.379c0.195,0.35,0.529,0.623,1.001,0.818c0.391,0.163,0.729,0.277,1.014,0.342
		c0.284,0.065,0.679,0.114,1.184,0.146L226.932,521.956L226.932,521.956z"/>
	<path fill="#58595B" d="M241.019,522.59c-3.483,0-6.209-1.155-8.179-3.467c-1.97-2.311-2.954-5.412-2.954-9.302
		c0-1.692,0.265-3.275,0.794-4.749c0.528-1.473,1.298-2.812,2.307-4.016c0.96-1.155,2.165-2.087,3.613-2.795
		s3.027-1.062,4.736-1.062c2.36,0,4.28,0.566,5.762,1.697c1.481,1.131,2.222,2.673,2.222,4.626c0,0.814-0.195,1.534-0.586,2.161
		s-1.033,0.94-1.929,0.94c-0.96,0-1.705-0.243-2.233-0.73c-0.529-0.487-0.794-1.03-0.794-1.63c0-0.73,0.098-1.48,0.293-2.251
		s0.31-1.334,0.342-1.691c-0.292-0.502-0.727-0.839-1.303-1.01c-0.576-0.17-1.197-0.255-1.863-0.255c-0.779,0-1.521,0.167-2.228,0.5
		c-0.707,0.334-1.393,0.948-2.058,1.843c-0.601,0.814-1.088,1.913-1.461,3.296c-0.374,1.384-0.561,3.036-0.561,4.956
		c0,3.027,0.671,5.498,2.012,7.41c1.34,1.913,3.1,2.869,5.277,2.869c1.576,0,2.896-0.385,3.961-1.153
		c1.064-0.77,2.052-1.923,2.962-3.461l1.56,1.025c-1.074,1.921-2.49,3.442-4.248,4.565S242.891,522.59,241.019,522.59z"/>
	<path fill="#58595B" d="M273.978,516.292c-1.009,1.921-2.36,3.451-4.053,4.59s-3.638,1.709-5.835,1.709
		c-1.937,0-3.634-0.342-5.09-1.025c-1.457-0.684-2.657-1.611-3.602-2.783s-1.647-2.539-2.111-4.102s-0.696-3.214-0.696-4.956
		c0-1.562,0.248-3.096,0.745-4.602c0.496-1.505,1.225-2.86,2.185-4.065c0.928-1.155,2.079-2.087,3.455-2.795
		c1.375-0.708,2.917-1.062,4.626-1.062c1.758,0,3.264,0.277,4.517,0.83c1.253,0.554,2.271,1.311,3.052,2.271
		c0.749,0.912,1.307,1.986,1.673,3.223s0.549,2.58,0.549,4.028v1.611H257.45c0,1.583,0.15,3.018,0.452,4.307
		c0.301,1.289,0.776,2.422,1.428,3.401c0.635,0.946,1.465,1.692,2.49,2.239s2.246,0.82,3.662,0.82c1.448,0,2.698-0.339,3.748-1.019
		s2.062-1.902,3.039-3.669L273.978,516.292z M268.583,507.112c0-0.909-0.077-1.882-0.231-2.92c-0.155-1.039-0.403-1.907-0.745-2.605
		c-0.374-0.746-0.887-1.354-1.538-1.825s-1.489-0.706-2.515-0.706c-1.709,0-3.129,0.71-4.26,2.13
		c-1.132,1.42-1.746,3.396-1.844,5.927L268.583,507.112L268.583,507.112z"/>
</g>
<g>
	<path fill="#008A46" d="M224.025,151.222c0.577,1.213,2.028,1.729,3.241,1.152c1.213-0.577,1.729-2.028,1.152-3.241
		c-1.288-3.014-3.141-5.76-5.428-8.089c-4.575-4.66-10.923-7.672-17.911-7.673c-0.025,0-0.049,0-0.074,0
		c-1.343,0.021-2.416,1.126-2.395,2.469c0.021,1.343,1.126,2.416,2.469,2.395c5.591,0,10.701,2.41,14.439,6.216
		c1.869,1.903,3.386,4.149,4.431,6.592C223.971,151.104,223.997,151.163,224.025,151.222z"/>
	<path fill="#008A46" d="M227.957,156.354c-1.342,0.02-2.415,1.124-2.396,2.466c0,1.823-0.613,4.197-1.838,6.854
		c-0.012,0.024-0.023,0.049-0.034,0.074c-0.543,1.229,0.013,2.665,1.242,3.208c1.229,0.543,2.665-0.013,3.208-1.242
		c1.417-3.073,2.285-6.042,2.285-8.893c0-0.023,0-0.045,0-0.068c-0.019-1.343-1.123-2.417-2.466-2.398L227.957,156.354z"/>
	<path fill="#008A46" d="M171.842,0C77.919,0,1.78,76.139,1.78,170.062s76.139,170.062,170.062,170.062
		s170.062-76.139,170.062-170.062S265.764,0,171.842,0z M270.921,110.5h0.003c0.851,0.029,1.625,0.5,2.04,1.243
		c0.656,1.172,0.238,2.654-0.934,3.311l-24.74,14.284c-0.021,0.013-0.043,0.025-0.065,0.038c-1.174,0.654-2.655,0.232-3.308-0.941
		c-0.654-1.174-0.232-2.655,0.941-3.309l24.74-14.284C269.997,110.604,270.456,110.485,270.921,110.5z M254.542,189.813
		c0.244-0.002,0.487,0.033,0.721,0.104l13.799,3.694c0.014,0.004,0.027,0.007,0.041,0.011c1.295,0.36,2.053,1.701,1.693,2.996
		c-0.36,1.295-1.701,2.053-2.995,1.693l-13.795-3.698c-1.056-0.268-1.805-1.206-1.833-2.295c-0.035-1.343,1.026-2.46,2.369-2.494
		l0.001-0.001L254.542,189.813z M252.238,148.514c-0.326-1.303,0.466-2.624,1.769-2.951l13.796-3.694
		c0.211-0.064,0.429-0.099,0.649-0.104l0.001,0.01c1.114-0.004,2.088,0.751,2.364,1.83c0.333,1.302-0.453,2.626-1.754,2.959
		l-13.799,3.698c-0.025,0.007-0.049,0.014-0.074,0.02C253.885,150.609,252.564,149.817,252.238,148.514z M242.504,96.929
		l-0.001,0.001c0.678-0.019,1.334,0.246,1.808,0.732c0.939,0.961,0.921,2.501-0.04,3.44l-10.1,10.101
		c-0.011,0.011-0.023,0.023-0.034,0.034c-0.959,0.941-2.499,0.926-3.44-0.034c-0.941-0.959-0.926-2.499,0.034-3.44l10.101-10.099
		C241.273,97.21,241.873,96.947,242.504,96.929z M212.595,94.646l14.284-24.743c0.433-0.775,1.255-1.253,2.143-1.246v-0.001
		c0.433,0.004,0.857,0.122,1.229,0.345c1.153,0.689,1.529,2.183,0.839,3.336l-14.283,24.74c-0.024,0.045-0.049,0.088-0.076,0.131
		c-0.707,1.142-2.206,1.495-3.348,0.787C212.24,97.287,211.888,95.788,212.595,94.646z M191.693,86.668l3.694-13.794
		c0.26-1.035,1.165-1.779,2.231-1.835c0.077-0.004,0.155-0.004,0.232,0v-0.001l0.011-0.002c0.186,0.009,0.37,0.039,0.549,0.089
		c1.292,0.366,2.043,1.711,1.677,3.003l-3.698,13.799c-0.013,0.056-0.028,0.111-0.044,0.166c-0.393,1.285-1.753,2.007-3.038,1.614
		C192.023,89.312,191.3,87.952,191.693,86.668z M169.416,55.809c-0.019-1.342,1.054-2.446,2.396-2.466h-0.002
		c0.024,0,0.049,0,0.073,0c1.343,0.019,2.417,1.123,2.398,2.466v28.568c-0.005,1.337-1.087,2.419-2.424,2.424
		c-1.344,0.005-2.437-1.08-2.442-2.424V55.809H169.416z M146.017,71.038l-0.001,0.002c1.092,0.026,2.033,0.776,2.3,1.835
		l3.699,13.794c0.007,0.025,0.014,0.05,0.02,0.075c0.327,1.303-0.465,2.625-1.768,2.952c-1.303,0.327-2.625-0.465-2.952-1.768
		l-3.694-13.799c-0.065-0.233-0.096-0.473-0.091-0.715C143.561,72.072,144.674,71.008,146.017,71.038z M114.603,68.662
		L114.603,68.662c0.912-0.034,1.768,0.446,2.214,1.244l14.286,24.743c0.012,0.02,0.024,0.041,0.035,0.061
		c0.654,1.174,0.232,2.656-0.941,3.31s-2.656,0.232-3.31-0.941l-14.283-24.74c-0.209-0.35-0.327-0.748-0.342-1.156
		C112.213,69.841,113.26,68.712,114.603,68.662z M101.122,96.923L101.122,96.923c0.658-0.001,1.287,0.265,1.745,0.736l10.1,10.1
		c0.005,0.005,0.011,0.011,0.016,0.016c0.945,0.954,0.938,2.495-0.016,3.44c-0.954,0.945-2.495,0.938-3.44-0.016l-10.101-10.1
		c-0.471-0.458-0.736-1.087-0.736-1.743C98.69,98.013,99.779,96.923,101.122,96.923z M72.947,110.5h0.002
		c0.408,0.015,0.805,0.133,1.156,0.341l24.74,14.284c0.04,0.021,0.079,0.044,0.117,0.068c1.144,0.703,1.502,2.201,0.799,3.346
		c-0.703,1.144-2.201,1.502-3.346,0.799l-24.744-14.284c-0.796-0.446-1.276-1.3-1.243-2.212
		C70.476,111.5,71.604,110.451,72.947,110.5z M91.442,148.578c-0.367,1.292-1.713,2.042-3.005,1.674l-13.798-3.698
		c-1.056-0.268-1.805-1.207-1.832-2.296c-0.034-1.343,1.027-2.459,2.37-2.493l-0.002-0.011c0.245-0.002,0.489,0.033,0.724,0.104
		l13.795,3.694c0.025,0.006,0.05,0.013,0.075,0.02C91.06,145.94,91.809,147.285,91.442,148.578z M89.696,194.624l-13.795,3.698
		c-0.014,0.004-0.029,0.008-0.043,0.012c-1.301,0.336-2.628-0.446-2.965-1.747c-0.336-1.301,0.446-2.628,1.747-2.965l13.798-3.695
		c0.21-0.063,0.427-0.098,0.646-0.104l0.002,0.011c1.114-0.003,2.088,0.75,2.364,1.83C91.782,192.966,90.997,194.291,89.696,194.624
		z M57.381,172.512c-1.342-0.053-2.387-1.185-2.334-2.527s1.185-2.387,2.527-2.333h28.571c0.009,0,0.018,0,0.027,0v-0.002
		c0.049-0.001,0.099-0.001,0.148,0.001c1.342,0.048,2.391,1.176,2.343,2.518c-0.048,1.343-1.176,2.392-2.518,2.343H57.574
		C57.51,172.515,57.445,172.515,57.381,172.512z M74.069,229.344c-1.169,0.663-2.653,0.253-3.316-0.916
		c-0.663-1.168-0.253-2.653,0.916-3.316l24.744-14.284c0.399-0.238,0.857-0.356,1.321-0.341l0.002,0.001
		c0.851,0.028,1.625,0.499,2.041,1.241c0.657,1.172,0.24,2.654-0.932,3.311l-24.74,14.284
		C74.092,229.331,74.08,229.338,74.069,229.344z M99.428,242.507c-0.95-0.95-0.95-2.49,0-3.44l10.101-10.101
		c0.44-0.453,1.039-0.718,1.67-0.737v0.001c0.684-0.022,1.345,0.246,1.822,0.737c0.936,0.964,0.913,2.504-0.051,3.439l-10.1,10.101
		C101.919,243.456,100.378,243.456,99.428,242.507z M131.104,245.523l-14.287,24.74c-0.013,0.024-0.027,0.048-0.042,0.072
		c-0.692,1.152-2.186,1.525-3.337,0.833c-1.152-0.692-1.525-2.186-0.833-3.337l14.283-24.743c0.434-0.777,1.258-1.255,2.148-1.246
		v0.001c0.433,0.003,0.857,0.122,1.229,0.345C131.418,242.877,131.793,244.37,131.104,245.523z M152.027,253.498l-3.698,13.795
		c-0.014,0.062-0.03,0.123-0.049,0.183c-0.397,1.283-1.76,2.001-3.043,1.604s-2.001-1.76-1.604-3.043l3.695-13.799
		c0.262-1.033,1.167-1.775,2.231-1.83c0.077-0.004,0.155-0.004,0.232,0v-0.001l0.011-0.001c0.186,0.009,0.37,0.039,0.548,0.089
		C151.642,250.861,152.393,252.206,152.027,253.498z M174.281,284.358c-0.005,1.337-1.087,2.419-2.424,2.424
		c-1.344,0.005-2.437-1.08-2.442-2.424V255.79c-0.019-1.342,1.054-2.446,2.396-2.466h-0.002c0.024,0,0.049,0,0.073,0
		c1.343,0.019,2.417,1.123,2.398,2.466v28.568H174.281z M198.334,269.052c-1.302,0.331-2.626-0.456-2.957-1.758l-3.695-13.795
		c-0.066-0.234-0.097-0.477-0.092-0.72c0.031-1.343,1.145-2.406,2.488-2.375l-0.001-0.001c1.092,0.026,2.033,0.776,2.3,1.835
		l3.699,13.799c0.005,0.019,0.01,0.038,0.015,0.057C200.423,267.396,199.636,268.72,198.334,269.052z M173.039,239.531
		c-0.749,0.43-1.67,0.43-2.419,0c0,0-17.764-10.188-35.565-24.933c-17.801-14.746-36.108-33.944-36.108-53.476
		c0-21.928,18.172-40.871,40.651-40.872h0.007c12.827,0.005,24.632,6.294,32.266,16.496c7.625-10.19,19.414-16.487,32.227-16.496
		c22.481,0,40.654,18.943,40.654,40.872c0,19.533-18.315,38.733-36.126,53.479C190.815,229.346,173.039,239.531,173.039,239.531z
		 M230.177,271.24c-1.18,0.641-2.657,0.204-3.298-0.976l-14.284-24.74c-0.209-0.35-0.326-0.746-0.342-1.153
		c-0.051-1.342,0.995-2.472,2.337-2.524l0.001-0.002c0.913-0.035,1.769,0.446,2.215,1.243l14.283,24.744
		c0.022,0.036,0.043,0.073,0.063,0.11C231.795,269.122,231.358,270.598,230.177,271.24z M244.271,242.557
		c-0.964,0.936-2.504,0.913-3.44-0.051l-10.101-10.101c-0.471-0.458-0.737-1.087-0.737-1.744c0-1.343,1.089-2.432,2.432-2.432l0,0
		c0.657,0,1.287,0.266,1.745,0.737l10.1,10.101c0.017,0.017,0.034,0.034,0.051,0.051
		C245.257,240.081,245.235,241.621,244.271,242.557z M272.945,228.542c-0.709,1.141-2.209,1.491-3.35,0.782l-24.74-14.284
		c-0.797-0.446-1.276-1.301-1.242-2.213c0.05-1.342,1.179-2.39,2.521-2.34c-0.001,0-0.002,0-0.002,0h0.003l0,0
		c0.406,0.016,0.802,0.133,1.151,0.341l24.74,14.284c0.047,0.025,0.093,0.052,0.138,0.08
		C273.304,225.901,273.654,227.401,272.945,228.542z M286.119,172.512h-28.568c-0.064,0.003-0.129,0.003-0.193,0
		c-1.342-0.053-2.387-1.185-2.334-2.527c0.053-1.342,1.185-2.387,2.527-2.333h28.568c0.009,0,0.018,0,0.027,0v-0.002
		c0.049-0.001,0.099-0.001,0.148,0.001c1.342,0.048,2.391,1.176,2.343,2.518C288.589,171.511,287.461,172.561,286.119,172.512z"/>
</g>
</svg>
