<?xml version="1.0" encoding="utf-8"?>
<!-- Generator: Adobe Illustrator 26.0.1, SVG Export Plug-In . SVG Version: 6.00 Build 0)  -->
<svg version="1.1" id="Layer_1" xmlns="http://www.w3.org/2000/svg" xmlns:xlink="http://www.w3.org/1999/xlink" x="0px" y="0px"
	 viewBox="0 0 343 570" enable-background="new 0 0 343 570" xml:space="preserve">
<g>
	<path fill="#58595B" d="M109.171,518.074H93.864v-1.733c0.553-0.016,1.265-0.073,2.136-0.171s1.469-0.236,1.794-0.415
		c0.504-0.309,0.875-0.663,1.111-1.062c0.236-0.398,0.354-0.899,0.354-1.501v-25.195h-0.366l-11.816,29.517h-1.221l-11.255-30.127
		h-0.317v20.679c0,2.002,0.126,3.524,0.378,4.565c0.252,1.042,0.639,1.791,1.16,2.246c0.358,0.342,1.099,0.667,2.222,0.977
		s1.855,0.472,2.197,0.488v1.733h-13.99v-1.733c0.732-0.065,1.501-0.187,2.307-0.366s1.428-0.447,1.868-0.806
		c0.569-0.456,0.96-1.155,1.172-2.1c0.211-0.944,0.317-2.522,0.317-4.736v-17.725c0-1.025-0.122-1.863-0.366-2.515
		c-0.244-0.651-0.594-1.18-1.05-1.587c-0.505-0.439-1.123-0.765-1.855-0.977c-0.732-0.211-1.457-0.333-2.173-0.366v-1.733h11.812
		l9.924,26.003l8.472-21.753c0.309-0.798,0.573-1.632,0.792-2.504c0.22-0.871,0.338-1.453,0.354-1.747h11.297v1.733
		c-0.456,0.017-1.038,0.09-1.746,0.22c-0.708,0.13-1.225,0.252-1.55,0.366c-0.554,0.195-0.928,0.521-1.123,0.977
		s-0.293,0.952-0.293,1.489v24.976c0,0.57,0.098,1.05,0.293,1.44s0.569,0.732,1.123,1.025c0.293,0.163,0.813,0.313,1.562,0.452
		c0.749,0.139,1.343,0.216,1.782,0.232v1.734H109.171z"/>
	<path fill="#58595B" d="M136.001,517.634c-0.765,0.277-1.437,0.5-2.014,0.671c-0.578,0.171-1.233,0.256-1.965,0.256
		c-1.27,0-2.283-0.297-3.04-0.891s-1.241-1.46-1.453-2.6h-0.146c-1.058,1.172-2.193,2.067-3.406,2.686
		c-1.213,0.618-2.673,0.928-4.382,0.928c-1.807,0-3.292-0.554-4.456-1.66c-1.164-1.106-1.746-2.555-1.746-4.346
		c0-0.928,0.13-1.758,0.391-2.49c0.26-0.732,0.651-1.392,1.172-1.978c0.407-0.488,0.944-0.923,1.611-1.306
		c0.667-0.382,1.294-0.688,1.88-0.916c0.732-0.276,2.217-0.789,4.456-1.538c2.238-0.749,3.748-1.334,4.529-1.758v-2.417
		c0-0.211-0.045-0.618-0.134-1.221c-0.09-0.602-0.281-1.172-0.574-1.709c-0.326-0.602-0.786-1.127-1.379-1.575
		c-0.594-0.447-1.437-0.671-2.527-0.671c-0.749,0-1.445,0.126-2.087,0.378c-0.643,0.252-1.095,0.517-1.355,0.793
		c0,0.326,0.077,0.806,0.232,1.44c0.154,0.635,0.232,1.221,0.232,1.758c0,0.57-0.256,1.091-0.769,1.562
		c-0.513,0.472-1.225,0.708-2.136,0.708c-0.814,0-1.412-0.289-1.794-0.867c-0.383-0.578-0.574-1.225-0.574-1.941
		c0-0.749,0.264-1.465,0.793-2.148c0.529-0.684,1.216-1.294,2.063-1.831c0.732-0.456,1.619-0.842,2.661-1.16
		c1.042-0.317,2.059-0.476,3.052-0.476c1.367,0,2.559,0.094,3.577,0.281c1.017,0.188,1.941,0.59,2.771,1.208
		c0.83,0.603,1.46,1.42,1.892,2.454c0.431,1.034,0.647,2.364,0.647,3.992c0,2.328-0.024,4.391-0.073,6.189
		c-0.049,1.799-0.073,3.764-0.073,5.896c0,0.635,0.11,1.14,0.33,1.514c0.22,0.375,0.557,0.692,1.013,0.952
		c0.244,0.146,0.63,0.228,1.16,0.244c0.529,0.017,1.07,0.024,1.624,0.024v1.565H136.001z M127.482,504.744
		c-1.384,0.408-2.596,0.808-3.638,1.199c-1.042,0.392-2.01,0.881-2.905,1.468c-0.814,0.555-1.457,1.211-1.929,1.97
		c-0.472,0.758-0.708,1.66-0.708,2.704c0,1.354,0.354,2.349,1.062,2.985s1.607,0.954,2.698,0.954c1.155,0,2.173-0.281,3.052-0.844
		c0.879-0.562,1.619-1.227,2.222-1.994L127.482,504.744z"/>
	<path fill="#58595B" d="M159.025,515.583c0.651,0.619,1.164,1.318,1.538,2.1c0.374,0.781,0.562,1.75,0.562,2.905
		s-0.252,2.242-0.757,3.259c-0.505,1.017-1.27,1.9-2.295,2.649c-1.091,0.765-2.393,1.359-3.906,1.782
		c-1.514,0.423-3.386,0.635-5.615,0.635c-3.646,0-6.372-0.533-8.179-1.599s-2.71-2.625-2.71-4.675c0-1.66,0.651-2.971,1.953-3.931
		s2.962-1.481,4.98-1.562v-0.342c-0.488-0.146-0.993-0.33-1.514-0.549c-0.521-0.22-0.969-0.476-1.343-0.769
		c-0.423-0.342-0.765-0.745-1.025-1.208c-0.261-0.464-0.391-1.038-0.391-1.721c0-0.862,0.305-1.656,0.916-2.38
		c0.61-0.724,1.534-1.347,2.771-1.868v-0.366c-1.562-0.732-2.775-1.672-3.638-2.82c-0.863-1.147-1.294-2.478-1.294-3.992
		c0-2.278,0.85-4.15,2.551-5.615c1.701-1.465,3.877-2.197,6.531-2.197c0.732,0,1.46,0.073,2.185,0.22
		c0.724,0.146,1.46,0.334,2.209,0.562h8.398v2.344h-5.664v0.146c0.602,0.7,1.05,1.473,1.343,2.319
		c0.293,0.847,0.439,1.677,0.439,2.49c0,2.116-0.859,3.906-2.576,5.371c-1.717,1.465-3.715,2.197-5.994,2.197h-2.954
		c-0.375,0.13-0.765,0.366-1.172,0.708s-0.61,0.806-0.61,1.392c0,0.603,0.171,1.062,0.513,1.379s0.757,0.533,1.245,0.647
		c0.472,0.13,1.021,0.212,1.648,0.244c0.626,0.033,1.273,0.057,1.941,0.073c0.716,0.017,1.697,0.065,2.942,0.146
		c1.245,0.082,2.128,0.13,2.649,0.146c0.749,0.033,1.501,0.212,2.258,0.537C157.719,514.566,158.406,515.014,159.025,515.583z
		 M157.12,521.492c0-0.912-0.212-1.66-0.635-2.246c-0.423-0.586-1.066-0.985-1.929-1.196c-0.456-0.065-1.392-0.138-2.808-0.22
		c-1.416-0.081-3.06-0.122-4.932-0.122c-1.758,0.342-3.007,0.916-3.748,1.721c-0.741,0.806-1.111,1.843-1.111,3.113
		c0,0.569,0.122,1.115,0.366,1.636s0.667,1.001,1.27,1.44c0.569,0.423,1.334,0.769,2.295,1.038c0.96,0.269,2.132,0.403,3.516,0.403
		c2.393,0,4.276-0.46,5.652-1.379C156.432,524.759,157.12,523.363,157.12,521.492z M152.432,501.301c0-1.904-0.387-3.422-1.16-4.553
		c-0.773-1.131-1.86-1.697-3.259-1.697c-0.765,0-1.42,0.159-1.965,0.476c-0.545,0.317-0.989,0.769-1.331,1.355
		c-0.326,0.537-0.558,1.184-0.696,1.941c-0.139,0.757-0.208,1.534-0.208,2.332c0,1.807,0.395,3.28,1.184,4.419
		c0.789,1.14,1.811,1.709,3.064,1.709c1.399,0,2.478-0.565,3.235-1.697C152.055,504.455,152.432,503.027,152.432,501.301z"/>
	<path fill="#58595B" d="M186.661,517.634c-0.765,0.277-1.437,0.5-2.014,0.671c-0.578,0.171-1.233,0.256-1.965,0.256
		c-1.27,0-2.283-0.297-3.04-0.891s-1.241-1.46-1.453-2.6h-0.146c-1.058,1.172-2.193,2.067-3.406,2.686
		c-1.213,0.618-2.673,0.928-4.382,0.928c-1.807,0-3.292-0.554-4.456-1.66c-1.164-1.106-1.746-2.555-1.746-4.346
		c0-0.928,0.13-1.758,0.391-2.49c0.26-0.732,0.651-1.392,1.172-1.978c0.407-0.488,0.944-0.923,1.611-1.306
		c0.667-0.382,1.294-0.688,1.88-0.916c0.732-0.276,2.217-0.789,4.456-1.538c2.238-0.749,3.748-1.334,4.529-1.758v-2.417
		c0-0.211-0.045-0.618-0.134-1.221c-0.09-0.602-0.281-1.172-0.574-1.709c-0.326-0.602-0.786-1.127-1.379-1.575
		c-0.594-0.447-1.437-0.671-2.527-0.671c-0.749,0-1.445,0.126-2.087,0.378c-0.643,0.252-1.095,0.517-1.355,0.793
		c0,0.326,0.077,0.806,0.232,1.44c0.154,0.635,0.232,1.221,0.232,1.758c0,0.57-0.256,1.091-0.769,1.562
		c-0.513,0.472-1.225,0.708-2.136,0.708c-0.814,0-1.412-0.289-1.794-0.867c-0.383-0.578-0.574-1.225-0.574-1.941
		c0-0.749,0.264-1.465,0.793-2.148c0.529-0.684,1.216-1.294,2.063-1.831c0.732-0.456,1.619-0.842,2.661-1.16
		c1.042-0.317,2.059-0.476,3.052-0.476c1.367,0,2.559,0.094,3.577,0.281c1.017,0.188,1.941,0.59,2.771,1.208
		c0.83,0.603,1.46,1.42,1.892,2.454c0.431,1.034,0.647,2.364,0.647,3.992c0,2.328-0.024,4.391-0.073,6.189
		c-0.049,1.799-0.073,3.764-0.073,5.896c0,0.635,0.11,1.14,0.33,1.514c0.22,0.375,0.557,0.692,1.013,0.952
		c0.244,0.146,0.63,0.228,1.16,0.244c0.529,0.017,1.07,0.024,1.624,0.024v1.565H186.661z M178.141,504.744
		c-1.384,0.408-2.596,0.808-3.638,1.199c-1.042,0.392-2.01,0.881-2.905,1.468c-0.814,0.555-1.457,1.211-1.929,1.97
		c-0.472,0.758-0.708,1.66-0.708,2.704c0,1.354,0.354,2.349,1.062,2.985s1.607,0.954,2.698,0.954c1.155,0,2.173-0.281,3.052-0.844
		c0.879-0.562,1.619-1.227,2.222-1.994L178.141,504.744z"/>
	<path fill="#58595B" d="M208.122,518.074H188.64v-1.294l13.646-20.801h-3.376c-1.419,0-2.528,0.024-3.327,0.073
		s-1.533,0.212-2.202,0.488c-0.457,0.179-0.884,0.692-1.284,1.538c-0.4,0.847-0.746,1.953-1.04,3.32h-1.489v-7.397h18.408v1.001
		l-13.839,21.094c0.585,0.017,1.228,0.029,1.928,0.037s1.457,0.012,2.27,0.012c0.651,0,1.33-0.008,2.038-0.024
		s1.615-0.057,2.721-0.122c0.651-0.032,1.143-0.252,1.477-0.659c0.333-0.407,0.59-0.871,0.769-1.392
		c0.179-0.472,0.395-1.123,0.646-1.953s0.476-1.636,0.671-2.417h1.465V518.074z"/>
	<path fill="#58595B" d="M222.915,518.074h-11.621v-1.611c0.374-0.032,0.761-0.065,1.16-0.098c0.398-0.032,0.745-0.097,1.038-0.195
		c0.456-0.146,0.793-0.402,1.013-0.768s0.33-0.841,0.33-1.427v-14.851c0-0.52-0.118-0.996-0.354-1.427
		c-0.236-0.431-0.566-0.792-0.989-1.085c-0.31-0.195-0.757-0.361-1.343-0.5s-1.123-0.224-1.611-0.256v-1.611l8.496-0.537
		l0.342,0.342v19.629c0,0.57,0.109,1.042,0.327,1.416c0.218,0.375,0.562,0.651,1.03,0.83c0.356,0.146,0.703,0.265,1.043,0.354
		c0.339,0.09,0.719,0.151,1.14,0.183L222.915,518.074L222.915,518.074z M219.865,484.211c0,0.928-0.305,1.738-0.916,2.429
		c-0.61,0.692-1.363,1.038-2.258,1.038c-0.83,0-1.55-0.33-2.161-0.989s-0.916-1.412-0.916-2.258c0-0.895,0.305-1.676,0.916-2.344
		c0.61-0.667,1.331-1.001,2.161-1.001c0.928,0,1.688,0.313,2.283,0.94C219.566,482.653,219.865,483.381,219.865,484.211z"/>
	<path fill="#58595B" d="M252.482,518.074h-11.768v-1.611c0.374-0.032,0.785-0.065,1.233-0.098c0.447-0.032,0.818-0.098,1.111-0.195
		c0.456-0.146,0.793-0.403,1.013-0.769s0.33-0.842,0.33-1.428v-12.378c0-1.709-0.404-3.027-1.211-3.955s-1.791-1.392-2.949-1.392
		c-0.865,0-1.656,0.134-2.374,0.403s-1.354,0.598-1.909,0.989c-0.539,0.375-0.966,0.777-1.285,1.208
		c-0.318,0.432-0.551,0.777-0.697,1.038v13.843c0,0.554,0.114,1.009,0.342,1.367c0.228,0.358,0.569,0.635,1.025,0.83
		c0.342,0.163,0.712,0.285,1.111,0.366c0.398,0.082,0.81,0.139,1.233,0.171v1.611h-11.792v-1.611
		c0.374-0.032,0.761-0.065,1.16-0.098c0.398-0.032,0.745-0.097,1.038-0.195c0.456-0.146,0.793-0.402,1.013-0.768
		s0.33-0.841,0.33-1.427v-14.851c0-0.553-0.118-1.061-0.354-1.524c-0.236-0.463-0.566-0.841-0.989-1.134
		c-0.31-0.195-0.676-0.337-1.099-0.426s-0.879-0.15-1.367-0.183v-1.611l8.008-0.537l0.342,0.342v3.394h0.122
		c0.391-0.391,0.879-0.858,1.465-1.404c0.586-0.545,1.139-0.989,1.66-1.331c0.602-0.391,1.318-0.716,2.148-0.977
		c0.83-0.26,1.766-0.391,2.808-0.391c2.311,0,4.024,0.72,5.139,2.161c1.115,1.44,1.672,3.357,1.672,5.75v12.524
		c0,0.57,0.098,1.03,0.293,1.379c0.195,0.35,0.529,0.623,1.001,0.818c0.391,0.163,0.728,0.277,1.013,0.342s0.679,0.114,1.184,0.146
		V518.074z"/>
	<path fill="#58595B" d="M276.823,512.41c-1.009,1.921-2.36,3.451-4.053,4.59c-1.693,1.139-3.638,1.709-5.835,1.709
		c-1.937,0-3.634-0.342-5.09-1.025c-1.457-0.684-2.657-1.611-3.601-2.783s-1.648-2.539-2.112-4.102s-0.696-3.214-0.696-4.956
		c0-1.562,0.248-3.096,0.745-4.602c0.496-1.505,1.225-2.86,2.185-4.065c0.928-1.155,2.079-2.087,3.455-2.795
		c1.375-0.708,2.917-1.062,4.626-1.062c1.758,0,3.263,0.277,4.517,0.83c1.253,0.554,2.271,1.311,3.052,2.271
		c0.749,0.912,1.306,1.986,1.672,3.223s0.549,2.58,0.549,4.028v1.611h-15.943c0,1.583,0.15,3.018,0.452,4.307
		c0.301,1.289,0.777,2.422,1.428,3.401c0.635,0.946,1.465,1.692,2.49,2.239s2.246,0.82,3.662,0.82c1.448,0,2.698-0.339,3.748-1.019
		s2.063-1.902,3.04-3.669L276.823,512.41z M271.427,503.23c0-0.909-0.078-1.882-0.232-2.92c-0.155-1.039-0.403-1.907-0.745-2.605
		c-0.375-0.746-0.887-1.354-1.538-1.825s-1.489-0.706-2.515-0.706c-1.709,0-3.129,0.71-4.26,2.13s-1.746,3.396-1.843,5.927
		L271.427,503.23L271.427,503.23z"/>
</g>
<g>
	<path fill="#008A46" d="M241.854,167.503c-0.886,0.547-1.824,0.938-2.788,1.329c-2.684,1.199-5.211,2.684-7.739,4.195
		c-1.355,0.808-2.684,1.563-4.091,2.241c-1.381,0.677-2.788,1.303-4.117,2.058c-0.104,0.052-0.234,0.052-0.339,0.104
		c0.261,2.449,0.547,4.898,0.886,7.348c-0.052-0.208-0.078-0.417-0.104-0.625c0.625,4.117,1.172,8.26,1.641,12.428
		c0.234,1.954,0.313,3.908,0.417,5.863c0.078,1.381,0.104,2.762,0.208,4.143c1.563-1.146,3.153-2.241,4.794-3.283
		c2.137-1.329,4.351-2.501,6.462-3.856c2.032-1.329,4.091-2.632,6.045-4.039c0.938-0.677,1.876-1.329,2.866-1.954
		c0.912-0.573,1.798-1.094,2.658-1.694c0.026,0,0.052-0.026,0.078-0.052c0.495-0.443,1.016-0.73,1.694-0.73
		c0.026,0,0.026,0,0.026,0.026c0.026,0,0.052,0.026,0.078,0.026c-0.026-0.234-0.052-0.469-0.052-0.703
		c0-0.625-0.078-1.225-0.156-1.85c-0.13-1.068-0.261-2.136-0.287-3.231c-0.078-2.189-0.261-4.351-0.573-6.514
		c-0.026-0.104-0.026-0.208-0.052-0.313c0,0.078,0.026,0.156,0.026,0.234c-0.339-2.215-0.677-4.403-0.782-6.618
		c-0.104-1.902-0.234-3.804-0.469-5.68c-0.156-0.834-0.313-1.615-0.495-2.423c-1.068,0.677-2.111,1.355-3.205,1.954
		C243.599,166.408,242.741,166.982,241.854,167.503z"/>
	<path fill="#008A46" d="M195.684,136.34c3.049-1.641,6.019-3.361,9.093-4.951c2.267-1.173,4.534-2.293,6.827-3.387
		c2.475-1.173,4.925-2.423,7.4-3.648c2.215-1.094,4.403-2.241,6.644-3.309c1.146-0.547,2.293-1.042,3.465-1.563
		c1.146-0.495,2.345-0.938,3.517-1.407c0.834-0.365,1.642-0.756,2.423-1.225c0.782-0.469,1.485-0.99,2.215-1.511
		c1.199-0.834,2.527-1.459,3.7-2.293c0.052-0.052,0.104-0.078,0.156-0.13c0.495-0.443,1.016-0.73,1.694-0.73
		c0.026,0,0.026,0,0.052,0c0.026-0.964-0.104-1.902-0.052-2.866c0.026-0.886,0.13-1.798,0.078-2.684
		c-0.104-0.521-0.287-1.016-0.391-1.537c-0.156-0.782-0.261-1.589-0.339-2.397c-0.078-1.173-0.182-2.345-0.339-3.518
		c-0.026-0.313-0.078-0.599-0.13-0.912c-0.651,0.391-1.303,0.781-1.98,1.12c-0.73,0.391-1.459,0.782-2.189,1.146
		c-0.651,0.339-1.329,0.651-1.928,1.068c-1.902,1.303-3.752,2.736-5.784,3.856c-2.163,1.199-4.403,2.241-6.566,3.439
		c-1.094,0.625-2.215,1.251-3.309,1.928c-1.146,0.703-2.293,1.433-3.465,2.11c-2.11,1.251-4.403,2.267-6.618,3.309
		c-2.345,1.094-4.664,2.241-6.957,3.465c-2.397,1.277-4.742,2.632-7.139,3.96c-2.163,1.199-4.403,2.267-6.67,3.335
		c-1.876,0.86-3.778,1.668-5.654,2.475c0.104,0.547,0.208,1.094,0.261,1.642c0.156,1.225,0.287,2.449,0.391,3.674
		c0.208,2.241,0.443,4.455,0.73,6.67c0.834-0.339,1.642-0.651,2.449-0.99C190.107,139.206,192.921,137.825,195.684,136.34z"/>
	<path fill="#008A46" d="M122.962,147.544c0-1.876-0.026-3.778-0.078-5.654c-0.078-3.101-0.182-6.201-0.287-9.302
		c-0.573-0.078-1.172-0.182-1.772-0.26c-3.283-0.365-6.54-0.625-9.797-1.094c-3.179-0.443-6.332-0.886-9.51-1.355
		c-1.251-0.156-2.475-0.261-3.726-0.365c0.052,1.329,0.156,2.658,0.339,4.012c0.313,2.371,0.573,4.742,0.86,7.113
		s0.573,4.742,0.782,7.139c0.13,1.537,0.182,3.101,0.234,4.664c0.808,0.208,1.589,0.469,2.397,0.651
		c1.537,0.365,3.127,0.573,4.69,0.834c2.918,0.495,5.862,0.886,8.781,1.277c1.537,0.156,3.075,0.261,4.638,0.287
		c1.173,0.026,2.163,0.834,2.397,1.98c0.182-0.13,0.365-0.261,0.573-0.339c0-0.234,0-0.443,0-0.677
		c-0.026-1.146-0.026-2.293-0.182-3.439C123.04,151.192,122.962,149.368,122.962,147.544z"/>
	<path fill="#008A46" d="M178.904,244.862c-0.052-1.876-0.391-3.7-0.521-5.55c-0.156-1.928-0.104-3.882-0.261-5.811
		c-0.182-2.032-0.391-4.039-0.599-6.071c-0.208-2.006-0.365-4.039-0.547-6.045c-0.469-5.081-1.146-10.136-1.485-15.243
		c-0.182-2.684-0.339-5.394-0.495-8.077c-0.13-2.371-0.391-4.716-0.703-7.061c-0.443-2.579-0.964-5.133-1.277-7.739
		c-0.313-2.553-0.469-5.081-0.651-7.634c-0.182-2.736-0.443-5.446-0.651-8.181c-0.208-2.684-0.339-5.367-0.521-8.051
		c-0.182-2.501-0.417-4.977-0.521-7.478c-0.13-2.632-0.182-5.289-0.339-7.947c-0.078-1.329-0.13-2.684-0.261-4.013
		c-0.13-1.381-0.287-2.762-0.469-4.117c-0.339-2.527-0.547-5.081-0.703-7.634c-0.104-1.511-0.156-3.022-0.182-4.534
		c-1.589-0.13-3.205-0.339-4.794-0.547c-1.563-0.156-3.127-0.287-4.69-0.495c-1.485-0.182-2.996-0.391-4.482-0.573
		c-0.704-0.078-1.407-0.182-2.111-0.261c0.13,0.026,0.261,0.026,0.391,0.052c-2.918-0.313-5.836-0.365-8.729-0.651
		c-3.075-0.313-6.123-0.86-9.198-1.277c-0.547-0.052-1.094-0.13-1.641-0.182c-2.658-0.313-5.315-0.547-7.973-0.834
		s-5.315-0.573-7.947-0.938c-2.71-0.339-5.446-0.756-8.155-1.12c-2.501-0.339-5.003-0.677-7.504-0.99
		c-3.283-0.339-6.566-0.677-9.823-1.146c-2.293-0.339-4.56-0.782-6.853-1.199c0.104,1.016,0.182,2.032,0.208,3.049
		c0.078,2.58,0.13,5.185,0.208,7.765c0.078,2.605,0.287,5.185,0.469,7.791c0.339,4.872,0.417,9.745,0.547,14.617
		c0.287,11.412,0.677,22.851,1.016,34.263c0.052,1.277,0.078,2.527,0.104,3.804c0.026,0.547,0.026,1.12,0.052,1.694
		s0.104,1.199,0.052,1.798c-0.078,0.704,0.026,1.459,0.052,2.189c0.026,0.547,0.052,1.094,0.078,1.641
		c0.078,1.303,0.13,2.579,0.208,3.856c0.182,2.501,0.391,5.029,0.599,7.53c0.208,2.71,0.339,5.394,0.495,8.103
		c0.13,2.397,0.234,4.82,0.469,7.218c0.234,2.449,0.547,4.872,0.808,7.296c0.261,2.371,0.339,4.742,0.495,7.113
		c0.078,1.225,0.182,2.475,0.261,3.7c0.078,1.146,0.13,2.267,0.261,3.413c0.052,0.339,0.104,0.677,0.182,1.016
		c0,0.026,0,0.078,0,0.104c0.078-0.026,0.156-0.078,0.234-0.104c0.208-0.078,0.417-0.104,0.573,0c0.443,0,0.86,0.13,1.277,0.313
		c0.417,0.182,0.808,0.365,1.225,0.547c0.834,0.287,1.694,0.417,2.579,0.547c3.101,0.339,6.201,0.547,9.328,0.756
		c1.589,0.104,3.179,0.234,4.768,0.287c1.615,0.026,3.231,0.026,4.872,0c2.658-0.052,5.289-0.052,7.947-0.026
		c2.423,0.052,4.872,0.287,7.296,0.495c2.632,0.234,5.263,0.547,7.895,0.547c2.527,0,5.055-0.026,7.582,0.078
		c2.449,0.104,4.872,0.235,7.322,0.365c1.251,0.078,2.501,0.182,3.752,0.234c1.199,0.052,2.371,0.078,3.57,0.13
		c2.293,0.104,4.586,0.234,6.879,0.234c1.277,0,2.527-0.052,3.804-0.026c1.172,0.026,2.371-0.026,3.544,0.104
		c0.677,0.052,1.251,0.208,1.772,0.704c0.339,0.313,0.521,0.729,0.625,1.172c0.156-0.078,0.313-0.208,0.469-0.286
		c0.391-0.182,0.782-0.391,1.173-0.573C179.477,246.556,178.93,245.774,178.904,244.862z M95.448,204.736
		c-0.026-1.251,1.042-2.501,2.397-2.527c0.026,0,0.052,0,0.078,0c2.319,0.104,4.612,0.182,6.931,0.391
		c2.397,0.208,4.768,0.469,7.165,0.782c4.325,0.599,8.598,1.563,12.924,2.189c0.625,0.104,1.225,0.625,1.511,1.146
		c0.313,0.573,0.417,1.251,0.261,1.876c-0.182,0.625-0.573,1.173-1.146,1.511c-0.625,0.365-1.199,0.339-1.876,0.26
		c-2.475-0.339-4.924-0.808-7.374-1.251c-2.345-0.417-4.664-0.808-7.009-1.12c-1.85-0.208-3.726-0.365-5.576-0.547
		c-1.928-0.182-3.856-0.208-5.784-0.287C96.619,207.107,95.473,206.143,95.448,204.736z M98.313,172.193
		c0.182,0,0.391,0,0.573,0.052c3.7,0.782,7.478,1.12,11.204,1.642c3.544,0.495,7.087,0.938,10.631,1.381
		c1.146,0.13,2.267,0.234,3.413,0.443c1.329,0.235,2.084,1.772,1.772,2.996c-0.182,0.651-0.573,1.172-1.146,1.511
		c-0.599,0.339-1.199,0.365-1.876,0.26c-0.417-0.078-0.808-0.156-1.225-0.208c-3.856-0.469-7.739-0.938-11.595-1.485
		c-2.058-0.287-4.117-0.573-6.175-0.834c-2.084-0.261-4.169-0.547-6.227-0.99c-1.329-0.287-2.084-1.746-1.772-2.996
		C96.176,172.818,97.219,172.141,98.313,172.193z M96.802,165.001c0.182-0.651,0.573-1.173,1.146-1.511
		c0.391-0.235,0.782-0.313,1.199-0.365c0.208,0,0.417,0.026,0.651,0.052c1.798,0.26,3.544,0.573,5.315,0.964
		c1.641,0.365,3.283,0.782,4.924,1.172c1.563,0.391,3.153,0.703,4.742,1.042c1.798,0.391,3.596,0.756,5.42,1.016
		c0.625,0.104,1.225,0.625,1.511,1.146c0.313,0.573,0.417,1.251,0.261,1.876c-0.182,0.625-0.573,1.172-1.146,1.511
		c-0.625,0.365-1.199,0.365-1.876,0.26c-6.879-0.964-13.497-3.231-20.375-4.195c-0.625-0.078-1.225-0.599-1.511-1.12
		C96.75,166.304,96.646,165.627,96.802,165.001z M123.275,190.797c-0.391,0.417-1.094,0.782-1.694,0.73
		c-3.075-0.313-6.149-0.547-9.224-0.834c-2.996-0.287-5.967-0.834-8.963-1.225c-1.199-0.104-2.371-0.182-3.57-0.287
		c-0.677-0.052-1.277-0.208-1.772-0.704c-0.443-0.443-0.73-1.068-0.73-1.694c0-0.651,0.261-1.303,0.73-1.772
		c0.391-0.391,1.016-0.73,1.615-0.73c0.026,0,0.078,0,0.104,0c2.215,0.208,4.456,0.365,6.67,0.703
		c1.668,0.26,3.361,0.521,5.029,0.729c3.335,0.287,6.696,0.573,10.031,0.886c0.677,0.078,1.251,0.208,1.772,0.729
		c0.443,0.443,0.73,1.042,0.73,1.694C124.005,189.676,123.743,190.328,123.275,190.797z M123.743,198.9
		c-0.156,0.651-0.573,1.172-1.12,1.511c-0.599,0.339-1.199,0.365-1.876,0.26c-1.902-0.313-3.804-0.547-5.706-0.782
		c-2.527-0.26-5.081-0.573-7.608-0.886c-2.632-0.287-5.263-0.573-7.921-0.573c-1.329,0-2.475-1.068-2.501-2.423
		c0-1.329,1.094-2.501,2.449-2.501c3.804,0,7.608,0.521,11.412,0.99c3.7,0.417,7.452,0.782,11.126,1.407
		C123.326,196.112,124.083,197.675,123.743,198.9z M100.997,213.178c0.156-0.625,0.573-1.172,1.12-1.511
		c0.391-0.234,0.808-0.313,1.277-0.339c0.208,0,0.417,0.026,0.651,0.078c1.12,0.182,2.267,0.391,3.387,0.625
		c1.068,0.234,2.111,0.469,3.205,0.651c3.179,0.339,6.384,0.573,9.562,0.834c0.677,0.052,1.277,0.208,1.772,0.703
		c0.443,0.443,0.73,1.042,0.73,1.694c0,0.651-0.261,1.303-0.73,1.772c-0.391,0.417-1.094,0.781-1.694,0.729
		c-2.944-0.234-5.889-0.417-8.833-0.729c-0.938-0.104-1.85-0.208-2.788-0.339c-0.651-0.104-1.277-0.26-1.928-0.417
		c-1.329-0.287-2.632-0.521-3.96-0.756C101.441,215.94,100.684,214.403,100.997,213.178z M104.15,221.49c0.026,0,0.026,0,0.052,0
		c2.788,0.078,5.602,0.261,8.416,0.443c2.788,0.208,5.602,0.312,8.39,0.495c0.677,0.052,1.277,0.234,1.772,0.73
		c0.469,0.443,0.73,1.068,0.73,1.694c0.026,1.251-1.094,2.579-2.423,2.501c-2.788-0.182-5.602-0.287-8.39-0.495
		s-5.602-0.365-8.416-0.443c-1.355-0.026-2.475-1.042-2.501-2.423C101.753,222.715,102.822,221.49,104.15,221.49z M127.262,233.71
		c-0.339,1.277-1.694,2.084-2.996,1.746c-0.782-0.182-1.589-0.313-2.371-0.417c-2.97-0.313-5.915-0.495-8.885-0.756
		c-1.668-0.156-3.361-0.261-5.029-0.495c-1.485-0.208-2.918-0.521-4.351-0.938c-1.303-0.365-2.111-1.667-1.772-2.996
		c0.287-1.068,1.303-1.85,2.397-1.824c0.208,0,0.417,0.026,0.625,0.078c1.407,0.417,2.814,0.73,4.273,0.938
		c2.658,0.287,5.367,0.469,8.051,0.677c1.329,0.104,2.684,0.182,4.013,0.339c1.433,0.156,2.892,0.287,4.299,0.651
		C126.792,231.052,127.6,232.407,127.262,233.71z M128.408,157.602c0,0.782,0,1.589-0.104,2.397c-0.13,0.912-1.199,1.85-2.058,2.032
		c-0.547,0.104-1.068,0.182-1.641,0.052c-0.495-0.13-0.938-0.339-1.381-0.547c-0.677-0.339-1.042-0.964-1.172-1.668
		c-0.391,0.313-0.886,0.547-1.433,0.547c-4.221-0.052-8.39-0.73-12.559-1.381c-1.98-0.313-3.987-0.573-5.941-0.99
		c-1.12-0.261-2.241-0.547-3.361-0.86c-0.339,0.182-0.677,0.313-1.068,0.313c-1.016,0-1.902-0.625-2.293-1.511
		c-0.703-0.573-1.068-1.511-0.834-2.475c0.078-0.365,0.287-0.677,0.547-0.964c-0.026-1.589-0.104-3.179-0.234-4.768
		c-0.235-2.371-0.495-4.716-0.782-7.061c-0.287-2.423-0.573-4.82-0.886-7.217c-0.182-1.407-0.261-2.814-0.313-4.221
		c-0.182,0-0.365-0.026-0.547-0.026c-1.329-0.052-2.475-1.042-2.501-2.423c-0.026-1.251,1.042-2.501,2.371-2.527
		c0.026,0,0.052,0,0.078,0c0.73,0.026,1.485,0.078,2.241,0.104c0.234-0.078,0.469-0.156,0.73-0.156c0.026,0,0.026,0,0.026,0
		c0.365,0,0.703,0.104,1.042,0.261c2.215,0.13,4.456,0.312,6.67,0.625c3.57,0.521,7.139,1.016,10.735,1.511
		c1.72,0.208,3.465,0.365,5.185,0.547c0.99,0.104,1.98,0.182,2.97,0.313c0.547,0.078,1.12,0.156,1.668,0.234
		c0.417-0.287,0.86-0.495,1.381-0.495c0,0,0.026,0,0.026,0.078c1.355,0,2.449,1.094,2.475,2.423
		c0.13,3.987,0.287,7.947,0.365,11.934c0.052,1.876,0.078,3.752,0.078,5.628c0,1.746,0,3.518,0.287,5.237
		c0.13,0.886,0.234,1.772,0.234,2.684C128.382,156.012,128.408,156.794,128.408,157.602z M164.755,186.419
		c0.339,0.573,0.417,1.251,0.261,1.876c-0.182,0.625-0.573,1.172-1.146,1.511c-0.599,0.339-1.199,0.365-1.876,0.26
		c-2.163-0.313-4.325-0.651-6.488-0.99c-1.798-0.261-3.544-0.625-5.315-0.912c-2.006-0.313-3.987-0.547-5.993-0.834
		c-1.928-0.26-3.83-0.599-5.758-0.886c-0.625-0.078-1.199-0.599-1.511-1.12c-0.339-0.547-0.417-1.225-0.26-1.85
		c0.156-0.651,0.547-1.172,1.12-1.511c0.391-0.234,0.782-0.313,1.251-0.365c0.208,0,0.417,0.026,0.651,0.052
		c1.928,0.287,3.856,0.651,5.81,0.886c2.032,0.234,4.065,0.521,6.097,0.834c1.798,0.287,3.57,0.677,5.367,0.938
		c2.084,0.313,4.195,0.651,6.279,0.964C163.869,185.377,164.443,185.898,164.755,186.419z M165.458,197.805
		c-0.182,0.625-0.573,1.173-1.146,1.511c-0.599,0.339-1.199,0.365-1.876,0.261c-3.856-0.677-7.739-1.12-11.621-1.668
		c-3.83-0.547-7.634-1.277-11.386-2.215c-1.303-0.339-2.111-1.694-1.772-2.996c0.287-1.094,1.303-1.824,2.423-1.824
		c0.208,0,0.391,0.026,0.599,0.078c3.752,0.938,7.556,1.667,11.386,2.189c3.882,0.521,7.765,0.99,11.621,1.667
		C165.016,195.044,165.771,196.581,165.458,197.805z M133.201,132.093c0.156-0.651,0.547-1.172,1.12-1.511
		c0.391-0.26,0.808-0.339,1.251-0.312c0.208,0,0.417,0.026,0.651,0.052c2.058,0.313,4.091,0.782,6.149,1.173
		c1.772,0.339,3.57,0.599,5.367,0.834c3.726,0.495,7.478,0.964,11.204,1.459c0.651,0.078,1.277,0.13,1.928,0.182
		c0.677,0.078,1.277,0.234,1.772,0.73c0.443,0.469,0.73,1.068,0.73,1.72c0,0.651-0.261,1.303-0.73,1.772
		c-0.417,0.417-1.12,0.782-1.72,0.729c-2.475-0.208-4.924-0.573-7.4-0.912c-2.032-0.287-4.091-0.495-6.149-0.782
		c-2.032-0.26-4.091-0.521-6.097-0.912c-2.11-0.391-4.195-0.886-6.305-1.225c-0.625-0.078-1.199-0.599-1.511-1.12
		C133.124,133.396,133.046,132.719,133.201,132.093z M163.27,146.163c-0.182,0.625-0.573,1.172-1.146,1.511
		c-0.625,0.365-1.199,0.339-1.876,0.26c-1.928-0.261-3.882-0.547-5.81-0.86c-1.902-0.313-3.778-0.651-5.654-0.938
		c-3.987-0.599-7.973-1.146-11.96-1.824c-1.329-0.208-2.084-1.772-1.772-2.996c0.156-0.651,0.573-1.173,1.12-1.511
		c0.391-0.235,0.782-0.313,1.251-0.339c0.208,0,0.417,0.026,0.651,0.052c3.987,0.651,7.999,1.172,11.986,1.824
		c3.804,0.625,7.608,1.251,11.438,1.798c0.625,0.104,1.199,0.625,1.511,1.146C163.348,144.86,163.426,145.538,163.27,146.163z
		 M133.202,151.687c0.313-1.12,1.329-1.824,2.449-1.824c0.182,0,0.391,0,0.573,0.052c1.303,0.287,2.606,0.651,3.934,0.886
		c1.277,0.235,2.553,0.443,3.83,0.651c2.319,0.365,4.638,0.651,6.957,0.938c3.101,0.365,6.201,0.651,9.25,1.199
		c1.329,0.234,2.084,1.772,1.772,2.996c-0.182,0.625-0.573,1.172-1.146,1.511c-0.599,0.339-1.199,0.391-1.876,0.26
		c-0.99-0.182-1.98-0.339-2.97-0.469c-3.544-0.443-7.113-0.834-10.683-1.303c-1.641-0.208-3.309-0.443-4.951-0.756
		c-1.798-0.339-3.57-0.756-5.367-1.146C133.671,154.397,132.889,152.938,133.202,151.687z M134.661,163.699
		c0.287-1.042,1.303-1.85,2.397-1.876c0.208,0,0.417,0.052,0.625,0.104c2.163,0.677,4.299,1.251,6.514,1.668
		c2.032,0.391,4.065,0.677,6.097,0.99c3.96,0.599,7.895,1.381,11.855,2.084c1.329,0.234,2.084,1.772,1.772,2.996
		c-0.182,0.651-0.573,1.173-1.146,1.511c-0.599,0.339-1.199,0.365-1.876,0.261c-3.987-0.703-7.973-1.485-11.986-2.11
		c-2.084-0.313-4.143-0.625-6.201-1.016c-2.137-0.391-4.195-0.964-6.279-1.615C135.156,166.304,134.322,165.053,134.661,163.699z
		 M135.52,175.893c-0.339-0.573-0.417-1.251-0.261-1.876c0.261-1.016,1.277-1.876,2.423-1.902c0.208,0,0.417,0.026,0.625,0.104
		c4.664,1.615,9.562,2.293,14.461,2.918c2.397,0.287,4.794,0.547,7.191,0.782c0.677,0.078,1.251,0.208,1.772,0.73
		c0.443,0.469,0.73,1.068,0.73,1.72s-0.261,1.303-0.73,1.772c-0.417,0.417-1.12,0.782-1.72,0.73
		c-3.882-0.391-7.791-0.782-11.647-1.355c-3.856-0.547-7.66-1.225-11.334-2.501C136.38,176.805,135.859,176.492,135.52,175.893z
		 M172.467,239.469c-0.078,0.156-0.208,0.26-0.339,0.391c0,0.104,0.052,0.182,0.052,0.287c0.026,0.651-0.234,1.303-0.703,1.772
		c-0.469,0.495-1.042,0.677-1.694,0.729c-0.756,0.052-1.537,0.156-2.293,0.13c-0.782-0.026-1.563-0.104-2.345-0.13
		s-1.615-0.104-2.397-0.313c-0.625-0.156-1.251-0.313-1.902-0.417c-1.589-0.156-3.179-0.313-4.742-0.625
		c-1.589-0.339-3.179-0.808-4.742-1.277c-1.589-0.469-3.153-0.808-4.768-1.12c-1.72-0.365-3.361-0.938-4.977-1.694
		c-0.86-0.391-1.225-1.329-1.199-2.241c-0.651-0.287-1.172-0.808-1.407-1.537c-0.365-1.146-0.469-2.423-0.651-3.622
		c-0.13-0.964-0.234-1.902-0.287-2.866c-0.13-1.98-0.261-3.96-0.521-5.915c0.052,0.208,0.078,0.417,0.104,0.625
		c-0.104-0.547-0.182-1.094-0.26-1.641c0-0.026,0-0.052,0-0.078l0,0c-0.052-0.182-0.078-0.365-0.078-0.547
		c-0.026-0.156-0.052-0.313-0.078-0.469c0-0.026,0-0.078,0-0.104c-0.182-1.303-0.313-2.606-0.417-3.908
		c-0.208-2.918-0.313-5.836-0.599-8.755c-0.104-0.964,0.573-1.824,1.433-2.241c0.443-0.547,1.094-0.912,1.824-0.912
		c0.756,0,1.537,0,2.319-0.026c0.651-0.026,1.303-0.13,1.954-0.13c0.104,0,0.234,0,0.339,0c1.094,0,2.215,0.104,3.257,0.521
		c0.756,0.313,1.485,0.703,2.215,1.042c0.287,0.078,0.573,0.156,0.86,0.208c0.391,0.026,0.782,0.026,1.172,0.026
		c0.547,0,1.12,0,1.668,0.052c0.677,0.078,1.303,0.208,1.98,0.391c0.313,0.078,0.599,0.13,0.912,0.182c0.391,0.026,0.782,0,1.172,0
		c0.339-0.026,0.703-0.026,1.042-0.026c0.964,0.026,1.954,0.13,2.918,0.208c1.146,0.104,2.293,0.286,3.413,0.521
		c0.339,0.078,0.703,0.156,1.042,0.234c0.547,0.13,1.016,0.339,1.485,0.547c0.287,0.156,0.547,0.339,0.756,0.573
		c0.677,0.261,1.277,0.834,1.459,1.589c0.391,1.641,0.73,3.283,0.964,4.95c0.182,1.381,0.287,2.762,0.469,4.143
		c0.156,1.12,0.339,2.241,0.443,3.361c0.104,1.042,0.182,2.084,0.261,3.127c0.13,1.954,0.208,3.908,0.469,5.837
		c0.078,0.417,0.156,0.834,0.208,1.251v0.026c0.026,0.182,0.052,0.365,0.078,0.547c0-0.026,0-0.026,0-0.052
		c0,0.078,0.026,0.13,0.026,0.208c0-0.052-0.026-0.104-0.026-0.156s0-0.104-0.026-0.156c0.156,1.068,0.313,2.189,0.365,3.283
		c0.026,0.912,0.026,1.798,0.078,2.684c0-0.078-0.026-0.13-0.026-0.208C172.807,238.374,172.807,238.895,172.467,239.469z"/>
	<path fill="#008A46" d="M254.23,177.743c0-0.052-0.026-0.104-0.026-0.156c0.026,0.156,0.052,0.339,0.078,0.521
		C254.257,177.977,254.257,177.873,254.23,177.743z"/>
	<path fill="#008A46" d="M167.777,235.69c-0.026-0.938-0.13-1.876-0.261-2.814c0.052,0.208,0.078,0.417,0.104,0.625
		c-0.026-0.234-0.052-0.495-0.104-0.756c-0.026-0.182-0.052-0.391-0.078-0.573c-0.078-0.339-0.13-0.703-0.182-1.042
		c0.026,0.104,0.026,0.234,0.052,0.339c-0.026-0.182-0.052-0.339-0.078-0.495c0-0.052-0.026-0.104-0.026-0.156
		c0.026,0.026,0.026,0.078,0.026,0.104c-0.495-3.596-0.521-7.217-0.964-10.813c-0.182-1.068-0.365-2.137-0.469-3.231
		c-0.078-0.99-0.182-1.98-0.313-2.97c-0.156-0.964-0.391-1.902-0.599-2.866c-0.026,0-0.052-0.026-0.078-0.026
		c-0.469-0.156-0.964-0.234-1.459-0.339c-0.547-0.104-1.094-0.208-1.641-0.287c-1.433-0.156-2.892-0.261-4.325-0.208
		c-0.834,0.026-1.642,0-2.475-0.156c-0.651-0.104-1.277-0.313-1.928-0.443c-0.391-0.026-0.782-0.026-1.199-0.026
		c-0.521,0-1.042,0-1.563-0.052c-1.146-0.104-2.189-0.365-3.231-0.886c-0.365-0.182-0.756-0.391-1.12-0.573
		c-0.339-0.104-0.651-0.208-0.99-0.261c-0.834-0.026-1.668,0.026-2.501,0.078c-0.313,0.026-0.651,0.026-0.99,0.026
		c0.234,3.413,0.313,6.853,0.782,10.24c0,0.026,0,0.052,0,0.078c0.026,0.13,0.052,0.234,0.052,0.365
		c0.026,0.156,0.052,0.339,0.052,0.495c0.052,0.391,0.104,0.782,0.156,1.146c-0.026-0.026-0.026-0.078-0.026-0.104
		c0.234,1.667,0.417,3.309,0.521,4.977c0.104,1.537,0.156,3.075,0.391,4.612c-0.052-0.208-0.078-0.417-0.104-0.625
		c0.156,0.99,0.26,2.032,0.547,2.996c0.078,0.261,0.052,0.521,0.052,0.782c0.078,0.052,0.156,0.052,0.234,0.104
		c0.234,0.13,0.495,0.234,0.73,0.339c1.146,0.417,2.319,0.73,3.544,0.964c1.303,0.26,2.58,0.521,3.83,0.886
		c1.303,0.391,2.606,0.782,3.934,1.12c1.094,0.26,2.241,0.443,3.361,0.599c0.99,0.104,2.006,0.182,2.996,0.365
		c0.703,0.13,1.407,0.339,2.137,0.469c0.782,0.052,1.563,0.078,2.345,0.13c0.313,0.026,0.651,0,0.964,0
		c-0.026-0.313-0.078-0.651-0.078-0.99C167.803,236.472,167.803,236.081,167.777,235.69z M167.465,232.538
		c0.052,0.208,0.078,0.417,0.104,0.625c-0.026-0.156-0.052-0.313-0.078-0.443C167.492,232.668,167.465,232.59,167.465,232.538z"/>
	<path fill="#008A46" d="M278.566,227.327c-0.156-1.199-0.234-2.423-0.339-3.648c-0.104-1.12-0.208-2.267-0.365-3.387
		c-0.469-3.048-0.834-6.097-1.094-9.146c-0.13-1.511-0.235-3.049-0.417-4.56c-0.182-1.407-0.365-2.84-0.547-4.247
		c-0.391-2.553-0.86-5.107-1.251-7.66c0,0.078,0.026,0.13,0.026,0.208c-0.078-0.573-0.182-1.146-0.261-1.746
		c0.052,0.208,0.078,0.417,0.104,0.625c-0.417-2.84-0.521-5.706-0.703-8.546c-0.182-2.58-0.313-5.185-0.573-7.765
		c-0.261-2.684-0.547-5.341-0.834-8.025c-0.287-2.606-0.625-5.237-0.886-7.843c-0.261-2.449-0.547-4.898-0.834-7.348
		c-0.052-0.156-0.078-0.339-0.078-0.521c-0.052-0.495-0.13-1.016-0.208-1.511c-0.052-0.234-0.078-0.469-0.104-0.73
		c0.026,0.13,0.052,0.287,0.078,0.417c-0.234-1.433-0.469-2.866-0.651-4.299c-0.339-2.449-0.625-4.924-0.782-7.4
		c-0.182-2.579-0.208-5.185-0.261-7.765c-0.052-2.684-0.078-5.394-0.391-8.077c-0.156-1.277-0.287-2.553-0.339-3.83
		c-0.052-1.068-0.026-2.163-0.13-3.257c-0.026-0.104-0.078-0.234-0.104-0.339c0-0.026-0.026-0.026-0.026-0.052
		c-0.313-0.078-0.651-0.156-0.964-0.235c-0.339-0.026-0.677-0.026-1.016-0.052c-0.573-0.026-1.146-0.104-1.72-0.182
		c-0.886-0.104-1.772-0.287-2.658-0.391h0.026c-0.078,0-0.182-0.026-0.261-0.026c-0.365-0.052-0.703-0.104-0.99-0.208
		c0.052,0.599,0.104,1.173,0.104,1.772c0.052,2.606,0.104,5.185,0.104,7.791c0,2.58,0.052,5.133,0.078,7.712
		c0.026,2.684,0,5.342,0.208,7.999c0.208,2.736,0.573,5.446,0.886,8.155c0.339,2.658,0.547,5.315,0.73,7.973
		c0.156,2.449,0.313,4.924,0.573,7.374c0.261,2.527,0.599,5.003,0.756,7.53c0.078,1.277,0.156,2.553,0.156,3.83
		c0,1.173-0.052,2.345-0.026,3.518c0.026,1.251,0.052,2.475,0.13,3.726c0.078,1.172,0.182,2.319,0.182,3.491
		c0,1.042-0.078,2.084-0.13,3.127c-0.026,1.068-0.026,2.11-0.026,3.179c0.026,1.225,0.052,2.475,0.078,3.7
		c0.026,1.042,0.182,2.058,0.313,3.101c0.313,1.954,0.625,3.934,0.99,5.888c0.13,0.677,0.13,1.303-0.234,1.902
		c-0.313,0.547-0.834,0.964-1.459,1.146c-1.094,0.313-2.397-0.26-2.866-1.303c-0.182,0.104-0.339,0.208-0.521,0.313
		c-0.808,0.495-1.615,1.016-2.423,1.537c-0.782,0.521-1.563,0.99-2.397,1.433c-0.938,0.495-1.902,0.964-2.814,1.459
		c-2.032,1.094-3.934,2.397-5.941,3.544c-2.084,1.198-4.247,2.215-6.436,3.231c-2.267,1.042-4.351,2.475-6.462,3.778
		c-2.215,1.355-4.482,2.632-6.774,3.856c-4.612,2.449-9.302,4.69-13.966,7.009c-2.241,1.12-4.403,2.371-6.566,3.622
		c-2.397,1.381-4.794,2.762-7.217,4.117c-1.172,0.651-2.371,1.251-3.57,1.85c-1.094,0.521-2.215,0.964-3.309,1.459
		c-1.277,0.599-2.553,1.172-3.804,1.824c-0.443,0.208-0.86,0.469-1.277,0.704c0.599,0.182,1.225,0.313,1.85,0.443
		c1.068,0.208,2.137,0.443,3.205,0.677c0.052,0,0.13,0,0.208,0c1.016-0.182,1.98-0.417,2.97-0.625
		c1.199-0.287,2.397-0.547,3.596-0.834c1.12-0.261,2.241-0.573,3.361-0.808c1.146-0.234,2.319-0.417,3.465-0.651
		c2.371-0.469,4.742-1.068,7.139-1.511c2.58-0.469,5.185-0.729,7.791-1.042c2.501-0.313,5.003-0.625,7.478-0.99
		c-0.208,0.026-0.417,0.052-0.625,0.078c1.72-0.261,3.465-0.495,5.185-0.73c1.485-0.182,2.97-0.312,4.456-0.521
		c2.501-0.443,4.977-0.912,7.478-1.407c1.433-0.287,2.84-0.573,4.299-0.782c1.042-0.13,2.058-0.26,3.101-0.417
		c-0.026,0-0.026,0-0.052,0c2.319-0.365,4.612-0.756,6.931-1.146c1.303-0.234,2.579-0.443,3.882-0.651
		c1.172-0.182,2.371-0.313,3.544-0.469c1.068-0.182,2.137-0.365,3.179-0.625c0.99-0.26,1.954-0.599,2.944-0.808
		c0.938-0.208,1.928-0.339,2.866-0.573c0.573-0.13,1.094-0.313,1.641-0.469c0.339-0.104,0.651-0.182,0.99-0.287
		c0.052-0.026,0.078-0.052,0.104-0.078c-0.026,0.026-0.052,0.052-0.078,0.078c0.026,0,0.026,0,0.026,0
		c0.391-0.313,0.808-0.599,1.225-0.912c0.261-0.886,0.443-1.772,0.599-2.684c-0.182-0.104-0.391-0.208-0.547-0.365
		C278.801,228.525,278.671,228.004,278.566,227.327z"/>
	<path fill="#008A46" d="M171.536,0C77.614,0,1.474,76.139,1.474,170.062s76.139,170.062,170.062,170.062
		s170.062-76.139,170.062-170.062S265.46,0,171.536,0z M284.065,233.293c-0.182,0.73-0.443,1.381-0.938,1.954
		c-0.261,0.313-0.599,0.573-0.938,0.808c-0.287,0.208-0.573,0.391-0.86,0.599c-0.313,0.26-0.625,0.521-0.964,0.703
		c-0.417,0.235-0.886,0.391-1.355,0.521c-0.704,0.182-1.381,0.417-2.084,0.599c-1.277,0.313-2.58,0.469-3.856,0.808
		c-1.407,0.365-2.788,0.782-4.221,1.042c-1.589,0.287-3.179,0.469-4.768,0.677c-2.345,0.391-4.664,0.782-7.009,1.172
		c-2.501,0.417-5.003,0.782-7.504,1.12c-3.335,0.547-6.644,1.329-10.005,1.876c-3.413,0.573-6.827,0.86-10.24,1.355
		c-2.267,0.365-4.56,0.703-6.827,0.964c-2.163,0.26-4.351,0.495-6.514,0.782c-2.006,0.313-3.96,0.73-5.967,1.172
		c-1.146,0.26-2.319,0.495-3.465,0.729c-1.146,0.235-2.319,0.391-3.465,0.651c-2.319,0.521-4.638,1.172-6.983,1.641
		c-1.251,0.26-2.501,0.625-3.778,0.703c-0.99,0.052-2.032-0.313-2.996-0.521c-1.094-0.208-2.189-0.391-3.257-0.677
		c-0.99-0.287-1.928-0.677-2.944-0.886h-0.026c-0.078,0.026-0.13,0.052-0.208,0.078c-0.912,0.391-1.824,0.834-2.632,1.381
		c-0.964,0.625-1.876,1.329-2.788,2.006c-0.104,0.078-0.287,0.104-0.443,0.156c-0.912,0.704-1.85,1.381-2.866,1.902
		c-1.042,0.547-2.111,0.86-3.231,1.094c-1.277,0.287-2.606,0.469-3.908,0.573c-0.599,0.052-1.225,0.052-1.824,0.104
		c-0.417,0.052-0.834,0.104-1.251,0.156c-1.068,0.156-2.137,0.339-3.205,0.443c-0.964,0.078-1.954,0.13-2.944,0.182
		c-2.11,0.13-4.221,0.234-6.332,0.313c-4.195,0.13-8.416,0.078-12.637,0.104c-5.029,0.026-10.005,0.287-15.008,0.547
		c-2.658,0.156-5.315,0.26-7.947,0.391c-2.684,0.13-5.367,0.156-8.051,0.156c-5.159-0.026-10.292,0.547-15.425,0.808
		c-2.475,0.13-4.924-0.104-7.4-0.156c-1.225-0.026-2.449-0.026-3.674,0c-1.329,0.052-2.606-0.052-3.908-0.182
		c-0.677-0.078-1.251-0.208-1.772-0.729c-0.469-0.443-0.73-1.042-0.73-1.694c0-0.391,0.104-0.756,0.261-1.094
		c-0.104-0.156-0.182-0.339-0.208-0.521c-0.052-0.287-0.104-0.599-0.156-0.912c-0.391-2.449-0.808-4.872-1.355-7.296
		c-0.261-1.303-0.573-2.553-0.808-3.856c-0.261-1.381-0.417-2.788-0.599-4.169c-0.339-2.527-0.651-5.055-0.782-7.608
		c-0.13-2.397-0.365-4.768-0.677-7.165c-0.261-1.746-0.573-3.465-0.834-5.185c-0.287-1.928-0.469-3.882-0.704-5.836
		c-0.417-3.465-0.808-6.931-1.251-10.396c-0.417-2.658-0.808-5.289-1.199-7.947c0,0.156,0.026,0.286,0.052,0.443
		c-0.521-3.491-1.094-6.957-1.589-10.422c-0.469-3.387-0.912-6.774-1.381-10.136c-0.73-4.429-1.381-8.859-2.032-13.288
		c0.052,0.208,0.078,0.417,0.104,0.625c-0.182-1.329-0.391-2.632-0.573-3.934c0.052,0.208,0.078,0.417,0.104,0.625
		c-0.704-4.638-1.173-9.276-1.85-13.914c0-0.026,0-0.052,0-0.078c-0.026-0.182-0.052-0.365-0.078-0.547c0,0.026,0,0.026,0,0.052
		c-0.104-0.625-0.182-1.251-0.287-1.876c0.052,0.208,0.078,0.417,0.104,0.625c-0.026-0.182-0.052-0.365-0.078-0.573
		c-0.261-1.668-0.573-3.335-0.86-5.003c-0.078-0.521-0.052-0.964,0.078-1.433c-0.026-0.182-0.104-0.365-0.104-0.547
		c-0.026-0.651,0.234-1.303,0.703-1.772c0.469-0.495,1.016-0.651,1.694-0.729c1.068-0.13,2.111-0.287,3.179-0.417
		c1.485-0.208,2.944-0.469,4.429-0.651c1.381-0.182,2.762-0.261,4.169-0.287c1.251-0.052,2.501-0.104,3.752-0.208
		c0.73-0.052,1.485-0.104,2.215-0.13c0.313,0,0.599-0.026,0.912-0.026c0.052,0,0.13,0,0.234-0.052c0.573,0,1.172,0.078,1.746,0.156
		c-0.13-2.084-0.287-4.169-0.417-6.227c-0.156-2.449-0.182-4.898-0.234-7.348c-0.026-1.329-0.078-2.632-0.13-3.96
		c-0.052-1.251-0.208-2.501-0.339-3.726c-0.052-0.339,0.052-0.677,0.208-1.016c-0.026-0.313-0.026-0.651,0.052-0.964
		c0.287-1.146,1.303-1.824,2.423-1.824c0.182,0,0.391,0.026,0.573,0.052c4.299,0.86,8.598,1.537,12.924,2.111
		c2.163,0.234,4.325,0.417,6.488,0.703c2.137,0.261,4.247,0.547,6.384,0.834c4.013,0.521,7.999,1.12,12.012,1.615
		c3.57,0.417,7.165,0.756,10.735,1.146c2.058,0.235,4.091,0.443,6.123,0.756c1.72,0.261,3.465,0.521,5.185,0.756
		c3.648,0.365,7.348,0.469,10.995,0.912c0.001,0,0.001,0,0.002,0c0.077,0,0.129,0,0.207,0.026c-0.016-0.003-0.032-0.003-0.049-0.005
		c1.953,0.254,3.907,0.507,5.885,0.761c2.215,0.235,4.456,0.495,6.67,0.756c0.834,0.104,1.668,0.182,2.501,0.235
		c0.417-0.469,1.016-0.756,1.72-0.782c0,0,0.026,0,0.104-0.026c0.495,0,0.99,0.208,1.407,0.495c0.703-0.234,1.433-0.469,2.137-0.729
		c3.335-1.563,6.592-3.283,9.875-4.951c3.257-1.641,6.54-3.231,9.771-4.95c4.56-2.423,9.015-4.977,13.653-7.27
		c4.742-2.345,9.38-4.925,14.096-7.322c2.267-1.146,4.56-2.241,6.774-3.465c2.241-1.251,4.456-2.527,6.696-3.752
		c2.293-1.277,4.586-2.58,6.853-3.882c2.215-1.277,4.429-2.606,6.801-3.518c0.182-0.078,0.391-0.104,0.625-0.052
		c0.443,0,0.912,0.13,1.277,0.339c0.443,0.235,0.756,0.651,0.964,1.094c0.938,0.156,1.772,0.782,2.032,1.72
		c0.287,1.094,0.573,2.189,0.86,3.283c0.287,1.146,0.677,2.267,0.99,3.387c0.625,2.241,1.173,4.508,1.615,6.801
		c0.495,2.475,0.703,5.003,0.99,7.504c0.261,2.397,0.547,4.768,0.834,7.165c0.052,0.495,0.104,1.016,0.156,1.537
		c0.339-0.208,0.703-0.417,1.094-0.443c0.052,0,0.078,0,0.13,0c1.355,0.156,2.71,0.365,4.065,0.547
		c0.86,0.078,1.772,0.052,2.632,0.208s1.746,0.417,2.527,0.756c1.12,0.495,1.668,1.667,2.111,2.736
		c0.391,0.964,0.417,2.058,0.443,3.074c0.052,1.303,0.052,2.606,0.182,3.882c0.104,1.225,0.313,2.423,0.391,3.648
		c0.208,2.684,0.208,5.394,0.287,8.103c0.026,1.303,0.052,2.579,0.078,3.882c0.052,1.303,0.156,2.579,0.261,3.882
		c0.208,2.319,0.495,4.638,0.808,6.957c0.104,0.756,0.234,1.485,0.339,2.241c0.052,0.208,0.078,0.391,0.078,0.599
		c0.078,0.521,0.156,1.068,0.234,1.589c0.052,0.208,0.078,0.443,0.104,0.677v-0.026c0.365,2.684,0.625,5.394,0.912,8.103
		c0.547,5.289,1.199,10.579,1.72,15.894c0.521,5.055,0.547,10.162,1.146,15.191c0,0.052,0.026,0.13,0.026,0.182
		c-0.026-0.156-0.052-0.313-0.078-0.469c0,0.078,0.026,0.13,0.026,0.182c-0.026-0.156-0.052-0.339-0.078-0.495
		c0,0.052,0.026,0.13,0.026,0.182v0.026c0,0.026,0,0.026,0,0.026c0.078,0.469,0.13,0.938,0.208,1.407
		c0.313,2.032,0.677,4.039,1.016,6.045c0.339,2.189,0.625,4.403,0.886,6.592c0.234,2.032,0.339,4.091,0.547,6.149
		c0.182,1.798,0.417,3.622,0.651,5.42c0.026,0.104,0.026,0.208,0.052,0.313c0-0.104-0.026-0.182-0.026-0.287
		c0.234,1.537,0.443,3.074,0.599,4.612c0.13,1.329,0.208,2.684,0.365,4.013c0.261,0.13,0.495,0.261,0.703,0.469
		c0.417,0.391,0.782,1.094,0.73,1.694C284.767,230.479,284.456,231.886,284.065,233.293z"/>
	<path fill="#008A46" d="M166.318,250.751c-3.439-0.13-6.879-0.313-10.292-0.495c-2.449-0.156-4.898-0.287-7.348-0.391
		c-2.501-0.104-4.977-0.13-7.478-0.13c-5.159-0.052-10.292-0.756-15.451-1.016c-2.449-0.104-4.924-0.078-7.374-0.026
		c-2.736,0.052-5.446,0.104-8.155-0.078c-2.579-0.156-5.185-0.365-7.765-0.547c-1.251-0.104-2.527-0.208-3.778-0.339
		c-1.303-0.13-2.632-0.234-3.908-0.547c-1.146-0.287-2.241-0.808-3.309-1.303c-0.547-0.234-0.99-0.886-1.146-1.459
		c0-0.026,0-0.078,0-0.13c-0.078,0.026-0.156,0.078-0.234,0.104c-1.251,0.365-2.71-0.391-3.022-1.694
		c-0.547-2.215-0.573-4.534-0.73-6.801c-0.156-2.345-0.287-4.69-0.443-7.035c-0.156-2.475-0.521-4.924-0.782-7.4
		c-0.521-4.873-0.703-9.797-0.99-14.696c-0.156-2.71-0.443-5.419-0.651-8.129c-0.182-2.501-0.287-4.977-0.417-7.452
		c-0.13-2.632-0.13-5.263-0.208-7.895c-0.078-2.97-0.182-5.941-0.261-8.911c-0.313-10.5-0.651-20.975-0.912-31.475
		c-0.052-1.589-0.104-3.179-0.156-4.768c-0.287,0.026-0.599,0-0.938-0.052c-0.052,0-0.13-0.026-0.182-0.026
		c-1.251-0.104-2.553,0.026-3.83,0.13c-1.068,0.078-2.111,0.156-3.179,0.182c-1.12,0.026-2.267,0.052-3.413,0.13
		c-0.938,0.078-1.876,0.208-2.814,0.339c0.052-0.026,0.078-0.026,0.13-0.026c-1.355,0.208-2.71,0.391-4.065,0.573
		c0.261,1.433,0.521,2.866,0.73,4.299c0-0.078-0.026-0.156-0.026-0.234c0.808,5.446,1.511,10.917,2.215,16.363
		c0.156,1.146,0.313,2.293,0.495,3.439c-0.052-0.208-0.078-0.417-0.104-0.625c0.182,1.329,0.391,2.658,0.573,3.986v0.026
		c0.026,0.182,0.052,0.365,0.078,0.547c0-0.078-0.026-0.182-0.026-0.261c0.495,3.309,1.068,6.618,1.563,9.953
		c0.469,3.387,0.912,6.774,1.381,10.162c0.625,4.039,1.251,8.077,1.85,12.116c-0.052-0.208-0.078-0.417-0.104-0.625
		c0.547,3.648,1.146,7.296,1.537,10.969c0.365,3.439,0.756,6.853,1.173,10.266c0.599,3.882,1.355,7.791,1.563,11.725
		c0.052,1.068,0.104,2.111,0.182,3.179c0.078,0.99,0.182,2.006,0.287,2.996c0.156,1.72,0.417,3.413,0.651,5.133
		c0.287,1.876,0.73,3.726,1.146,5.602c0.443,1.954,0.782,3.934,1.094,5.941c0.078,0.469,0.156,0.938,0.234,1.407
		c0.052,0.234,0.052,0.443,0.052,0.651c0.261,0,0.521,0.026,0.808,0.026c1.016-0.026,2.058-0.052,3.075-0.052
		c1.98,0,3.961,0.208,5.941,0.234c2.084,0.026,4.143-0.13,6.227-0.26c2.215-0.13,4.403-0.313,6.618-0.417
		c1.199-0.078,2.423-0.13,3.648-0.156c0.756,0,1.485,0,2.241,0c0.521,0,1.042,0,1.563,0c2.632-0.052,5.289-0.208,7.921-0.313
		c5.211-0.234,10.448-0.599,15.659-0.73c2.397-0.052,4.794-0.078,7.191-0.078c2.423,0.026,4.82,0.026,7.243-0.026
		c2.397-0.052,4.794-0.156,7.191-0.26c2.215-0.104,4.456-0.182,6.67-0.469c1.146-0.182,2.293-0.391,3.439-0.469
		c1.068-0.078,2.137-0.13,3.179-0.26c0.99-0.156,2.032-0.339,2.97-0.704c0.86-0.443,1.694-0.964,2.475-1.537
		c0.078-0.078,0.13-0.13,0.208-0.182c-0.99,0-2.006,0.026-2.996,0.026C169.471,250.777,167.882,250.803,166.318,250.751z
		 M79.501,254.32c-0.026-0.104-0.026-0.234-0.052-0.339c0.026,0.156,0.052,0.313,0.078,0.469
		C79.501,254.398,79.501,254.372,79.501,254.32z"/>
	<path fill="#008A46" d="M192.531,239.104c1.12-0.495,2.215-1.094,3.309-1.668c2.111-1.12,4.169-2.345,6.253-3.544
		c2.111-1.198,4.195-2.423,6.332-3.596c2.293-1.277,4.69-2.397,7.061-3.543c2.267-1.094,4.56-2.163,6.774-3.361
		c2.267-1.225,4.586-2.423,6.801-3.752c2.163-1.303,4.247-2.684,6.436-3.908c2.163-1.224,4.482-2.136,6.67-3.309
		c2.267-1.251,4.403-2.658,6.644-3.96c1.876-1.094,3.908-1.902,5.706-3.101c0.86-0.573,1.746-1.146,2.632-1.694
		c0.808-0.495,1.642-0.964,2.423-1.485c0-0.026-0.026-0.078-0.026-0.104c-0.234-1.511-0.495-3.022-0.599-4.56
		c-0.13-1.563-0.104-3.153-0.13-4.742c0-1.381,0.052-2.736,0.104-4.091c0.052-1.12,0.052-2.215,0-3.335
		c-0.078-1.251-0.156-2.527-0.208-3.778c-0.104-2.345,0.026-4.716-0.078-7.087c-0.104-2.501-0.313-4.977-0.625-7.452
		c-0.313-2.553-0.521-5.107-0.703-7.686c-0.182-2.606-0.365-5.185-0.625-7.791c-0.287-2.658-0.651-5.315-0.912-7.973
		c-0.287-2.684-0.365-5.393-0.391-8.077c-0.026-2.553-0.052-5.107-0.078-7.66c-0.026-2.579,0-5.185-0.052-7.765
		c-0.026-1.329-0.052-2.658-0.104-3.96c-0.078-1.277-0.182-2.527-0.313-3.778c-0.261-2.579-0.599-5.159-0.886-7.739
		c-0.287-2.449-0.521-4.898-0.86-7.322c-0.443-2.371-0.964-4.716-1.615-7.035c-0.339-1.225-0.756-2.423-1.068-3.648
		c-0.261-0.86-0.469-1.746-0.703-2.632c-1.329,0.677-2.658,1.407-3.96,2.137c-1.928,1.094-3.856,2.241-5.784,3.309
		c-3.726,2.058-7.4,4.221-11.204,6.149c-4.716,2.371-9.354,4.82-14.018,7.27c-2.293,1.199-4.612,2.293-6.905,3.491
		c-2.423,1.251-4.82,2.553-7.191,3.856c-2.189,1.225-4.403,2.397-6.644,3.544s-4.534,2.241-6.801,3.387
		c-2.371,1.198-4.742,2.423-7.139,3.622c-1.303,0.651-2.579,1.303-3.934,1.824c-0.808,0.313-1.641,0.599-2.449,0.86
		c0.052,2.371,0.208,4.742,0.365,7.061c0.078,1.199,0.234,2.423,0.365,3.622c0.156,1.303,0.365,2.632,0.495,3.934
		c0.495,5.367,0.547,10.761,0.912,16.128c0.156,2.501,0.365,5.003,0.521,7.53c0.156,2.684,0.339,5.367,0.573,8.051
		c0.234,2.71,0.417,5.42,0.599,8.129c0.156,2.371,0.417,4.716,0.73,7.061c0.443,2.527,1.016,5.055,1.277,7.634
		c0.261,2.579,0.469,5.185,0.599,7.791c0.287,4.977,0.599,9.979,1.172,14.93c0.313,2.58,0.599,5.159,0.808,7.739
		c0.208,2.501,0.495,4.977,0.73,7.452c0.234,2.501,0.365,5.029,0.443,7.53c0.078,1.798,0.339,3.596,0.469,5.393
		c0.625-0.391,1.277-0.782,1.954-1.12c1.146-0.599,2.319-1.146,3.491-1.694C190.29,240.094,191.41,239.599,192.531,239.104z
		 M212.906,216.982c-0.156,0.599-0.573,1.251-1.146,1.511c-2.866,1.329-5.498,3.179-8.129,4.898
		c-1.407,0.938-2.84,1.824-4.299,2.658c-1.537,0.86-3.127,1.615-4.768,2.293c-0.573,0.234-1.381,0.052-1.902-0.235
		c-0.547-0.312-0.964-0.834-1.146-1.459c-0.182-0.651-0.104-1.329,0.234-1.902c0.339-0.599,0.834-0.886,1.459-1.146
		c0.052-0.026,0.13-0.052,0.208-0.078c1.381-0.625,2.684-1.303,3.987-2.058c1.381-0.782,2.684-1.641,3.987-2.501
		c2.553-1.667,5.081-3.439,7.843-4.716c0.443-0.208,0.86-0.339,1.329-0.339c0.182,0,0.365,0.026,0.573,0.078
		c0.651,0.156,1.173,0.547,1.511,1.12C212.984,215.68,213.062,216.357,212.906,216.982z M249.306,157.784
		c0.287,0,0.599,0.026,0.782,0.078c0.287,0.13,0.573,0.234,0.86,0.365c0.573,0.234,0.99,0.912,1.146,1.459
		c0.13,0.469,0.078,0.964-0.078,1.407c0.104,0.182,0.208,0.339,0.26,0.547c0.651,2.892,1.068,5.758,1.251,8.703
		c0.052,1.225,0.078,2.475,0.234,3.7c0.13,1.068,0.261,2.111,0.417,3.179c0.026,0.104,0.026,0.208,0.052,0.313
		c0.026,0.052,0.026,0.078,0.026,0.13c-0.026-0.026-0.026-0.052-0.026-0.104c0.026,0.104,0.026,0.208,0.052,0.313
		c-0.026-0.052-0.026-0.078-0.026-0.13c0.026,0.234,0.078,0.469,0.104,0.703c-0.052-0.208-0.078-0.417-0.104-0.625
		c0.339,2.241,0.599,4.456,0.677,6.722c0.026,1.042,0.078,2.084,0.208,3.127c0.078,0.547,0.182,1.094,0.208,1.641
		c0.026,0.365,0.026,0.704,0.026,1.068c0.104,0.287,0.182,0.599,0.182,0.912c0.026,0.599-0.208,1.381-0.703,1.772
		c-0.026,0-0.052,0.026-0.052,0.026c-0.495,0.417-0.99,0.73-1.694,0.73c-0.104,0-0.182-0.026-0.287-0.026
		c-0.052,0.521-0.261,1.068-0.651,1.407c-1.094,0.938-2.293,1.694-3.544,2.423c-0.938,0.547-1.85,1.199-2.736,1.85
		c-2.006,1.433-4.091,2.788-6.149,4.117c-2.084,1.355-4.299,2.501-6.41,3.83c-2.058,1.277-4.065,2.658-6.019,4.091
		c-0.365,0.287-0.73,0.573-1.094,0.86c-0.521,0.417-0.99,0.729-1.694,0.729c-0.651,0-1.303-0.26-1.772-0.729
		c-0.469-0.443-0.73-1.042-0.73-1.694c0-0.13,0.052-0.287,0.078-0.417c-0.443-0.287-0.782-0.703-0.912-1.251
		c-0.417-1.902-0.365-3.908-0.469-5.837c-0.104-1.85-0.208-3.7-0.365-5.55c-0.287-3.413-0.782-6.801-1.251-10.214
		c0,0.078,0.026,0.156,0.026,0.235c-0.026-0.13-0.026-0.235-0.052-0.365c0-0.104-0.026-0.182-0.026-0.287
		c0.026,0.052,0.026,0.104,0.026,0.156s0.026,0.078,0.026,0.13c0.026,0.026,0.026,0.078,0.026,0.104
		c-0.026-0.078-0.026-0.182-0.052-0.235c-0.521-3.648-0.99-7.27-1.381-10.917c-0.052-0.625,0.287-1.329,0.73-1.772
		c0.391-0.417,0.912-0.625,1.459-0.677c0.182-0.261,0.417-0.521,0.73-0.677c1.485-0.834,3.049-1.537,4.586-2.293
		c1.433-0.703,2.814-1.511,4.169-2.345c1.511-0.912,3.049-1.798,4.612-2.605c1.329-0.677,2.684-1.277,4.039-1.85
		c0.86-0.417,1.641-0.886,2.423-1.381c0.834-0.547,1.694-1.042,2.553-1.563c0.938-0.547,1.85-1.12,2.788-1.694
		c0.495-0.287,0.964-0.599,1.459-0.86c0.391-0.234,0.834-0.391,1.251-0.573C248.707,157.862,248.993,157.81,249.306,157.784z
		 M223.016,141.187c0.938-0.547,1.85-1.12,2.736-1.72c1.902-1.251,3.752-2.553,5.602-3.908c1.85-1.329,3.674-2.71,5.55-4.039
		c2.058-1.433,4.143-2.762,6.332-3.986c0.391-0.235,0.834-0.339,1.225-0.365c0.834,0,1.642,0.417,2.111,1.199
		c0.677,1.146,0.313,2.736-0.86,3.387c-2.215,1.225-4.325,2.606-6.41,4.065c-1.824,1.303-3.622,2.658-5.446,3.987
		c-1.876,1.381-3.778,2.71-5.706,3.986c-0.912,0.599-1.85,1.199-2.814,1.746c-1.042,0.599-2.137,1.094-3.231,1.589
		c-0.599,0.287-1.172,0.443-1.85,0.26c-0.625-0.182-1.173-0.573-1.511-1.146c-0.339-0.547-0.417-1.225-0.261-1.85
		c0.13-0.573,0.547-1.251,1.12-1.511C220.775,142.359,221.921,141.838,223.016,141.187z M219.68,136.132
		c0-0.599,0.234-1.381,0.73-1.772c1.12-0.886,2.241-1.72,3.387-2.553c0.808-0.573,1.615-1.12,2.449-1.668
		c1.772-1.172,3.596-2.215,5.394-3.283c1.876-1.12,3.778-2.267,5.628-3.465c0.886-0.573,1.746-1.146,2.632-1.72
		c0.834-0.547,1.668-1.12,2.527-1.615c0.391-0.208,0.834-0.313,1.277-0.313c0.834,0,1.641,0.417,2.11,1.199
		c0.677,1.12,0.313,2.71-0.86,3.361c-0.86,0.469-1.668,1.068-2.475,1.589c-0.808,0.521-1.589,1.042-2.397,1.563
		c-1.615,1.042-3.283,2.058-4.924,3.048c-1.746,1.016-3.491,2.006-5.185,3.049c-1.615,0.99-3.179,2.136-4.742,3.231
		c-0.469,0.339-0.912,0.703-1.355,1.042c-0.521,0.417-0.99,0.729-1.694,0.729c-0.651,0-1.303-0.26-1.772-0.729
		C219.967,137.382,219.68,136.783,219.68,136.132z M245.944,143.427c-0.99,0.547-2.032,1.042-3.022,1.589s-1.954,1.146-2.918,1.746
		c-1.928,1.225-3.882,2.423-5.863,3.596c-1.824,1.094-3.7,2.136-5.55,3.179c-1.016,0.573-2.058,1.094-3.048,1.694
		c-1.042,0.599-2.032,1.277-3.022,1.98c-1.094,0.782-2.71,0.235-3.361-0.86c-0.339-0.547-0.417-1.225-0.261-1.85
		c0.156-0.677,0.573-1.12,1.12-1.511c1.042-0.729,2.058-1.407,3.153-2.058c0.964-0.547,1.954-1.068,2.918-1.615
		c1.85-1.042,3.726-2.084,5.55-3.179c1.954-1.172,3.908-2.371,5.863-3.596c1.016-0.651,2.032-1.251,3.075-1.85
		c0.938-0.547,1.928-0.964,2.866-1.485c0.391-0.208,0.834-0.313,1.251-0.339c0.834,0,1.642,0.417,2.111,1.199
		C247.483,141.187,247.117,142.776,245.944,143.427z M246.18,152.807c-2.762,1.485-5.524,3.022-8.234,4.586
		c-1.381,0.782-2.762,1.589-4.143,2.371s-2.736,1.511-4.195,2.111c-0.912,0.365-1.85,0.756-2.814,1.042
		c-0.912,0.26-1.824,0.417-2.762,0.573c-0.677,0.104-1.277,0.13-1.902-0.235c-0.547-0.313-0.964-0.834-1.146-1.459
		c-0.182-0.651-0.104-1.329,0.234-1.902c0.287-0.521,0.86-1.042,1.459-1.146c1.068-0.182,2.137-0.391,3.179-0.729
		c0.808-0.287,1.615-0.599,2.423-0.938c1.642-0.756,3.179-1.694,4.716-2.58c1.12-0.651,2.267-1.329,3.413-1.98
		c2.397-1.355,4.794-2.71,7.243-4.013c0.391-0.208,0.834-0.313,1.277-0.261c0.834,0,1.642,0.417,2.111,1.199
		C247.716,150.567,247.352,152.182,246.18,152.807z M182.943,146.528c-0.182-0.104-0.339-0.261-0.495-0.417
		c-0.99-0.13-1.902-0.782-2.111-1.772c-0.495-2.215-0.677-4.534-0.912-6.801c-0.208-2.032-0.391-4.065-0.625-6.097
		c-0.104-0.625-0.234-1.225-0.339-1.824c-0.182-0.234-0.339-0.521-0.417-0.808c-0.13-0.495-0.078-1.016,0.104-1.485
		c0-0.339,0.078-0.677,0.287-1.016c0.313-0.573,0.834-0.964,1.459-1.146c0.208-0.052,0.417-0.078,0.651-0.078
		c0.208,0,0.391,0.052,0.599,0.104c0.469-0.208,0.964-0.391,1.433-0.599h-0.026c2.189-0.99,4.351-2.006,6.514-3.022
		c2.267-1.068,4.43-2.319,6.618-3.544c2.241-1.251,4.482-2.475,6.748-3.648c2.397-1.225,4.82-2.371,7.243-3.518
		c1.12-0.521,2.241-1.094,3.361-1.667c1.146-0.599,2.215-1.277,3.309-1.954c2.163-1.329,4.351-2.658,6.644-3.804
		c2.163-1.094,4.377-2.137,6.384-3.518c0.964-0.651,1.928-1.329,2.892-2.006c0.912-0.625,1.85-1.146,2.84-1.668
		c1.12-0.573,2.241-1.146,3.309-1.746c0.99-0.573,1.928-1.225,2.97-1.746c0.417-0.208,0.86-0.313,1.251-0.287
		c0.208,0,0.391,0.026,0.599,0.078c0.651,0.156,1.172,0.547,1.511,1.12c0.182,0.365,0.261,0.756,0.287,1.146
		c0.052,0,0.078,0,0.104,0.026c0.495,0.287,1.042,0.86,1.146,1.459c0.208,1.355,0.443,2.684,0.573,4.039
		c0.104,1.016,0.182,2.058,0.287,3.074c0.052,0.208,0.104,0.443,0.156,0.651c0.13,0.417,0.287,0.834,0.339,1.251
		c0.078,0.521,0.182,1.068,0.182,1.615c0,0.365-0.026,0.729-0.052,1.094c-0.026,0.808-0.078,1.589-0.052,2.371
		c0.026,0.391,0.078,0.782,0.078,1.173c0,0.651-0.104,1.277-0.182,1.928c-0.078,0.625-0.625,1.225-1.12,1.511
		c-0.391,0.234-0.808,0.286-1.251,0.286c-0.104,0.417-0.261,0.808-0.599,1.094c-0.625,0.547-1.303,1.094-2.032,1.511
		c-0.443,0.26-0.912,0.495-1.355,0.756c-0.938,0.521-1.772,1.172-2.658,1.798c-2.215,1.537-4.768,2.449-7.243,3.439
		c-6.045,2.658-11.829,5.863-17.796,8.677c-2.345,1.094-4.638,2.267-6.957,3.465c-2.345,1.225-4.638,2.553-6.957,3.804
		c-2.241,1.199-4.508,2.371-6.827,3.491c-2.606,1.251-5.289,2.371-7.973,3.439C184.245,146.997,183.464,146.815,182.943,146.528z
		 M190.316,195.278c2.814-1.589,5.524-3.283,8.26-4.951c2.84-1.72,5.628-3.544,8.546-5.159c0.391-0.208,0.834-0.313,1.251-0.339
		c0.86,0,1.668,0.417,2.137,1.198c0.677,1.146,0.313,2.736-0.86,3.387c-2.918,1.615-5.732,3.439-8.572,5.159
		c-2.736,1.668-5.446,3.361-8.26,4.924c-1.172,0.651-2.658,0.313-3.361-0.86C188.779,197.519,189.143,195.929,190.316,195.278z
		 M187.215,190.588c-0.365-1.277,0.391-2.71,1.694-3.049c1.068-0.26,2.137-0.625,3.179-1.016c1.277-0.573,2.527-1.329,3.726-2.058
		c0.99-0.573,1.954-1.172,2.918-1.772c1.928-1.172,3.856-2.345,5.784-3.492c0.391-0.234,0.808-0.339,1.251-0.339
		c0.86,0,1.694,0.417,2.137,1.198c0.703,1.146,0.287,2.684-0.86,3.361c-2.423,1.459-4.846,2.892-7.243,4.377
		c-1.329,0.808-2.632,1.589-3.961,2.319c-1.746,0.99-3.648,1.667-5.576,2.163C188.962,192.62,187.581,191.891,187.215,190.588z
		 M206.314,175.137c-1.668,1.12-3.335,2.215-5.055,3.283c-0.808,0.495-1.615,1.016-2.449,1.459c-0.99,0.521-1.98,0.99-2.996,1.433
		c-1.98,0.86-4.013,1.615-6.045,2.319c-1.277,0.443-2.71-0.469-3.048-1.694c-0.391-1.355,0.417-2.606,1.694-3.048
		c1.902-0.651,3.752-1.329,5.576-2.111c2.632-1.172,5.081-2.71,7.504-4.299c1.225-0.808,2.423-1.615,3.648-2.423
		c1.225-0.808,2.449-1.589,3.778-2.189c0.443-0.208,0.834-0.339,1.225-0.339c0.182,0,0.365,0.026,0.573,0.078
		c0.651,0.156,1.173,0.547,1.511,1.12c0.339,0.547,0.417,1.225,0.261,1.85c-0.13,0.573-0.547,1.277-1.12,1.511
		C209.598,172.896,207.956,174.069,206.314,175.137z M187.997,171.333c3.283-2.163,6.774-4.013,10.188-5.915
		c1.694-0.938,3.361-1.85,5.055-2.762c1.876-1.016,3.726-2.032,5.628-2.97c0.443-0.208,0.86-0.339,1.251-0.365
		c0.182,0,0.365,0.026,0.573,0.078c0.625,0.182,1.173,0.573,1.511,1.146c0.651,1.094,0.339,2.788-0.86,3.387
		c-1.98,0.964-3.908,2.032-5.836,3.075c-1.668,0.886-3.335,1.798-5.003,2.736c-3.361,1.876-6.774,3.674-10.005,5.81
		c-1.12,0.756-2.71,0.234-3.361-0.86C186.408,173.496,186.876,172.062,187.997,171.333z M211.837,151.661
		c-7.217,3.596-14.2,7.739-20.949,12.168c-1.12,0.756-2.71,0.261-3.361-0.86c-0.73-1.198-0.261-2.632,0.86-3.361
		c6.748-4.429,13.705-8.598,20.949-12.194c0.417-0.208,0.834-0.339,1.277-0.339c0.208,0,0.391,0.026,0.599,0.078
		c0.625,0.182,1.172,0.573,1.511,1.146C213.376,149.394,213.036,151.062,211.837,151.661z M212.49,141.317
		c-1.954,1.12-3.83,2.371-5.784,3.491c-1.928,1.12-3.908,2.189-5.889,3.231c-1.876,0.99-3.83,1.876-5.706,2.866
		c-1.094,0.573-2.163,1.146-3.231,1.772c-0.99,0.547-1.902,1.303-2.814,1.98c-0.495,0.365-1.277,0.417-1.85,0.261
		c-0.651-0.156-1.172-0.573-1.511-1.12c-0.313-0.573-0.417-1.251-0.261-1.876c0.182-0.677,0.599-1.12,1.146-1.511
		c0.938-0.703,1.876-1.459,2.892-2.032c1.042-0.599,2.084-1.199,3.153-1.746c1.902-0.964,3.83-1.876,5.706-2.866
		c1.98-1.042,3.96-2.084,5.889-3.205c1.954-1.12,3.83-2.371,5.784-3.491c0.391-0.208,0.808-0.313,1.199-0.313
		c0.86,0,1.668,0.417,2.137,1.198C214.053,139.076,213.661,140.639,212.49,141.317z M185.184,212.292
		c-0.73-1.199-0.26-2.606,0.86-3.361c1.954-1.329,3.882-2.658,5.889-3.908c1.798-1.12,3.648-2.215,5.472-3.283
		c1.85-1.094,3.674-2.189,5.498-3.283c1.928-1.172,3.83-2.423,5.967-3.205c0.208-0.078,0.443-0.13,0.703-0.13
		c1.068,0,2.084,0.834,2.371,1.824c0.182,0.625,0.104,1.329-0.234,1.902c-0.339,0.599-0.834,0.912-1.459,1.146
		c-0.052,0-0.104,0.026-0.156,0.052c-1.746,0.834-3.387,1.876-5.029,2.866c-1.72,1.042-3.439,2.058-5.159,3.075
		c-1.85,1.094-3.726,2.11-5.498,3.283c-1.954,1.277-3.934,2.579-5.863,3.882C187.449,213.908,185.835,213.387,185.184,212.292z
		 M189.742,215.575c3.622-1.824,7.165-3.882,10.553-6.123c3.335-2.189,6.618-4.56,10.214-6.305c0.443-0.208,0.86-0.339,1.303-0.339
		c0.182,0,0.365,0.026,0.573,0.078c0.625,0.156,1.173,0.573,1.511,1.12c0.651,1.094,0.339,2.788-0.86,3.361
		c-3.596,1.746-6.879,4.143-10.214,6.332c-3.413,2.215-6.931,4.273-10.579,6.097c-0.573,0.287-1.172,0.443-1.85,0.261
		c-0.625-0.156-1.172-0.547-1.511-1.12C188.232,217.842,188.544,216.175,189.742,215.575z"/>
</g>
</svg>
