<?xml version="1.0" encoding="utf-8"?>
<!-- Generator: Adobe Illustrator 26.0.1, SVG Export Plug-In . SVG Version: 6.00 Build 0)  -->
<svg version="1.1" id="Layer_1" xmlns="http://www.w3.org/2000/svg" xmlns:xlink="http://www.w3.org/1999/xlink" x="0px" y="0px"
	 viewBox="0 0 343 570" enable-background="new 0 0 343 570" xml:space="preserve">
<g>
	<path fill="#58595B" d="M159.617,464.093c-0.456,0.017-1.156,0.146-2.1,0.391c-0.944,0.244-1.62,0.497-2.026,0.757
		c-0.586,0.407-0.981,1.188-1.184,2.344c-0.204,1.156-0.305,2.621-0.305,4.395v25.366h-2.124l-20.996-28.345v17.871
		c0,2.002,0.126,3.54,0.378,4.614s0.639,1.839,1.16,2.295c0.374,0.358,1.147,0.692,2.319,1.001c1.172,0.31,1.945,0.472,2.319,0.488
		v1.733h-14.209v-1.733c0.439-0.032,1.18-0.191,2.222-0.476s1.692-0.541,1.953-0.769c0.569-0.456,0.96-1.151,1.172-2.087
		c0.211-0.936,0.317-2.535,0.317-4.797v-17.065c0-0.749-0.13-1.497-0.391-2.246c-0.261-0.749-0.61-1.326-1.05-1.733
		c-0.586-0.537-1.379-0.997-2.38-1.379s-1.811-0.59-2.429-0.623v-1.733h9.897l19.473,26.411v-16.476c0-2.018-0.13-3.568-0.391-4.65
		s-0.635-1.802-1.123-2.16c-0.456-0.309-1.201-0.61-2.234-0.903c-1.034-0.293-1.819-0.456-2.356-0.488v-1.733h14.087v1.73
		L159.617,464.093L159.617,464.093z"/>
	<path fill="#58595B" d="M183.176,491.339c-1.009,1.921-2.36,3.451-4.053,4.59s-3.638,1.709-5.835,1.709
		c-1.937,0-3.634-0.342-5.09-1.025c-1.457-0.684-2.657-1.611-3.601-2.783s-1.648-2.539-2.112-4.102s-0.696-3.214-0.696-4.956
		c0-1.562,0.248-3.096,0.745-4.602c0.496-1.505,1.225-2.86,2.185-4.065c0.928-1.155,2.079-2.087,3.455-2.795
		c1.375-0.708,2.917-1.062,4.626-1.062c1.758,0,3.263,0.277,4.517,0.83c1.253,0.554,2.271,1.311,3.052,2.271
		c0.749,0.912,1.306,1.986,1.672,3.223s0.549,2.58,0.549,4.028v1.611h-15.942c0,1.583,0.15,3.018,0.452,4.307
		c0.301,1.289,0.777,2.422,1.428,3.401c0.635,0.946,1.465,1.692,2.49,2.239c1.025,0.547,2.246,0.82,3.662,0.82
		c1.448,0,2.698-0.339,3.748-1.019c1.05-0.68,2.063-1.902,3.04-3.669L183.176,491.339z M177.781,482.159
		c0-0.909-0.078-1.882-0.232-2.92c-0.155-1.039-0.403-1.907-0.745-2.605c-0.375-0.746-0.887-1.354-1.538-1.825
		s-1.489-0.706-2.515-0.706c-1.709,0-3.129,0.71-4.26,2.13s-1.746,3.396-1.843,5.927L177.781,482.159L177.781,482.159z"/>
	<path fill="#58595B" d="M221.824,474.493c-0.684,0.065-1.42,0.35-2.209,0.854c-0.79,0.505-1.363,1.262-1.721,2.271
		c-0.814,2.393-1.583,4.659-2.307,6.799c-0.725,2.141-1.534,4.545-2.429,7.214c-0.293,0.847-0.59,1.758-0.891,2.734
		c-0.301,0.977-0.574,1.913-0.818,2.808h-2.083l-6.494-17.743l-6.506,17.744h-2.007c-1.221-3.613-2.413-7.198-3.577-10.754
		s-2.193-6.653-3.088-9.29c-0.261-0.765-0.757-1.367-1.489-1.807s-1.44-0.7-2.124-0.781v-1.611h10.737v1.709
		c-0.537,0.017-1.119,0.106-1.746,0.269c-0.627,0.163-0.94,0.432-0.94,0.806c0,0.065,0.028,0.204,0.085,0.415
		c0.057,0.212,0.126,0.439,0.208,0.684c0.521,1.706,1.11,3.611,1.769,5.714c0.659,2.104,1.509,4.837,2.55,8.2l6.139-17.307h2.366
		l6.271,17.065c0.701-2.177,1.397-4.285,2.09-6.323c0.692-2.039,1.299-3.952,1.821-5.738c0.114-0.422,0.224-0.809,0.33-1.159
		c0.105-0.35,0.159-0.696,0.159-1.038c0-0.293-0.13-0.553-0.391-0.781s-0.578-0.415-0.952-0.562c-0.326-0.13-0.68-0.228-1.062-0.293
		c-0.383-0.065-0.664-0.098-0.842-0.098v-1.562h9.153v1.561H221.824z"/>
	<path fill="#58595B" d="M112.351,547.003h-9.329c-2.065-3.239-3.931-6.038-5.598-8.398s-3.476-4.793-5.426-7.3H88.45v10.986
		c0,0.57,0.089,1.07,0.269,1.501c0.179,0.432,0.562,0.761,1.147,0.989c0.293,0.114,0.806,0.22,1.538,0.317s1.351,0.155,1.855,0.171
		v1.733H78.611v-1.733c0.391-0.032,0.956-0.089,1.697-0.171c0.74-0.081,1.257-0.187,1.55-0.317c0.488-0.211,0.842-0.521,1.062-0.928
		c0.22-0.407,0.33-0.928,0.33-1.562v-25.049c0-0.569-0.082-1.074-0.244-1.514c-0.163-0.439-0.545-0.773-1.147-1.001
		c-0.407-0.146-0.936-0.281-1.587-0.403s-1.205-0.199-1.66-0.232v-1.733h15.991c1.465,0,2.84,0.151,4.126,0.452
		c1.286,0.301,2.449,0.786,3.491,1.453c1.009,0.651,1.814,1.501,2.417,2.551c0.602,1.05,0.903,2.315,0.903,3.796
		c0,1.335-0.204,2.515-0.61,3.54c-0.407,1.025-1.009,1.913-1.807,2.661c-0.732,0.7-1.611,1.306-2.637,1.819
		s-2.157,0.948-3.394,1.306c1.709,2.263,3.129,4.167,4.26,5.713s2.519,3.426,4.163,5.64c0.716,0.977,1.363,1.697,1.941,2.161
		c0.578,0.464,1.151,0.842,1.721,1.135c0.423,0.212,0.952,0.375,1.587,0.488c0.635,0.114,1.164,0.179,1.587,0.195V547.003z
		 M99.509,521.186c0-2.096-0.603-3.758-1.807-4.984c-1.205-1.227-2.905-1.84-5.103-1.84h-4.15v14.844h3.198
		c2.246,0,4.118-0.719,5.615-2.157C98.76,525.61,99.509,523.656,99.509,521.186z"/>
	<path fill="#58595B" d="M134.446,541.339c-1.009,1.921-2.36,3.451-4.053,4.59c-1.693,1.139-3.638,1.709-5.835,1.709
		c-1.937,0-3.634-0.342-5.09-1.025c-1.457-0.684-2.657-1.611-3.601-2.783s-1.648-2.539-2.112-4.102s-0.696-3.214-0.696-4.956
		c0-1.562,0.248-3.096,0.745-4.602c0.496-1.505,1.225-2.86,2.185-4.065c0.928-1.155,2.079-2.087,3.455-2.795
		c1.375-0.708,2.917-1.062,4.626-1.062c1.758,0,3.263,0.277,4.517,0.83c1.253,0.554,2.271,1.311,3.052,2.271
		c0.749,0.912,1.306,1.986,1.672,3.223s0.549,2.58,0.549,4.028v1.611h-15.942c0,1.583,0.15,3.018,0.452,4.307
		c0.301,1.289,0.777,2.422,1.428,3.401c0.635,0.946,1.465,1.692,2.49,2.239c1.025,0.547,2.246,0.82,3.662,0.82
		c1.448,0,2.698-0.339,3.748-1.019s2.063-1.902,3.04-3.669L134.446,541.339z M129.05,532.159c0-0.909-0.078-1.882-0.232-2.92
		c-0.155-1.039-0.403-1.907-0.745-2.605c-0.375-0.746-0.887-1.354-1.538-1.825s-1.489-0.706-2.515-0.706
		c-1.709,0-3.129,0.71-4.26,2.13s-1.746,3.396-1.843,5.927L129.05,532.159L129.05,532.159z"/>
	<path fill="#58595B" d="M148.508,547.003h-11.743v-1.611c0.374-0.032,0.773-0.069,1.196-0.11s0.773-0.102,1.05-0.184
		c0.456-0.146,0.797-0.403,1.025-0.77c0.228-0.366,0.342-0.842,0.342-1.429v-27.901c0-0.586-0.126-1.136-0.378-1.649
		s-0.582-0.916-0.989-1.209c-0.293-0.195-0.83-0.375-1.611-0.538c-0.781-0.163-1.408-0.261-1.88-0.293v-1.562l9.058-0.537
		l0.342,0.366v33.032c0,0.57,0.105,1.038,0.317,1.404c0.211,0.366,0.553,0.647,1.025,0.842c0.358,0.163,0.712,0.285,1.062,0.366
		c0.35,0.082,0.745,0.139,1.184,0.171L148.508,547.003L148.508,547.003z"/>
	<path fill="#58595B" d="M172.922,541.339c-1.009,1.921-2.36,3.451-4.053,4.59c-1.693,1.139-3.638,1.709-5.835,1.709
		c-1.937,0-3.634-0.342-5.09-1.025c-1.457-0.684-2.657-1.611-3.601-2.783s-1.648-2.539-2.112-4.102s-0.696-3.214-0.696-4.956
		c0-1.562,0.248-3.096,0.745-4.602c0.496-1.505,1.225-2.86,2.185-4.065c0.928-1.155,2.079-2.087,3.455-2.795
		c1.375-0.708,2.917-1.062,4.626-1.062c1.758,0,3.263,0.277,4.517,0.83c1.253,0.554,2.271,1.311,3.052,2.271
		c0.749,0.912,1.306,1.986,1.672,3.223s0.549,2.58,0.549,4.028v1.611h-15.942c0,1.583,0.15,3.018,0.452,4.307
		c0.301,1.289,0.777,2.422,1.428,3.401c0.635,0.946,1.465,1.692,2.49,2.239c1.025,0.547,2.246,0.82,3.662,0.82
		c1.448,0,2.698-0.339,3.748-1.019s2.063-1.902,3.04-3.669L172.922,541.339z M167.527,532.159c0-0.909-0.078-1.882-0.232-2.92
		c-0.155-1.039-0.403-1.907-0.745-2.605c-0.375-0.746-0.887-1.354-1.538-1.825s-1.489-0.706-2.515-0.706
		c-1.709,0-3.129,0.71-4.26,2.13s-1.746,3.396-1.843,5.927L167.527,532.159L167.527,532.159z"/>
	<path fill="#58595B" d="M198.508,546.563c-0.765,0.277-1.437,0.5-2.014,0.671c-0.578,0.171-1.233,0.256-1.965,0.256
		c-1.27,0-2.283-0.297-3.04-0.891s-1.241-1.46-1.453-2.6h-0.146c-1.058,1.172-2.193,2.067-3.406,2.686
		c-1.213,0.618-2.673,0.928-4.382,0.928c-1.807,0-3.292-0.554-4.456-1.66c-1.164-1.106-1.746-2.555-1.746-4.346
		c0-0.928,0.13-1.758,0.391-2.49c0.26-0.732,0.651-1.392,1.172-1.978c0.407-0.488,0.944-0.923,1.611-1.306
		c0.667-0.382,1.294-0.688,1.88-0.916c0.732-0.276,2.217-0.789,4.456-1.538c2.238-0.749,3.748-1.334,4.529-1.758v-2.417
		c0-0.211-0.045-0.618-0.134-1.221c-0.09-0.602-0.281-1.172-0.574-1.709c-0.326-0.602-0.786-1.127-1.379-1.575
		c-0.594-0.447-1.437-0.671-2.527-0.671c-0.749,0-1.445,0.126-2.087,0.378c-0.643,0.252-1.095,0.517-1.355,0.793
		c0,0.326,0.077,0.806,0.232,1.44c0.154,0.635,0.232,1.221,0.232,1.758c0,0.57-0.256,1.091-0.769,1.562
		c-0.513,0.472-1.225,0.708-2.136,0.708c-0.814,0-1.412-0.289-1.794-0.867c-0.383-0.578-0.574-1.225-0.574-1.941
		c0-0.749,0.264-1.465,0.793-2.148c0.529-0.684,1.216-1.294,2.063-1.831c0.732-0.456,1.619-0.842,2.661-1.16
		c1.042-0.317,2.059-0.476,3.052-0.476c1.367,0,2.559,0.094,3.577,0.281c1.017,0.188,1.941,0.59,2.771,1.208
		c0.83,0.603,1.46,1.42,1.892,2.454c0.431,1.034,0.647,2.364,0.647,3.992c0,2.328-0.024,4.391-0.073,6.189
		c-0.049,1.799-0.073,3.764-0.073,5.896c0,0.635,0.11,1.14,0.33,1.514c0.22,0.375,0.557,0.692,1.013,0.952
		c0.244,0.146,0.63,0.228,1.16,0.244c0.529,0.017,1.07,0.024,1.624,0.024v1.565H198.508z M189.988,533.673
		c-1.384,0.408-2.596,0.808-3.638,1.199c-1.042,0.392-2.01,0.881-2.905,1.468c-0.814,0.555-1.457,1.211-1.929,1.97
		c-0.472,0.758-0.708,1.66-0.708,2.704c0,1.354,0.354,2.349,1.062,2.985s1.607,0.954,2.698,0.954c1.155,0,2.173-0.281,3.052-0.844
		c0.879-0.562,1.619-1.227,2.222-1.994L189.988,533.673z"/>
	<path fill="#58595B" d="M216.795,535.211c0.667,0.586,1.18,1.262,1.538,2.026c0.358,0.765,0.537,1.701,0.537,2.808
		c0,2.23-0.834,4.053-2.502,5.469s-3.829,2.124-6.482,2.124c-1.4,0-2.69-0.252-3.87-0.757c-1.18-0.504-2.022-0.968-2.527-1.392
		l-0.488,1.587h-1.831l-0.244-8.374h1.685c0.13,0.637,0.407,1.38,0.83,2.229s0.936,1.617,1.538,2.303
		c0.635,0.719,1.396,1.323,2.283,1.813c0.887,0.49,1.884,0.735,2.991,0.735c1.562,0,2.767-0.356,3.613-1.068
		c0.846-0.712,1.27-1.731,1.27-3.058c0-0.684-0.134-1.273-0.403-1.77c-0.269-0.496-0.664-0.932-1.184-1.306
		c-0.537-0.374-1.196-0.712-1.978-1.013c-0.781-0.301-1.652-0.598-2.612-0.891c-0.765-0.228-1.616-0.541-2.551-0.94
		c-0.936-0.398-1.738-0.867-2.405-1.404c-0.716-0.569-1.302-1.27-1.758-2.1c-0.456-0.83-0.684-1.807-0.684-2.93
		c0-1.969,0.732-3.638,2.197-5.005s3.426-2.051,5.884-2.051c0.944,0,1.908,0.122,2.893,0.366c0.984,0.244,1.786,0.537,2.405,0.879
		l0.562-1.27h1.758l0.366,7.739h-1.685c-0.342-1.732-1.079-3.142-2.209-4.229c-1.131-1.087-2.511-1.63-4.138-1.63
		c-1.335,0-2.385,0.336-3.149,1.008c-0.765,0.672-1.147,1.483-1.147,2.434c0,0.732,0.126,1.343,0.378,1.831s0.63,0.903,1.135,1.245
		c0.488,0.326,1.103,0.631,1.843,0.916c0.74,0.285,1.656,0.606,2.747,0.964c1.074,0.342,2.087,0.741,3.04,1.196
		C215.391,534.153,216.176,534.657,216.795,535.211z"/>
	<path fill="#58595B" d="M243.894,541.339c-1.009,1.921-2.36,3.451-4.053,4.59c-1.693,1.139-3.638,1.709-5.835,1.709
		c-1.937,0-3.634-0.342-5.09-1.025c-1.457-0.684-2.657-1.611-3.601-2.783s-1.648-2.539-2.112-4.102s-0.696-3.214-0.696-4.956
		c0-1.562,0.248-3.096,0.745-4.602c0.496-1.505,1.225-2.86,2.185-4.065c0.928-1.155,2.079-2.087,3.455-2.795
		c1.375-0.708,2.917-1.062,4.626-1.062c1.758,0,3.263,0.277,4.517,0.83c1.253,0.554,2.271,1.311,3.052,2.271
		c0.749,0.912,1.306,1.986,1.672,3.223s0.549,2.58,0.549,4.028v1.611h-15.942c0,1.583,0.15,3.018,0.452,4.307
		c0.301,1.289,0.777,2.422,1.428,3.401c0.635,0.946,1.465,1.692,2.49,2.239s2.246,0.82,3.662,0.82c1.448,0,2.698-0.339,3.748-1.019
		s2.063-1.902,3.04-3.669L243.894,541.339z M238.499,532.159c0-0.909-0.078-1.882-0.232-2.92c-0.155-1.039-0.403-1.907-0.745-2.605
		c-0.375-0.746-0.887-1.354-1.538-1.825s-1.489-0.706-2.515-0.706c-1.709,0-3.129,0.71-4.26,2.13s-1.746,3.396-1.843,5.927
		L238.499,532.159L238.499,532.159z"/>
	<path fill="#58595B" d="M262.571,535.211c0.667,0.586,1.18,1.262,1.538,2.026c0.358,0.765,0.537,1.701,0.537,2.808
		c0,2.23-0.834,4.053-2.502,5.469s-3.829,2.124-6.482,2.124c-1.4,0-2.69-0.252-3.87-0.757c-1.18-0.504-2.022-0.968-2.527-1.392
		l-0.488,1.587h-1.831l-0.244-8.374h1.685c0.13,0.637,0.407,1.38,0.83,2.229c0.423,0.849,0.936,1.617,1.538,2.303
		c0.635,0.719,1.396,1.323,2.283,1.813s1.884,0.735,2.991,0.735c1.562,0,2.767-0.356,3.613-1.068s1.27-1.731,1.27-3.058
		c0-0.684-0.134-1.273-0.403-1.77c-0.269-0.496-0.664-0.932-1.184-1.306c-0.537-0.374-1.196-0.712-1.978-1.013
		c-0.781-0.301-1.652-0.598-2.612-0.891c-0.765-0.228-1.616-0.541-2.551-0.94c-0.936-0.398-1.738-0.867-2.405-1.404
		c-0.716-0.569-1.302-1.27-1.758-2.1c-0.456-0.83-0.684-1.807-0.684-2.93c0-1.969,0.732-3.638,2.197-5.005s3.426-2.051,5.884-2.051
		c0.944,0,1.908,0.122,2.893,0.366c0.984,0.244,1.786,0.537,2.405,0.879l0.562-1.27h1.758l0.366,7.739h-1.685
		c-0.342-1.732-1.079-3.142-2.209-4.229c-1.131-1.087-2.511-1.63-4.138-1.63c-1.335,0-2.385,0.336-3.149,1.008
		c-0.765,0.672-1.147,1.483-1.147,2.434c0,0.732,0.126,1.343,0.378,1.831c0.252,0.488,0.63,0.903,1.135,1.245
		c0.488,0.326,1.103,0.631,1.843,0.916c0.74,0.285,1.656,0.606,2.747,0.964c1.074,0.342,2.087,0.741,3.04,1.196
		C261.167,534.153,261.952,534.657,262.571,535.211z"/>
</g>
<g>
	<path fill="#008A46" d="M245.627,137.166l4.536-24.235l-24.39-3.074c-5.964-0.771-11.061-4.476-13.634-9.911l-10.547-22.274
		l-21.531,11.859c-2.578,1.409-5.493,2.154-8.432,2.154s-5.854-0.745-8.432-2.154l-21.563-11.788L131.12,99.946
		c-2.574,5.435-7.671,9.14-13.635,9.911l-24.453,3.16l4.599,24.149c1.104,5.898-0.84,11.882-5.2,16.006l-17.917,16.944
		l17.916,16.835c4.36,4.124,6.305,10.108,5.2,16.007l-4.536,24.235l24.39,3.074c5.963,0.771,11.06,4.476,13.634,9.91l10.548,22.274
		l21.531-11.858c2.578-1.409,5.494-2.154,8.432-2.154c2.939,0,5.854,0.745,8.432,2.154l21.632,11.825l10.445-22.24
		c2.574-5.435,7.671-9.14,13.635-9.911l24.453-3.16l-4.599-24.149c-1.104-5.899,0.84-11.883,5.201-16.006l17.915-16.944
		l-17.915-16.835C246.467,149.049,244.523,143.065,245.627,137.166z M142.032,189.017h-5.146l-19.911-29.79v29.79h-4.81v-37.909
		h5.146l19.911,29.764v-29.764h4.81V189.017z M178.856,189.017h-28.29v-37.909h27.411v4.474h-22.394v11.611h20.972v4.448h-20.972
		v12.904h23.273V189.017L178.856,189.017z M220.695,189.017h-4.836l-7.99-28.885c-0.672-2.414-1.069-3.896-1.19-4.448
		c-0.397,1.741-0.767,3.224-1.112,4.448l-8.042,28.885h-5.12l-10.059-37.909h5.146l5.767,24.85c0.621,2.603,1.155,5.189,1.603,7.758
		c0.965-4.051,1.534-6.387,1.707-7.008l7.215-25.6h6.051l5.43,19.187c1.362,4.758,2.345,9.232,2.948,13.421
		c0.483-2.396,1.112-5.146,1.888-8.249l5.948-24.359h5.042L220.695,189.017z"/>
	<path fill="#008A46" d="M171.628,0C77.705,0,1.566,76.139,1.566,170.062s76.139,170.062,170.062,170.062
		S341.69,263.985,341.69,170.062S265.551,0,171.628,0z M274.808,176.421l-17.916,16.944c-2.161,2.044-3.136,5.046-2.589,7.969
		l4.536,24.236c0.925,4.942-2.495,9.646-7.481,10.291l-24.453,3.16c-2.955,0.382-5.513,2.241-6.789,4.934l-10.547,22.273
		c-1.503,3.173-4.653,5.009-7.919,5.009c-1.416,0-2.854-0.345-4.19-1.075l-21.632-11.825c-1.308-0.715-2.753-1.073-4.198-1.073
		c-1.445,0-2.89,0.358-4.198,1.073l-21.633,11.825c-1.335,0.73-2.774,1.075-4.189,1.075c-3.267,0-6.417-1.835-7.919-5.009
		l-10.548-22.274c-1.275-2.693-3.833-4.552-6.789-4.935l-24.453-3.161c-4.987-0.645-8.406-5.348-7.481-10.291l4.536-24.235
		c0.547-2.924-0.428-5.926-2.589-7.97l-17.919-16.941c-3.651-3.453-3.651-9.265,0-12.719l17.916-16.944
		c2.161-2.044,3.136-5.046,2.589-7.969l-4.536-24.236c-0.925-4.942,2.495-9.646,7.482-10.291l24.453-3.16
		c2.956-0.382,5.513-2.241,6.789-4.934l10.547-22.273c1.503-3.173,4.653-5.009,7.92-5.009c1.416,0,2.854,0.345,4.189,1.075
		l21.632,11.825c1.308,0.715,2.753,1.073,4.198,1.073s2.89-0.357,4.198-1.073l21.633-11.825c1.335-0.73,2.774-1.075,4.189-1.075
		c3.267,0,6.417,1.835,7.919,5.009l10.548,22.274c1.275,2.693,3.833,4.552,6.789,4.934l24.453,3.161
		c4.987,0.645,8.406,5.349,7.481,10.291l-4.536,24.235c-0.547,2.924,0.428,5.926,2.589,7.97l17.915,16.943
		C278.459,167.156,278.459,172.968,274.808,176.421z"/>
</g>
</svg>
