<?xml version="1.0" encoding="utf-8"?>
<!-- Generator: Adobe Illustrator 26.0.1, SVG Export Plug-In . SVG Version: 6.00 Build 0)  -->
<svg version="1.1" id="Layer_1" xmlns="http://www.w3.org/2000/svg" xmlns:xlink="http://www.w3.org/1999/xlink" x="0px" y="0px"
	 viewBox="0 0 343 570" enable-background="new 0 0 343 570" xml:space="preserve">
<g>
	<g>
		<path fill="#58595B" d="M134.329,490.62c-0.456,0.017-1.156,0.146-2.1,0.391c-0.944,0.244-1.62,0.497-2.026,0.757
			c-0.586,0.407-0.981,1.188-1.184,2.344c-0.204,1.156-0.305,2.621-0.305,4.395v25.366h-2.124l-20.996-28.345v17.871
			c0,2.002,0.126,3.54,0.378,4.614c0.252,1.074,0.639,1.839,1.16,2.295c0.374,0.358,1.147,0.692,2.319,1.001
			c1.172,0.31,1.945,0.472,2.319,0.488v1.733H97.561v-1.733c0.439-0.032,1.18-0.191,2.222-0.476
			c1.042-0.285,1.692-0.541,1.953-0.769c0.569-0.456,0.96-1.151,1.172-2.087c0.211-0.936,0.317-2.535,0.317-4.797v-17.065
			c0-0.749-0.13-1.497-0.391-2.246s-0.61-1.326-1.05-1.733c-0.586-0.537-1.379-0.997-2.38-1.379s-1.811-0.59-2.429-0.623v-1.733
			h9.897l19.473,26.411v-16.476c0-2.018-0.13-3.568-0.391-4.65s-0.635-1.802-1.123-2.16c-0.456-0.309-1.201-0.61-2.234-0.903
			c-1.034-0.293-1.819-0.456-2.356-0.488v-1.733h14.087L134.329,490.62L134.329,490.62z"/>
		<path fill="#58595B" d="M159.989,511.25c0,1.693-0.269,3.357-0.807,4.993s-1.303,3.023-2.297,4.163
			c-1.125,1.302-2.428,2.271-3.911,2.905c-1.483,0.635-3.145,0.952-4.986,0.952c-1.531,0-2.99-0.289-4.375-0.867
			s-2.615-1.42-3.69-2.527c-1.059-1.09-1.902-2.421-2.529-3.992c-0.627-1.57-0.941-3.333-0.941-5.286
			c0-3.76,1.096-6.836,3.287-9.229s5.063-3.589,8.615-3.589c3.373,0,6.155,1.135,8.346,3.406
			C158.892,504.451,159.989,507.474,159.989,511.25z M154.935,511.299c0-1.221-0.123-2.51-0.367-3.87
			c-0.244-1.359-0.611-2.51-1.1-3.455c-0.522-1.009-1.207-1.819-2.055-2.429c-0.848-0.61-1.883-0.916-3.106-0.916
			c-1.256,0-2.328,0.31-3.216,0.928c-0.889,0.619-1.61,1.465-2.165,2.539c-0.521,0.993-0.889,2.124-1.101,3.394
			c-0.212,1.27-0.318,2.499-0.318,3.687c0,1.562,0.126,3.007,0.379,4.333c0.252,1.327,0.656,2.511,1.21,3.552
			c0.554,1.042,1.251,1.86,2.091,2.454s1.879,0.891,3.118,0.891c2.038,0,3.652-0.984,4.843-2.954
			C154.339,517.484,154.935,514.766,154.935,511.299z"/>
		<path fill="#58595B" d="M187.235,500.947c-0.732,0.13-1.428,0.395-2.087,0.793c-0.659,0.399-1.225,1.103-1.697,2.112
			c-0.96,2.181-1.953,4.456-2.979,6.824s-2.092,4.854-3.198,7.458c-0.326,0.749-0.671,1.636-1.038,2.661s-0.704,2.01-1.013,2.954
			h-1.904c-1.546-3.825-2.971-7.312-4.272-10.461c-1.302-3.149-2.653-6.376-4.053-9.68c-0.326-0.749-0.851-1.331-1.575-1.746
			c-0.725-0.415-1.453-0.679-2.185-0.793v-1.611h11.141v1.709c-0.488,0.017-1.099,0.118-1.831,0.305s-1.099,0.443-1.099,0.768
			c0,0.049,0.04,0.175,0.122,0.378c0.082,0.204,0.163,0.435,0.244,0.695c0.666,1.659,1.607,3.975,2.824,6.951
			c1.217,2.976,2.207,5.374,2.97,7.195c0.586-1.398,1.322-3.137,2.209-5.219s1.844-4.406,2.869-6.975
			c0.163-0.439,0.317-0.849,0.464-1.231s0.22-0.768,0.22-1.159c0-0.276-0.134-0.524-0.403-0.744
			c-0.269-0.219-0.59-0.411-0.964-0.573c-0.375-0.162-0.741-0.284-1.099-0.365s-0.651-0.138-0.879-0.171v-1.562h9.212
			L187.235,500.947L187.235,500.947z"/>
		<path fill="#58595B" d="M209.671,517.866c-1.009,1.921-2.36,3.451-4.053,4.59c-1.693,1.139-3.638,1.709-5.835,1.709
			c-1.937,0-3.634-0.342-5.09-1.025c-1.457-0.684-2.657-1.611-3.601-2.783s-1.648-2.539-2.112-4.102s-0.696-3.214-0.696-4.956
			c0-1.562,0.248-3.096,0.745-4.602c0.496-1.505,1.225-2.86,2.185-4.065c0.928-1.155,2.079-2.087,3.455-2.795
			c1.375-0.708,2.917-1.062,4.626-1.062c1.758,0,3.263,0.277,4.517,0.83c1.253,0.554,2.271,1.311,3.052,2.271
			c0.749,0.912,1.306,1.986,1.672,3.223s0.549,2.58,0.549,4.028v1.611h-15.942c0,1.583,0.15,3.018,0.452,4.307
			c0.301,1.289,0.777,2.422,1.428,3.401c0.635,0.946,1.465,1.692,2.49,2.239c1.025,0.547,2.246,0.82,3.662,0.82
			c1.448,0,2.698-0.339,3.748-1.019s2.063-1.902,3.04-3.669L209.671,517.866z M204.276,508.687c0-0.909-0.078-1.882-0.232-2.92
			c-0.155-1.039-0.403-1.907-0.745-2.605c-0.375-0.746-0.887-1.354-1.538-1.825s-1.489-0.706-2.515-0.706
			c-1.709,0-3.129,0.71-4.26,2.13s-1.746,3.396-1.843,5.927L204.276,508.687L204.276,508.687z"/>
		<path fill="#58595B" d="M223.734,523.53h-11.743v-1.611c0.374-0.032,0.773-0.069,1.196-0.11s0.773-0.102,1.05-0.184
			c0.456-0.146,0.797-0.403,1.025-0.77c0.228-0.366,0.342-0.842,0.342-1.429v-27.901c0-0.586-0.126-1.136-0.378-1.649
			s-0.582-0.916-0.989-1.209c-0.293-0.195-0.83-0.375-1.611-0.538c-0.781-0.163-1.408-0.261-1.88-0.293v-1.562l9.058-0.537
			l0.342,0.366v33.032c0,0.57,0.105,1.038,0.317,1.404c0.211,0.366,0.553,0.647,1.025,0.842c0.358,0.163,0.712,0.285,1.062,0.366
			c0.35,0.082,0.745,0.139,1.184,0.171L223.734,523.53L223.734,523.53z"/>
		<path fill="#58595B" d="M242.655,511.738c0.667,0.586,1.18,1.262,1.538,2.026c0.358,0.765,0.537,1.701,0.537,2.808
			c0,2.23-0.834,4.053-2.502,5.469s-3.829,2.124-6.482,2.124c-1.4,0-2.69-0.252-3.87-0.757c-1.18-0.504-2.022-0.968-2.527-1.392
			l-0.488,1.587h-1.831l-0.244-8.374h1.685c0.13,0.637,0.407,1.38,0.83,2.229c0.423,0.849,0.936,1.617,1.538,2.303
			c0.635,0.719,1.396,1.323,2.283,1.813s1.884,0.735,2.991,0.735c1.562,0,2.767-0.356,3.613-1.068s1.27-1.731,1.27-3.058
			c0-0.684-0.134-1.273-0.403-1.77c-0.269-0.496-0.664-0.932-1.184-1.306c-0.537-0.374-1.196-0.712-1.978-1.013
			c-0.781-0.301-1.652-0.598-2.612-0.891c-0.765-0.228-1.616-0.541-2.551-0.94c-0.936-0.398-1.738-0.867-2.405-1.404
			c-0.716-0.569-1.302-1.27-1.758-2.1c-0.456-0.83-0.684-1.807-0.684-2.93c0-1.969,0.732-3.638,2.197-5.005s3.426-2.051,5.884-2.051
			c0.944,0,1.908,0.122,2.893,0.366c0.984,0.244,1.786,0.537,2.405,0.879l0.562-1.27h1.758l0.366,7.739H241.8
			c-0.342-1.732-1.079-3.142-2.209-4.229c-1.131-1.087-2.511-1.63-4.138-1.63c-1.335,0-2.385,0.336-3.149,1.008
			c-0.765,0.672-1.147,1.483-1.147,2.434c0,0.732,0.126,1.343,0.378,1.831c0.252,0.488,0.63,0.903,1.135,1.245
			c0.488,0.326,1.103,0.631,1.843,0.916c0.74,0.285,1.656,0.606,2.747,0.964c1.074,0.342,2.087,0.741,3.04,1.196
			C241.251,510.681,242.036,511.185,242.655,511.738z"/>
	</g>
	<g>
		<path fill="#008A46" d="M123.595,90.151H86.623c-1.1,0-1.761,1.1-1.761,2.421v13.424h40.713V92.572
			C125.576,91.251,124.695,90.151,123.595,90.151z"/>
		<path fill="#008A46" d="M139.88,251.682c0,1.32,0.88,2.421,1.981,2.421h36.972c0.88,0,1.761-1.1,1.761-2.421v-13.424H139.88
			V251.682z"/>
		<rect x="139.88" y="224.174" fill="#008A46" width="40.713" height="9.683"/>
		<path fill="#008A46" d="M84.863,251.682c0,1.32,0.66,2.421,1.761,2.421h36.972c1.1,0,1.981-1.1,1.981-2.421v-13.204H84.864v13.204
			H84.863z"/>
		<rect x="84.863" y="224.394" fill="#008A46" width="40.713" height="9.683"/>
		<rect x="139.88" y="124.482" fill="#008A46" width="40.713" height="95.29"/>
		<rect x="84.863" y="110.397" fill="#008A46" width="40.713" height="9.683"/>
		<rect x="84.863" y="124.482" fill="#008A46" width="40.713" height="95.51"/>
		<path fill="#008A46" d="M228.348,88.39c0-0.66-0.44-1.32-0.88-1.76c-0.22-0.22-0.66-0.44-1.1-0.44h-0.22l-36.312,6.822
			c-1.1,0.22-1.761,1.32-1.54,3.081l2.421,13.204l40.053-7.703L228.348,88.39z"/>
		<rect x="139.88" y="110.397" fill="#008A46" width="40.713" height="9.683"/>
		<path fill="#008A46" d="M215.804,239.138l2.421,12.984c0.44,1.32,1.32,2.201,2.421,1.981l36.312-6.822
			c0.66-0.22,0.88-0.66,1.1-0.88c0.22-0.66,0.22-1.32,0.22-1.981l-2.421-12.984L215.804,239.138z"/>
		
			<rect x="208.494" y="167.38" transform="matrix(0.982 -0.1888 0.1888 0.982 -33.5357 46.8013)" fill="#008A46" width="40.786" height="64.092"/>
		<path fill="#008A46" d="M171.5,0C77.577,0,1.438,76.139,1.438,170.062S77.577,340.124,171.5,340.124
			s170.062-76.139,170.062-170.062S265.423,0,171.5,0z M129.977,251.682c0,3.741-2.861,6.822-6.382,6.822H86.623
			c-3.521,0-6.382-3.081-6.382-6.822V92.572c0-3.741,2.861-6.822,6.382-6.822h36.972c3.521,0,6.382,3.081,6.382,6.822V251.682z
			 M261.799,248.821c-0.88,1.541-2.201,2.641-3.961,2.861l-36.312,6.822c-0.44,0-0.66,0-1.1,0c-3.081,0-5.722-2.421-6.382-5.722
			l-28.829-151.188v149.868c0,3.741-2.861,6.822-6.382,6.822h-36.972c-3.521,0-6.382-3.081-6.382-6.822V92.352
			c0-3.741,2.861-6.822,6.382-6.822h36.972c3.081,0,5.722,2.641,6.162,5.942c0.88-1.541,2.201-2.641,3.961-2.861l36.312-6.822
			c1.761-0.44,3.521,0,4.842,1.1s2.201,2.641,2.641,4.401l29.93,156.47C262.899,245.52,262.679,247.281,261.799,248.821z"/>
		<polygon fill="#008A46" points="234.51,119.42 194.458,127.123 202.16,167.396 242.213,159.693 		"/>
		<polygon fill="#008A46" points="231.869,105.556 191.817,113.258 193.577,122.721 233.63,115.019 		"/>
		<path fill="#008A46" d="M178.833,90.151h-36.972c-1.1,0-1.981,1.1-1.981,2.421v13.424h40.933V92.572
			C180.813,91.251,179.933,90.151,178.833,90.151z"/>
	</g>
</g>
</svg>
