<?xml version="1.0" encoding="utf-8"?>
<!-- Generator: Adobe Illustrator 26.0.1, SVG Export Plug-In . SVG Version: 6.00 Build 0)  -->
<svg version="1.1" id="Layer_1" xmlns="http://www.w3.org/2000/svg" xmlns:xlink="http://www.w3.org/1999/xlink" x="0px" y="0px"
	 viewBox="0 0 343 570" enable-background="new 0 0 343 570" xml:space="preserve">
<g>
	<path fill="#58595B" d="M166.044,506.465c0.732,0.814,1.273,1.705,1.624,2.673c0.35,0.969,0.525,2.096,0.525,3.381
		c0,3.06-1.131,5.583-3.394,7.568c-2.263,1.986-5.07,2.979-8.423,2.979c-1.546,0-3.093-0.24-4.639-0.72s-2.881-1.062-4.004-1.746
		l-1.05,1.782h-1.953l-0.342-11.865h1.978c0.407,1.465,0.883,2.788,1.428,3.967c0.545,1.18,1.265,2.283,2.161,3.308
		c0.846,0.96,1.835,1.726,2.966,2.295c1.131,0.57,2.445,0.854,3.943,0.854c1.123,0,2.104-0.146,2.942-0.44
		c0.838-0.293,1.518-0.709,2.039-1.247s0.907-1.169,1.16-1.895c0.252-0.725,0.378-1.561,0.378-2.506
		c0-1.385-0.391-2.677-1.172-3.875s-1.945-2.106-3.491-2.726c-1.058-0.421-2.271-0.887-3.638-1.398
		c-1.367-0.51-2.547-0.993-3.54-1.447c-1.953-0.878-3.471-2.03-4.553-3.454c-1.083-1.423-1.624-3.283-1.624-5.577
		c0-1.318,0.269-2.546,0.806-3.686s1.302-2.156,2.295-3.051c0.944-0.846,2.059-1.509,3.345-1.989s2.628-0.72,4.028-0.72
		c1.595,0,3.023,0.244,4.285,0.732c1.261,0.488,2.413,1.058,3.455,1.709l1.001-1.66h1.953l0.195,11.499h-1.978
		c-0.358-1.318-0.761-2.58-1.208-3.784c-0.448-1.204-1.03-2.295-1.746-3.271c-0.7-0.944-1.555-1.697-2.563-2.258
		c-1.009-0.562-2.246-0.842-3.711-0.842c-1.546,0-2.865,0.497-3.955,1.489c-1.091,0.993-1.636,2.206-1.636,3.638
		c0,1.498,0.35,2.739,1.05,3.723c0.7,0.985,1.717,1.794,3.052,2.429c1.188,0.57,2.356,1.062,3.503,1.477s2.258,0.859,3.333,1.331
		c0.977,0.423,1.917,0.903,2.82,1.44S165.377,505.749,166.044,506.465z"/>
	<path fill="#58595B" d="M199.418,496.382h-1.831c-0.342-1.286-1.054-2.661-2.136-4.126c-1.083-1.465-2.12-2.271-3.113-2.417
		c-0.505-0.065-1.103-0.114-1.794-0.146c-0.692-0.032-1.477-0.049-2.356-0.049h-5.811v13.916h3.989c1.207,0,2.145-0.126,2.814-0.378
		c0.669-0.252,1.24-0.639,1.713-1.16c0.326-0.358,0.624-0.916,0.893-1.672c0.269-0.757,0.445-1.566,0.526-2.429h1.831v13.623h-1.831
		c-0.049-0.716-0.216-1.53-0.501-2.441c-0.286-0.911-0.592-1.57-0.918-1.978c-0.49-0.602-1.105-1.013-1.848-1.233
		c-0.743-0.22-1.636-0.33-2.68-0.33h-3.989v11.919c0,0.537,0.105,1.016,0.317,1.438c0.211,0.423,0.586,0.764,1.123,1.023
		c0.244,0.114,0.773,0.252,1.587,0.415c0.813,0.163,1.432,0.252,1.855,0.268v1.733h-15.015v-1.733
		c0.488-0.032,1.139-0.085,1.953-0.159c0.813-0.073,1.343-0.167,1.587-0.281c0.488-0.211,0.842-0.525,1.062-0.94
		s0.33-0.916,0.33-1.501v-25c0-0.537-0.09-1.013-0.269-1.428s-0.554-0.752-1.123-1.013c-0.439-0.211-1.03-0.398-1.77-0.562
		c-0.741-0.163-1.331-0.26-1.77-0.293v-1.733h27.173v8.667H199.418z"/>
</g>
<g>
	<path fill="#008A46" d="M164.105,162.265c22.279-22.279,29.44-34.333,31.641-39.024c-18.833-16.485-46.674-14.735-66.038,4.629
		c-19.362,19.362-21.112,47.2-4.627,66.034C129.772,191.703,141.826,184.544,164.105,162.265z M179.419,121.038
		c2.51,0,4.545,2.035,4.545,4.545c0,2.51-2.035,4.545-4.545,4.545s-4.545-2.035-4.545-4.545
		C174.873,123.073,176.908,121.038,179.419,121.038z M138.371,127.795c0.549-0.458,13.609-11.217,27.732-8.751
		c2.395,0.419,3.999,2.703,3.58,5.1c-0.161,0.928-0.602,1.734-1.221,2.353c-0.983,0.983-2.408,1.485-3.878,1.229
		c-10.056-1.756-20.466,6.749-20.572,6.837c-1.871,1.549-4.642,1.296-6.198-0.573S136.488,129.355,138.371,127.795z"/>
	<path fill="#008A46" d="M226.422,107.232c-5.026-5.026-15.275-3.144-28.717,4.473c2.679,1.888,5.253,4.03,7.676,6.453
		c1.133,1.13,1.672,2.725,1.465,4.31c-0.289,2.234-3.371,14.995-35.455,47.081c-32.088,32.088-44.852,35.164-47.083,35.455
		c-1.586,0.207-3.177-0.333-4.307-1.465c-2.424-2.421-4.565-4.995-6.456-7.676c-7.617,13.442-9.498,23.694-4.473,28.717
		c9.923,9.926,40.17-6.989,75.265-42.082C219.434,147.402,236.346,117.156,226.422,107.232z"/>
	<path fill="#008A46" d="M171.902,0C77.979,0,1.84,76.139,1.84,170.062s76.139,170.062,170.062,170.062
		s170.062-76.139,170.062-170.062S265.826,0,171.902,0z M101.788,231.866c-10.928-10.928-5.026-28.777,6.013-46.304
		c-8.965-21.114-3.997-46.359,14.623-64.978c18.62-18.62,43.865-23.588,64.981-14.623c17.527-11.038,35.373-16.941,46.304-6.013
		c21.546,21.546-22.255,70.002-42.087,89.833S123.337,253.411,101.788,231.866z M190.126,244.374c-2.15,2.15-5.636,2.15-7.789,0
		l-15.579-15.579c-2.153-2.15-2.153-5.638,0-7.791c2.153-2.148,5.638-2.148,7.791,0l15.577,15.579
		C192.279,238.733,192.279,242.221,190.126,244.374z M224.402,222.562c-2.15,2.153-5.638,2.153-7.791,0l-15.577-15.577
		c-2.153-2.15-2.153-5.638,0-7.791c2.15-2.153,5.638-2.153,7.789,0l15.579,15.579C226.555,216.923,226.552,220.409,224.402,222.562z
		 M246.212,188.288c-2.15,2.152-5.636,2.152-7.789,0l-15.579-15.577c-2.153-2.15-2.153-5.638,0-7.791s5.64-2.153,7.791,0
		l15.577,15.579C248.365,182.65,248.365,186.137,246.212,188.288z"/>
</g>
</svg>
